<?xml version="1.0" standalone="no"?>
<!DOCTYPE svg PUBLIC "-//W3C//DTD SVG 1.1//EN" "http://www.w3.org/Graphics/SVG/1.1/DTD/svg11.dtd" >
<svg xmlns="http://www.w3.org/2000/svg" xmlns:xlink="http://www.w3.org/1999/xlink" version="1.1">
<metadata>
Created by FontForge 20201107 at Wed Aug 31 12:51:25 2011
 By Jimmy Wärting
Copyright (c) 2011 by The Entente (AS&#38;EH). All rights reserved.
</metadata>
<defs>
<font id="Relative-Medium" horiz-adv-x="620" >
  <font-face 
    font-family="Relative"
    font-weight="500"
    font-stretch="normal"
    units-per-em="1000"
    panose-1="2 0 8 6 3 0 0 2 0 4"
    ascent="800"
    descent="-200"
    x-height="502"
    cap-height="700"
    bbox="-76 -258 1232 1006"
    underline-thickness="50"
    underline-position="-100"
    stemh="94"
    stemv="104"
    unicode-range="U+0020-FB02"
  />
<missing-glyph horiz-adv-x="631" 
d="M553 690v-680c0 -7 -3 -10 -10 -10h-455c-7 0 -10 3 -10 10v680c0 7 3 10 10 10h455c7 0 10 -3 10 -10zM449 600h-267v-500h267v500z" />
    <glyph glyph-name=".notdef" horiz-adv-x="631" 
d="M553 690v-680c0 -7 -3 -10 -10 -10h-455c-7 0 -10 3 -10 10v680c0 7 3 10 10 10h455c7 0 10 -3 10 -10zM449 600h-267v-500h267v500z" />
    <glyph glyph-name=".null" horiz-adv-x="0" 
 />
    <glyph glyph-name="CR" horiz-adv-x="0" 
 />
    <glyph glyph-name="space" unicode=" " horiz-adv-x="255" 
 />
    <glyph glyph-name="numbersign" unicode="#" horiz-adv-x="777" 
d="M401 10l32 188h-143l-32 -188c-1 -7 -4 -10 -11 -10h-84c-7 0 -9 3 -9 10l32 188h-112c-7 0 -10 3 -10 10v80c0 7 3 10 10 10h129l18 104h-107c-7 0 -10 3 -10 10v80c0 7 3 10 10 10h124l33 188c1 7 4 10 11 10h84c7 0 9 -3 9 -10l-33 -188h143l33 188c1 7 4 10 11 10h84
c7 0 9 -3 9 -10l-33 -188h113c7 0 10 -3 10 -10v-80c0 -7 -3 -10 -10 -10h-130l-18 -104h108c7 0 10 -3 10 -10v-80c0 -7 -3 -10 -10 -10h-125l-32 -188c-1 -7 -4 -10 -11 -10h-84c-7 0 -9 3 -9 10zM325 402l-18 -104h143l18 104h-143z" />
    <glyph glyph-name="dollar" unicode="$" horiz-adv-x="590" 
d="M47 517c0 112 88 177 197 190v83c0 7 3 10 10 10h78c7 0 10 -3 10 -10v-85c121 -19 190 -104 192 -196c0 -7 -3 -10 -10 -10h-84c-7 0 -9 3 -10 10c-5 48 -40 83 -88 96v-206c114 -35 215 -85 215 -191c0 -128 -85 -201 -215 -215v-83c0 -7 -3 -10 -10 -10h-78
c-7 0 -10 3 -10 10v84c-125 19 -215 110 -215 224c0 7 3 10 10 10h84c7 0 10 -3 10 -10c4 -66 44 -110 111 -124v229c-121 35 -197 87 -197 194zM453 202c0 42 -46 71 -111 93v-202c73 10 111 45 111 109zM151 522c0 -48 37 -74 93 -95v180c-56 -9 -93 -38 -93 -85z" />
    <glyph glyph-name="percent" unicode="%" horiz-adv-x="886" 
d="M406 521c0 -115 -86 -179 -176 -179s-176 64 -176 179s86 179 176 179s176 -64 176 -179zM325 521c0 72 -49 102 -95 102s-95 -30 -95 -102s49 -102 95 -102s95 30 95 102zM832 179c0 -115 -86 -179 -176 -179s-176 64 -176 179s86 179 176 179s176 -64 176 -179z
M751 179c0 72 -49 102 -95 102s-95 -30 -95 -102s49 -102 95 -102s95 30 95 102zM137 50l559 647c4 5 10 4 14 0l37 -33c5 -5 6 -9 2 -14l-559 -647c-4 -5 -10 -4 -14 0l-37 33c-5 5 -6 9 -2 14z" />
    <glyph glyph-name="ampersand" unicode="&#x26;" horiz-adv-x="678" 
d="M545 271c-6 -52 -19 -99 -38 -137l85 -118c1 -2 3 -4 3 -9s-3 -7 -8 -7h-95c-5 0 -9 3 -13 9l-32 45c-47 -42 -108 -64 -180 -64c-128 0 -215 78 -215 204c0 104 69 171 139 213c-28 41 -53 86 -53 139c0 93 66 164 173 164c105 0 172 -67 172 -148
c0 -80 -38 -123 -100 -157l-52 -28l109 -151c9 36 14 79 14 130c0 7 5 9 10 9h162c7 0 10 -3 10 -10v-74c0 -7 -3 -10 -10 -10h-81zM270 84c50 0 91 16 121 47l-145 200c-59 -36 -90 -79 -90 -137c0 -65 43 -110 114 -110zM236 547c0 -29 9 -52 37 -90l6 -8l49 25
c38 20 57 45 57 78c0 38 -32 64 -76 64c-39 0 -73 -24 -73 -69z" />
    <glyph glyph-name="quotesingle" unicode="'" horiz-adv-x="226" 
d="M64 474v216c0 7 3 10 10 10h78c7 0 10 -3 10 -10v-216c0 -7 -3 -10 -10 -10h-78c-7 0 -10 3 -10 10z" />
    <glyph glyph-name="parenleft" unicode="(" horiz-adv-x="357" 
d="M185 307v-111c0 -183 22 -217 143 -322c4 -4 4 -5 4 -7s-1 -5 -3 -7l-52 -61c-3 -3 -4 -4 -7 -4c-2 0 -5 1 -7 3c-142 115 -182 190 -182 368v171c0 178 40 253 182 368c2 2 5 3 7 3c3 0 4 -1 7 -4l52 -61c2 -2 3 -5 3 -7s0 -3 -4 -7c-121 -105 -143 -139 -143 -322z" />
    <glyph glyph-name="parenright" unicode=")" horiz-adv-x="362" 
d="M177 196v111c0 183 -22 217 -143 322c-4 4 -4 5 -4 7s1 5 3 7l52 61c3 3 4 4 7 4c2 0 5 -1 7 -3c142 -115 182 -190 182 -368v-171c0 -178 -40 -253 -182 -368c-2 -2 -5 -3 -7 -3c-3 0 -4 1 -7 4l-52 61c-2 2 -3 5 -3 7s0 3 4 7c121 105 143 139 143 322z" />
    <glyph glyph-name="asterisk" unicode="*" horiz-adv-x="471" 
d="M53 543l21 66c2 7 6 9 13 7l103 -34v108c0 7 3 10 10 10h70c7 0 10 -3 10 -10v-108l103 34c7 2 11 0 13 -7l21 -66c3 -7 1 -11 -6 -13l-103 -34l64 -87c4 -6 3 -10 -3 -14l-56 -41c-6 -5 -10 -4 -14 2l-64 87l-64 -87c-4 -6 -8 -7 -14 -2l-56 41c-6 4 -7 8 -3 14l64 87
l-103 34c-7 2 -9 6 -6 13z" />
    <glyph glyph-name="plus" unicode="+" horiz-adv-x="572" 
d="M335 559v-168h168c7 0 10 -3 10 -10v-78c0 -7 -3 -10 -10 -10h-168v-168c0 -7 -3 -10 -10 -10h-78c-7 0 -10 3 -10 10v168h-168c-7 0 -10 3 -10 10v78c0 7 3 10 10 10h168v168c0 7 3 10 10 10h78c7 0 10 -3 10 -10z" />
    <glyph glyph-name="comma" unicode="," horiz-adv-x="290" 
d="M100 -54c35 0 46 10 46 42v12h-48c-7 0 -10 3 -10 10v92c0 7 3 10 10 10h92c7 0 10 -3 10 -10v-121c0 -51 -23 -85 -76 -85h-24c-7 0 -10 3 -10 10v30c0 7 3 10 10 10z" />
    <glyph glyph-name="period" unicode="." horiz-adv-x="290" 
d="M98 112h92c7 0 10 -3 10 -10v-92c0 -7 -3 -10 -10 -10h-92c-7 0 -10 3 -10 10v92c0 7 3 10 10 10z" />
    <glyph glyph-name="hyphen" unicode="-" horiz-adv-x="514" 
d="M69 391h376c7 0 10 -3 10 -10v-78c0 -7 -3 -10 -10 -10h-376c-7 0 -10 3 -10 10v78c0 7 3 10 10 10z" />
    <glyph glyph-name="slash" unicode="/" horiz-adv-x="482" 
d="M20 10l347 680c3 7 7 10 14 10h89c7 0 9 -3 6 -10l-347 -680c-3 -7 -6 -10 -13 -10h-89c-7 0 -10 3 -7 10z" />
    <glyph glyph-name="zero" unicode="0" horiz-adv-x="622" 
d="M41 350c0 238 121 360 270 360s270 -122 270 -360s-121 -360 -270 -360s-270 122 -270 360zM145 350c0 -193 75 -262 166 -262s166 69 166 262s-75 262 -166 262s-166 -69 -166 -262z" />
    <glyph glyph-name="one" unicode="1" horiz-adv-x="394" 
d="M204 10v557l-126 -70c-4 -2 -7 -3 -10 -3c-5 0 -8 2 -8 9v88c0 7 5 12 11 15l163 89c5 3 10 5 16 5h46c7 0 10 -3 10 -10v-680c0 -7 -3 -10 -10 -10h-82c-7 0 -10 3 -10 10z" />
    <glyph glyph-name="two" unicode="2" horiz-adv-x="607" 
d="M64 10v62c0 10 4 17 11 23l273 258c48 45 66 88 66 144c0 66 -46 115 -121 115c-77 0 -124 -51 -128 -121c-1 -12 -4 -15 -13 -15h-75c-7 0 -12 4 -12 15c3 121 94 219 228 219c136 0 223 -87 223 -209c0 -93 -31 -150 -100 -214l-201 -189h312c7 0 10 -3 10 -10v-78
c0 -7 -3 -10 -10 -10h-453c-7 0 -10 3 -10 10z" />
    <glyph glyph-name="three" unicode="3" horiz-adv-x="602" 
d="M227 335v76c0 9 4 11 11 11h52c82 0 122 36 122 96c0 61 -49 94 -116 94c-63 0 -112 -35 -120 -98c-1 -11 -5 -12 -13 -12h-75c-7 0 -13 5 -13 17c7 112 108 191 221 191c120 0 214 -68 214 -179c0 -71 -28 -117 -79 -152c55 -24 111 -73 111 -175
c0 -135 -102 -214 -246 -214c-135 0 -236 87 -245 222c0 12 6 17 13 17h74c8 0 13 -2 14 -13c9 -85 73 -128 148 -128c78 0 140 37 140 124c0 67 -52 112 -144 112h-58c-8 2 -11 6 -11 11z" />
    <glyph glyph-name="four" unicode="4" horiz-adv-x="598" 
d="M345 10v120h-299c-7 0 -10 3 -10 10v57c0 10 3 16 8 23l318 472c3 5 7 8 13 8h62c7 0 10 -3 10 -10v-462h99c7 0 10 -3 10 -10v-78c0 -7 -3 -10 -10 -10h-99v-120c0 -7 -3 -10 -11 -10h-81c-7 0 -10 3 -10 10zM345 506l-187 -278h187v278z" />
    <glyph glyph-name="five" unicode="5" horiz-adv-x="608" 
d="M69 314l43 376c1 7 3 10 10 10h380c7 0 10 -3 10 -10v-78c0 -7 -3 -10 -10 -10h-299l-25 -180c41 24 87 42 148 42c136 0 223 -85 223 -235c0 -158 -107 -239 -244 -239s-233 86 -241 211c0 11 5 15 12 15h77c8 0 11 -3 13 -15c14 -72 69 -113 139 -113
c89 0 142 48 142 139c0 87 -51 139 -141 139c-54 0 -97 -16 -139 -53c-5 -5 -9 -9 -17 -9h-71c-7 0 -10 5 -10 10z" />
    <glyph glyph-name="six" unicode="6" horiz-adv-x="625" 
d="M68 319c0 270 108 391 259 391c122 0 207 -72 222 -180c0 -9 -5 -10 -11 -10h-80c-7 0 -9 4 -11 10c-22 61 -65 86 -120 86c-72 0 -136 -60 -151 -224c44 39 102 60 163 60c130 0 228 -85 228 -231s-117 -231 -242 -231c-140 0 -257 89 -257 329zM189 221
c0 -78 53 -133 138 -133s138 55 138 133s-53 133 -138 133s-138 -55 -138 -133z" />
    <glyph glyph-name="seven" unicode="7" horiz-adv-x="510" 
d="M35 612v78c0 7 3 10 10 10h440c7 0 10 -3 10 -10v-58c0 -9 -1 -14 -5 -25l-236 -600c-2 -5 -6 -7 -11 -7h-82c-6 0 -10 2 -10 8c0 2 1 5 2 7l230 587h-338c-7 0 -10 3 -10 10z" />
    <glyph glyph-name="eight" unicode="8" horiz-adv-x="602" 
d="M86 520c0 121 101 190 215 190s215 -69 215 -190c0 -68 -34 -116 -80 -148c55 -33 102 -79 102 -170c0 -123 -96 -212 -237 -212s-237 89 -237 212c0 91 47 137 102 170c-46 32 -80 80 -80 148zM166 203c0 -73 55 -115 135 -115s135 42 135 115s-55 117 -135 117
s-135 -44 -135 -117zM184 516c0 -59 46 -100 117 -100s117 41 117 100c0 62 -51 98 -117 98s-117 -36 -117 -98z" />
    <glyph glyph-name="nine" unicode="9" horiz-adv-x="625" 
d="M557 381c0 -270 -108 -391 -259 -391c-122 0 -207 72 -222 180c0 9 5 10 11 10h80c7 0 9 -4 11 -10c22 -61 65 -86 120 -86c72 0 136 60 151 224c-44 -39 -102 -60 -163 -60c-130 0 -228 85 -228 231s117 231 242 231c140 0 257 -89 257 -329zM436 479
c0 78 -53 133 -138 133s-138 -55 -138 -133s53 -133 138 -133s138 55 138 133z" />
    <glyph glyph-name="colon" unicode=":" horiz-adv-x="290" 
d="M98 112h92c7 0 10 -3 10 -10v-92c0 -7 -3 -10 -10 -10h-92c-7 0 -10 3 -10 10v92c0 7 3 10 10 10zM98 502h92c7 0 10 -3 10 -10v-92c0 -7 -3 -10 -10 -10h-92c-7 0 -10 3 -10 10v92c0 7 3 10 10 10z" />
    <glyph glyph-name="semicolon" unicode=";" horiz-adv-x="290" 
d="M100 -54c35 0 46 10 46 42v12h-48c-7 0 -10 3 -10 10v92c0 7 3 10 10 10h92c7 0 10 -3 10 -10v-121c0 -51 -23 -85 -76 -85h-24c-7 0 -10 3 -10 10v30c0 7 3 10 10 10zM98 502h92c7 0 10 -3 10 -10v-92c0 -7 -3 -10 -10 -10h-92c-7 0 -10 3 -10 10v92c0 7 3 10 10 10z
" />
    <glyph glyph-name="less" unicode="&#x3c;" horiz-adv-x="517" 
d="M451 136v-88c0 -7 -3 -9 -10 -6l-373 196c-7 4 -10 6 -10 13v84c0 7 3 9 10 13l373 196c7 3 10 1 10 -6v-88c0 -7 -3 -11 -10 -14l-275 -143l275 -143c7 -3 10 -7 10 -14z" />
    <glyph glyph-name="equal" unicode="=" horiz-adv-x="568" 
d="M80 451h434c7 0 10 -3 10 -10v-78c0 -7 -3 -10 -10 -10h-434c-7 0 -10 3 -10 10v78c0 7 3 10 10 10zM80 248h434c7 0 10 -3 10 -10v-78c0 -7 -3 -10 -10 -10h-434c-7 0 -10 3 -10 10v78c0 7 3 10 10 10z" />
    <glyph glyph-name="greater" unicode="&#x3e;" horiz-adv-x="517" 
d="M66 48v88c0 7 3 11 10 14l275 143l-275 143c-7 3 -10 7 -10 14v88c0 7 3 9 10 6l373 -196c7 -4 10 -6 10 -13v-84c0 -7 -3 -9 -10 -13l-373 -196c-7 -3 -10 -1 -10 6z" />
    <glyph glyph-name="question" unicode="?" horiz-adv-x="570" 
d="M69 506c4 106 87 204 224 204s217 -78 217 -179c0 -167 -166 -164 -166 -303v-25c0 -7 -3 -10 -10 -10h-84c-7 0 -10 3 -10 10v25c0 173 166 184 166 295c0 56 -48 87 -113 87c-54 0 -112 -29 -122 -104c-1 -7 -3 -10 -10 -10h-82c-7 0 -10 3 -10 10zM242 120h100
c7 0 10 -3 10 -10v-100c0 -7 -3 -10 -10 -10h-100c-7 0 -10 3 -10 10v100c0 7 3 10 10 10z" />
    <glyph glyph-name="at" unicode="@" horiz-adv-x="806" 
d="M683 308c0 143 -85 265 -266 265c-152 0 -291 -105 -291 -288c0 -184 121 -298 291 -298c101 0 138 21 190 51c6 3 10 0 12 -4l27 -59c2 -5 0 -10 -4 -12c-63 -34 -133 -56 -225 -56c-209 0 -378 136 -378 378c0 237 186 368 378 368c214 0 350 -151 350 -337
c0 -150 -59 -229 -161 -229c-45 0 -85 26 -98 54c-36 -38 -75 -54 -134 -54c-86 0 -167 57 -167 179c0 125 85 217 195 217c45 0 75 -13 104 -42l3 27c1 5 3 8 8 8h57c6 0 8 -2 8 -8l-23 -210c-1 -12 -2 -25 -2 -35c0 -52 35 -62 55 -62c46 0 71 47 71 147zM492 299
c0 70 -29 110 -85 110c-79 0 -118 -72 -118 -141s33 -107 91 -107c70 0 112 62 112 138z" />
    <glyph glyph-name="A" unicode="A" horiz-adv-x="626" 
d="M511 10l-65 183h-267l-64 -183c-2 -7 -4 -10 -12 -10h-87c-7 0 -11 3 -11 10c0 2 0 3 1 6l246 674c2 7 3 10 10 10h102c7 0 8 -3 10 -10l246 -674c1 -3 1 -4 1 -6c0 -7 -4 -10 -11 -10h-87c-8 0 -10 3 -12 10zM313 570l-98 -277h196z" />
    <glyph glyph-name="B" unicode="B" horiz-adv-x="629" 
d="M88 0c-7 0 -10 3 -10 10v680c0 7 3 10 10 10h254c107 0 206 -62 206 -179c0 -73 -28 -112 -76 -146c66 -27 106 -79 106 -171c0 -118 -81 -204 -210 -204h-280zM182 318v-218h174c70 0 118 34 118 110c0 73 -48 108 -118 108h-174zM182 600v-182h167c50 0 95 29 95 91
s-45 91 -95 91h-167z" />
    <glyph glyph-name="C" unicode="C" horiz-adv-x="707" 
d="M577 247h81c8 0 11 -2 11 -10c-19 -153 -144 -247 -305 -247s-318 112 -318 360s157 360 318 360s286 -94 305 -247c0 -8 -3 -10 -11 -10h-81c-6 0 -10 3 -12 10c-28 101 -100 147 -201 147c-106 0 -210 -82 -210 -260s104 -260 210 -260c101 0 173 46 201 147
c2 7 6 10 12 10z" />
    <glyph glyph-name="D" unicode="D" horiz-adv-x="659" 
d="M78 10v680c0 7 3 10 10 10h205c177 0 320 -113 320 -350s-143 -350 -320 -350h-205c-7 0 -10 3 -10 10zM281 600h-99v-500h99c130 0 224 76 224 250s-94 250 -224 250z" />
    <glyph glyph-name="E" unicode="E" horiz-adv-x="584" 
d="M182 318v-218h338c7 0 10 -3 10 -10v-80c0 -7 -3 -10 -10 -10h-432c-7 0 -10 3 -10 10v680c0 7 3 10 10 10h417c7 0 10 -3 10 -10v-80c0 -7 -3 -10 -10 -10h-323v-182h293c7 0 10 -3 10 -10v-80c0 -7 -3 -10 -10 -10h-293z" />
    <glyph glyph-name="F" unicode="F" horiz-adv-x="589" 
d="M182 303v-293c0 -7 -3 -10 -10 -10h-84c-7 0 -10 3 -10 10v680c0 7 3 10 10 10h430c7 0 10 -3 10 -10v-80c0 -7 -3 -10 -10 -10h-336v-197h304c7 0 10 -3 10 -10v-80c0 -7 -3 -10 -10 -10h-304z" />
    <glyph glyph-name="G" unicode="G" horiz-adv-x="713" 
d="M378 362h285c7 0 10 -3 10 -10v-176c0 -14 -4 -29 -10 -38c-62 -97 -165 -148 -278 -148c-183 0 -339 118 -339 360c0 245 164 360 325 360c146 0 269 -78 292 -216c0 -8 -3 -10 -11 -10h-85c-6 0 -10 3 -12 10c-27 85 -99 116 -184 116c-110 0 -217 -90 -217 -260
c0 -169 92 -260 227 -260c84 0 150 31 188 89v83h-191c-7 0 -10 3 -10 10v80c0 7 3 10 10 10z" />
    <glyph glyph-name="H" unicode="H" horiz-adv-x="678" 
d="M180 315v-305c0 -7 -3 -10 -10 -10h-84c-7 0 -10 3 -10 10v680c0 7 3 10 10 10h84c7 0 10 -3 10 -10v-275h318v275c0 7 3 10 10 10h84c7 0 10 -3 10 -10v-680c0 -7 -3 -10 -10 -10h-84c-7 0 -10 3 -10 10v305h-318z" />
    <glyph glyph-name="I" unicode="I" horiz-adv-x="252" 
d="M74 10v680c0 7 3 10 10 10h84c7 0 10 -3 10 -10v-680c0 -7 -3 -10 -10 -10h-84c-7 0 -10 3 -10 10z" />
    <glyph glyph-name="J" unicode="J" horiz-adv-x="541" 
d="M487 690v-429c0 -188 -97 -271 -232 -271c-144 0 -228 100 -228 229c0 7 3 10 10 10h84c7 0 10 -3 10 -10c0 -83 52 -129 124 -129c85 0 128 54 128 170v430c0 7 3 10 10 10h84c7 0 10 -3 10 -10z" />
    <glyph glyph-name="K" unicode="K" horiz-adv-x="614" 
d="M182 690v-274l255 274c6 7 9 10 16 10h104c10 0 12 -8 6 -14l-228 -244l271 -428c5 -8 0 -14 -7 -14h-100c-8 0 -12 5 -18 15l-221 346l-78 -84v-267c0 -7 -3 -10 -10 -10h-84c-7 0 -10 3 -10 10v680c0 7 3 10 10 10h84c7 0 10 -3 10 -10z" />
    <glyph glyph-name="L" unicode="L" horiz-adv-x="578" 
d="M78 10v680c0 7 3 10 10 10h84c7 0 10 -3 10 -10v-590h349c7 0 10 -3 10 -10v-80c0 -7 -3 -10 -10 -10h-443c-7 0 -10 3 -10 10z" />
    <glyph glyph-name="M" unicode="M" horiz-adv-x="798" 
d="M720 690v-680c0 -7 -3 -10 -10 -10h-84c-7 0 -10 3 -10 10v509l-171 -393c-2 -5 -7 -9 -13 -9h-66c-6 0 -11 4 -13 9l-171 393v-509c0 -7 -3 -10 -10 -10h-84c-7 0 -10 3 -10 10v680c0 7 3 10 10 10h109c7 0 13 -3 16 -10l186 -427l186 427c3 7 9 10 16 10h109
c7 0 10 -3 10 -10z" />
    <glyph glyph-name="N" unicode="N" horiz-adv-x="696" 
d="M608 0h-91c-7 0 -13 1 -16 8l-319 512v-510c0 -7 -3 -10 -10 -10h-84c-7 0 -10 3 -10 10v680c0 7 3 10 10 10h91c7 0 13 -1 16 -8l319 -512v510c0 7 3 10 10 10h84c7 0 10 -3 10 -10v-680c0 -7 -3 -10 -10 -10z" />
    <glyph glyph-name="O" unicode="O" horiz-adv-x="768" 
d="M384 -10c-171 0 -338 116 -338 360s167 360 338 360s338 -116 338 -360s-167 -360 -338 -360zM384 90c121 0 230 83 230 260s-109 260 -230 260s-230 -83 -230 -260s109 -260 230 -260z" />
    <glyph glyph-name="P" unicode="P" horiz-adv-x="606" 
d="M78 10v680c0 7 3 10 10 10h250c154 0 230 -75 230 -198s-76 -198 -230 -198h-156v-294c0 -7 -3 -10 -10 -10h-84c-7 0 -10 3 -10 10zM182 600v-196h163c71 0 115 33 115 98s-44 98 -115 98h-163z" />
    <glyph glyph-name="Q" unicode="Q" horiz-adv-x="768" 
d="M384 -10c-171 0 -338 116 -338 360s167 360 338 360s338 -116 338 -360c0 -99 -27 -177 -71 -234l57 -55c3 -3 4 -5 4 -7s-1 -4 -4 -7l-58 -60c-3 -3 -5 -4 -7 -4s-4 1 -7 4l-61 58c-56 -37 -123 -55 -191 -55zM384 90c41 0 80 9 115 29l-63 61c-3 3 -4 5 -4 7s1 4 4 7
l58 60c3 3 5 4 7 4s4 -1 7 -4l65 -63c25 40 41 93 41 159c0 177 -109 260 -230 260s-230 -83 -230 -260s109 -260 230 -260z" />
    <glyph glyph-name="R" unicode="R" horiz-adv-x="615" 
d="M78 10v680c0 7 3 10 10 10h261c130 0 210 -66 210 -188c0 -93 -58 -156 -129 -180l151 -322c3 -7 -1 -10 -8 -10h-92c-7 0 -10 3 -14 10l-154 314h-131v-314c0 -7 -3 -10 -10 -10h-84c-7 0 -10 3 -10 10zM182 600v-176h171c66 0 102 32 102 88s-36 88 -102 88h-171z" />
    <glyph glyph-name="S" unicode="S" horiz-adv-x="590" 
d="M48 517c0 127 113 193 241 193c155 0 244 -96 246 -201c0 -7 -3 -10 -10 -10h-84c-7 0 -9 3 -10 10c-7 65 -66 101 -142 101c-79 0 -137 -29 -137 -88c0 -68 76 -94 176 -121c120 -33 230 -82 230 -193c0 -143 -106 -218 -264 -218c-149 0 -264 100 -264 228
c0 7 3 10 10 10h84c7 0 10 -3 10 -10c5 -80 64 -128 160 -128c105 0 160 35 160 112c0 54 -75 88 -172 112c-142 35 -234 86 -234 203z" />
    <glyph glyph-name="T" unicode="T" horiz-adv-x="564" 
d="M19 610v80c0 7 3 10 10 10h506c7 0 10 -3 10 -10v-80c0 -7 -3 -10 -10 -10h-201v-590c0 -7 -3 -10 -10 -10h-84c-7 0 -10 3 -10 10v590h-201c-7 0 -10 3 -10 10z" />
    <glyph glyph-name="U" unicode="U" horiz-adv-x="640" 
d="M62 256v434c0 7 3 10 10 10h84c7 0 10 -3 10 -10v-428c0 -115 62 -172 154 -172s154 57 154 172v428c0 7 3 10 10 10h84c7 0 10 -3 10 -10v-434c0 -168 -107 -266 -258 -266s-258 98 -258 266z" />
    <glyph glyph-name="V" unicode="V" horiz-adv-x="624" 
d="M619 690l-242 -680c-2 -7 -4 -10 -11 -10h-108c-7 0 -9 3 -11 10l-242 680c-2 6 1 10 8 10h98c7 0 10 -3 12 -10l189 -564l189 564c2 7 5 10 12 10h98c7 0 10 -4 8 -10z" />
    <glyph glyph-name="W" unicode="W" horiz-adv-x="836" 
d="M825 690l-155 -680c-2 -7 -4 -10 -11 -10h-107c-7 0 -9 3 -11 10l-123 485l-123 -485c-2 -7 -4 -10 -11 -10h-107c-7 0 -9 3 -11 10l-155 680c-2 7 1 10 8 10h89c7 0 11 -3 12 -10l115 -544l126 496c2 7 5 10 12 10h90c7 0 10 -3 12 -10l126 -496l115 544c1 7 5 10 12 10
h89c7 0 10 -3 8 -10z" />
    <glyph glyph-name="X" unicode="X" horiz-adv-x="596" 
d="M148 690l150 -230l150 230c5 9 7 10 14 10h97c5 0 10 -4 7 -10l-209 -321l235 -359c3 -6 -2 -10 -7 -10h-99c-7 0 -9 1 -14 10l-174 267l-174 -267c-5 -9 -7 -10 -14 -10h-99c-5 0 -10 4 -7 10l234 359l-208 321c-3 6 2 10 7 10h97c7 0 9 -1 14 -10z" />
    <glyph glyph-name="Y" unicode="Y" horiz-adv-x="546" 
d="M543 690l-218 -438v-242c0 -7 -3 -10 -10 -10h-84c-7 0 -10 3 -10 10v242l-218 438c-2 7 2 10 6 10h100c7 0 9 -3 11 -8l153 -321l153 321c2 5 4 8 11 8h100c4 0 8 -3 6 -10z" />
    <glyph glyph-name="Z" unicode="Z" horiz-adv-x="606" 
d="M52 610v80c0 7 3 10 10 10h475c7 0 10 -3 10 -10v-80c0 -7 -2 -11 -6 -17l-386 -493h403c7 0 10 -3 10 -10v-80c0 -7 -3 -10 -10 -10h-513c-7 0 -10 3 -10 10v80c0 7 2 11 6 17l387 493h-366c-7 0 -10 3 -10 10z" />
    <glyph glyph-name="bracketleft" unicode="[" horiz-adv-x="409" 
d="M78 -188v878c0 7 3 10 10 10h265c7 0 10 -3 10 -10v-80c0 -7 -3 -10 -10 -10h-171v-698h171c7 0 10 -3 10 -10v-80c0 -7 -3 -10 -10 -10h-265c-7 0 -10 3 -10 10z" />
    <glyph glyph-name="backslash" unicode="\" horiz-adv-x="482" 
d="M115 690l347 -680c3 -7 0 -10 -7 -10h-89c-7 0 -10 3 -13 10l-347 680c-3 7 -1 10 6 10h89c7 0 11 -3 14 -10z" />
    <glyph glyph-name="bracketright" unicode="]" horiz-adv-x="409" 
d="M331 690v-878c0 -7 -3 -10 -10 -10h-265c-7 0 -10 3 -10 10v80c0 7 3 10 10 10h171v698h-171c-7 0 -10 3 -10 10v80c0 7 3 10 10 10h265c7 0 10 -3 10 -10z" />
    <glyph glyph-name="asciicircum" unicode="^" horiz-adv-x="556" 
d="M122 365h-90c-6 0 -9 5 -6 10l193 315c3 6 6 10 13 10h92c7 0 10 -4 13 -10l193 -315c3 -5 0 -10 -6 -10h-90c-7 0 -11 4 -14 10l-142 232l-142 -232c-3 -6 -7 -10 -14 -10z" />
    <glyph glyph-name="underscore" unicode="_" horiz-adv-x="561" 
d="M69 0h423c7 0 10 -3 10 -10v-78c0 -7 -3 -10 -10 -10h-423c-7 0 -10 3 -10 10v78c0 7 3 10 10 10z" />
    <glyph glyph-name="grave" unicode="`" horiz-adv-x="379" 
d="M221 690l69 -126c3 -5 1 -10 -5 -10h-74c-9 0 -13 3 -18 9l-103 127c-4 5 -2 10 5 10h111c7 0 11 -3 15 -10z" />
    <glyph glyph-name="a" unicode="a" horiz-adv-x="539" 
d="M153 349h-84c-4 0 -7 2 -7 6c0 2 0 6 1 10c20 81 90 147 208 147c125 0 205 -70 205 -186v-224c0 -48 5 -67 19 -92c4 -7 0 -10 -7 -10h-100c-7 0 -10 3 -10 10v37c-35 -34 -79 -57 -156 -57c-94 0 -181 57 -181 163c0 111 92 169 204 169c54 0 89 -8 133 -21v18
c0 62 -37 103 -107 103c-52 0 -87 -22 -104 -64c-3 -8 -8 -9 -14 -9zM378 211c-46 14 -76 21 -128 21c-58 0 -105 -24 -105 -75c0 -45 31 -73 91 -73c77 0 142 45 142 127z" />
    <glyph glyph-name="b" unicode="b" horiz-adv-x="596" 
d="M74 10v680c0 7 3 10 10 10h78c7 0 10 -3 10 -10v-236c43 35 90 58 154 58c135 0 226 -102 226 -261s-91 -261 -226 -261c-65 0 -116 20 -154 57v-37c0 -7 -3 -10 -10 -10h-78c-7 0 -10 3 -10 10zM164 251c0 -98 58 -167 142 -167c87 0 142 69 142 167s-55 167 -142 167
c-84 0 -142 -69 -142 -167z" />
    <glyph glyph-name="c" unicode="c" horiz-adv-x="567" 
d="M298 418c-91 0 -150 -59 -150 -167s59 -167 150 -167c57 0 108 27 128 86c3 8 7 9 14 9h81c4 0 7 -2 7 -6c0 -2 0 -6 -1 -10c-19 -98 -101 -173 -229 -173c-152 0 -254 108 -254 261s102 261 254 261c128 0 210 -75 229 -173c1 -4 1 -8 1 -10c0 -4 -3 -6 -7 -6h-81
c-7 0 -11 1 -14 9c-20 59 -71 86 -128 86z" />
    <glyph glyph-name="d" unicode="d" horiz-adv-x="596" 
d="M522 690v-680c0 -7 -3 -10 -10 -10h-78c-7 0 -10 3 -10 10v37c-38 -37 -89 -57 -154 -57c-135 0 -226 102 -226 261s91 261 226 261c64 0 111 -23 154 -58v236c0 7 3 10 10 10h78c7 0 10 -3 10 -10zM432 251c0 98 -58 167 -142 167c-87 0 -142 -69 -142 -167
s55 -167 142 -167c84 0 142 69 142 167z" />
    <glyph glyph-name="e" unicode="e" horiz-adv-x="593" 
d="M299 84c68 0 111 22 136 75c4 8 7 9 14 9h85c5 0 7 -3 7 -7c0 -2 0 -4 -2 -10c-42 -112 -124 -161 -240 -161c-150 0 -255 110 -255 261s107 261 254 261c159 0 253 -121 253 -264v-19c0 -7 -3 -10 -10 -10h-393c11 -84 67 -135 151 -135zM298 418
c-62 0 -126 -33 -146 -109h292c-17 72 -75 109 -146 109z" />
    <glyph glyph-name="f" unicode="f" horiz-adv-x="374" 
d="M354 408h-146v-398c0 -7 -3 -10 -10 -10h-78c-7 0 -10 3 -10 10v398h-82c-7 0 -10 3 -10 10v74c0 7 3 10 10 10h82v53c0 94 58 155 150 155c38 0 73 -6 101 -18c8 -4 8 -8 8 -17v-73c0 -5 -2 -10 -7 -10c-2 0 -3 0 -7 2c-36 18 -60 22 -85 22c-44 0 -62 -29 -62 -77v-37
h146c7 0 10 -3 10 -10v-74c0 -7 -3 -10 -10 -10z" />
    <glyph glyph-name="g" unicode="g" horiz-adv-x="582" 
d="M287 -208c-114 0 -204 61 -214 169c0 7 3 10 10 10h78c7 0 9 -3 10 -10c10 -53 57 -75 119 -75c88 0 130 57 130 144v23c-46 -37 -85 -51 -150 -51c-131 0 -226 97 -226 255s92 255 226 255c65 0 111 -18 150 -52v32c0 7 3 10 10 10h78c7 0 10 -3 10 -10v-452
c0 -164 -80 -248 -231 -248zM428 257c0 96 -51 161 -140 161s-140 -65 -140 -161s51 -161 140 -161s140 65 140 161z" />
    <glyph glyph-name="h" unicode="h" horiz-adv-x="578" 
d="M74 10v680c0 7 3 10 10 10h78c7 0 10 -3 10 -10v-248c49 44 95 70 162 70c111 0 180 -57 180 -177v-325c0 -7 -3 -10 -10 -10h-78c-7 0 -10 3 -10 10v300c0 73 -36 108 -103 108c-72 0 -141 -56 -141 -171v-237c0 -7 -3 -10 -10 -10h-78c-7 0 -10 3 -10 10z" />
    <glyph glyph-name="i" unicode="i" horiz-adv-x="214" 
d="M58 10v482c0 7 3 10 10 10h78c7 0 10 -3 10 -10v-482c0 -7 -3 -10 -10 -10h-78c-7 0 -10 3 -10 10zM47 590v100c0 7 3 10 10 10h100c7 0 10 -3 10 -10v-100c0 -7 -3 -10 -10 -10h-100c-7 0 -10 3 -10 10z" />
    <glyph glyph-name="j" unicode="j" horiz-adv-x="214" 
d="M58 -31v523c0 7 3 10 10 10h78c7 0 10 -3 10 -10v-519c0 -89 -15 -130 -33 -173c-2 -5 -4 -8 -8 -8c-1 0 -2 0 -7 2l-72 27c-5 2 -8 4 -8 8c0 1 0 2 1 5c18 47 29 76 29 135zM47 590v100c0 7 3 10 10 10h100c7 0 10 -3 10 -10v-100c0 -7 -3 -10 -10 -10h-100
c-7 0 -10 3 -10 10z" />
    <glyph glyph-name="k" unicode="k" horiz-adv-x="528" 
d="M486 487l-177 -166l201 -306c2 -4 2 -5 2 -7c0 -5 -2 -8 -9 -8h-90c-7 0 -11 1 -16 9l-162 243l-63 -59v-183c0 -7 -3 -10 -10 -10h-78c-7 0 -10 3 -10 10v680c0 7 3 10 10 10h78c7 0 10 -3 10 -10v-377l191 180c5 5 9 9 16 9h103c6 0 8 -3 8 -7c0 -2 -1 -5 -4 -8z" />
    <glyph glyph-name="l" unicode="l" horiz-adv-x="238" 
d="M70 10v680c0 7 3 10 10 10h78c7 0 10 -3 10 -10v-680c0 -7 -3 -10 -10 -10h-78c-7 0 -10 3 -10 10z" />
    <glyph glyph-name="m" unicode="m" horiz-adv-x="796" 
d="M74 10v482c0 7 3 10 10 10h78c7 0 10 -3 10 -10v-41c32 38 81 61 129 61c63 0 98 -20 132 -67c42 43 89 67 150 67c97 0 149 -56 149 -164v-338c0 -7 -3 -10 -10 -10h-78c-7 0 -10 3 -10 10v314c0 67 -24 94 -77 94c-62 0 -105 -66 -105 -174v-234c0 -7 -3 -10 -10 -10
h-78c-7 0 -10 3 -10 10v314c0 64 -26 94 -81 94c-58 0 -101 -56 -101 -174v-234c0 -7 -3 -10 -10 -10h-78c-7 0 -10 3 -10 10z" />
    <glyph glyph-name="n" unicode="n" horiz-adv-x="570" 
d="M74 10v482c0 7 3 10 10 10h78c7 0 10 -3 10 -10v-45c42 40 93 65 159 65c110 0 173 -65 173 -175v-327c0 -7 -3 -10 -10 -10h-78c-7 0 -10 3 -10 10v298c0 76 -38 110 -100 110c-71 0 -134 -57 -134 -171v-237c0 -7 -3 -10 -10 -10h-78c-7 0 -10 3 -10 10z" />
    <glyph glyph-name="o" unicode="o" horiz-adv-x="610" 
d="M44 251c0 155 112 261 261 261s261 -106 261 -261s-112 -261 -261 -261s-261 106 -261 261zM148 251c0 -100 65 -167 157 -167s157 67 157 167s-65 167 -157 167s-157 -67 -157 -167z" />
    <glyph glyph-name="p" unicode="p" horiz-adv-x="596" 
d="M74 -188v680c0 7 3 10 10 10h78c7 0 10 -3 10 -10v-37c38 37 89 57 154 57c135 0 226 -102 226 -261s-91 -261 -226 -261c-64 0 -111 23 -154 58v-236c0 -7 -3 -10 -10 -10h-78c-7 0 -10 3 -10 10zM164 251c0 -98 58 -167 142 -167c87 0 142 69 142 167s-55 167 -142 167
c-84 0 -142 -69 -142 -167z" />
    <glyph glyph-name="q" unicode="q" horiz-adv-x="596" 
d="M522 492v-680c0 -7 -3 -10 -10 -10h-78c-7 0 -10 3 -10 10v236c-43 -35 -90 -58 -154 -58c-135 0 -226 102 -226 261s91 261 226 261c65 0 116 -20 154 -57v37c0 7 3 10 10 10h78c7 0 10 -3 10 -10zM432 251c0 98 -58 167 -142 167c-87 0 -142 -69 -142 -167
s55 -167 142 -167c84 0 142 69 142 167z" />
    <glyph glyph-name="r" unicode="r" horiz-adv-x="432" 
d="M405 478v-79c0 -6 -2 -11 -8 -11c-1 0 -2 0 -7 2c-41 20 -66 28 -105 28c-65 0 -113 -50 -113 -147v-261c0 -7 -3 -10 -10 -10h-78c-7 0 -10 3 -10 10v482c0 7 3 10 10 10h78c7 0 10 -3 10 -10v-39c32 34 76 59 132 59c35 0 62 -6 89 -16c10 -4 12 -8 12 -18z" />
    <glyph glyph-name="s" unicode="s" horiz-adv-x="500" 
d="M459 147c0 -98 -86 -157 -209 -157c-121 0 -207 65 -215 169c0 6 3 10 10 10h84c7 0 9 -3 10 -10c9 -53 53 -75 114 -75c59 0 102 16 102 63c0 35 -37 53 -134 69c-120 20 -173 65 -173 146c0 105 97 150 195 150c117 0 191 -63 200 -150c0 -6 -3 -10 -10 -10h-85
c-7 0 -8 3 -10 10c-13 38 -50 56 -100 56c-46 0 -92 -14 -92 -51c0 -38 31 -57 132 -75c105 -19 181 -50 181 -145z" />
    <glyph glyph-name="t" unicode="t" horiz-adv-x="420" 
d="M216 502h159c7 0 10 -3 10 -10v-74c0 -7 -3 -10 -10 -10h-159v-242c0 -53 23 -82 75 -82c30 0 55 3 90 16c3 1 4 1 6 1c5 0 8 -4 8 -9v-68c0 -9 0 -14 -8 -17c-29 -11 -69 -17 -105 -17c-100 0 -164 57 -164 159v259h-88c-7 0 -10 3 -10 10v74c0 7 3 10 10 10h88v144
c0 7 3 10 10 10h78c7 0 10 -3 10 -10v-144z" />
    <glyph glyph-name="u" unicode="u" horiz-adv-x="570" 
d="M496 492v-482c0 -7 -3 -10 -10 -10h-78c-7 0 -10 3 -10 10v45c-42 -40 -93 -65 -159 -65c-110 0 -173 65 -173 175v327c0 7 3 10 10 10h78c7 0 10 -3 10 -10v-298c0 -76 38 -110 100 -110c71 0 134 57 134 171v237c0 7 3 10 10 10h78c7 0 10 -3 10 -10z" />
    <glyph glyph-name="v" unicode="v" horiz-adv-x="486" 
d="M481 486l-181 -476c-3 -7 -7 -10 -12 -10h-90c-5 0 -9 3 -12 10l-181 476c-1 4 -1 5 -1 7c0 6 3 9 9 9h87c7 0 12 -3 14 -10l129 -361l129 361c2 7 7 10 14 10h87c6 0 9 -3 9 -9c0 -2 0 -3 -1 -7z" />
    <glyph glyph-name="w" unicode="w" horiz-adv-x="746" 
d="M739 487l-150 -477c-2 -8 -7 -10 -13 -10h-90c-7 0 -11 3 -13 10l-100 336l-100 -336c-2 -7 -6 -10 -13 -10h-90c-6 0 -11 2 -13 10l-150 477c-1 4 -1 6 -1 8c0 5 4 7 8 7h85c10 0 12 -3 14 -10l100 -364l103 340c2 7 3 10 11 10h92c8 0 9 -3 11 -10l103 -340l100 364
c2 7 4 10 14 10h85c4 0 8 -2 8 -7c0 -2 0 -4 -1 -8z" />
    <glyph glyph-name="x" unicode="x" horiz-adv-x="486" 
d="M139 495l104 -148l104 148c4 6 8 7 14 7h93c5 0 7 -2 7 -7c0 -2 -1 -4 -2 -6l-158 -226l176 -250c2 -3 3 -5 3 -8s-2 -5 -6 -5h-98c-6 0 -9 3 -14 10l-119 170l-119 -170c-5 -7 -8 -10 -14 -10h-98c-4 0 -6 2 -6 5s1 5 3 8l175 250l-157 226c-1 2 -2 4 -2 6c0 5 2 7 7 7
h93c6 0 10 -1 14 -7z" />
    <glyph glyph-name="y" unicode="y" horiz-adv-x="484" 
d="M106 502c8 0 11 -3 13 -10l134 -347l112 347c2 7 4 10 13 10h89c5 0 8 -2 8 -7c0 -2 0 -4 -1 -7l-183 -537c-43 -126 -104 -159 -174 -159c-38 0 -63 6 -85 16c-9 5 -10 10 -10 16v74c0 7 4 10 8 10c16 0 35 -22 76 -22c50 0 78 30 102 117l-200 483c-1 3 -2 5 -2 8
c0 5 3 8 8 8h92z" />
    <glyph glyph-name="z" unicode="z" horiz-adv-x="483" 
d="M40 418v74c0 7 3 10 10 10h372c7 0 10 -3 10 -10v-74c0 -6 0 -12 -8 -21l-273 -303h290c7 0 10 -3 10 -10v-74c0 -7 -3 -10 -10 -10h-404c-7 0 -10 3 -10 10v74c0 7 3 11 6 15l278 309h-261c-7 0 -10 3 -10 10z" />
    <glyph glyph-name="braceleft" unicode="{" horiz-adv-x="388" 
d="M228 164v-178c0 -56 18 -84 67 -84h37c7 0 10 -3 10 -10v-80c0 -7 -3 -10 -10 -10h-47c-115 0 -161 53 -161 191v141c0 47 -22 67 -61 67h-28c-7 0 -10 3 -10 10v80c0 7 3 10 10 10h28c39 0 61 20 61 67v141c0 138 46 191 161 191h47c7 0 10 -3 10 -10v-80
c0 -7 -3 -10 -10 -10h-37c-49 0 -67 -28 -67 -84v-178c0 -51 -16 -74 -63 -87c47 -13 63 -36 63 -87z" />
    <glyph glyph-name="bar" unicode="|" horiz-adv-x="252" 
d="M74 -90v780c0 7 3 10 10 10h84c7 0 10 -3 10 -10v-780c0 -7 -3 -10 -10 -10h-84c-7 0 -10 3 -10 10z" />
    <glyph glyph-name="braceright" unicode="}" horiz-adv-x="388" 
d="M160 -14v178c0 51 16 74 63 87c-47 13 -63 36 -63 87v178c0 56 -18 84 -67 84h-37c-7 0 -10 3 -10 10v80c0 7 3 10 10 10h47c115 0 161 -53 161 -191v-141c0 -47 22 -67 61 -67h28c7 0 10 -3 10 -10v-80c0 -7 -3 -10 -10 -10h-28c-39 0 -61 -20 -61 -67v-141
c0 -138 -46 -191 -161 -191h-47c-7 0 -10 3 -10 10v80c0 7 3 10 10 10h37c49 0 67 28 67 84z" />
    <glyph glyph-name="asciitilde" unicode="~" horiz-adv-x="543" 
d="M52 374c31 23 87 36 119 36c92 0 124 -41 193 -41c30 0 51 8 77 25c2 1 4 2 7 2c5 0 7 -3 10 -8l41 -70c1 -2 1 -3 1 -4c0 -4 -3 -9 -9 -13c-31 -23 -87 -36 -119 -36c-92 0 -124 41 -193 41c-30 0 -51 -8 -77 -25c-2 -1 -4 -2 -7 -2c-5 0 -7 3 -10 8l-41 70
c-1 2 -1 3 -1 4c0 4 3 9 9 13z" />
    <glyph glyph-name="exclamdown" unicode="&#xa1;" horiz-adv-x="302" 
d="M193 -198h-84c-7 0 -10 3 -10 10v487c0 7 3 10 10 10h84c7 0 10 -3 10 -10v-487c0 -7 -3 -10 -10 -10zM201 382h-100c-7 0 -10 3 -10 10v100c0 7 3 10 10 10h100c7 0 10 -3 10 -10v-100c0 -7 -3 -10 -10 -10z" />
    <glyph glyph-name="cent" unicode="&#xa2;" horiz-adv-x="567" 
d="M244 10v84c-122 22 -200 122 -200 256s78 233 200 256v84c0 7 3 10 10 10h78c7 0 10 -3 10 -10v-82c103 -15 168 -84 185 -170c1 -4 1 -8 1 -10c0 -4 -3 -6 -7 -6h-81c-7 0 -11 1 -14 9c-15 43 -46 70 -84 81v-324c38 11 69 38 84 81c3 8 7 9 14 9h81c4 0 7 -2 7 -6
c0 -2 0 -6 -1 -10c-17 -87 -82 -155 -185 -170v-82c0 -7 -3 -10 -10 -10h-78c-7 0 -10 3 -10 10zM146 350c0 -85 37 -141 98 -160v320c-61 -20 -98 -75 -98 -160z" />
    <glyph glyph-name="sterling" unicode="&#xa3;" horiz-adv-x="588" 
d="M131 272c0 9 -1 17 -2 25h-81c-7 0 -10 3 -10 10v78c0 7 3 10 10 10h54c-10 28 -18 59 -18 108c0 122 91 207 213 207c141 0 226 -91 226 -204c0 -7 -3 -10 -10 -10h-84c-7 0 -9 3 -10 10c-7 56 -41 104 -122 104c-62 0 -109 -41 -109 -107c0 -49 13 -75 25 -108h200
c7 0 10 -3 10 -10v-78c0 -7 -3 -10 -10 -10h-180c1 -10 2 -20 2 -31c0 -52 -18 -111 -63 -166h360c7 0 10 -3 10 -10v-80c0 -7 -3 -10 -10 -10h-462c-7 0 -10 3 -10 10v81c0 7 2 12 8 20c44 54 63 88 63 161z" />
    <glyph glyph-name="currency" unicode="&#xa4;" horiz-adv-x="540" 
d="M47 107l52 51c-19 30 -29 65 -29 105s10 75 29 105l-52 51c-5 5 -5 9 0 14l53 53c5 5 9 5 14 0l54 -55c30 17 64 26 102 26s72 -9 102 -26l54 55c5 5 9 5 14 0l53 -53c5 -5 5 -9 0 -14l-52 -51c19 -30 29 -65 29 -105s-10 -75 -29 -105l52 -51c5 -5 5 -9 0 -14l-53 -53
c-5 -5 -9 -5 -14 0l-54 55c-30 -17 -64 -26 -102 -26s-72 9 -102 26l-54 -55c-5 -5 -9 -5 -14 0l-53 53c-5 5 -5 9 0 14zM164 263c0 -64 43 -106 106 -106s106 42 106 106s-43 106 -106 106s-106 -42 -106 -106z" />
    <glyph glyph-name="yen" unicode="&#xa5;" horiz-adv-x="546" 
d="M72 201h149v47h-169c-7 0 -10 3 -10 10v78c0 7 3 10 10 10h122l-171 344c-2 7 2 10 6 10h100c7 0 9 -3 11 -8l153 -321l153 321c2 5 4 8 11 8h100c4 0 8 -3 6 -10l-171 -344h130c7 0 10 -3 10 -10v-78c0 -7 -3 -10 -10 -10h-177v-47h157c7 0 10 -3 10 -10v-78
c0 -7 -3 -10 -10 -10h-157v-93c0 -7 -3 -10 -10 -10h-84c-7 0 -10 3 -10 10v93h-149c-7 0 -10 3 -10 10v78c0 7 3 10 10 10z" />
    <glyph glyph-name="brokenbar" unicode="&#xa6;" horiz-adv-x="252" 
d="M74 317v373c0 7 3 10 10 10h84c7 0 10 -3 10 -10v-373c0 -7 -3 -10 -10 -10h-84c-7 0 -10 3 -10 10zM74 -188v373c0 7 3 10 10 10h84c7 0 10 -3 10 -10v-373c0 -7 -3 -10 -10 -10h-84c-7 0 -10 3 -10 10z" />
    <glyph glyph-name="section" unicode="&#xa7;" horiz-adv-x="503" 
d="M449 200c0 -45 -15 -73 -45 -105c40 -43 48 -81 48 -123c0 -109 -92 -180 -202 -180c-132 0 -213 93 -213 194c0 7 3 10 10 10h84c7 0 9 -3 10 -10c5 -63 49 -94 109 -94c58 0 100 33 100 87c0 53 -43 84 -126 129c-130 71 -180 110 -180 194c0 45 15 73 45 105
c-40 43 -48 81 -48 123c0 109 92 180 202 180c132 0 213 -93 213 -194c0 -7 -3 -10 -10 -10h-84c-7 0 -9 3 -10 10c-5 63 -49 94 -109 94c-58 0 -100 -33 -100 -87c0 -53 43 -84 126 -129c130 -71 180 -110 180 -194zM192 332l-17 10c-19 -12 -27 -24 -27 -42
c0 -35 20 -56 153 -130l17 -10c19 12 27 24 27 42c0 35 -20 56 -153 130z" />
    <glyph glyph-name="dieresis" unicode="&#xa8;" horiz-adv-x="426" 
d="M70 596v94c0 7 3 10 10 10h94c7 0 10 -3 10 -10v-94c0 -7 -3 -10 -10 -10h-94c-7 0 -10 3 -10 10zM242 596v94c0 7 3 10 10 10h94c7 0 10 -3 10 -10v-94c0 -7 -3 -10 -10 -10h-94c-7 0 -10 3 -10 10z" />
    <glyph glyph-name="copyright" unicode="&#xa9;" horiz-adv-x="800" 
d="M400 -10c-170 0 -348 129 -348 360s178 360 348 360s348 -129 348 -360s-178 -360 -348 -360zM400 32c148 0 300 106 300 318s-152 318 -300 318s-300 -106 -300 -318s152 -318 300 -318zM563 276h24c8 0 11 -3 11 -10c-17 -91 -96 -149 -198 -149
c-104 0 -210 77 -210 233s106 233 210 233c102 0 181 -58 198 -149c0 -7 -3 -10 -11 -10h-24c-8 0 -12 3 -14 10c-15 62 -68 107 -149 107c-83 0 -162 -67 -162 -191s79 -191 162 -191c81 0 134 45 149 107c2 7 6 10 14 10z" />
    <glyph glyph-name="ordfeminine" unicode="&#xaa;" horiz-adv-x="462" 
d="M401 693v-359c0 -5 -3 -7 -8 -7h-58c-5 0 -7 2 -7 7v21c-27 -22 -60 -35 -112 -35c-97 0 -173 75 -173 194c0 118 76 194 173 194c52 0 85 -14 112 -35v20c0 5 2 7 7 7h58c5 0 8 -2 8 -7zM334 514c0 72 -43 124 -108 124s-106 -52 -106 -124c0 -73 41 -125 106 -125
s108 52 108 125z" />
    <glyph glyph-name="guillemotleft" unicode="&#xab;" horiz-adv-x="550" 
d="M286 519v-98c0 -7 -1 -11 -7 -16l-143 -131l143 -131c6 -5 7 -9 7 -16v-98c0 -4 -2 -7 -6 -7c-2 0 -4 1 -6 3l-222 197c-7 6 -10 11 -10 18v68c0 7 3 12 10 18l222 197c2 2 4 3 6 3c4 0 6 -3 6 -7zM499 519v-98c0 -7 -1 -11 -7 -16l-143 -131l143 -131c6 -5 7 -9 7 -16
v-98c0 -4 -2 -7 -6 -7c-2 0 -4 1 -6 3l-222 197c-7 6 -10 11 -10 18v68c0 7 3 12 10 18l222 197c2 2 4 3 6 3c4 0 6 -3 6 -7z" />
    <glyph glyph-name="logicalnot" unicode="&#xac;" horiz-adv-x="558" 
d="M386 312h-318c-7 0 -10 3 -10 10v74c0 7 3 10 10 10h406c7 0 10 -3 10 -10v-210c0 -7 -3 -10 -10 -10h-78c-7 0 -10 3 -10 10v126z" />
    <glyph glyph-name="registered" unicode="&#xae;" horiz-adv-x="800" 
d="M400 -10c-170 0 -348 129 -348 360s178 360 348 360s348 -129 348 -360s-178 -360 -348 -360zM400 32c148 0 300 106 300 318s-152 318 -300 318s-300 -106 -300 -318s152 -318 300 -318zM262 133v436c0 8 3 11 11 11h136c97 0 145 -53 145 -127c0 -63 -37 -107 -92 -123
l98 -197c2 -4 2 -5 2 -7c0 -3 -3 -4 -6 -4h-28c-8 0 -13 3 -16 9l-98 193h-104v-191c0 -8 -3 -11 -11 -11h-26c-8 0 -11 3 -11 11zM310 538v-172h106c65 0 90 33 90 87c0 53 -25 85 -90 85h-106z" />
    <glyph glyph-name="macron" unicode="&#xaf;" horiz-adv-x="298" 
d="M39 596v70c0 7 3 10 10 10h200c7 0 10 -3 10 -10v-70c0 -7 -3 -10 -10 -10h-200c-7 0 -10 3 -10 10z" />
    <glyph glyph-name="degree" unicode="&#xb0;" horiz-adv-x="450" 
d="M44 534c0 105 77 176 181 176s181 -71 181 -176s-77 -176 -181 -176s-181 71 -181 176zM134 534c0 -59 39 -94 91 -94s91 35 91 94s-39 94 -91 94s-91 -35 -91 -94z" />
    <glyph glyph-name="plusminus" unicode="&#xb1;" horiz-adv-x="572" 
d="M335 582v-168h168c7 0 10 -3 10 -10v-78c0 -7 -3 -10 -10 -10h-168v-168c0 -7 -3 -10 -10 -10h-78c-7 0 -10 3 -10 10v168h-168c-7 0 -10 3 -10 10v78c0 7 3 10 10 10h168v168c0 7 3 10 10 10h78c7 0 10 -3 10 -10zM69 98h434c7 0 10 -3 10 -10v-78c0 -7 -3 -10 -10 -10
h-434c-7 0 -10 3 -10 10v78c0 7 3 10 10 10z" />
    <glyph glyph-name="twosuperior" unicode="&#xb2;" horiz-adv-x="354" 
d="M45 336v40c0 7 1 10 6 14l156 127c23 19 33 39 33 69s-22 52 -59 52c-34 0 -58 -24 -63 -55c-1 -7 -3 -10 -10 -10h-50c-7 0 -10 3 -10 10c1 65 59 123 133 123c84 0 129 -53 129 -114c0 -55 -18 -84 -60 -119l-94 -79h152c7 0 10 -3 10 -10v-48c0 -7 -3 -10 -10 -10
h-253c-7 0 -10 3 -10 10z" />
    <glyph glyph-name="threesuperior" unicode="&#xb3;" horiz-adv-x="356" 
d="M133 498v48c0 7 3 10 10 10h24c36 0 55 15 55 45c0 23 -18 41 -48 41c-27 0 -47 -12 -54 -41c-1 -6 -3 -8 -10 -8h-50c-6 0 -10 3 -10 9c3 61 53 104 124 104c73 0 118 -42 118 -102c0 -34 -17 -61 -41 -77c31 -15 57 -42 57 -87c0 -81 -59 -120 -133 -120
c-76 0 -135 52 -135 117c0 7 3 10 10 10h53c7 0 9 -3 10 -10c5 -34 30 -49 62 -49c38 0 61 16 61 49c0 31 -22 51 -61 51h-32c-7 0 -10 3 -10 10z" />
    <glyph glyph-name="acute" unicode="&#xb4;" horiz-adv-x="379" 
d="M89 564l69 126c4 7 8 10 15 10h111c7 0 9 -5 5 -10l-103 -127c-5 -6 -9 -9 -18 -9h-74c-6 0 -8 5 -5 10z" />
    <glyph glyph-name="mu" unicode="&#xb5;" horiz-adv-x="570" 
d="M496 492v-482c0 -7 -3 -10 -10 -10h-78c-7 0 -10 3 -10 10v45c-42 -40 -93 -65 -159 -65c-28 0 -54 5 -75 12v-190c0 -7 -3 -10 -10 -10h-78c-7 0 -10 3 -10 10v680c0 7 3 10 10 10h78c7 0 10 -3 10 -10v-298c0 -76 38 -110 100 -110c71 0 134 57 134 171v237
c0 7 3 10 10 10h78c7 0 10 -3 10 -10z" />
    <glyph glyph-name="mu" unicode="&#x3bc;" horiz-adv-x="570" 
d="M496 492v-482c0 -7 -3 -10 -10 -10h-78c-7 0 -10 3 -10 10v45c-42 -40 -93 -65 -159 -65c-28 0 -54 5 -75 12v-190c0 -7 -3 -10 -10 -10h-78c-7 0 -10 3 -10 10v680c0 7 3 10 10 10h78c7 0 10 -3 10 -10v-298c0 -76 38 -110 100 -110c71 0 134 57 134 171v237
c0 7 3 10 10 10h78c7 0 10 -3 10 -10z" />
    <glyph glyph-name="paragraph" unicode="&#xb6;" horiz-adv-x="634" 
d="M239 700h363c7 0 10 -3 10 -10v-80c0 -7 -3 -10 -10 -10h-62v-690c0 -7 -3 -10 -10 -10h-84c-7 0 -10 3 -10 10v690h-75v-690c0 -7 -3 -10 -10 -10h-84c-7 0 -10 3 -10 10v410h-18c-136 0 -215 76 -215 194c0 120 83 186 215 186z" />
    <glyph glyph-name="periodcentered" unicode="&#xb7;" horiz-adv-x="290" 
d="M98 404h92c7 0 10 -3 10 -10v-92c0 -7 -3 -10 -10 -10h-92c-7 0 -10 3 -10 10v92c0 7 3 10 10 10z" />
    <glyph glyph-name="cedilla" unicode="&#xb8;" horiz-adv-x="272" 
d="M70 -111l-20 19c-2 2 -3 4 -3 7c0 2 0 3 1 6l33 107c2 7 4 10 10 10h54c7 0 11 -4 8 -10l-39 -85c14 4 36 7 52 7c59 0 89 -29 89 -75c0 -58 -40 -83 -113 -83c-46 0 -76 4 -101 10c-7 2 -10 3 -10 10v39c0 8 4 10 10 10c20 0 35 -13 91 -13c31 0 43 7 43 25
c0 13 -10 23 -36 23c-18 0 -39 -5 -55 -9c-3 -1 -4 -1 -6 -1c-3 0 -6 1 -8 3z" />
    <glyph glyph-name="onesuperior" unicode="&#xb9;" horiz-adv-x="222" 
d="M99 336v273l-62 -34c-4 -2 -6 -3 -9 -3c-4 0 -8 2 -8 8v57c0 5 2 7 7 10l85 49c4 2 9 4 15 4h30c7 0 10 -3 10 -10v-354c0 -7 -3 -10 -10 -10h-48c-7 0 -10 3 -10 10z" />
    <glyph glyph-name="ordmasculine" unicode="&#xba;" horiz-adv-x="462" 
d="M36 513c0 116 83 195 194 195s194 -79 194 -195c0 -115 -83 -194 -194 -194s-194 79 -194 194zM114 513c0 -74 47 -124 116 -124s116 50 116 124c0 75 -47 124 -116 124s-116 -49 -116 -124z" />
    <glyph glyph-name="guillemotright" unicode="&#xbb;" horiz-adv-x="550" 
d="M264 421v98c0 4 2 7 6 7c2 0 4 -1 6 -3l222 -197c7 -6 10 -11 10 -18v-68c0 -7 -3 -12 -10 -18l-222 -197c-2 -2 -4 -3 -6 -3c-4 0 -6 3 -6 7v98c0 7 1 11 7 16l143 131l-143 131c-6 5 -7 9 -7 16zM51 421v98c0 4 2 7 6 7c2 0 4 -1 6 -3l222 -197c7 -6 10 -11 10 -18v-68
c0 -7 -3 -12 -10 -18l-222 -197c-2 -2 -4 -3 -6 -3c-4 0 -6 3 -6 7v98c0 7 1 11 7 16l143 131l-143 131c-6 5 -7 9 -7 16z" />
    <glyph glyph-name="onequarter" unicode="&#xbc;" horiz-adv-x="802" 
d="M108 50l558 647c4 5 10 4 14 0l37 -33c5 -5 6 -9 2 -14l-558 -647c-4 -5 -10 -4 -14 0l-37 33c-5 5 -6 9 -2 14zM141 336v273l-62 -34c-4 -2 -6 -3 -9 -3c-4 0 -8 2 -8 8v57c0 5 2 7 7 10l85 49c4 2 9 4 15 4h30c7 0 10 -3 10 -10v-354c0 -7 -3 -10 -10 -10h-48
c-7 0 -10 3 -10 10zM604 10v53h-163c-7 0 -10 3 -10 10v42c0 5 2 9 4 12l172 240c3 4 6 7 11 7h44c7 0 10 -3 10 -10v-233h49c7 0 10 -3 10 -10v-48c0 -7 -3 -10 -10 -10h-49v-53c0 -7 -3 -10 -10 -10h-48c-7 0 -10 3 -10 10zM604 255l-89 -124h89v124z" />
    <glyph glyph-name="onehalf" unicode="&#xbd;" horiz-adv-x="874" 
d="M108 50l558 647c4 5 10 4 14 0l37 -33c5 -5 6 -9 2 -14l-558 -647c-4 -5 -10 -4 -14 0l-37 33c-5 5 -6 9 -2 14zM141 336v273l-62 -34c-4 -2 -6 -3 -9 -3c-4 0 -8 2 -8 8v57c0 5 2 7 7 10l85 49c4 2 9 4 15 4h30c7 0 10 -3 10 -10v-354c0 -7 -3 -10 -10 -10h-48
c-7 0 -10 3 -10 10zM535 10v40c0 7 1 10 6 14l156 127c23 19 33 39 33 69s-22 52 -59 52c-34 0 -58 -24 -63 -55c-1 -7 -3 -10 -10 -10h-50c-7 0 -10 3 -10 10c1 65 59 123 133 123c84 0 129 -53 129 -114c0 -55 -18 -84 -60 -119l-94 -79h152c7 0 10 -3 10 -10v-48
c0 -7 -3 -10 -10 -10h-253c-7 0 -10 3 -10 10z" />
    <glyph glyph-name="threequarters" unicode="&#xbe;" horiz-adv-x="820" 
d="M140 50l558 647c4 5 10 4 14 0l37 -33c5 -5 6 -9 2 -14l-558 -647c-4 -5 -10 -4 -14 0l-37 33c-5 5 -6 9 -2 14zM636 10v53h-163c-7 0 -10 3 -10 10v42c0 5 2 9 4 12l172 240c3 4 6 7 11 7h44c7 0 10 -3 10 -10v-233h49c7 0 10 -3 10 -10v-48c0 -7 -3 -10 -10 -10h-49
v-53c0 -7 -3 -10 -10 -10h-48c-7 0 -10 3 -10 10zM636 255l-89 -124h89v124zM142 498v48c0 7 3 10 10 10h24c36 0 55 15 55 45c0 23 -18 41 -48 41c-27 0 -47 -12 -54 -41c-1 -6 -3 -8 -10 -8h-50c-6 0 -10 3 -10 9c3 61 53 104 124 104c73 0 118 -42 118 -102
c0 -34 -17 -61 -41 -77c31 -15 57 -42 57 -87c0 -81 -59 -120 -133 -120c-76 0 -135 52 -135 117c0 7 3 10 10 10h53c7 0 9 -3 10 -10c5 -34 30 -49 62 -49c38 0 61 16 61 49c0 31 -22 51 -61 51h-32c-7 0 -10 3 -10 10z" />
    <glyph glyph-name="questiondown" unicode="&#xbf;" horiz-adv-x="570" 
d="M501 -4c-4 -106 -87 -204 -224 -204s-217 78 -217 179c0 167 166 164 166 303v25c0 7 3 10 10 10h84c7 0 10 -3 10 -10v-25c0 -173 -166 -184 -166 -295c0 -56 48 -87 113 -87c54 0 112 29 122 104c1 7 3 10 10 10h82c7 0 10 -3 10 -10zM328 382h-100c-7 0 -10 3 -10 10
v100c0 7 3 10 10 10h100c7 0 10 -3 10 -10v-100c0 -7 -3 -10 -10 -10z" />
    <glyph glyph-name="Agrave" unicode="&#xc0;" horiz-adv-x="626" 
d="M511 10l-65 183h-267l-64 -183c-2 -7 -4 -10 -12 -10h-87c-7 0 -11 3 -11 10c0 2 0 3 1 6l246 674c2 7 3 10 10 10h102c7 0 8 -3 10 -10l246 -674c1 -3 1 -4 1 -6c0 -7 -4 -10 -11 -10h-87c-8 0 -10 3 -12 10zM313 570l-98 -277h196zM292 888l69 -126c3 -5 1 -10 -5 -10
h-74c-9 0 -13 3 -18 9l-103 127c-4 5 -2 10 5 10h111c7 0 11 -3 15 -10z" />
    <glyph glyph-name="Aacute" unicode="&#xc1;" horiz-adv-x="626" 
d="M511 10l-65 183h-267l-64 -183c-2 -7 -4 -10 -12 -10h-87c-7 0 -11 3 -11 10c0 2 0 3 1 6l246 674c2 7 3 10 10 10h102c7 0 8 -3 10 -10l246 -674c1 -3 1 -4 1 -6c0 -7 -4 -10 -11 -10h-87c-8 0 -10 3 -12 10zM313 570l-98 -277h196zM253 762l69 126c4 7 8 10 15 10h111
c7 0 9 -5 5 -10l-103 -127c-5 -6 -9 -9 -18 -9h-74c-6 0 -8 5 -5 10z" />
    <glyph glyph-name="Acircumflex" unicode="&#xc2;" horiz-adv-x="626" 
d="M511 10l-65 183h-267l-64 -183c-2 -7 -4 -10 -12 -10h-87c-7 0 -11 3 -11 10c0 2 0 3 1 6l246 674c2 7 3 10 10 10h102c7 0 8 -3 10 -10l246 -674c1 -3 1 -4 1 -6c0 -7 -4 -10 -11 -10h-87c-8 0 -10 3 -12 10zM313 570l-98 -277h196zM362 890l105 -134c4 -5 1 -10 -5 -10
h-78c-8 0 -12 3 -18 9l-53 53l-53 -53c-6 -6 -10 -9 -18 -9h-78c-6 0 -9 5 -5 10l105 134c5 6 8 8 15 8h68c7 0 10 -2 15 -8z" />
    <glyph glyph-name="Atilde" unicode="&#xc3;" horiz-adv-x="626" 
d="M511 10l-65 183h-267l-64 -183c-2 -7 -4 -10 -12 -10h-87c-7 0 -11 3 -11 10c0 2 0 3 1 6l246 674c2 7 3 10 10 10h102c7 0 8 -3 10 -10l246 -674c1 -3 1 -4 1 -6c0 -7 -4 -10 -11 -10h-87c-8 0 -10 3 -12 10zM313 570l-98 -277h196zM136 864c31 25 76 44 106 44
c78 0 84 -41 138 -41c21 0 36 5 62 24c2 1 4 2 7 2c4 0 6 -2 10 -8l35 -50c3 -5 3 -6 3 -8c0 -3 -2 -7 -6 -10c-31 -25 -76 -44 -106 -44c-78 0 -84 41 -138 41c-21 0 -36 -5 -62 -24c-2 -1 -4 -2 -7 -2c-4 0 -6 2 -10 8l-35 50c-3 5 -3 6 -3 8c0 3 2 7 6 10z" />
    <glyph glyph-name="Adieresis" unicode="&#xc4;" horiz-adv-x="626" 
d="M511 10l-65 183h-267l-64 -183c-2 -7 -4 -10 -12 -10h-87c-7 0 -11 3 -11 10c0 2 0 3 1 6l246 674c2 7 3 10 10 10h102c7 0 8 -3 10 -10l246 -674c1 -3 1 -4 1 -6c0 -7 -4 -10 -11 -10h-87c-8 0 -10 3 -12 10zM313 570l-98 -277h196zM170 794v94c0 7 3 10 10 10h94
c7 0 10 -3 10 -10v-94c0 -7 -3 -10 -10 -10h-94c-7 0 -10 3 -10 10zM342 794v94c0 7 3 10 10 10h94c7 0 10 -3 10 -10v-94c0 -7 -3 -10 -10 -10h-94c-7 0 -10 3 -10 10z" />
    <glyph glyph-name="Aring" unicode="&#xc5;" horiz-adv-x="626" 
d="M511 10l-65 183h-267l-64 -183c-2 -7 -4 -10 -12 -10h-87c-7 0 -11 3 -11 10c0 2 0 3 1 6l246 674c2 7 3 10 10 10h102c7 0 8 -3 10 -10l246 -674c1 -3 1 -4 1 -6c0 -7 -4 -10 -11 -10h-87c-8 0 -10 3 -12 10zM313 570l-98 -277h196zM218 826c0 54 39 92 95 92
s95 -38 95 -92s-39 -92 -95 -92s-95 38 -95 92zM276 826c0 -24 16 -38 37 -38s37 14 37 38s-16 38 -37 38s-37 -14 -37 -38z" />
    <glyph glyph-name="AE" unicode="&#xc6;" horiz-adv-x="875" 
d="M477 318v-218h338c7 0 10 -3 10 -10v-80c0 -7 -3 -10 -10 -10h-432c-7 0 -10 3 -10 10v183h-185l-73 -183c-2 -7 -4 -10 -12 -10h-87c-7 0 -11 3 -11 10c0 2 0 3 1 6l272 674c3 7 7 10 12 10h510c7 0 10 -3 10 -10v-80c0 -7 -3 -10 -10 -10h-323v-182h293
c7 0 10 -3 10 -10v-80c0 -7 -3 -10 -10 -10h-293zM350 600l-122 -307h145v307h-23z" />
    <glyph glyph-name="Ccedilla" unicode="&#xc7;" horiz-adv-x="707" 
d="M303 -111l-20 19c-2 2 -3 5 -3 7s0 3 1 6l23 75c-138 24 -258 137 -258 354c0 248 157 360 318 360s286 -94 305 -247c0 -8 -3 -10 -11 -10h-81c-6 0 -10 3 -12 10c-28 101 -100 147 -201 147c-106 0 -210 -82 -210 -260s104 -260 210 -260c101 0 173 46 201 147
c2 7 6 10 12 10h81c8 0 11 -2 11 -10c-19 -152 -142 -245 -301 -247l-21 -47c14 4 36 7 52 7c59 0 89 -29 89 -75c0 -58 -40 -83 -113 -83c-46 0 -76 4 -101 10c-7 2 -10 3 -10 10v39c0 8 4 10 10 10c20 0 35 -13 91 -13c31 0 43 7 43 25c0 13 -10 23 -36 23
c-18 0 -40 -5 -55 -9c-3 -1 -4 -1 -6 -1c-3 0 -6 1 -8 3z" />
    <glyph glyph-name="Egrave" unicode="&#xc8;" horiz-adv-x="575" 
d="M173 318v-218h338c7 0 10 -3 10 -10v-80c0 -7 -3 -10 -10 -10h-432c-7 0 -10 3 -10 10v680c0 7 3 10 10 10h417c7 0 10 -3 10 -10v-80c0 -7 -3 -10 -10 -10h-323v-182h293c7 0 10 -3 10 -10v-80c0 -7 -3 -10 -10 -10h-293zM289 888l69 -126c3 -5 1 -10 -5 -10h-74
c-9 0 -13 3 -18 9l-103 127c-4 5 -2 10 5 10h111c7 0 11 -3 15 -10z" />
    <glyph glyph-name="Eacute" unicode="&#xc9;" horiz-adv-x="584" 
d="M182 318v-218h338c7 0 10 -3 10 -10v-80c0 -7 -3 -10 -10 -10h-432c-7 0 -10 3 -10 10v680c0 7 3 10 10 10h417c7 0 10 -3 10 -10v-80c0 -7 -3 -10 -10 -10h-323v-182h293c7 0 10 -3 10 -10v-80c0 -7 -3 -10 -10 -10h-293zM223 762l69 126c4 7 8 10 15 10h111
c7 0 9 -5 5 -10l-103 -127c-5 -6 -9 -9 -18 -9h-74c-6 0 -8 5 -5 10z" />
    <glyph glyph-name="Ecircumflex" unicode="&#xca;" horiz-adv-x="584" 
d="M182 318v-218h338c7 0 10 -3 10 -10v-80c0 -7 -3 -10 -10 -10h-432c-7 0 -10 3 -10 10v680c0 7 3 10 10 10h417c7 0 10 -3 10 -10v-80c0 -7 -3 -10 -10 -10h-323v-182h293c7 0 10 -3 10 -10v-80c0 -7 -3 -10 -10 -10h-293zM347 890l105 -134c4 -5 1 -10 -5 -10h-78
c-8 0 -12 3 -18 9l-53 53l-53 -53c-6 -6 -10 -9 -18 -9h-78c-6 0 -9 5 -5 10l105 134c5 6 8 8 15 8h68c7 0 10 -2 15 -8z" />
    <glyph glyph-name="Edieresis" unicode="&#xcb;" horiz-adv-x="575" 
d="M173 318v-218h338c7 0 10 -3 10 -10v-80c0 -7 -3 -10 -10 -10h-432c-7 0 -10 3 -10 10v680c0 7 3 10 10 10h417c7 0 10 -3 10 -10v-80c0 -7 -3 -10 -10 -10h-323v-182h293c7 0 10 -3 10 -10v-80c0 -7 -3 -10 -10 -10h-293zM145 794v94c0 7 3 10 10 10h94
c7 0 10 -3 10 -10v-94c0 -7 -3 -10 -10 -10h-94c-7 0 -10 3 -10 10zM317 794v94c0 7 3 10 10 10h94c7 0 10 -3 10 -10v-94c0 -7 -3 -10 -10 -10h-94c-7 0 -10 3 -10 10z" />
    <glyph glyph-name="Igrave" unicode="&#xcc;" horiz-adv-x="252" 
d="M74 10v680c0 7 3 10 10 10h84c7 0 10 -3 10 -10v-680c0 -7 -3 -10 -10 -10h-84c-7 0 -10 3 -10 10zM116 888l69 -126c3 -5 1 -10 -5 -10h-74c-9 0 -13 3 -18 9l-103 127c-4 5 -2 10 5 10h111c7 0 11 -3 15 -10z" />
    <glyph glyph-name="Iacute" unicode="&#xcd;" horiz-adv-x="252" 
d="M74 10v680c0 7 3 10 10 10h84c7 0 10 -3 10 -10v-680c0 -7 -3 -10 -10 -10h-84c-7 0 -10 3 -10 10zM68 762l69 126c4 7 8 10 15 10h111c7 0 9 -5 5 -10l-103 -127c-5 -6 -9 -9 -18 -9h-74c-6 0 -8 5 -5 10z" />
    <glyph glyph-name="Icircumflex" unicode="&#xce;" horiz-adv-x="252" 
d="M74 10v680c0 7 3 10 10 10h84c7 0 10 -3 10 -10v-680c0 -7 -3 -10 -10 -10h-84c-7 0 -10 3 -10 10zM175 890l105 -134c4 -5 1 -10 -5 -10h-78c-8 0 -12 3 -18 9l-53 53l-53 -53c-6 -6 -10 -9 -18 -9h-78c-6 0 -9 5 -5 10l105 134c5 6 8 8 15 8h68c7 0 10 -2 15 -8z" />
    <glyph glyph-name="Idieresis" unicode="&#xcf;" horiz-adv-x="252" 
d="M74 10v680c0 7 3 10 10 10h84c7 0 10 -3 10 -10v-680c0 -7 -3 -10 -10 -10h-84c-7 0 -10 3 -10 10zM-17 794v94c0 7 3 10 10 10h94c7 0 10 -3 10 -10v-94c0 -7 -3 -10 -10 -10h-94c-7 0 -10 3 -10 10zM155 794v94c0 7 3 10 10 10h94c7 0 10 -3 10 -10v-94
c0 -7 -3 -10 -10 -10h-94c-7 0 -10 3 -10 10z" />
    <glyph glyph-name="Eth" unicode="&#xd0;" horiz-adv-x="677" 
d="M96 10v291h-75c-7 0 -10 3 -10 10v78c0 7 3 10 10 10h75v291c0 7 3 10 10 10h205c177 0 320 -113 320 -350s-143 -350 -320 -350h-205c-7 0 -10 3 -10 10zM299 600h-99v-201h145c7 0 10 -3 10 -10v-78c0 -7 -3 -10 -10 -10h-145v-201h99c130 0 224 76 224 250
s-94 250 -224 250z" />
    <glyph glyph-name="Ntilde" unicode="&#xd1;" horiz-adv-x="696" 
d="M608 0h-91c-7 0 -13 1 -16 8l-319 512v-510c0 -7 -3 -10 -10 -10h-84c-7 0 -10 3 -10 10v680c0 7 3 10 10 10h91c7 0 13 -1 16 -8l319 -512v510c0 7 3 10 10 10h84c7 0 10 -3 10 -10v-680c0 -7 -3 -10 -10 -10zM174 864c31 25 76 44 106 44c78 0 84 -41 138 -41
c21 0 36 5 62 24c2 1 4 2 7 2c4 0 6 -2 10 -8l35 -50c3 -5 3 -6 3 -8c0 -3 -2 -7 -6 -10c-31 -25 -76 -44 -106 -44c-78 0 -84 41 -138 41c-21 0 -36 -5 -62 -24c-2 -1 -4 -2 -7 -2c-4 0 -6 2 -10 8l-35 50c-3 5 -3 6 -3 8c0 3 2 7 6 10z" />
    <glyph glyph-name="Ograve" unicode="&#xd2;" horiz-adv-x="768" 
d="M384 -10c-171 0 -338 116 -338 360s167 360 338 360s338 -116 338 -360s-167 -360 -338 -360zM384 90c121 0 230 83 230 260s-109 260 -230 260s-230 -83 -230 -260s109 -260 230 -260zM380 888l69 -126c3 -5 1 -10 -5 -10h-74c-9 0 -13 3 -18 9l-103 127
c-4 5 -2 10 5 10h111c7 0 11 -3 15 -10z" />
    <glyph glyph-name="Oacute" unicode="&#xd3;" horiz-adv-x="768" 
d="M384 -10c-171 0 -338 116 -338 360s167 360 338 360s338 -116 338 -360s-167 -360 -338 -360zM384 90c121 0 230 83 230 260s-109 260 -230 260s-230 -83 -230 -260s109 -260 230 -260zM305 762l69 126c4 7 8 10 15 10h111c7 0 9 -5 5 -10l-103 -127c-5 -6 -9 -9 -18 -9
h-74c-6 0 -8 5 -5 10z" />
    <glyph glyph-name="Ocircumflex" unicode="&#xd4;" horiz-adv-x="768" 
d="M384 -10c-171 0 -338 116 -338 360s167 360 338 360s338 -116 338 -360s-167 -360 -338 -360zM384 90c121 0 230 83 230 260s-109 260 -230 260s-230 -83 -230 -260s109 -260 230 -260zM433 890l105 -134c4 -5 1 -10 -5 -10h-78c-8 0 -12 3 -18 9l-53 53l-53 -53
c-6 -6 -10 -9 -18 -9h-78c-6 0 -9 5 -5 10l105 134c5 6 8 8 15 8h68c7 0 10 -2 15 -8z" />
    <glyph glyph-name="Otilde" unicode="&#xd5;" horiz-adv-x="768" 
d="M384 -10c-171 0 -338 116 -338 360s167 360 338 360s338 -116 338 -360s-167 -360 -338 -360zM384 90c121 0 230 83 230 260s-109 260 -230 260s-230 -83 -230 -260s109 -260 230 -260zM207 864c31 25 76 44 106 44c78 0 84 -41 138 -41c21 0 36 5 62 24c2 1 4 2 7 2
c4 0 6 -2 10 -8l35 -50c3 -5 3 -6 3 -8c0 -3 -2 -7 -6 -10c-31 -25 -76 -44 -106 -44c-78 0 -84 41 -138 41c-21 0 -36 -5 -62 -24c-2 -1 -4 -2 -7 -2c-4 0 -6 2 -10 8l-35 50c-3 5 -3 6 -3 8c0 3 2 7 6 10z" />
    <glyph glyph-name="Odieresis" unicode="&#xd6;" horiz-adv-x="768" 
d="M384 -10c-171 0 -338 116 -338 360s167 360 338 360s338 -116 338 -360s-167 -360 -338 -360zM384 90c121 0 230 83 230 260s-109 260 -230 260s-230 -83 -230 -260s109 -260 230 -260zM241 794v94c0 7 3 10 10 10h94c7 0 10 -3 10 -10v-94c0 -7 -3 -10 -10 -10h-94
c-7 0 -10 3 -10 10zM413 794v94c0 7 3 10 10 10h94c7 0 10 -3 10 -10v-94c0 -7 -3 -10 -10 -10h-94c-7 0 -10 3 -10 10z" />
    <glyph glyph-name="multiply" unicode="&#xd7;" horiz-adv-x="506" 
d="M441 461l-119 -119l119 -119c3 -3 4 -5 4 -7s-1 -4 -4 -7l-55 -55c-3 -3 -5 -4 -7 -4s-4 1 -7 4l-119 119l-119 -119c-3 -3 -5 -4 -7 -4s-4 1 -7 4l-55 55c-3 3 -4 5 -4 7s1 4 4 7l119 119l-119 119c-3 3 -4 5 -4 7s1 4 4 7l55 55c3 3 5 4 7 4s4 -1 7 -4l119 -119
l119 119c3 3 5 4 7 4s4 -1 7 -4l55 -55c3 -3 4 -5 4 -7s-1 -4 -4 -7z" />
    <glyph glyph-name="Oslash" unicode="&#xd8;" horiz-adv-x="768" 
d="M384 -10c-54 0 -107 11 -155 34l-40 -67c-3 -5 -5 -6 -8 -6c-2 0 -4 1 -6 2l-36 21c-5 3 -6 5 -6 8c0 2 1 4 2 6l41 69c-77 59 -130 155 -130 293c0 244 167 360 338 360c54 0 107 -11 155 -34l40 67c3 5 5 6 8 6c2 0 4 -1 6 -2l36 -21c5 -3 6 -5 6 -8c0 -2 -1 -4 -2 -6
l-41 -69c77 -59 130 -155 130 -293c0 -244 -167 -360 -338 -360zM154 350c0 -93 29 -160 75 -202l258 440c-31 15 -66 22 -103 22c-121 0 -230 -83 -230 -260zM384 90c121 0 230 83 230 260c0 93 -29 160 -75 202l-258 -440c31 -15 66 -22 103 -22z" />
    <glyph glyph-name="Ugrave" unicode="&#xd9;" horiz-adv-x="640" 
d="M62 256v434c0 7 3 10 10 10h84c7 0 10 -3 10 -10v-428c0 -115 62 -172 154 -172s154 57 154 172v428c0 7 3 10 10 10h84c7 0 10 -3 10 -10v-434c0 -168 -107 -266 -258 -266s-258 98 -258 266zM316 888l69 -126c3 -5 1 -10 -5 -10h-74c-9 0 -13 3 -18 9l-103 127
c-4 5 -2 10 5 10h111c7 0 11 -3 15 -10z" />
    <glyph glyph-name="Uacute" unicode="&#xda;" horiz-adv-x="640" 
d="M62 256v434c0 7 3 10 10 10h84c7 0 10 -3 10 -10v-428c0 -115 62 -172 154 -172s154 57 154 172v428c0 7 3 10 10 10h84c7 0 10 -3 10 -10v-434c0 -168 -107 -266 -258 -266s-258 98 -258 266zM250 762l69 126c4 7 8 10 15 10h111c7 0 9 -5 5 -10l-103 -127
c-5 -6 -9 -9 -18 -9h-74c-6 0 -8 5 -5 10z" />
    <glyph glyph-name="Ucircumflex" unicode="&#xdb;" horiz-adv-x="640" 
d="M62 256v434c0 7 3 10 10 10h84c7 0 10 -3 10 -10v-428c0 -115 62 -172 154 -172s154 57 154 172v428c0 7 3 10 10 10h84c7 0 10 -3 10 -10v-434c0 -168 -107 -266 -258 -266s-258 98 -258 266zM369 890l105 -134c4 -5 1 -10 -5 -10h-78c-8 0 -12 3 -18 9l-53 53l-53 -53
c-6 -6 -10 -9 -18 -9h-78c-6 0 -9 5 -5 10l105 134c5 6 8 8 15 8h68c7 0 10 -2 15 -8z" />
    <glyph glyph-name="Udieresis" unicode="&#xdc;" horiz-adv-x="640" 
d="M62 256v434c0 7 3 10 10 10h84c7 0 10 -3 10 -10v-428c0 -115 62 -172 154 -172s154 57 154 172v428c0 7 3 10 10 10h84c7 0 10 -3 10 -10v-434c0 -168 -107 -266 -258 -266s-258 98 -258 266zM177 794v94c0 7 3 10 10 10h94c7 0 10 -3 10 -10v-94c0 -7 -3 -10 -10 -10
h-94c-7 0 -10 3 -10 10zM349 794v94c0 7 3 10 10 10h94c7 0 10 -3 10 -10v-94c0 -7 -3 -10 -10 -10h-94c-7 0 -10 3 -10 10z" />
    <glyph glyph-name="Yacute" unicode="&#xdd;" horiz-adv-x="546" 
d="M543 690l-218 -438v-242c0 -7 -3 -10 -10 -10h-84c-7 0 -10 3 -10 10v242l-218 438c-2 7 2 10 6 10h100c7 0 9 -3 11 -8l153 -321l153 321c2 5 4 8 11 8h100c4 0 8 -3 6 -10zM209 762l69 126c4 7 8 10 15 10h111c7 0 9 -5 5 -10l-103 -127c-5 -6 -9 -9 -18 -9h-74
c-6 0 -8 5 -5 10z" />
    <glyph glyph-name="Thorn" unicode="&#xde;" horiz-adv-x="606" 
d="M78 10v680c0 7 3 10 10 10h84c7 0 10 -3 10 -10v-142h160c154 0 226 -75 226 -198s-72 -198 -226 -198h-160v-142c0 -7 -3 -10 -10 -10h-84c-7 0 -10 3 -10 10zM182 448v-196h163c71 0 115 33 115 98s-44 98 -115 98h-163z" />
    <glyph glyph-name="germandbls" unicode="&#xdf;" horiz-adv-x="624" 
d="M407 -10c-111 0 -180 76 -182 166c0 7 3 10 10 10h76c7 0 8 -3 10 -10c11 -46 40 -72 86 -72c50 0 79 26 79 78c0 110 -181 86 -181 215c0 82 90 90 90 156c0 51 -33 83 -93 83c-64 0 -105 -40 -105 -124v-482c0 -7 -3 -10 -10 -10h-78c-7 0 -10 3 -10 10v398h-71
c-7 0 -10 3 -10 10v74c0 7 3 10 10 10h71v13c0 120 81 195 200 195c116 0 194 -70 194 -168c0 -112 -90 -118 -90 -165c0 -57 185 -64 185 -207c0 -113 -78 -180 -181 -180z" />
    <glyph glyph-name="agrave" unicode="&#xe0;" horiz-adv-x="539" 
d="M153 349h-84c-4 0 -7 2 -7 6c0 2 0 6 1 10c20 81 90 147 208 147c125 0 205 -70 205 -186v-224c0 -48 5 -67 19 -92c4 -7 0 -10 -7 -10h-100c-7 0 -10 3 -10 10v37c-35 -34 -79 -57 -156 -57c-94 0 -181 57 -181 163c0 111 92 169 204 169c54 0 89 -8 133 -21v18
c0 62 -37 103 -107 103c-52 0 -87 -22 -104 -64c-3 -8 -8 -9 -14 -9zM378 211c-46 14 -76 21 -128 21c-58 0 -105 -24 -105 -75c0 -45 31 -73 91 -73c77 0 142 45 142 127zM261 690l69 -126c3 -5 1 -10 -5 -10h-74c-9 0 -13 3 -18 9l-103 127c-4 5 -2 10 5 10h111
c7 0 11 -3 15 -10z" />
    <glyph glyph-name="aacute" unicode="&#xe1;" horiz-adv-x="539" 
d="M153 349h-84c-4 0 -7 2 -7 6c0 2 0 6 1 10c20 81 90 147 208 147c125 0 205 -70 205 -186v-224c0 -48 5 -67 19 -92c4 -7 0 -10 -7 -10h-100c-7 0 -10 3 -10 10v37c-35 -34 -79 -57 -156 -57c-94 0 -181 57 -181 163c0 111 92 169 204 169c54 0 89 -8 133 -21v18
c0 62 -37 103 -107 103c-52 0 -87 -22 -104 -64c-3 -8 -8 -9 -14 -9zM378 211c-46 14 -76 21 -128 21c-58 0 -105 -24 -105 -75c0 -45 31 -73 91 -73c77 0 142 45 142 127zM199 564l69 126c4 7 8 10 15 10h111c7 0 9 -5 5 -10l-103 -127c-5 -6 -9 -9 -18 -9h-74
c-6 0 -8 5 -5 10z" />
    <glyph glyph-name="acircumflex" unicode="&#xe2;" horiz-adv-x="539" 
d="M153 349h-84c-4 0 -7 2 -7 6c0 2 0 6 1 10c20 81 90 147 208 147c125 0 205 -70 205 -186v-224c0 -48 5 -67 19 -92c4 -7 0 -10 -7 -10h-100c-7 0 -10 3 -10 10v37c-35 -34 -79 -57 -156 -57c-94 0 -181 57 -181 163c0 111 92 169 204 169c54 0 89 -8 133 -21v18
c0 62 -37 103 -107 103c-52 0 -87 -22 -104 -64c-3 -8 -8 -9 -14 -9zM378 211c-46 14 -76 21 -128 21c-58 0 -105 -24 -105 -75c0 -45 31 -73 91 -73c77 0 142 45 142 127zM320 692l105 -134c4 -5 1 -10 -5 -10h-78c-8 0 -12 3 -18 9l-53 53l-53 -53c-6 -6 -10 -9 -18 -9
h-78c-6 0 -9 5 -5 10l105 134c5 6 8 8 15 8h68c7 0 10 -2 15 -8z" />
    <glyph glyph-name="atilde" unicode="&#xe3;" horiz-adv-x="539" 
d="M153 349h-84c-4 0 -7 2 -7 6c0 2 0 6 1 10c20 81 90 147 208 147c125 0 205 -70 205 -186v-224c0 -48 5 -67 19 -92c4 -7 0 -10 -7 -10h-100c-7 0 -10 3 -10 10v37c-35 -34 -79 -57 -156 -57c-94 0 -181 57 -181 163c0 111 92 169 204 169c54 0 89 -8 133 -21v18
c0 62 -37 103 -107 103c-52 0 -87 -22 -104 -64c-3 -8 -8 -9 -14 -9zM378 211c-46 14 -76 21 -128 21c-58 0 -105 -24 -105 -75c0 -45 31 -73 91 -73c77 0 142 45 142 127zM98 666c31 25 76 44 106 44c78 0 84 -41 138 -41c21 0 36 5 62 24c2 1 4 2 7 2c4 0 6 -2 10 -8
l35 -50c3 -5 3 -6 3 -8c0 -3 -2 -7 -6 -10c-31 -25 -76 -44 -106 -44c-78 0 -84 41 -138 41c-21 0 -36 -5 -62 -24c-2 -1 -4 -2 -7 -2c-4 0 -6 2 -10 8l-35 50c-3 5 -3 6 -3 8c0 3 2 7 6 10z" />
    <glyph glyph-name="adieresis" unicode="&#xe4;" horiz-adv-x="539" 
d="M153 349h-84c-4 0 -7 2 -7 6c0 2 0 6 1 10c20 81 90 147 208 147c125 0 205 -70 205 -186v-224c0 -48 5 -67 19 -92c4 -7 0 -10 -7 -10h-100c-7 0 -10 3 -10 10v37c-35 -34 -79 -57 -156 -57c-94 0 -181 57 -181 163c0 111 92 169 204 169c54 0 89 -8 133 -21v18
c0 62 -37 103 -107 103c-52 0 -87 -22 -104 -64c-3 -8 -8 -9 -14 -9zM378 211c-46 14 -76 21 -128 21c-58 0 -105 -24 -105 -75c0 -45 31 -73 91 -73c77 0 142 45 142 127zM128 596v94c0 7 3 10 10 10h94c7 0 10 -3 10 -10v-94c0 -7 -3 -10 -10 -10h-94c-7 0 -10 3 -10 10z
M300 596v94c0 7 3 10 10 10h94c7 0 10 -3 10 -10v-94c0 -7 -3 -10 -10 -10h-94c-7 0 -10 3 -10 10z" />
    <glyph glyph-name="aring" unicode="&#xe5;" horiz-adv-x="539" 
d="M153 349h-84c-4 0 -7 2 -7 6c0 2 0 6 1 10c20 81 90 147 208 147c125 0 205 -70 205 -186v-224c0 -48 5 -67 19 -92c4 -7 0 -10 -7 -10h-100c-7 0 -10 3 -10 10v37c-35 -34 -79 -57 -156 -57c-94 0 -181 57 -181 163c0 111 92 169 204 169c54 0 89 -8 133 -21v18
c0 62 -37 103 -107 103c-52 0 -87 -22 -104 -64c-3 -8 -8 -9 -14 -9zM378 211c-46 14 -76 21 -128 21c-58 0 -105 -24 -105 -75c0 -45 31 -73 91 -73c77 0 142 45 142 127zM177 628c0 54 39 92 95 92s95 -38 95 -92s-39 -92 -95 -92s-95 38 -95 92zM235 628
c0 -24 16 -38 37 -38s37 14 37 38s-16 38 -37 38s-37 -14 -37 -38z" />
    <glyph glyph-name="ae" unicode="&#xe6;" horiz-adv-x="933" 
d="M153 349h-84c-4 0 -7 2 -7 6c0 2 0 6 1 10c20 81 90 147 208 147c81 0 144 -30 177 -83c46 52 113 83 191 83c159 0 253 -121 253 -264v-19c0 -7 -3 -10 -10 -10h-392c11 -84 66 -135 150 -135c68 0 111 22 136 75c4 8 7 9 14 9h85c5 0 7 -3 7 -7c0 -2 0 -4 -2 -10
c-42 -112 -124 -161 -240 -161c-87 0 -158 37 -203 97c-43 -61 -118 -97 -215 -97c-94 0 -180 57 -180 163c0 111 91 169 203 169c54 0 89 -8 133 -21v18c0 62 -37 103 -107 103c-52 0 -87 -22 -104 -64c-3 -8 -8 -9 -14 -9zM378 211c-46 14 -76 21 -128 21
c-58 0 -106 -24 -106 -75c0 -45 32 -73 92 -73c77 0 142 45 142 127zM639 418c-62 0 -124 -33 -144 -109h290c-17 72 -75 109 -146 109z" />
    <glyph glyph-name="ccedilla" unicode="&#xe7;" horiz-adv-x="567" 
d="M240 -111l-20 19c-2 2 -3 4 -3 7c0 2 0 3 1 6l23 75c-120 23 -197 122 -197 255c0 153 102 261 254 261c128 0 210 -75 229 -173c1 -4 1 -8 1 -10c0 -4 -3 -6 -7 -6h-81c-7 0 -11 1 -14 9c-20 59 -71 86 -128 86c-91 0 -152 -59 -152 -167s61 -167 152 -167
c57 0 108 27 128 86c3 8 7 9 14 9h81c4 0 7 -2 7 -6c0 -2 0 -6 -1 -10c-19 -96 -98 -170 -222 -173l-21 -47c14 4 36 7 52 7c59 0 89 -29 89 -75c0 -58 -40 -83 -113 -83c-46 0 -76 4 -101 10c-7 2 -10 3 -10 10v39c0 8 4 10 10 10c20 0 35 -13 91 -13c31 0 43 7 43 25
c0 13 -10 23 -36 23c-18 0 -39 -5 -55 -9c-3 -1 -4 -1 -6 -1c-3 0 -6 1 -8 3z" />
    <glyph glyph-name="egrave" unicode="&#xe8;" horiz-adv-x="593" 
d="M299 84c68 0 111 22 136 75c4 8 7 9 14 9h85c5 0 7 -3 7 -7c0 -2 0 -4 -2 -10c-42 -112 -124 -161 -240 -161c-150 0 -255 110 -255 261s107 261 254 261c159 0 253 -121 253 -264v-19c0 -7 -3 -10 -10 -10h-393c11 -84 67 -135 151 -135zM298 418
c-62 0 -126 -33 -146 -109h292c-17 72 -75 109 -146 109zM302 690l69 -126c3 -5 1 -10 -5 -10h-74c-9 0 -13 3 -18 9l-103 127c-4 5 -2 10 5 10h111c7 0 11 -3 15 -10z" />
    <glyph glyph-name="eacute" unicode="&#xe9;" horiz-adv-x="593" 
d="M299 84c68 0 111 22 136 75c4 8 7 9 14 9h85c5 0 7 -3 7 -7c0 -2 0 -4 -2 -10c-42 -112 -124 -161 -240 -161c-150 0 -255 110 -255 261s107 261 254 261c159 0 253 -121 253 -264v-19c0 -7 -3 -10 -10 -10h-393c11 -84 67 -135 151 -135zM298 418
c-62 0 -126 -33 -146 -109h292c-17 72 -75 109 -146 109zM215 564l69 126c4 7 8 10 15 10h111c7 0 9 -5 5 -10l-103 -127c-5 -6 -9 -9 -18 -9h-74c-6 0 -8 5 -5 10z" />
    <glyph glyph-name="ecircumflex" unicode="&#xea;" horiz-adv-x="593" 
d="M299 84c68 0 111 22 136 75c4 8 7 9 14 9h85c5 0 7 -3 7 -7c0 -2 0 -4 -2 -10c-42 -112 -124 -161 -240 -161c-150 0 -255 110 -255 261s107 261 254 261c159 0 253 -121 253 -264v-19c0 -7 -3 -10 -10 -10h-393c11 -84 67 -135 151 -135zM298 418
c-62 0 -126 -33 -146 -109h292c-17 72 -75 109 -146 109zM352 692l105 -134c4 -5 1 -10 -5 -10h-78c-8 0 -12 3 -18 9l-53 53l-53 -53c-6 -6 -10 -9 -18 -9h-78c-6 0 -9 5 -5 10l105 134c5 6 8 8 15 8h68c7 0 10 -2 15 -8z" />
    <glyph glyph-name="edieresis" unicode="&#xeb;" horiz-adv-x="593" 
d="M299 84c68 0 111 22 136 75c4 8 7 9 14 9h85c5 0 7 -3 7 -7c0 -2 0 -4 -2 -10c-42 -112 -124 -161 -240 -161c-150 0 -255 110 -255 261s107 261 254 261c159 0 253 -121 253 -264v-19c0 -7 -3 -10 -10 -10h-393c11 -84 67 -135 151 -135zM298 418
c-62 0 -126 -33 -146 -109h292c-17 72 -75 109 -146 109zM157 596v94c0 7 3 10 10 10h94c7 0 10 -3 10 -10v-94c0 -7 -3 -10 -10 -10h-94c-7 0 -10 3 -10 10zM329 596v94c0 7 3 10 10 10h94c7 0 10 -3 10 -10v-94c0 -7 -3 -10 -10 -10h-94c-7 0 -10 3 -10 10z" />
    <glyph glyph-name="igrave" unicode="&#xec;" horiz-adv-x="214" 
d="M58 10v482c0 7 3 10 10 10h78c7 0 10 -3 10 -10v-482c0 -7 -3 -10 -10 -10h-78c-7 0 -10 3 -10 10zM105 690l69 -126c3 -5 1 -10 -5 -10h-74c-9 0 -13 3 -18 9l-103 127c-4 5 -2 10 5 10h111c7 0 11 -3 15 -10z" />
    <glyph glyph-name="iacute" unicode="&#xed;" horiz-adv-x="214" 
d="M58 10v482c0 7 3 10 10 10h78c7 0 10 -3 10 -10v-482c0 -7 -3 -10 -10 -10h-78c-7 0 -10 3 -10 10zM41 564l69 126c4 7 8 10 15 10h111c7 0 9 -5 5 -10l-103 -127c-5 -6 -9 -9 -18 -9h-74c-6 0 -8 5 -5 10z" />
    <glyph glyph-name="icircumflex" unicode="&#xee;" horiz-adv-x="214" 
d="M58 10v482c0 7 3 10 10 10h78c7 0 10 -3 10 -10v-482c0 -7 -3 -10 -10 -10h-78c-7 0 -10 3 -10 10zM156 692l105 -134c4 -5 1 -10 -5 -10h-78c-8 0 -12 3 -18 9l-53 53l-53 -53c-6 -6 -10 -9 -18 -9h-78c-6 0 -9 5 -5 10l105 134c5 6 8 8 15 8h68c7 0 10 -2 15 -8z" />
    <glyph glyph-name="idieresis" unicode="&#xef;" horiz-adv-x="214" 
d="M58 10v482c0 7 3 10 10 10h78c7 0 10 -3 10 -10v-482c0 -7 -3 -10 -10 -10h-78c-7 0 -10 3 -10 10zM-36 596v94c0 7 3 10 10 10h94c7 0 10 -3 10 -10v-94c0 -7 -3 -10 -10 -10h-94c-7 0 -10 3 -10 10zM136 596v94c0 7 3 10 10 10h94c7 0 10 -3 10 -10v-94
c0 -7 -3 -10 -10 -10h-94c-7 0 -10 3 -10 10z" />
    <glyph glyph-name="eth" unicode="&#xf0;" horiz-adv-x="582" 
d="M416 467c-18 38 -48 68 -83 92l-106 -40c-7 -3 -11 -1 -13 5l-23 59c-3 7 0 10 6 13l28 10c-19 5 -38 9 -56 11c-6 1 -9 6 -8 14l12 67c1 7 7 7 14 7c61 -7 117 -23 166 -50l114 43c7 3 11 1 13 -5l23 -59c2 -7 0 -11 -6 -13l-62 -24c66 -67 103 -165 103 -294
c0 -210 -95 -313 -247 -313c-148 0 -247 108 -247 261c0 155 99 261 237 261c60 0 95 -14 135 -45zM146 251c0 -99 54 -167 145 -167c83 0 145 65 145 167c0 99 -62 167 -145 167c-91 0 -145 -68 -145 -167z" />
    <glyph glyph-name="ntilde" unicode="&#xf1;" horiz-adv-x="570" 
d="M74 10v482c0 7 3 10 10 10h78c7 0 10 -3 10 -10v-45c42 40 93 65 159 65c110 0 173 -65 173 -175v-327c0 -7 -3 -10 -10 -10h-78c-7 0 -10 3 -10 10v298c0 76 -38 110 -100 110c-71 0 -134 -57 -134 -171v-237c0 -7 -3 -10 -10 -10h-78c-7 0 -10 3 -10 10zM113 666
c31 25 76 44 106 44c78 0 84 -41 138 -41c21 0 36 5 62 24c2 1 4 2 7 2c4 0 6 -2 10 -8l35 -50c3 -5 3 -6 3 -8c0 -3 -2 -7 -6 -10c-31 -25 -76 -44 -106 -44c-78 0 -84 41 -138 41c-21 0 -36 -5 -62 -24c-2 -1 -4 -2 -7 -2c-4 0 -6 2 -10 8l-35 50c-3 5 -3 6 -3 8
c0 3 2 7 6 10z" />
    <glyph glyph-name="ograve" unicode="&#xf2;" horiz-adv-x="610" 
d="M44 251c0 155 112 261 261 261s261 -106 261 -261s-112 -261 -261 -261s-261 106 -261 261zM148 251c0 -100 65 -167 157 -167s157 67 157 167s-65 167 -157 167s-157 -67 -157 -167zM303 690l69 -126c3 -5 1 -10 -5 -10h-74c-9 0 -13 3 -18 9l-103 127c-4 5 -2 10 5 10
h111c7 0 11 -3 15 -10z" />
    <glyph glyph-name="oacute" unicode="&#xf3;" horiz-adv-x="610" 
d="M44 251c0 155 112 261 261 261s261 -106 261 -261s-112 -261 -261 -261s-261 106 -261 261zM148 251c0 -100 65 -167 157 -167s157 67 157 167s-65 167 -157 167s-157 -67 -157 -167zM220 564l69 126c4 7 8 10 15 10h111c7 0 9 -5 5 -10l-103 -127c-5 -6 -9 -9 -18 -9
h-74c-6 0 -8 5 -5 10z" />
    <glyph glyph-name="ocircumflex" unicode="&#xf4;" horiz-adv-x="610" 
d="M44 251c0 155 112 261 261 261s261 -106 261 -261s-112 -261 -261 -261s-261 106 -261 261zM148 251c0 -100 65 -167 157 -167s157 67 157 167s-65 167 -157 167s-157 -67 -157 -167zM354 692l105 -134c4 -5 1 -10 -5 -10h-78c-8 0 -12 3 -18 9l-53 53l-53 -53
c-6 -6 -10 -9 -18 -9h-78c-6 0 -9 5 -5 10l105 134c5 6 8 8 15 8h68c7 0 10 -2 15 -8z" />
    <glyph glyph-name="otilde" unicode="&#xf5;" horiz-adv-x="610" 
d="M44 251c0 155 112 261 261 261s261 -106 261 -261s-112 -261 -261 -261s-261 106 -261 261zM148 251c0 -100 65 -167 157 -167s157 67 157 167s-65 167 -157 167s-157 -67 -157 -167zM128 666c31 25 76 44 106 44c78 0 84 -41 138 -41c21 0 36 5 62 24c2 1 4 2 7 2
c4 0 6 -2 10 -8l35 -50c3 -5 3 -6 3 -8c0 -3 -2 -7 -6 -10c-31 -25 -76 -44 -106 -44c-78 0 -84 41 -138 41c-21 0 -36 -5 -62 -24c-2 -1 -4 -2 -7 -2c-4 0 -6 2 -10 8l-35 50c-3 5 -3 6 -3 8c0 3 2 7 6 10z" />
    <glyph glyph-name="odieresis" unicode="&#xf6;" horiz-adv-x="610" 
d="M44 251c0 155 112 261 261 261s261 -106 261 -261s-112 -261 -261 -261s-261 106 -261 261zM148 251c0 -100 65 -167 157 -167s157 67 157 167s-65 167 -157 167s-157 -67 -157 -167zM162 596v94c0 7 3 10 10 10h94c7 0 10 -3 10 -10v-94c0 -7 -3 -10 -10 -10h-94
c-7 0 -10 3 -10 10zM334 596v94c0 7 3 10 10 10h94c7 0 10 -3 10 -10v-94c0 -7 -3 -10 -10 -10h-94c-7 0 -10 3 -10 10z" />
    <glyph glyph-name="divide" unicode="&#xf7;" horiz-adv-x="572" 
d="M69 300h434c7 0 10 -3 10 -10v-78c0 -7 -3 -10 -10 -10h-434c-7 0 -10 3 -10 10v78c0 7 3 10 10 10zM234 116h96c7 0 10 -3 10 -10v-96c0 -7 -3 -10 -10 -10h-96c-7 0 -10 3 -10 10v96c0 7 3 10 10 10zM234 502h96c7 0 10 -3 10 -10v-96c0 -7 -3 -10 -10 -10h-96
c-7 0 -10 3 -10 10v96c0 7 3 10 10 10z" />
    <glyph glyph-name="oslash" unicode="&#xf8;" horiz-adv-x="610" 
d="M44 251c0 155 112 261 261 261c38 0 73 -6 104 -19l31 53c3 5 5 6 8 6c2 0 4 -1 6 -2l36 -21c4 -3 6 -5 6 -8c0 -2 -1 -4 -2 -6l-30 -52c63 -46 102 -120 102 -212c0 -155 -112 -261 -261 -261c-38 0 -73 6 -104 19l-31 -53c-3 -5 -5 -6 -8 -6c-2 0 -4 1 -6 2l-36 21
c-4 3 -6 5 -6 8c0 2 1 4 2 6l30 52c-63 46 -102 120 -102 212zM462 251c0 53 -17 96 -48 126l-165 -284c17 -6 36 -9 56 -9c92 0 157 67 157 167zM148 251c0 -53 17 -96 48 -126l165 284c-17 6 -36 9 -56 9c-92 0 -157 -67 -157 -167z" />
    <glyph glyph-name="ugrave" unicode="&#xf9;" horiz-adv-x="570" 
d="M496 492v-482c0 -7 -3 -10 -10 -10h-78c-7 0 -10 3 -10 10v45c-42 -40 -93 -65 -159 -65c-110 0 -173 65 -173 175v327c0 7 3 10 10 10h78c7 0 10 -3 10 -10v-298c0 -76 38 -110 100 -110c71 0 134 57 134 171v237c0 7 3 10 10 10h78c7 0 10 -3 10 -10zM278 690l69 -126
c3 -5 1 -10 -5 -10h-74c-9 0 -13 3 -18 9l-103 127c-4 5 -2 10 5 10h111c7 0 11 -3 15 -10z" />
    <glyph glyph-name="uacute" unicode="&#xfa;" horiz-adv-x="570" 
d="M496 492v-482c0 -7 -3 -10 -10 -10h-78c-7 0 -10 3 -10 10v45c-42 -40 -93 -65 -159 -65c-110 0 -173 65 -173 175v327c0 7 3 10 10 10h78c7 0 10 -3 10 -10v-298c0 -76 38 -110 100 -110c71 0 134 57 134 171v237c0 7 3 10 10 10h78c7 0 10 -3 10 -10zM198 564l69 126
c4 7 8 10 15 10h111c7 0 9 -5 5 -10l-103 -127c-5 -6 -9 -9 -18 -9h-74c-6 0 -8 5 -5 10z" />
    <glyph glyph-name="ucircumflex" unicode="&#xfb;" horiz-adv-x="570" 
d="M496 492v-482c0 -7 -3 -10 -10 -10h-78c-7 0 -10 3 -10 10v45c-42 -40 -93 -65 -159 -65c-110 0 -173 65 -173 175v327c0 7 3 10 10 10h78c7 0 10 -3 10 -10v-298c0 -76 38 -110 100 -110c71 0 134 57 134 171v237c0 7 3 10 10 10h78c7 0 10 -3 10 -10zM331 692l105 -134
c4 -5 1 -10 -5 -10h-78c-8 0 -12 3 -18 9l-53 53l-53 -53c-6 -6 -10 -9 -18 -9h-78c-6 0 -9 5 -5 10l105 134c5 6 8 8 15 8h68c7 0 10 -2 15 -8z" />
    <glyph glyph-name="udieresis" unicode="&#xfc;" horiz-adv-x="570" 
d="M496 492v-482c0 -7 -3 -10 -10 -10h-78c-7 0 -10 3 -10 10v45c-42 -40 -93 -65 -159 -65c-110 0 -173 65 -173 175v327c0 7 3 10 10 10h78c7 0 10 -3 10 -10v-298c0 -76 38 -110 100 -110c71 0 134 57 134 171v237c0 7 3 10 10 10h78c7 0 10 -3 10 -10zM137 596v94
c0 7 3 10 10 10h94c7 0 10 -3 10 -10v-94c0 -7 -3 -10 -10 -10h-94c-7 0 -10 3 -10 10zM309 596v94c0 7 3 10 10 10h94c7 0 10 -3 10 -10v-94c0 -7 -3 -10 -10 -10h-94c-7 0 -10 3 -10 10z" />
    <glyph glyph-name="yacute" unicode="&#xfd;" horiz-adv-x="484" 
d="M106 502c8 0 11 -3 13 -10l134 -347l112 347c2 7 4 10 13 10h89c5 0 8 -2 8 -7c0 -2 0 -4 -1 -7l-183 -537c-43 -126 -104 -159 -174 -159c-38 0 -63 6 -85 16c-9 5 -10 10 -10 16v74c0 7 4 10 8 10c16 0 35 -22 76 -22c50 0 78 30 102 117l-200 483c-1 3 -2 5 -2 8
c0 5 3 8 8 8h92zM179 564l69 126c4 7 8 10 15 10h111c7 0 9 -5 5 -10l-103 -127c-5 -6 -9 -9 -18 -9h-74c-6 0 -8 5 -5 10z" />
    <glyph glyph-name="thorn" unicode="&#xfe;" horiz-adv-x="596" 
d="M74 -188v878c0 7 3 10 10 10h78c7 0 10 -3 10 -10v-236c43 35 90 58 154 58c135 0 226 -102 226 -261s-91 -261 -226 -261c-65 0 -116 20 -154 57v-235c0 -7 -3 -10 -10 -10h-78c-7 0 -10 3 -10 10zM164 251c0 -98 58 -167 142 -167c87 0 142 69 142 167
s-55 167 -142 167c-84 0 -142 -69 -142 -167z" />
    <glyph glyph-name="ydieresis" unicode="&#xff;" horiz-adv-x="484" 
d="M106 502c8 0 11 -3 13 -10l134 -347l112 347c2 7 4 10 13 10h89c5 0 8 -2 8 -7c0 -2 0 -4 -1 -7l-183 -537c-43 -126 -104 -159 -174 -159c-38 0 -63 6 -85 16c-9 5 -10 10 -10 16v74c0 7 4 10 8 10c16 0 35 -22 76 -22c50 0 78 30 102 117l-200 483c-1 3 -2 5 -2 8
c0 5 3 8 8 8h92zM99 596v94c0 7 3 10 10 10h94c7 0 10 -3 10 -10v-94c0 -7 -3 -10 -10 -10h-94c-7 0 -10 3 -10 10zM271 596v94c0 7 3 10 10 10h94c7 0 10 -3 10 -10v-94c0 -7 -3 -10 -10 -10h-94c-7 0 -10 3 -10 10z" />
    <glyph glyph-name="dotlessi" unicode="&#x131;" horiz-adv-x="214" 
d="M58 10v482c0 7 3 10 10 10h78c7 0 10 -3 10 -10v-482c0 -7 -3 -10 -10 -10h-78c-7 0 -10 3 -10 10z" />
    <glyph glyph-name="Lslash" unicode="&#x141;" horiz-adv-x="578" 
d="M88 10v221l-52 -27c-6 -3 -10 -2 -14 5l-34 64c-3 6 -2 11 4 14l96 51v352c0 7 3 10 10 10h84c7 0 10 -3 10 -10v-297l134 71c6 3 10 2 14 -5l34 -64c3 -6 2 -11 -4 -14l-178 -95v-186h341c7 0 10 -3 10 -10v-80c0 -7 -3 -10 -10 -10h-435c-7 0 -10 3 -10 10z" />
    <glyph glyph-name="lslash" unicode="&#x142;" horiz-adv-x="291" 
d="M-18 306l116 62v322c0 7 3 10 10 10h78c7 0 10 -3 10 -10v-269l72 39c6 3 10 2 14 -5l34 -64c3 -6 2 -11 -4 -14l-116 -63v-304c0 -7 -3 -10 -10 -10h-78c-7 0 -10 3 -10 10v252l-72 -39c-6 -3 -10 -2 -14 5l-34 64c-3 6 -2 11 4 14z" />
    <glyph glyph-name="OE" unicode="&#x152;" horiz-adv-x="1132" 
d="M384 -10c-171 0 -338 116 -338 360s167 360 338 360c89 0 178 -31 242 -97v77c0 7 3 10 10 10h417c7 0 10 -3 10 -10v-80c0 -7 -3 -10 -10 -10h-323v-182h293c7 0 10 -3 10 -10v-80c0 -7 -3 -10 -10 -10h-293v-218h338c7 0 10 -3 10 -10v-80c0 -7 -3 -10 -10 -10h-432
c-7 0 -10 3 -10 10v77c-64 -66 -153 -97 -242 -97zM384 90c121 0 230 83 230 260s-109 260 -230 260s-230 -83 -230 -260s109 -260 230 -260z" />
    <glyph glyph-name="oe" unicode="&#x153;" horiz-adv-x="1021" 
d="M727 84c68 0 111 22 136 75c4 8 7 9 14 9h85c5 0 7 -3 7 -7c0 -2 0 -4 -2 -10c-42 -112 -124 -161 -240 -161c-90 0 -164 39 -209 104c-46 -65 -123 -104 -213 -104c-149 0 -261 106 -261 261s112 261 261 261c90 0 167 -39 213 -105c45 65 119 105 208 105
c159 0 253 -121 253 -264v-19c0 -7 -3 -10 -10 -10h-392c11 -84 66 -135 150 -135zM148 251c0 -100 65 -167 157 -167s157 67 157 167s-65 167 -157 167s-157 -67 -157 -167zM726 418c-62 0 -124 -33 -144 -109h290c-17 72 -75 109 -146 109z" />
    <glyph glyph-name="Scaron" unicode="&#x160;" horiz-adv-x="590" 
d="M48 517c0 127 113 193 241 193c155 0 244 -96 246 -201c0 -7 -3 -10 -10 -10h-84c-7 0 -9 3 -10 10c-7 65 -66 101 -142 101c-79 0 -137 -29 -137 -88c0 -68 76 -94 176 -121c120 -33 230 -82 230 -193c0 -143 -106 -218 -264 -218c-149 0 -264 100 -264 228
c0 7 3 10 10 10h84c7 0 10 -3 10 -10c5 -80 64 -128 160 -128c105 0 160 35 160 112c0 54 -75 88 -172 112c-142 35 -234 86 -234 203zM451 888l-105 -134c-5 -6 -8 -8 -15 -8h-68c-7 0 -10 2 -15 8l-105 134c-4 5 -1 10 5 10h78c8 0 12 -3 18 -9l53 -53l53 53
c6 6 10 9 18 9h78c6 0 9 -5 5 -10z" />
    <glyph glyph-name="scaron" unicode="&#x161;" horiz-adv-x="500" 
d="M459 147c0 -98 -86 -157 -209 -157c-121 0 -207 65 -215 169c0 6 3 10 10 10h84c7 0 9 -3 10 -10c9 -53 53 -75 114 -75c59 0 102 16 102 63c0 35 -37 53 -134 69c-120 20 -173 65 -173 146c0 105 97 150 195 150c117 0 191 -63 200 -150c0 -6 -3 -10 -10 -10h-85
c-7 0 -8 3 -10 10c-13 38 -50 56 -100 56c-46 0 -92 -14 -92 -51c0 -38 31 -57 132 -75c105 -19 181 -50 181 -145zM406 690l-105 -134c-5 -6 -8 -8 -15 -8h-68c-7 0 -10 2 -15 8l-105 134c-4 5 -1 10 5 10h78c8 0 12 -3 18 -9l53 -53l53 53c6 6 10 9 18 9h78
c6 0 9 -5 5 -10z" />
    <glyph glyph-name="Ydieresis" unicode="&#x178;" horiz-adv-x="546" 
d="M543 690l-218 -438v-242c0 -7 -3 -10 -10 -10h-84c-7 0 -10 3 -10 10v242l-218 438c-2 7 2 10 6 10h100c7 0 9 -3 11 -8l153 -321l153 321c2 5 4 8 11 8h100c4 0 8 -3 6 -10zM130 794v94c0 7 3 10 10 10h94c7 0 10 -3 10 -10v-94c0 -7 -3 -10 -10 -10h-94
c-7 0 -10 3 -10 10zM302 794v94c0 7 3 10 10 10h94c7 0 10 -3 10 -10v-94c0 -7 -3 -10 -10 -10h-94c-7 0 -10 3 -10 10z" />
    <glyph glyph-name="Zcaron" unicode="&#x17d;" horiz-adv-x="606" 
d="M52 610v80c0 7 3 10 10 10h475c7 0 10 -3 10 -10v-80c0 -7 -2 -11 -6 -17l-386 -493h403c7 0 10 -3 10 -10v-80c0 -7 -3 -10 -10 -10h-513c-7 0 -10 3 -10 10v80c0 7 2 11 6 17l387 493h-366c-7 0 -10 3 -10 10zM459 888l-105 -134c-5 -6 -8 -8 -15 -8h-68
c-7 0 -10 2 -15 8l-105 134c-4 5 -1 10 5 10h78c8 0 12 -3 18 -9l53 -53l53 53c6 6 10 9 18 9h78c6 0 9 -5 5 -10z" />
    <glyph glyph-name="zcaron" unicode="&#x17e;" horiz-adv-x="483" 
d="M40 418v74c0 7 3 10 10 10h372c7 0 10 -3 10 -10v-74c0 -6 0 -12 -8 -21l-273 -303h290c7 0 10 -3 10 -10v-74c0 -7 -3 -10 -10 -10h-404c-7 0 -10 3 -10 10v74c0 7 3 11 6 15l278 309h-261c-7 0 -10 3 -10 10zM386 690l-105 -134c-5 -6 -8 -8 -15 -8h-68
c-7 0 -10 2 -15 8l-105 134c-4 5 -1 10 5 10h78c8 0 12 -3 18 -9l53 -53l53 53c6 6 10 9 18 9h78c6 0 9 -5 5 -10z" />
    <glyph glyph-name="florin" unicode="&#x192;" horiz-adv-x="472" 
d="M110 -31l60 439h-75c-7 0 -9 4 -9 10v74c0 7 4 10 11 10h86l7 47c17 117 89 161 173 161c45 0 75 -7 102 -19c7 -3 8 -7 8 -17v-74c0 -6 -2 -9 -6 -9c-3 0 -6 1 -9 3c-31 16 -63 22 -90 22c-39 0 -71 -19 -79 -77l-5 -37h146c7 0 10 -3 10 -10v-74c0 -7 -3 -10 -10 -10
h-159l-66 -472c-13 -96 -64 -144 -148 -144c-37 0 -80 7 -105 19c-7 4 -8 7 -8 17v72c0 7 2 11 7 11c2 0 5 -1 8 -3c31 -16 61 -22 86 -22c34 0 56 19 65 83z" />
    <glyph glyph-name="circumflex" unicode="&#x2c6;" horiz-adv-x="410" 
d="M254 692l105 -134c4 -5 1 -10 -5 -10h-78c-8 0 -12 3 -18 9l-53 53l-53 -53c-6 -6 -10 -9 -18 -9h-78c-6 0 -9 5 -5 10l105 134c5 6 8 8 15 8h68c7 0 10 -2 15 -8z" />
    <glyph glyph-name="caron" unicode="&#x2c7;" horiz-adv-x="410" 
d="M359 690l-105 -134c-5 -6 -8 -8 -15 -8h-68c-7 0 -10 2 -15 8l-105 134c-4 5 -1 10 5 10h78c8 0 12 -3 18 -9l53 -53l53 53c6 6 10 9 18 9h78c6 0 9 -5 5 -10z" />
    <glyph glyph-name="breve" unicode="&#x2d8;" horiz-adv-x="348" 
d="M54 692h62c7 0 10 -3 10 -10c0 -35 17 -53 48 -53s48 18 48 53c0 7 3 10 10 10h62c7 0 10 -3 10 -10c0 -80 -52 -129 -130 -129s-130 49 -130 129c0 7 3 10 10 10z" />
    <glyph glyph-name="dotaccent" unicode="&#x2d9;" horiz-adv-x="214" 
d="M47 590v100c0 7 3 10 10 10h100c7 0 10 -3 10 -10v-100c0 -7 -3 -10 -10 -10h-100c-7 0 -10 3 -10 10z" />
    <glyph glyph-name="ring" unicode="&#x2da;" horiz-adv-x="262" 
d="M36 628c0 54 39 92 95 92s95 -38 95 -92s-39 -92 -95 -92s-95 38 -95 92zM94 628c0 -24 16 -38 37 -38s37 14 37 38s-16 38 -37 38s-37 -14 -37 -38z" />
    <glyph glyph-name="ogonek" unicode="&#x2db;" horiz-adv-x="200" 
d="M121 16l46 -9s3 -1 3 -4c0 -2 -3 -3 -3 -3c-33 -15 -50 -36 -50 -61c0 -27 21 -44 55 -44h16c6 0 10 -2 10 -10v-50c0 -7 -4 -10 -10 -10h-44c-68 0 -121 30 -121 91c0 51 41 86 77 99c4 1 8 2 10 2s5 0 11 -1z" />
    <glyph glyph-name="tilde" unicode="&#x2dc;" horiz-adv-x="439" 
d="M42 666c31 25 76 44 106 44c78 0 84 -41 138 -41c21 0 36 5 62 24c2 1 4 2 7 2c4 0 6 -2 10 -8l35 -50c3 -5 3 -6 3 -8c0 -3 -2 -7 -6 -10c-31 -25 -76 -44 -106 -44c-78 0 -84 41 -138 41c-21 0 -36 -5 -62 -24c-2 -1 -4 -2 -7 -2c-4 0 -6 2 -10 8l-35 50
c-3 5 -3 6 -3 8c0 3 2 7 6 10z" />
    <glyph glyph-name="hungarumlaut" unicode="&#x2dd;" horiz-adv-x="564" 
d="M89 564l69 126c4 7 8 10 15 10h111c7 0 9 -5 5 -10l-103 -127c-5 -6 -9 -9 -18 -9h-74c-6 0 -8 5 -5 10zM273 564l69 126c4 7 8 10 15 10h111c7 0 9 -5 5 -10l-103 -127c-5 -6 -9 -9 -18 -9h-74c-6 0 -8 5 -5 10z" />
    <glyph glyph-name="Delta" unicode="&#x394;" horiz-adv-x="670" 
d="M398 690l234 -584c4 -11 4 -17 4 -26v-70c0 -7 -3 -10 -10 -10h-582c-7 0 -10 3 -10 10v70c0 9 0 15 4 26l234 584c3 7 6 10 13 10h100c7 0 10 -3 13 -10zM532 100l-197 500l-197 -500h394z" />
    <glyph glyph-name="Delta" unicode="&#x2206;" horiz-adv-x="670" 
d="M398 690l234 -584c4 -11 4 -17 4 -26v-70c0 -7 -3 -10 -10 -10h-582c-7 0 -10 3 -10 10v70c0 9 0 15 4 26l234 584c3 7 6 10 13 10h100c7 0 10 -3 13 -10zM532 100l-197 500l-197 -500h394z" />
    <glyph glyph-name="Omega" unicode="&#x3a9;" horiz-adv-x="748" 
d="M374 610c-123 0 -215 -67 -215 -204c0 -125 56 -204 150 -290c7 -7 8 -13 8 -20v-86c0 -7 -3 -10 -10 -10h-222c-7 0 -10 3 -10 10v80c0 7 3 10 10 10h128c-79 63 -158 163 -158 306c0 177 123 304 319 304s319 -127 319 -304c0 -143 -79 -243 -158 -306h128
c7 0 10 -3 10 -10v-80c0 -7 -3 -10 -10 -10h-222c-7 0 -10 3 -10 10v86c0 7 1 13 8 20c94 86 150 165 150 290c0 137 -92 204 -215 204z" />
    <glyph glyph-name="Omega" unicode="&#x2126;" horiz-adv-x="748" 
d="M374 610c-123 0 -215 -67 -215 -204c0 -125 56 -204 150 -290c7 -7 8 -13 8 -20v-86c0 -7 -3 -10 -10 -10h-222c-7 0 -10 3 -10 10v80c0 7 3 10 10 10h128c-79 63 -158 163 -158 306c0 177 123 304 319 304s319 -127 319 -304c0 -143 -79 -243 -158 -306h128
c7 0 10 -3 10 -10v-80c0 -7 -3 -10 -10 -10h-222c-7 0 -10 3 -10 10v86c0 7 1 13 8 20c94 86 150 165 150 290c0 137 -92 204 -215 204z" />
    <glyph glyph-name="endash" unicode="&#x2013;" horiz-adv-x="572" 
d="M69 391h434c7 0 10 -3 10 -10v-78c0 -7 -3 -10 -10 -10h-434c-7 0 -10 3 -10 10v78c0 7 3 10 10 10z" />
    <glyph glyph-name="emdash" unicode="&#x2014;" horiz-adv-x="794" 
d="M69 391h656c7 0 10 -3 10 -10v-78c0 -7 -3 -10 -10 -10h-656c-7 0 -10 3 -10 10v78c0 7 3 10 10 10z" />
    <glyph glyph-name="quoteleft" unicode="&#x2018;" horiz-adv-x="257" 
d="M184 650c-42 0 -55 -14 -55 -50v-12h47c7 0 10 -3 10 -10v-92c0 -7 -3 -10 -10 -10h-98c-7 0 -10 3 -10 10v121c0 53 27 93 89 93h27c7 0 10 -3 10 -10v-30c0 -7 -3 -10 -10 -10z" />
    <glyph glyph-name="quoteright" unicode="&#x2019;" horiz-adv-x="257" 
d="M73 526c42 0 55 14 55 50v12h-47c-7 0 -10 3 -10 10v92c0 7 3 10 10 10h98c7 0 10 -3 10 -10v-121c0 -53 -27 -93 -89 -93h-27c-7 0 -10 3 -10 10v30c0 7 3 10 10 10z" />
    <glyph glyph-name="quotesinglbase" unicode="&#x201a;" horiz-adv-x="257" 
d="M73 -62c42 0 55 14 55 50v12h-47c-7 0 -10 3 -10 10v92c0 7 3 10 10 10h98c7 0 10 -3 10 -10v-121c0 -53 -27 -93 -89 -93h-27c-7 0 -10 3 -10 10v30c0 7 3 10 10 10z" />
    <glyph glyph-name="quotedblleft" unicode="&#x201c;" horiz-adv-x="407" 
d="M337 650c-42 0 -55 -14 -55 -50v-12h47c7 0 10 -3 10 -10v-92c0 -7 -3 -10 -10 -10h-98c-7 0 -10 3 -10 10v121c0 53 27 93 89 93h27c7 0 10 -3 10 -10v-30c0 -7 -3 -10 -10 -10zM181 650c-42 0 -55 -14 -55 -50v-12h47c7 0 10 -3 10 -10v-92c0 -7 -3 -10 -10 -10h-98
c-7 0 -10 3 -10 10v121c0 53 27 93 89 93h27c7 0 10 -3 10 -10v-30c0 -7 -3 -10 -10 -10z" />
    <glyph glyph-name="quotedblright" unicode="&#x201d;" horiz-adv-x="407" 
d="M70 526c42 0 55 14 55 50v12h-47c-7 0 -10 3 -10 10v92c0 7 3 10 10 10h98c7 0 10 -3 10 -10v-121c0 -53 -27 -93 -89 -93h-27c-7 0 -10 3 -10 10v30c0 7 3 10 10 10zM226 526c42 0 55 14 55 50v12h-47c-7 0 -10 3 -10 10v92c0 7 3 10 10 10h98c7 0 10 -3 10 -10v-121
c0 -53 -27 -93 -89 -93h-27c-7 0 -10 3 -10 10v30c0 7 3 10 10 10z" />
    <glyph glyph-name="quotedblbase" unicode="&#x201e;" horiz-adv-x="407" 
d="M70 -62c42 0 55 14 55 50v12h-47c-7 0 -10 3 -10 10v92c0 7 3 10 10 10h98c7 0 10 -3 10 -10v-121c0 -53 -27 -93 -89 -93h-27c-7 0 -10 3 -10 10v30c0 7 3 10 10 10zM226 -62c42 0 55 14 55 50v12h-47c-7 0 -10 3 -10 10v92c0 7 3 10 10 10h98c7 0 10 -3 10 -10v-121
c0 -53 -27 -93 -89 -93h-27c-7 0 -10 3 -10 10v30c0 7 3 10 10 10z" />
    <glyph glyph-name="dagger" unicode="&#x2020;" horiz-adv-x="476" 
d="M35 502h151v188c0 7 3 10 10 10h84c7 0 10 -3 10 -10v-188h151c7 0 10 -3 10 -10v-78c0 -7 -3 -10 -10 -10h-151v-592c0 -7 -3 -10 -10 -10h-84c-7 0 -10 3 -10 10v592h-151c-7 0 -10 3 -10 10v78c0 7 3 10 10 10z" />
    <glyph glyph-name="daggerdbl" unicode="&#x2021;" horiz-adv-x="476" 
d="M441 0h-151v-188c0 -7 -3 -10 -10 -10h-84c-7 0 -10 3 -10 10v188h-151c-7 0 -10 3 -10 10v78c0 7 3 10 10 10h151v306h-151c-7 0 -10 3 -10 10v78c0 7 3 10 10 10h151v188c0 7 3 10 10 10h84c7 0 10 -3 10 -10v-188h151c7 0 10 -3 10 -10v-78c0 -7 -3 -10 -10 -10h-151
v-306h151c7 0 10 -3 10 -10v-78c0 -7 -3 -10 -10 -10z" />
    <glyph glyph-name="bullet" unicode="&#x2022;" horiz-adv-x="384" 
d="M78 326c0 63 51 114 114 114s114 -51 114 -114s-51 -114 -114 -114s-114 51 -114 114z" />
    <glyph glyph-name="perthousand" unicode="&#x2030;" horiz-adv-x="1286" 
d="M406 521c0 -115 -86 -179 -176 -179s-176 64 -176 179s86 179 176 179s176 -64 176 -179zM325 521c0 72 -49 102 -95 102s-95 -30 -95 -102s49 -102 95 -102s95 30 95 102zM832 179c0 -115 -86 -179 -176 -179s-176 64 -176 179s86 179 176 179s176 -64 176 -179z
M751 179c0 72 -49 102 -95 102s-95 -30 -95 -102s49 -102 95 -102s95 30 95 102zM137 50l559 647c4 5 10 4 14 0l37 -33c5 -5 6 -9 2 -14l-559 -647c-4 -5 -10 -4 -14 0l-37 33c-5 5 -6 9 -2 14zM1232 179c0 -115 -86 -179 -176 -179s-176 64 -176 179s86 179 176 179
s176 -64 176 -179zM1151 179c0 72 -49 102 -95 102s-95 -30 -95 -102s49 -102 95 -102s95 30 95 102z" />
    <glyph glyph-name="guilsinglleft" unicode="&#x2039;" horiz-adv-x="337" 
d="M286 519v-98c0 -7 -1 -11 -7 -16l-143 -131l143 -131c6 -5 7 -9 7 -16v-98c0 -4 -2 -7 -6 -7c-2 0 -4 1 -6 3l-222 197c-7 6 -10 11 -10 18v68c0 7 3 12 10 18l222 197c2 2 4 3 6 3c4 0 6 -3 6 -7z" />
    <glyph glyph-name="guilsinglright" unicode="&#x203a;" horiz-adv-x="337" 
d="M51 421v98c0 4 2 7 6 7c2 0 4 -1 6 -3l222 -197c7 -6 10 -11 10 -18v-68c0 -7 -3 -12 -10 -18l-222 -197c-2 -2 -4 -3 -6 -3c-4 0 -6 3 -6 7v98c0 7 1 11 7 16l143 131l-143 131c-6 5 -7 9 -7 16z" />
    <glyph glyph-name="fraction" unicode="&#x2044;" horiz-adv-x="690" 
d="M44 50l558 647c4 5 10 4 14 0l37 -33c5 -5 6 -9 2 -14l-558 -647c-4 -5 -10 -4 -14 0l-37 33c-5 5 -6 9 -2 14z" />
    <glyph glyph-name="Euro" unicode="&#x20ac;" horiz-adv-x="683" 
d="M23 491h84c41 139 143 219 269 219c146 0 247 -89 269 -231c0 -7 -3 -10 -10 -10h-81c-7 0 -8 3 -10 10c-23 95 -84 133 -168 133c-67 0 -129 -33 -161 -121h199c7 0 10 -3 10 -10v-78c0 -7 -3 -10 -10 -10h-219c-1 -14 -1 -28 -1 -43s0 -30 1 -43h219c7 0 10 -3 10 -10
v-78c0 -7 -3 -10 -10 -10h-199c32 -88 94 -121 161 -121c84 0 145 38 168 133c2 7 3 10 10 10h81c7 0 10 -3 10 -10c-22 -142 -123 -231 -269 -231c-126 0 -228 80 -269 219h-84c-7 0 -10 3 -10 10v78c0 7 3 10 10 10h68c-1 14 -1 28 -1 43c0 14 0 29 1 43h-68
c-7 0 -10 3 -10 10v78c0 7 3 10 10 10z" />
    <glyph glyph-name="trademark" unicode="&#x2122;" horiz-adv-x="713" 
d="M14 642v48c0 7 3 10 10 10h258c7 0 10 -3 10 -10v-48c0 -7 -3 -10 -10 -10h-94v-296c0 -7 -3 -10 -10 -10h-50c-7 0 -10 3 -10 10v296h-94c-7 0 -10 3 -10 10zM671 690v-354c0 -7 -3 -10 -10 -10h-50c-7 0 -10 3 -10 10v255l-77 -198c-2 -4 -4 -6 -8 -6h-42
c-4 0 -6 2 -8 6l-77 198v-255c0 -7 -3 -10 -10 -10h-50c-7 0 -10 3 -10 10v354c0 7 3 10 10 10h72c6 0 10 -2 12 -8l82 -211l82 211c2 6 6 8 12 8h72c7 0 10 -3 10 -10z" />
    <glyph glyph-name="partialdiff" unicode="&#x2202;" horiz-adv-x="582" 
d="M423 463c-55 118 -154 142 -273 146c-6 0 -8 6 -8 14v70c0 7 7 7 14 7c255 0 382 -147 382 -397c0 -212 -97 -313 -247 -313c-145 0 -247 106 -247 261c0 153 97 261 238 261c59 0 98 -11 141 -49zM146 251c0 -100 53 -167 145 -167c82 0 145 64 145 167
c0 100 -63 167 -145 167c-92 0 -145 -67 -145 -167z" />
    <glyph glyph-name="product" unicode="&#x220f;" horiz-adv-x="628" 
d="M182 600v-788c0 -7 -3 -10 -10 -10h-84c-7 0 -10 3 -10 10v878c0 7 3 10 10 10h452c7 0 10 -3 10 -10v-878c0 -7 -3 -10 -10 -10h-84c-7 0 -10 3 -10 10v788h-264z" />
    <glyph glyph-name="summation" unicode="&#x2211;" horiz-adv-x="603" 
d="M36 -188v84c0 9 3 13 8 20l237 313c6 8 9 15 9 22s-3 14 -9 22l-237 313c-6 7 -8 11 -8 20v84c0 7 3 10 10 10h506c7 0 10 -3 10 -10v-80c0 -7 -3 -10 -10 -10h-390l236 -317c4 -6 10 -18 10 -32s-6 -26 -10 -32l-236 -317h406c7 0 10 -3 10 -10v-80c0 -7 -3 -10 -10 -10
h-522c-7 0 -10 3 -10 10z" />
    <glyph glyph-name="minus" unicode="&#x2212;" horiz-adv-x="572" 
d="M69 391h434c7 0 10 -3 10 -10v-78c0 -7 -3 -10 -10 -10h-434c-7 0 -10 3 -10 10v78c0 7 3 10 10 10z" />
    <glyph glyph-name="radical" unicode="&#x221a;" horiz-adv-x="576" 
d="M114 302h-75c-7 0 -10 3 -10 10v74c0 7 3 10 10 10h140c7 0 12 -3 14 -10l88 -257l185 561c2 7 7 10 14 10h85c4 0 7 -1 7 -5c0 -1 0 -2 -1 -5l-228 -680c-3 -7 -6 -10 -13 -10h-95c-6 0 -10 3 -13 10z" />
    <glyph glyph-name="infinity" unicode="&#x221e;" horiz-adv-x="852" 
d="M48 319c0 96 63 178 173 178c95 0 167 -59 205 -124c38 65 110 124 205 124c110 0 173 -82 173 -178s-63 -178 -173 -178c-95 0 -167 59 -205 124c-38 -65 -110 -124 -205 -124c-110 0 -173 82 -173 178zM463 319c41 -78 94 -117 165 -117c65 0 107 47 107 117
s-42 117 -107 117c-71 0 -124 -39 -165 -117zM117 319c0 -70 42 -117 107 -117c71 0 124 39 165 117c-41 78 -94 117 -165 117c-65 0 -107 -47 -107 -117z" />
    <glyph glyph-name="integral" unicode="&#x222b;" horiz-adv-x="472" 
d="M110 -31l80 580c16 115 89 161 173 161c45 0 75 -7 102 -19c7 -3 8 -7 8 -17v-74c0 -6 -1 -9 -6 -9c-3 0 -6 1 -9 3c-31 16 -63 22 -90 22c-39 0 -71 -19 -79 -77l-84 -603c-13 -96 -64 -144 -148 -144c-37 0 -80 7 -105 19c-7 4 -8 7 -8 17v72c0 7 2 11 7 11
c2 0 5 -1 8 -3c31 -16 61 -22 86 -22c34 0 56 19 65 83z" />
    <glyph glyph-name="approxequal" unicode="&#x2248;" horiz-adv-x="543" 
d="M52 434c31 23 87 36 119 36c92 0 124 -41 193 -41c30 0 51 8 77 25c2 1 4 2 7 2c5 0 7 -3 10 -8l41 -70c1 -2 1 -3 1 -4c0 -4 -3 -9 -9 -13c-31 -23 -87 -36 -119 -36c-92 0 -124 41 -193 41c-30 0 -51 -8 -77 -25c-2 -1 -4 -2 -7 -2c-5 0 -7 3 -10 8l-41 70
c-1 2 -1 3 -1 4c0 4 3 9 9 13zM52 236c31 23 87 36 119 36c92 0 124 -41 193 -41c30 0 51 8 77 25c2 1 4 2 7 2c5 0 7 -3 10 -8l41 -70c1 -2 1 -3 1 -4c0 -4 -3 -9 -9 -13c-31 -23 -87 -36 -119 -36c-92 0 -124 41 -193 41c-30 0 -51 -8 -77 -25c-2 -1 -4 -2 -7 -2
c-5 0 -7 3 -10 8l-41 70c-1 2 -1 3 -1 4c0 4 3 9 9 13z" />
    <glyph glyph-name="notequal" unicode="&#x2260;" horiz-adv-x="572" 
d="M69 248h131l60 105h-191c-7 0 -10 3 -10 10v78c0 7 3 10 10 10h247l86 148c4 6 8 7 14 4l67 -39c6 -4 7 -8 4 -14l-58 -99h74c7 0 10 -3 10 -10v-78c0 -7 -3 -10 -10 -10h-131l-60 -105h191c7 0 10 -3 10 -10v-78c0 -7 -3 -10 -10 -10h-247l-86 -148c-4 -6 -8 -7 -14 -4
l-67 39c-6 4 -7 8 -4 14l58 99h-74c-7 0 -10 3 -10 10v78c0 7 3 10 10 10z" />
    <glyph glyph-name="pi" unicode="&#x3c0;" horiz-adv-x="680" 
d="M617 412h-99v-263c0 -40 16 -55 50 -55h11c7 0 10 -3 10 -10v-74c0 -7 -3 -10 -10 -10h-47c-67 0 -112 38 -112 110v302h-169v-402c0 -7 -3 -10 -10 -10h-78c-7 0 -10 3 -10 10v402h-99c-7 0 -10 3 -10 10v70c0 7 3 10 10 10h563c7 0 10 -3 10 -10v-70
c0 -7 -3 -10 -10 -10z" />
    <glyph glyph-name="lessequal" unicode="&#x2264;" horiz-adv-x="572" 
d="M69 98h434c7 0 10 -3 10 -10v-78c0 -7 -3 -10 -10 -10h-434c-7 0 -10 3 -10 10v78c0 7 3 10 10 10zM482 231v-88c0 -7 -3 -9 -10 -6l-373 196c-7 4 -10 6 -10 13v84c0 7 3 9 10 13l373 196c7 3 10 1 10 -6v-88c0 -7 -3 -11 -10 -14l-275 -143l275 -143c7 -3 10 -7 10 -14
z" />
    <glyph glyph-name="greaterequal" unicode="&#x2265;" horiz-adv-x="572" 
d="M69 98h434c7 0 10 -3 10 -10v-78c0 -7 -3 -10 -10 -10h-434c-7 0 -10 3 -10 10v78c0 7 3 10 10 10zM90 143v88c0 7 3 11 10 14l275 143l-275 143c-7 3 -10 7 -10 14v88c0 7 3 9 10 6l373 -196c7 -4 10 -6 10 -13v-84c0 -7 -3 -9 -10 -13l-373 -196c-7 -3 -10 -1 -10 6z
" />
    <glyph glyph-name="lozenge" unicode="&#x25ca;" horiz-adv-x="556" 
d="M339 690l195 -330c2 -4 3 -6 3 -10s-1 -6 -3 -10l-195 -330c-3 -7 -7 -10 -14 -10h-94c-7 0 -11 3 -14 10l-195 330c-2 4 -3 6 -3 10s1 6 3 10l195 330c3 7 7 10 14 10h94c7 0 11 -3 14 -10zM278 606l-154 -256l154 -256l154 256z" />
    <glyph glyph-name="fi" unicode="&#xfb01;" horiz-adv-x="588" 
d="M354 408h-146v-398c0 -7 -3 -10 -10 -10h-78c-7 0 -10 3 -10 10v398h-82c-7 0 -10 3 -10 10v74c0 7 3 10 10 10h82v53c0 94 58 155 150 155c38 0 73 -6 101 -18c8 -4 8 -8 8 -17v-73c0 -5 -2 -10 -7 -10c-2 0 -3 0 -7 2c-36 18 -60 22 -85 22c-44 0 -62 -29 -62 -77v-37
h146c7 0 10 -3 10 -10v-74c0 -7 -3 -10 -10 -10zM432 10v482c0 7 3 10 10 10h78c7 0 10 -3 10 -10v-482c0 -7 -3 -10 -10 -10h-78c-7 0 -10 3 -10 10zM421 590v100c0 7 3 10 10 10h100c7 0 10 -3 10 -10v-100c0 -7 -3 -10 -10 -10h-100c-7 0 -10 3 -10 10z" />
    <glyph glyph-name="fl" unicode="&#xfb02;" horiz-adv-x="612" 
d="M354 408h-146v-398c0 -7 -3 -10 -10 -10h-78c-7 0 -10 3 -10 10v398h-82c-7 0 -10 3 -10 10v74c0 7 3 10 10 10h82v53c0 94 58 155 150 155c38 0 73 -6 101 -18c8 -4 8 -8 8 -17v-73c0 -5 -2 -10 -7 -10c-2 0 -3 0 -7 2c-36 18 -60 22 -85 22c-44 0 -62 -29 -62 -77v-37
h146c7 0 10 -3 10 -10v-74c0 -7 -3 -10 -10 -10zM444 10v680c0 7 3 10 10 10h78c7 0 10 -3 10 -10v-680c0 -7 -3 -10 -10 -10h-78c-7 0 -10 3 -10 10z" />
    <glyph glyph-name="apple" horiz-adv-x="760" 
d="M676 617v-595c0 -11 -9 -22 -22 -22c-2 0 -3 0 -7 1l-267 77l-267 -77c-4 -1 -5 -1 -7 -1c-13 0 -22 11 -22 22v595c0 10 7 19 16 22l270 78c3 1 8 2 10 2s7 -1 10 -2l270 -78c9 -3 16 -12 16 -22zM358 366v303l-230 -67c8 -125 106 -225 230 -236zM402 669v-303
c124 11 222 111 230 236zM127 463v-412l231 67v204c-98 8 -183 62 -231 141zM633 51v412c-49 -79 -133 -133 -231 -141v-204z" />
    <glyph glyph-name="exclam" unicode="!" horiz-adv-x="302" 
d="M109 700h84c7 0 10 -3 10 -10v-487c0 -7 -3 -10 -10 -10h-84c-7 0 -10 3 -10 10v487c0 7 3 10 10 10zM101 120h100c7 0 10 -3 10 -10v-100c0 -7 -3 -10 -10 -10h-100c-7 0 -10 3 -10 10v100c0 7 3 10 10 10z" />
    <glyph glyph-name="zerosuperior" unicode="&#x2070;" horiz-adv-x="385" 
d="M40 513c0 130 71 193 153 193s153 -63 153 -193s-71 -193 -153 -193s-153 63 -153 193zM112 513c0 -88 36 -125 81 -125s81 37 81 125s-36 125 -81 125s-81 -37 -81 -125z" />
    <glyph glyph-name="foursuperior" unicode="&#x2074;" horiz-adv-x="360" 
d="M200 336v53h-163c-7 0 -10 3 -10 10v42c0 5 2 9 4 12l172 240c3 4 6 7 11 7h44c7 0 10 -3 10 -10v-233h49c7 0 10 -3 10 -10v-48c0 -7 -3 -10 -10 -10h-49v-53c0 -7 -3 -10 -10 -10h-48c-7 0 -10 3 -10 10zM200 581l-89 -124h89v124z" />
    <glyph glyph-name="fivesuperior" unicode="&#x2075;" horiz-adv-x="342" 
d="M51 503l24 189c1 6 4 8 10 8h200c7 0 10 -3 10 -10v-48c0 -7 -3 -10 -10 -10h-152l-10 -76c21 12 47 18 74 18c67 0 118 -42 118 -127c0 -84 -58 -127 -133 -127c-73 0 -129 46 -131 113c0 7 3 10 10 10h51c7 0 8 -3 10 -10c7 -32 31 -45 61 -45c38 0 60 21 60 61
c0 30 -15 60 -60 60c-28 0 -48 -7 -69 -22c-3 -2 -6 -4 -12 -3l-46 11c-4 1 -5 4 -5 8z" />
    <glyph glyph-name="sixsuperior" unicode="&#x2076;" horiz-adv-x="370" 
d="M49 496c0 142 63 210 139 210c62 0 113 -36 122 -100c0 -4 -3 -5 -6 -5h-56c-3 0 -4 2 -5 5c-8 20 -28 32 -56 32c-30 0 -57 -27 -64 -93c22 15 45 22 72 22c70 0 122 -47 122 -123c0 -79 -60 -124 -131 -124c-73 0 -137 49 -137 176zM125 444c0 -36 25 -59 62 -59
s62 23 62 59c0 34 -25 58 -62 58s-62 -24 -62 -58z" />
    <glyph glyph-name="sevensuperior" unicode="&#x2077;" horiz-adv-x="288" 
d="M13 642v48c0 7 3 10 10 10h234c7 0 10 -3 10 -10v-29c0 -5 -1 -9 -4 -17l-104 -309c-2 -6 -5 -9 -12 -9h-56c-4 0 -8 2 -8 6c0 2 1 5 2 7l98 293h-160c-7 0 -10 3 -10 10z" />
    <glyph glyph-name="eightsuperior" unicode="&#x2078;" horiz-adv-x="350" 
d="M56 602c0 68 55 104 119 104s119 -36 119 -104c0 -40 -20 -63 -42 -78c30 -15 54 -47 54 -88c0 -71 -54 -116 -131 -116s-131 45 -131 116c0 41 24 73 54 88c-22 15 -42 38 -42 78zM122 436c0 -30 22 -48 53 -48s53 18 53 48s-22 50 -53 50s-53 -20 -53 -50zM125 599
c0 -27 19 -47 50 -47s50 20 50 47c0 29 -22 47 -50 47s-50 -18 -50 -47z" />
    <glyph glyph-name="ninesuperior" unicode="&#x2079;" horiz-adv-x="370" 
d="M321 530c0 -142 -63 -210 -139 -210c-62 0 -113 36 -122 100c0 4 3 5 6 5h56c3 0 4 -2 5 -5c8 -20 28 -32 56 -32c30 0 57 27 64 93c-22 -15 -45 -22 -72 -22c-70 0 -122 47 -122 123c0 79 60 124 131 124c73 0 137 -49 137 -176zM245 582c0 36 -25 59 -62 59
s-62 -23 -62 -59c0 -34 25 -58 62 -58s62 24 62 58z" />
    <glyph glyph-name="zeroinferior" unicode="&#x2080;" horiz-adv-x="385" 
d="M40 -11c0 130 71 193 153 193s153 -63 153 -193s-71 -193 -153 -193s-153 63 -153 193zM112 -11c0 -88 36 -125 81 -125s81 37 81 125s-36 125 -81 125s-81 -37 -81 -125z" />
    <glyph glyph-name="oneinferior" unicode="&#x2081;" horiz-adv-x="222" 
d="M99 -188v273l-62 -34c-4 -2 -6 -3 -9 -3c-4 0 -8 2 -8 8v57c0 5 2 7 7 10l85 49c4 2 9 4 15 4h30c7 0 10 -3 10 -10v-354c0 -7 -3 -10 -10 -10h-48c-7 0 -10 3 -10 10z" />
    <glyph glyph-name="twoinferior" unicode="&#x2082;" horiz-adv-x="354" 
d="M45 -188v40c0 7 1 10 6 14l156 127c23 19 33 39 33 69s-22 52 -59 52c-34 0 -58 -24 -63 -55c-1 -7 -3 -10 -10 -10h-50c-7 0 -10 3 -10 10c1 65 59 123 133 123c84 0 129 -53 129 -114c0 -55 -18 -84 -60 -119l-94 -79h152c7 0 10 -3 10 -10v-48c0 -7 -3 -10 -10 -10
h-253c-7 0 -10 3 -10 10z" />
    <glyph glyph-name="threeinferior" unicode="&#x2083;" horiz-adv-x="356" 
d="M133 -27v48c0 7 3 10 10 10h24c36 0 55 15 55 45c0 23 -18 41 -48 41c-27 0 -47 -12 -54 -41c-1 -6 -3 -8 -10 -8h-50c-6 0 -10 3 -10 9c3 61 53 104 124 104c73 0 118 -42 118 -102c0 -34 -17 -61 -41 -77c31 -15 57 -42 57 -87c0 -81 -59 -120 -133 -120
c-76 0 -135 52 -135 117c0 7 3 10 10 10h53c7 0 9 -3 10 -10c5 -34 30 -49 62 -49c38 0 61 16 61 49c0 31 -22 51 -61 51h-32c-7 0 -10 3 -10 10z" />
    <glyph glyph-name="fourinferior" unicode="&#x2084;" horiz-adv-x="360" 
d="M200 -188v53h-163c-7 0 -10 3 -10 10v42c0 5 2 9 4 12l172 240c3 4 6 7 11 7h44c7 0 10 -3 10 -10v-233h49c7 0 10 -3 10 -10v-48c0 -7 -3 -10 -10 -10h-49v-53c0 -7 -3 -10 -10 -10h-48c-7 0 -10 3 -10 10zM200 57l-89 -124h89v124z" />
    <glyph glyph-name="fiveinferior" unicode="&#x2085;" horiz-adv-x="342" 
d="M51 -21l24 189c1 6 4 8 10 8h200c7 0 10 -3 10 -10v-48c0 -7 -3 -10 -10 -10h-152l-10 -76c21 12 47 18 74 18c67 0 118 -42 118 -127c0 -84 -58 -127 -133 -127c-73 0 -129 46 -131 113c0 7 3 10 10 10h51c7 0 8 -3 10 -10c7 -32 31 -45 61 -45c38 0 60 21 60 61
c0 30 -15 60 -60 60c-28 0 -48 -7 -69 -22c-3 -2 -6 -4 -12 -3l-46 11c-4 1 -5 4 -5 8z" />
    <glyph glyph-name="sixinferior" unicode="&#x2086;" horiz-adv-x="371" 
d="M49 -28c0 142 63 210 139 210c62 0 113 -36 122 -100c0 -4 -3 -5 -6 -5h-56c-3 0 -4 2 -5 5c-8 20 -28 32 -56 32c-30 0 -57 -27 -64 -93c22 15 45 22 72 22c70 0 122 -47 122 -123c0 -79 -60 -124 -131 -124c-73 0 -137 49 -137 176zM125 -80c0 -36 25 -59 62 -59
s62 23 62 59c0 34 -25 58 -62 58s-62 -24 -62 -58z" />
    <glyph glyph-name="seveninferior" unicode="&#x2087;" horiz-adv-x="288" 
d="M13 118v48c0 7 3 10 10 10h234c7 0 10 -3 10 -10v-29c0 -5 -1 -9 -4 -17l-104 -309c-2 -6 -5 -9 -12 -9h-56c-4 0 -8 2 -8 6c0 2 1 5 2 7l98 293h-160c-7 0 -10 3 -10 10z" />
    <glyph glyph-name="eightinferior" unicode="&#x2088;" horiz-adv-x="350" 
d="M56 78c0 68 55 104 119 104s119 -36 119 -104c0 -40 -20 -63 -42 -78c30 -15 54 -47 54 -88c0 -71 -54 -116 -131 -116s-131 45 -131 116c0 41 24 73 54 88c-22 15 -42 38 -42 78zM122 -88c0 -30 22 -48 53 -48s53 18 53 48s-22 50 -53 50s-53 -20 -53 -50zM125 75
c0 -27 19 -47 50 -47s50 20 50 47c0 29 -22 47 -50 47s-50 -18 -50 -47z" />
    <glyph glyph-name="nineinferior" unicode="&#x2089;" horiz-adv-x="370" 
d="M321 6c0 -142 -63 -210 -139 -210c-62 0 -113 36 -122 100c0 4 3 5 6 5h56c3 0 4 -2 5 -5c8 -20 28 -32 56 -32c30 0 57 27 64 93c-22 -15 -45 -22 -72 -22c-70 0 -122 47 -122 123c0 79 60 124 131 124c73 0 137 -49 137 -176zM245 58c0 36 -25 59 -62 59
s-62 -23 -62 -59c0 -34 25 -58 62 -58s62 24 62 58z" />
    <glyph glyph-name="ellipsis" unicode="&#x2026;" horiz-adv-x="748" 
d="M96 116h96c7 0 10 -3 10 -10v-96c0 -7 -3 -10 -10 -10h-96c-7 0 -10 3 -10 10v96c0 7 3 10 10 10zM325 116h96c7 0 10 -3 10 -10v-96c0 -7 -3 -10 -10 -10h-96c-7 0 -10 3 -10 10v96c0 7 3 10 10 10zM554 116h96c7 0 10 -3 10 -10v-96c0 -7 -3 -10 -10 -10h-96
c-7 0 -10 3 -10 10v96c0 7 3 10 10 10z" />
    <glyph glyph-name="quotedbl" unicode="&#x22;" horiz-adv-x="416" 
d="M64 474v216c0 7 3 10 10 10h78c7 0 10 -3 10 -10v-216c0 -7 -3 -10 -10 -10h-78c-7 0 -10 3 -10 10zM254 474v216c0 7 3 10 10 10h78c7 0 10 -3 10 -10v-216c0 -7 -3 -10 -10 -10h-78c-7 0 -10 3 -10 10z" />
    <glyph glyph-name="sterling.tosn" 
d="M179 202h-72c-7 0 -10 3 -10 10v62c0 7 3 10 10 10h46c-7 17 -14 35 -14 60c0 103 82 168 186 168c108 0 187 -61 192 -162c0 -7 -3 -10 -10 -10h-80c-7 0 -9 3 -10 10c-10 49 -46 68 -92 68c-48 0 -88 -30 -88 -86c0 -19 4 -34 10 -48h176c7 0 10 -3 10 -10v-62
c0 -7 -3 -10 -10 -10h-146c0 -54 -18 -80 -49 -108h284c7 0 10 -3 10 -10v-74c0 -7 -3 -10 -10 -10h-392c-7 0 -10 3 -10 10v67c0 7 1 13 8 20c37 33 61 57 61 105z" />
    <glyph glyph-name="dollar.tosn" 
d="M519 147c0 -86 -67 -142 -166 -154v-83c0 -7 -3 -10 -10 -10h-68c-7 0 -10 3 -10 10v84c-97 14 -163 74 -170 165c0 6 3 10 10 10h84c7 0 9 -3 10 -10c6 -38 30 -61 66 -71v130c-109 22 -157 66 -157 144c0 91 73 137 157 148v80c0 7 3 10 10 10h68c7 0 10 -3 10 -10v-82
c88 -16 142 -72 150 -146c0 -6 -3 -10 -10 -10h-85c-7 0 -8 3 -10 10c-8 22 -24 37 -45 46v-119c97 -20 166 -52 166 -142zM417 147c0 24 -19 41 -64 54v-114c38 6 64 24 64 60zM206 367c0 -27 15 -44 59 -58v107c-34 -5 -59 -21 -59 -49z" />
    <glyph glyph-name="yen.tosn" 
d="M135 306h81l-112 186c-4 6 -1 10 5 10h96c7 0 10 -3 13 -8l92 -162l92 162c3 5 6 8 13 8h96c6 0 9 -4 5 -10l-112 -186h81c7 0 10 -3 10 -10v-64c0 -7 -3 -10 -10 -10h-126v-57h106c7 0 10 -3 10 -10v-64c0 -7 -3 -10 -10 -10h-106v-71c0 -7 -3 -10 -10 -10h-78
c-7 0 -10 3 -10 10v71h-106c-7 0 -10 3 -10 10v64c0 7 3 10 10 10h106v57h-126c-7 0 -10 3 -10 10v64c0 7 3 10 10 10z" />
    <glyph glyph-name="cent.tosn" 
d="M280 -89v84c-122 22 -200 122 -200 256s78 233 200 256v84c0 7 3 10 10 10h78c7 0 10 -3 10 -10v-82c103 -15 168 -84 185 -170c1 -4 1 -8 1 -10c0 -4 -3 -6 -7 -6h-81c-7 0 -11 1 -14 9c-15 43 -46 70 -84 81v-324c38 11 69 38 84 81c3 8 7 9 14 9h81c4 0 7 -2 7 -6
c0 -2 0 -6 -1 -10c-17 -87 -82 -155 -185 -170v-82c0 -7 -3 -10 -10 -10h-78c-7 0 -10 3 -10 10zM182 251c0 -85 37 -141 98 -160v320c-61 -20 -98 -75 -98 -160z" />
    <glyph glyph-name="multiply.tosn" 
d="M498 371l-119 -119l119 -119c3 -3 4 -5 4 -7s-1 -4 -4 -7l-55 -55c-3 -3 -5 -4 -7 -4s-4 1 -7 4l-119 119l-119 -119c-3 -3 -5 -4 -7 -4s-4 1 -7 4l-55 55c-3 3 -4 5 -4 7s1 4 4 7l119 119l-119 119c-3 3 -4 5 -4 7s1 4 4 7l55 55c3 3 5 4 7 4s4 -1 7 -4l119 -119
l119 119c3 3 5 4 7 4s4 -1 7 -4l55 -55c3 -3 4 -5 4 -7s-1 -4 -4 -7z" />
    <glyph glyph-name="plus.tosn" 
d="M359 469v-168h168c7 0 10 -3 10 -10v-78c0 -7 -3 -10 -10 -10h-168v-168c0 -7 -3 -10 -10 -10h-78c-7 0 -10 3 -10 10v168h-168c-7 0 -10 3 -10 10v78c0 7 3 10 10 10h168v168c0 7 3 10 10 10h78c7 0 10 -3 10 -10z" />
    <glyph glyph-name="minus.tosn" 
d="M93 301h434c7 0 10 -3 10 -10v-78c0 -7 -3 -10 -10 -10h-434c-7 0 -10 3 -10 10v78c0 7 3 10 10 10z" />
    <glyph glyph-name="divide.tosn" 
d="M93 272h434c7 0 10 -3 10 -10v-78c0 -7 -3 -10 -10 -10h-434c-7 0 -10 3 -10 10v78c0 7 3 10 10 10zM262 116h96c7 0 10 -3 10 -10v-96c0 -7 -3 -10 -10 -10h-96c-7 0 -10 3 -10 10v96c0 7 3 10 10 10zM262 446h96c7 0 10 -3 10 -10v-96c0 -7 -3 -10 -10 -10h-96
c-7 0 -10 3 -10 10v96c0 7 3 10 10 10z" />
    <glyph glyph-name="Euro.tosn" 
d="M77 224h54c-1 9 -1 17 -1 27c0 9 0 18 1 27h-54c-7 0 -10 3 -10 10v64c0 7 3 10 10 10h73c36 93 119 150 220 150c117 0 201 -66 219 -176c0 -7 -3 -10 -10 -10h-79c-6 0 -8 3 -10 10c-14 48 -55 82 -120 82c-45 0 -84 -19 -108 -56h104c7 0 10 -3 10 -10v-64
c0 -7 -3 -10 -10 -10h-131c-1 -9 -1 -18 -1 -27c0 -10 0 -19 1 -27h131c7 0 10 -3 10 -10v-64c0 -7 -3 -10 -10 -10h-104c24 -38 63 -56 108 -56c65 0 106 34 120 82c2 7 4 10 10 10h79c7 0 10 -3 10 -10c-18 -110 -102 -176 -219 -176c-101 0 -184 56 -220 150h-73
c-7 0 -10 3 -10 10v64c0 7 3 10 10 10z" />
    <glyph glyph-name="equal.tosn" 
d="M93 393h434c7 0 10 -3 10 -10v-78c0 -7 -3 -10 -10 -10h-434c-7 0 -10 3 -10 10v78c0 7 3 10 10 10zM93 190h434c7 0 10 -3 10 -10v-78c0 -7 -3 -10 -10 -10h-434c-7 0 -10 3 -10 10v78c0 7 3 10 10 10z" />
    <glyph glyph-name="zero.tosn" 
d="M43 251c0 163 120 261 267 261s267 -98 267 -261s-120 -261 -267 -261s-267 98 -267 261zM145 251c0 -97 65 -167 165 -167s165 70 165 167s-65 167 -165 167s-165 -70 -165 -167z" />
    <glyph glyph-name="one.tosn" 
d="M113 94h155v284l-124 -68c-4 -2 -8 -3 -11 -3c-4 0 -7 4 -7 9v81c0 7 5 12 11 15l150 85c5 3 9 5 15 5h54c7 0 10 -3 10 -10v-398h163c7 0 10 -3 10 -10v-74c0 -7 -3 -10 -10 -10h-416c-7 0 -10 3 -10 10v74c0 7 3 10 10 10z" />
    <glyph glyph-name="two.tosn" 
d="M111 10v58c0 10 4 17 11 23l203 160c40 31 54 57 54 95c0 41 -28 72 -76 72c-51 0 -82 -30 -88 -78c-1 -12 -4 -15 -13 -15h-73c-7 0 -12 4 -12 15c7 111 86 172 183 172c114 0 177 -73 177 -155c0 -73 -23 -115 -80 -160l-130 -103h217c7 0 10 -3 10 -10v-74
c0 -7 -3 -10 -10 -10h-363c-7 0 -10 3 -10 10z" />
    <glyph glyph-name="three.tosn" 
d="M253 171v74c0 8 4 10 10 10h55c59 0 90 34 90 82c0 50 -36 81 -95 81c-47 0 -91 -25 -99 -85c-1 -10 -5 -11 -12 -11h-72c-7 0 -12 4 -12 15c5 109 96 175 195 175c112 0 193 -65 193 -167c0 -66 -35 -106 -75 -131c49 -27 96 -71 96 -162c0 -119 -92 -190 -211 -190
c-104 0 -212 70 -218 194c0 11 5 15 12 15h73c7 0 12 -2 13 -12c11 -75 61 -103 124 -103c64 0 109 35 109 109c0 61 -37 96 -103 96h-63c-7 2 -10 5 -10 10z" />
    <glyph glyph-name="four.tosn" 
d="M353 -128v128h-261c-7 0 -10 3 -10 10v49c0 10 3 16 8 23l275 412c3 5 7 8 13 8h63c7 0 10 -3 10 -10v-398h85c7 0 10 -3 10 -10v-74c0 -7 -3 -10 -10 -10h-85v-128c0 -7 -3 -10 -11 -10h-77c-7 0 -10 3 -10 10zM353 315l-148 -221h148v221z" />
    <glyph glyph-name="five.tosn" 
d="M108 152l38 340c1 7 3 10 10 10h340c7 0 10 -3 10 -10v-74c0 -7 -3 -10 -10 -10h-264l-23 -157c40 28 82 40 130 40c119 0 202 -73 202 -212c0 -138 -94 -217 -218 -217c-111 0 -214 70 -220 190c0 11 5 15 12 15h73c8 0 10 -3 13 -15c16 -69 65 -96 122 -96
c79 0 120 46 120 121c0 80 -48 120 -115 120c-50 0 -85 -14 -125 -46c-5 -4 -8 -9 -17 -9h-68c-7 0 -10 5 -10 10z" />
    <glyph glyph-name="six.tosn" 
d="M97 282c0 219 80 358 230 358c94 0 187 -66 195 -175c0 -9 -5 -10 -11 -10h-73c-7 0 -9 4 -11 10c-16 55 -45 81 -103 81c-64 0 -110 -52 -123 -175c42 33 86 49 142 49c105 0 196 -78 196 -216c0 -131 -96 -214 -216 -214c-115 0 -226 71 -226 292zM205 204
c0 -74 47 -120 116 -120s116 46 116 120s-47 122 -116 122s-116 -48 -116 -122z" />
    <glyph glyph-name="seven.tosn" 
d="M137 418v74c0 7 3 10 10 10h370c7 0 10 -3 10 -10v-54c0 -7 -2 -13 -5 -21l-199 -548c-2 -6 -6 -7 -11 -7h-75c-6 0 -10 2 -10 8c0 1 0 3 1 5l195 533h-276c-7 0 -10 3 -10 10z" />
    <glyph glyph-name="eight.tosn" 
d="M122 466c0 111 86 174 188 174s188 -63 188 -174c0 -60 -31 -102 -69 -130c43 -26 87 -73 87 -155c0 -119 -89 -191 -206 -191s-206 72 -206 191c0 82 44 129 87 155c-38 28 -69 70 -69 130zM206 183c0 -61 45 -99 104 -99s104 38 104 99c0 60 -45 99 -104 99
s-104 -39 -104 -99zM220 461c0 -54 39 -85 90 -85s90 31 90 85c0 56 -45 85 -90 85s-90 -29 -90 -85z" />
    <glyph glyph-name="nine.tosn" 
d="M523 220c0 -219 -80 -358 -230 -358c-94 0 -187 66 -195 175c0 9 5 10 11 10h73c7 0 9 -4 11 -10c16 -55 45 -81 103 -81c64 0 110 52 123 175c-42 -33 -86 -49 -142 -49c-105 0 -196 78 -196 216c0 131 96 214 216 214c115 0 226 -71 226 -292zM415 298
c0 74 -47 120 -116 120s-116 -46 -116 -120s47 -122 116 -122s116 48 116 122z" />
    <glyph glyph-name="sterling.posn" horiz-adv-x="533" 
d="M130 202h-72c-7 0 -10 3 -10 10v62c0 7 3 10 10 10h46c-7 17 -14 35 -14 60c0 103 82 168 186 168c108 0 187 -61 192 -162c0 -7 -3 -10 -10 -10h-80c-7 0 -9 3 -10 10c-10 49 -46 68 -92 68c-48 0 -88 -30 -88 -86c0 -19 4 -34 10 -48h176c7 0 10 -3 10 -10v-62
c0 -7 -3 -10 -10 -10h-146c0 -54 -18 -80 -49 -108h284c7 0 10 -3 10 -10v-74c0 -7 -3 -10 -10 -10h-392c-7 0 -10 3 -10 10v67c0 7 1 13 8 20c37 33 61 57 61 105z" />
    <glyph glyph-name="dollar.posn" horiz-adv-x="500" 
d="M459 147c0 -86 -67 -142 -166 -154v-83c0 -7 -3 -10 -10 -10h-68c-7 0 -10 3 -10 10v84c-97 14 -163 74 -170 165c0 6 3 10 10 10h84c7 0 9 -3 10 -10c6 -38 30 -61 66 -71v130c-109 22 -157 66 -157 144c0 91 73 137 157 148v80c0 7 3 10 10 10h68c7 0 10 -3 10 -10v-82
c88 -16 142 -72 150 -146c0 -6 -3 -10 -10 -10h-85c-7 0 -8 3 -10 10c-8 22 -24 37 -45 46v-119c97 -20 166 -52 166 -142zM357 147c0 24 -19 41 -64 54v-114c38 6 64 24 64 60zM146 367c0 -27 15 -44 59 -58v107c-34 -5 -59 -21 -59 -49z" />
    <glyph glyph-name="yen.posn" horiz-adv-x="476" 
d="M63 306h81l-112 186c-4 6 -1 10 5 10h96c7 0 10 -3 13 -8l92 -162l92 162c3 5 6 8 13 8h96c6 0 9 -4 5 -10l-112 -186h81c7 0 10 -3 10 -10v-64c0 -7 -3 -10 -10 -10h-126v-57h106c7 0 10 -3 10 -10v-64c0 -7 -3 -10 -10 -10h-106v-71c0 -7 -3 -10 -10 -10h-78
c-7 0 -10 3 -10 10v71h-106c-7 0 -10 3 -10 10v64c0 7 3 10 10 10h106v57h-126c-7 0 -10 3 -10 10v64c0 7 3 10 10 10z" />
    <glyph glyph-name="cent.posn" horiz-adv-x="567" 
d="M244 -89v84c-122 22 -200 122 -200 256s78 233 200 256v84c0 7 3 10 10 10h78c7 0 10 -3 10 -10v-82c103 -15 168 -84 185 -170c1 -4 1 -8 1 -10c0 -4 -3 -6 -7 -6h-81c-7 0 -11 1 -14 9c-15 43 -46 70 -84 81v-324c38 11 69 38 84 81c3 8 7 9 14 9h81c4 0 7 -2 7 -6
c0 -2 0 -6 -1 -10c-17 -87 -82 -155 -185 -170v-82c0 -7 -3 -10 -10 -10h-78c-7 0 -10 3 -10 10zM146 251c0 -85 37 -141 98 -160v320c-61 -20 -98 -75 -98 -160z" />
    <glyph glyph-name="multiply.posn" horiz-adv-x="506" 
d="M441 371l-119 -119l119 -119c3 -3 4 -5 4 -7s-1 -4 -4 -7l-55 -55c-3 -3 -5 -4 -7 -4s-4 1 -7 4l-119 119l-119 -119c-3 -3 -5 -4 -7 -4s-4 1 -7 4l-55 55c-3 3 -4 5 -4 7s1 4 4 7l119 119l-119 119c-3 3 -4 5 -4 7s1 4 4 7l55 55c3 3 5 4 7 4s4 -1 7 -4l119 -119
l119 119c3 3 5 4 7 4s4 -1 7 -4l55 -55c3 -3 4 -5 4 -7s-1 -4 -4 -7z" />
    <glyph glyph-name="plus.posn" horiz-adv-x="572" 
d="M335 469v-168h168c7 0 10 -3 10 -10v-78c0 -7 -3 -10 -10 -10h-168v-168c0 -7 -3 -10 -10 -10h-78c-7 0 -10 3 -10 10v168h-168c-7 0 -10 3 -10 10v78c0 7 3 10 10 10h168v168c0 7 3 10 10 10h78c7 0 10 -3 10 -10z" />
    <glyph glyph-name="minus.posn" horiz-adv-x="572" 
d="M69 301h434c7 0 10 -3 10 -10v-78c0 -7 -3 -10 -10 -10h-434c-7 0 -10 3 -10 10v78c0 7 3 10 10 10z" />
    <glyph glyph-name="divide.posn" horiz-adv-x="572" 
d="M69 272h434c7 0 10 -3 10 -10v-78c0 -7 -3 -10 -10 -10h-434c-7 0 -10 3 -10 10v78c0 7 3 10 10 10zM238 116h96c7 0 10 -3 10 -10v-96c0 -7 -3 -10 -10 -10h-96c-7 0 -10 3 -10 10v96c0 7 3 10 10 10zM238 446h96c7 0 10 -3 10 -10v-96c0 -7 -3 -10 -10 -10h-96
c-7 0 -10 3 -10 10v96c0 7 3 10 10 10z" />
    <glyph glyph-name="Euro.posn" horiz-adv-x="595" 
d="M44 224h54c-1 9 -1 17 -1 27c0 9 0 18 1 27h-54c-7 0 -10 3 -10 10v64c0 7 3 10 10 10h73c36 93 119 150 220 150c117 0 201 -66 219 -176c0 -7 -3 -10 -10 -10h-79c-6 0 -8 3 -10 10c-14 48 -55 82 -120 82c-45 0 -84 -19 -108 -56h104c7 0 10 -3 10 -10v-64
c0 -7 -3 -10 -10 -10h-131c-1 -9 -1 -18 -1 -27c0 -10 0 -19 1 -27h131c7 0 10 -3 10 -10v-64c0 -7 -3 -10 -10 -10h-104c24 -38 63 -56 108 -56c65 0 106 34 120 82c2 7 4 10 10 10h79c7 0 10 -3 10 -10c-18 -110 -102 -176 -219 -176c-101 0 -184 56 -220 150h-73
c-7 0 -10 3 -10 10v64c0 7 3 10 10 10z" />
    <glyph glyph-name="equal.posn" horiz-adv-x="572" 
d="M69 393h434c7 0 10 -3 10 -10v-78c0 -7 -3 -10 -10 -10h-434c-7 0 -10 3 -10 10v78c0 7 3 10 10 10zM69 190h434c7 0 10 -3 10 -10v-78c0 -7 -3 -10 -10 -10h-434c-7 0 -10 3 -10 10v78c0 7 3 10 10 10z" />
    <glyph glyph-name="zero.posn" horiz-adv-x="622" 
d="M44 251c0 163 120 261 267 261s267 -98 267 -261s-120 -261 -267 -261s-267 98 -267 261zM146 251c0 -97 65 -167 165 -167s165 70 165 167s-65 167 -165 167s-165 -70 -165 -167z" />
    <glyph glyph-name="one.posn" horiz-adv-x="351" 
d="M183 10v368l-101 -55c-4 -2 -8 -3 -11 -3c-4 0 -7 4 -7 9v81c0 7 5 12 11 15l127 72c5 3 9 5 15 5h54c7 0 10 -3 10 -10v-482c0 -7 -3 -10 -10 -10h-78c-7 0 -10 3 -10 10z" />
    <glyph glyph-name="two.posn" horiz-adv-x="496" 
d="M49 10v58c0 10 4 17 11 23l203 160c40 31 54 57 54 95c0 41 -28 72 -76 72c-51 0 -82 -30 -88 -78c-1 -12 -4 -15 -13 -15h-73c-7 0 -12 4 -12 15c7 111 86 172 183 172c114 0 177 -73 177 -155c0 -73 -23 -115 -80 -160l-130 -103h217c7 0 10 -3 10 -10v-74
c0 -7 -3 -10 -10 -10h-363c-7 0 -10 3 -10 10z" />
    <glyph glyph-name="three.posn" horiz-adv-x="532" 
d="M204 171v74c0 8 4 10 10 10h55c59 0 90 34 90 82c0 50 -36 81 -95 81c-47 0 -91 -25 -99 -85c-1 -10 -5 -11 -12 -11h-72c-7 0 -12 4 -12 15c5 109 96 175 195 175c112 0 193 -65 193 -167c0 -66 -35 -106 -75 -131c49 -27 96 -71 96 -162c0 -119 -92 -190 -211 -190
c-104 0 -212 70 -218 194c0 11 5 15 12 15h73c7 0 12 -2 13 -12c11 -75 61 -103 124 -103c64 0 109 35 109 109c0 61 -37 96 -103 96h-63c-7 2 -10 5 -10 10z" />
    <glyph glyph-name="four.posn" horiz-adv-x="572" 
d="M334 -128v128h-261c-7 0 -10 3 -10 10v49c0 10 3 16 8 23l275 412c3 5 7 8 13 8h63c7 0 10 -3 10 -10v-398h85c7 0 10 -3 10 -10v-74c0 -7 -3 -10 -10 -10h-85v-128c0 -7 -3 -10 -11 -10h-77c-7 0 -10 3 -10 10zM334 315l-148 -221h148v221z" />
    <glyph glyph-name="five.posn" horiz-adv-x="563" 
d="M73 152l38 340c1 7 3 10 10 10h340c7 0 10 -3 10 -10v-74c0 -7 -3 -10 -10 -10h-264l-23 -157c40 28 82 40 130 40c119 0 202 -73 202 -212c0 -138 -94 -217 -218 -217c-111 0 -214 70 -220 190c0 11 5 15 12 15h73c8 0 10 -3 13 -15c16 -69 65 -96 122 -96
c79 0 120 46 120 121c0 80 -48 120 -115 120c-50 0 -85 -14 -125 -46c-5 -4 -8 -9 -17 -9h-68c-7 0 -10 5 -10 10z" />
    <glyph glyph-name="six.posn" horiz-adv-x="571" 
d="M65 282c0 219 80 358 230 358c94 0 187 -66 195 -175c0 -9 -5 -10 -11 -10h-73c-7 0 -9 4 -11 10c-16 55 -45 81 -103 81c-64 0 -110 -52 -123 -175c42 33 86 49 142 49c105 0 196 -78 196 -216c0 -131 -96 -214 -216 -214c-115 0 -226 71 -226 292zM173 204
c0 -74 47 -120 116 -120s116 46 116 120s-47 122 -116 122s-116 -48 -116 -122z" />
    <glyph glyph-name="seven.posn" horiz-adv-x="467" 
d="M46 418v74c0 7 3 10 10 10h370c7 0 10 -3 10 -10v-54c0 -7 -2 -13 -5 -21l-199 -548c-2 -6 -6 -7 -11 -7h-75c-6 0 -10 2 -10 8c0 1 0 3 1 5l195 533h-276c-7 0 -10 3 -10 10z" />
    <glyph glyph-name="eight.posn" horiz-adv-x="526" 
d="M75 466c0 111 86 174 188 174s188 -63 188 -174c0 -60 -31 -102 -69 -130c43 -26 87 -73 87 -155c0 -119 -89 -191 -206 -191s-206 72 -206 191c0 82 44 129 87 155c-38 28 -69 70 -69 130zM159 183c0 -61 45 -99 104 -99s104 38 104 99c0 60 -45 99 -104 99
s-104 -39 -104 -99zM173 461c0 -54 39 -85 90 -85s90 31 90 85c0 56 -45 85 -90 85s-90 -29 -90 -85z" />
    <glyph glyph-name="nine.posn" horiz-adv-x="571" 
d="M506 220c0 -219 -80 -358 -230 -358c-94 0 -187 66 -195 175c0 9 5 10 11 10h73c7 0 9 -4 11 -10c16 -55 45 -81 103 -81c64 0 110 52 123 175c-42 -33 -86 -49 -142 -49c-105 0 -196 78 -196 216c0 131 96 214 216 214c115 0 226 -71 226 -292zM398 298
c0 74 -47 120 -116 120s-116 -46 -116 -120s47 -122 116 -122s116 48 116 122z" />
    <glyph glyph-name="ampersand.alt" horiz-adv-x="650" 
d="M615 330h-91v-80c0 -180 -106 -260 -236 -260c-135 0 -236 78 -236 208c0 106 54 155 112 186c-47 33 -86 76 -86 157c0 109 89 169 202 169h94c7 0 10 -3 10 -10v-78c0 -7 -3 -10 -10 -10h-83c-76 0 -109 -32 -109 -92c0 -61 50 -92 117 -92h123v95c0 7 3 10 10 10h82
c7 0 10 -3 10 -10v-95h91c7 0 11 -2 11 -11v-76c0 -5 -3 -9 -11 -11zM422 253v77h-129c-88 0 -137 -44 -137 -130c0 -71 50 -112 132 -112c72 0 134 48 134 165z" />
    <glyph glyph-name="Amacron" unicode="&#x100;" horiz-adv-x="626" 
d="M511 10l-65 183h-267l-64 -183c-2 -7 -4 -10 -12 -10h-87c-7 0 -11 3 -11 10c0 2 0 3 1 6l246 674c2 7 3 10 10 10h102c7 0 8 -3 10 -10l246 -674c1 -3 1 -4 1 -6c0 -7 -4 -10 -11 -10h-87c-8 0 -10 3 -12 10zM313 570l-98 -277h196zM203 794v70c0 7 3 10 10 10h200
c7 0 10 -3 10 -10v-70c0 -7 -3 -10 -10 -10h-200c-7 0 -10 3 -10 10z" />
    <glyph glyph-name="amacron" unicode="&#x101;" horiz-adv-x="539" 
d="M153 349h-84c-4 0 -7 2 -7 6c0 2 0 6 1 10c20 81 90 147 208 147c125 0 205 -70 205 -186v-224c0 -48 5 -67 19 -92c4 -7 0 -10 -7 -10h-100c-7 0 -10 3 -10 10v37c-35 -34 -79 -57 -156 -57c-94 0 -181 57 -181 163c0 111 92 169 204 169c54 0 89 -8 133 -21v18
c0 62 -37 103 -107 103c-52 0 -87 -22 -104 -64c-3 -8 -8 -9 -14 -9zM378 211c-46 14 -76 21 -128 21c-58 0 -105 -24 -105 -75c0 -45 31 -73 91 -73c77 0 142 45 142 127zM159 596v70c0 7 3 10 10 10h200c7 0 10 -3 10 -10v-70c0 -7 -3 -10 -10 -10h-200c-7 0 -10 3 -10 10
z" />
    <glyph glyph-name="Abreve" unicode="&#x102;" horiz-adv-x="626" 
d="M511 10l-65 183h-267l-64 -183c-2 -7 -4 -10 -12 -10h-87c-7 0 -11 3 -11 10c0 2 0 3 1 6l246 674c2 7 3 10 10 10h102c7 0 8 -3 10 -10l246 -674c1 -3 1 -4 1 -6c0 -7 -4 -10 -11 -10h-87c-8 0 -10 3 -12 10zM313 570l-98 -277h196zM193 890h62c7 0 10 -3 10 -10
c0 -35 17 -53 48 -53s48 18 48 53c0 7 3 10 10 10h62c7 0 10 -3 10 -10c0 -80 -52 -129 -130 -129s-130 49 -130 129c0 7 3 10 10 10z" />
    <glyph glyph-name="abreve" unicode="&#x103;" horiz-adv-x="539" 
d="M153 349h-84c-4 0 -7 2 -7 6c0 2 0 6 1 10c20 81 90 147 208 147c125 0 205 -70 205 -186v-224c0 -48 5 -67 19 -92c4 -7 0 -10 -7 -10h-100c-7 0 -10 3 -10 10v37c-35 -34 -79 -57 -156 -57c-94 0 -181 57 -181 163c0 111 92 169 204 169c54 0 89 -8 133 -21v18
c0 62 -37 103 -107 103c-52 0 -87 -22 -104 -64c-3 -8 -8 -9 -14 -9zM378 211c-46 14 -76 21 -128 21c-58 0 -105 -24 -105 -75c0 -45 31 -73 91 -73c77 0 142 45 142 127zM151 692h62c7 0 10 -3 10 -10c0 -35 17 -53 48 -53s48 18 48 53c0 7 3 10 10 10h62
c7 0 10 -3 10 -10c0 -80 -52 -129 -130 -129s-130 49 -130 129c0 7 3 10 10 10z" />
    <glyph glyph-name="Aogonek" unicode="&#x104;" horiz-adv-x="626" 
d="M515 0l-69 193h-267l-64 -183c-2 -7 -4 -10 -12 -10h-87c-7 0 -11 3 -11 10c0 2 0 3 1 6l246 674c2 7 3 10 10 10h102c7 0 8 -3 10 -10l246 -674c1 -4 1 -5 1 -7c0 -4 -2 -7 -7 -9c-33 -15 -50 -36 -50 -61c0 -27 21 -44 55 -44h16c6 0 10 -2 10 -10v-50
c0 -7 -4 -10 -10 -10h-44c-68 0 -121 30 -121 91c0 38 20 66 45 84zM313 570l-98 -277h196z" />
    <glyph glyph-name="aogonek" unicode="&#x105;" horiz-adv-x="539" 
d="M153 349h-84c-4 0 -7 2 -7 6c0 2 0 6 1 10c20 81 90 147 208 147c125 0 205 -70 205 -186v-224c0 -48 5 -67 19 -92c1 -2 2 -3 2 -5c0 -3 -2 -4 -4 -5c-33 -16 -51 -36 -51 -61c0 -27 21 -44 55 -44h16c6 0 10 -2 10 -10v-50c0 -7 -4 -10 -10 -10h-44
c-68 0 -121 30 -121 91c0 33 12 55 30 78v53c-35 -34 -79 -57 -156 -57c-94 0 -180 57 -180 163c0 111 91 169 203 169c54 0 89 -8 133 -21v18c0 62 -37 103 -107 103c-52 0 -87 -22 -104 -64c-3 -8 -8 -9 -14 -9zM378 211c-46 14 -76 21 -128 21c-58 0 -106 -24 -106 -75
c0 -45 32 -73 92 -73c77 0 142 45 142 127z" />
    <glyph glyph-name="Aringacute" unicode="&#x1fa;" horiz-adv-x="626" 
d="M218 738c0 54 39 92 95 92s95 -38 95 -92c0 -28 -10 -51 -27 -67l239 -655c1 -3 1 -4 1 -6c0 -7 -4 -10 -11 -10h-87c-8 0 -10 3 -12 10l-65 183h-267l-64 -183c-2 -7 -4 -10 -12 -10h-87c-7 0 -11 3 -11 10c0 2 0 3 1 6l239 655c-17 16 -27 39 -27 67zM313 570l-98 -277
h196zM246 870l69 126c4 7 8 10 15 10h111c7 0 9 -5 5 -10l-103 -127c-5 -6 -9 -9 -18 -9h-74c-6 0 -8 5 -5 10zM276 738c0 -24 16 -38 37 -38s37 14 37 38s-16 38 -37 38s-37 -14 -37 -38z" />
    <glyph glyph-name="aringacute" unicode="&#x1fb;" horiz-adv-x="539" 
d="M153 349h-84c-4 0 -7 2 -7 6c0 2 0 6 1 10c20 81 90 147 208 147c125 0 205 -70 205 -186v-224c0 -48 5 -67 19 -92c4 -7 0 -10 -7 -10h-100c-7 0 -10 3 -10 10v37c-35 -34 -79 -57 -156 -57c-94 0 -181 57 -181 163c0 111 92 169 204 169c54 0 89 -8 133 -21v18
c0 62 -37 103 -107 103c-52 0 -87 -22 -104 -64c-3 -8 -8 -9 -14 -9zM378 211c-46 14 -76 21 -128 21c-58 0 -105 -24 -105 -75c0 -45 31 -73 91 -73c77 0 142 45 142 127zM177 628c0 54 39 92 95 92s95 -38 95 -92s-39 -92 -95 -92s-95 38 -95 92zM235 628
c0 -24 16 -38 37 -38s37 14 37 38s-16 38 -37 38s-37 -14 -37 -38zM199 762l69 126c4 7 8 10 15 10h111c7 0 9 -5 5 -10l-103 -127c-5 -6 -9 -9 -18 -9h-74c-6 0 -8 5 -5 10z" />
    <glyph glyph-name="AEacute" unicode="&#x1fc;" horiz-adv-x="875" 
d="M477 318v-218h338c7 0 10 -3 10 -10v-80c0 -7 -3 -10 -10 -10h-432c-7 0 -10 3 -10 10v183h-185l-73 -183c-2 -7 -4 -10 -12 -10h-87c-7 0 -11 3 -11 10c0 2 0 3 1 6l272 674c3 7 7 10 12 10h510c7 0 10 -3 10 -10v-80c0 -7 -3 -10 -10 -10h-323v-182h293
c7 0 10 -3 10 -10v-80c0 -7 -3 -10 -10 -10h-293zM350 600l-122 -307h145v307h-23zM455 762l69 126c4 7 8 10 15 10h111c7 0 9 -5 5 -10l-103 -127c-5 -6 -9 -9 -18 -9h-74c-6 0 -8 5 -5 10z" />
    <glyph glyph-name="aeacute" unicode="&#x1fd;" horiz-adv-x="934" 
d="M153 349h-84c-4 0 -7 2 -7 6c0 2 0 6 1 10c20 81 90 147 208 147c81 0 144 -30 177 -83c46 52 113 83 191 83c159 0 253 -121 253 -264v-19c0 -7 -3 -10 -10 -10h-392c11 -84 66 -135 150 -135c68 0 111 22 136 75c4 8 7 9 14 9h85c5 0 7 -3 7 -7c0 -2 0 -4 -2 -10
c-42 -112 -124 -161 -240 -161c-87 0 -158 37 -203 97c-43 -61 -118 -97 -215 -97c-94 0 -180 57 -180 163c0 111 91 169 203 169c54 0 89 -8 133 -21v18c0 62 -37 103 -107 103c-52 0 -87 -22 -104 -64c-3 -8 -8 -9 -14 -9zM378 211c-46 14 -76 21 -128 21
c-58 0 -106 -24 -106 -75c0 -45 32 -73 92 -73c77 0 142 45 142 127zM639 418c-62 0 -124 -33 -144 -109h290c-17 72 -75 109 -146 109zM383 564l69 126c4 7 8 10 15 10h111c7 0 9 -5 5 -10l-103 -127c-5 -6 -9 -9 -18 -9h-74c-6 0 -8 5 -5 10z" />
    <glyph glyph-name="Cacute" unicode="&#x106;" horiz-adv-x="707" 
d="M577 247h81c8 0 11 -2 11 -10c-19 -153 -144 -247 -305 -247s-318 112 -318 360s157 360 318 360s286 -94 305 -247c0 -8 -3 -10 -11 -10h-81c-6 0 -10 3 -12 10c-28 101 -100 147 -201 147c-106 0 -210 -82 -210 -260s104 -260 210 -260c101 0 173 46 201 147
c2 7 6 10 12 10zM298 762l69 126c4 7 8 10 15 10h111c7 0 9 -5 5 -10l-103 -127c-5 -6 -9 -9 -18 -9h-74c-6 0 -8 5 -5 10z" />
    <glyph glyph-name="cacute" unicode="&#x107;" horiz-adv-x="567" 
d="M298 418c-91 0 -150 -59 -150 -167s59 -167 150 -167c57 0 108 27 128 86c3 8 7 9 14 9h81c4 0 7 -2 7 -6c0 -2 0 -6 -1 -10c-19 -98 -101 -173 -229 -173c-152 0 -254 108 -254 261s102 261 254 261c128 0 210 -75 229 -173c1 -4 1 -8 1 -10c0 -4 -3 -6 -7 -6h-81
c-7 0 -11 1 -14 9c-20 59 -71 86 -128 86zM219 564l69 126c4 7 8 10 15 10h111c7 0 9 -5 5 -10l-103 -127c-5 -6 -9 -9 -18 -9h-74c-6 0 -8 5 -5 10z" />
    <glyph glyph-name="Ccircumflex" unicode="&#x108;" horiz-adv-x="707" 
d="M577 247h81c8 0 11 -2 11 -10c-19 -153 -144 -247 -305 -247s-318 112 -318 360s157 360 318 360s286 -94 305 -247c0 -8 -3 -10 -11 -10h-81c-6 0 -10 3 -12 10c-28 101 -100 147 -201 147c-106 0 -210 -82 -210 -260s104 -260 210 -260c101 0 173 46 201 147
c2 7 6 10 12 10zM413 890l105 -134c4 -5 1 -10 -5 -10h-78c-8 0 -12 3 -18 9l-53 53l-53 -53c-6 -6 -10 -9 -18 -9h-78c-6 0 -9 5 -5 10l105 134c5 6 8 8 15 8h68c7 0 10 -2 15 -8z" />
    <glyph glyph-name="ccircumflex" unicode="&#x109;" horiz-adv-x="567" 
d="M298 418c-91 0 -150 -59 -150 -167s59 -167 150 -167c57 0 108 27 128 86c3 8 7 9 14 9h81c4 0 7 -2 7 -6c0 -2 0 -6 -1 -10c-19 -98 -101 -173 -229 -173c-152 0 -254 108 -254 261s102 261 254 261c128 0 210 -75 229 -173c1 -4 1 -8 1 -10c0 -4 -3 -6 -7 -6h-81
c-7 0 -11 1 -14 9c-20 59 -71 86 -128 86zM349 692l105 -134c4 -5 1 -10 -5 -10h-78c-8 0 -12 3 -18 9l-53 53l-53 -53c-6 -6 -10 -9 -18 -9h-78c-6 0 -9 5 -5 10l105 134c5 6 8 8 15 8h68c7 0 10 -2 15 -8z" />
    <glyph glyph-name="Cdotaccent" unicode="&#x10a;" horiz-adv-x="705" 
d="M575 247h81c8 0 11 -2 11 -10c-19 -153 -144 -247 -305 -247s-318 112 -318 360s157 360 318 360s286 -94 305 -247c0 -8 -3 -10 -11 -10h-81c-6 0 -10 3 -12 10c-28 101 -100 147 -201 147c-106 0 -210 -82 -210 -260s104 -260 210 -260c101 0 173 46 201 147
c2 7 6 10 12 10zM302 788v100c0 7 3 10 10 10h100c7 0 10 -3 10 -10v-100c0 -7 -3 -10 -10 -10h-100c-7 0 -10 3 -10 10z" />
    <glyph glyph-name="cdotaccent" unicode="&#x10b;" horiz-adv-x="567" 
d="M298 418c-91 0 -150 -59 -150 -167s59 -167 150 -167c57 0 108 27 128 86c3 8 7 9 14 9h81c4 0 7 -2 7 -6c0 -2 0 -6 -1 -10c-19 -98 -101 -173 -229 -173c-152 0 -254 108 -254 261s102 261 254 261c128 0 210 -75 229 -173c1 -4 1 -8 1 -10c0 -4 -3 -6 -7 -6h-81
c-7 0 -11 1 -14 9c-20 59 -71 86 -128 86zM238 590v100c0 7 3 10 10 10h100c7 0 10 -3 10 -10v-100c0 -7 -3 -10 -10 -10h-100c-7 0 -10 3 -10 10z" />
    <glyph glyph-name="Ccaron" unicode="&#x10c;" horiz-adv-x="705" 
d="M575 247h81c8 0 11 -2 11 -10c-19 -153 -144 -247 -305 -247s-318 112 -318 360s157 360 318 360s286 -94 305 -247c0 -8 -3 -10 -11 -10h-81c-6 0 -10 3 -12 10c-28 101 -100 147 -201 147c-106 0 -210 -82 -210 -260s104 -260 210 -260c101 0 173 46 201 147
c2 7 6 10 12 10zM516 888l-105 -134c-5 -6 -8 -8 -15 -8h-68c-7 0 -10 2 -15 8l-105 134c-4 5 -1 10 5 10h78c8 0 12 -3 18 -9l53 -53l53 53c6 6 10 9 18 9h78c6 0 9 -5 5 -10z" />
    <glyph glyph-name="ccaron" unicode="&#x10d;" horiz-adv-x="567" 
d="M298 418c-91 0 -150 -59 -150 -167s59 -167 150 -167c57 0 108 27 128 86c3 8 7 9 14 9h81c4 0 7 -2 7 -6c0 -2 0 -6 -1 -10c-19 -98 -101 -173 -229 -173c-152 0 -254 108 -254 261s102 261 254 261c128 0 210 -75 229 -173c1 -4 1 -8 1 -10c0 -4 -3 -6 -7 -6h-81
c-7 0 -11 1 -14 9c-20 59 -71 86 -128 86zM452 690l-105 -134c-5 -6 -8 -8 -15 -8h-68c-7 0 -10 2 -15 8l-105 134c-4 5 -1 10 5 10h78c8 0 12 -3 18 -9l53 -53l53 53c6 6 10 9 18 9h78c6 0 9 -5 5 -10z" />
    <glyph glyph-name="Dcaron" unicode="&#x10e;" horiz-adv-x="659" 
d="M78 10v680c0 7 3 10 10 10h205c177 0 320 -113 320 -350s-143 -350 -320 -350h-205c-7 0 -10 3 -10 10zM281 600h-99v-500h99c130 0 224 76 224 250s-94 250 -224 250zM423 888l-105 -134c-5 -6 -8 -8 -15 -8h-68c-7 0 -10 2 -15 8l-105 134c-4 5 -1 10 5 10h78
c8 0 12 -3 18 -9l53 -53l53 53c6 6 10 9 18 9h78c6 0 9 -5 5 -10z" />
    <glyph glyph-name="dcaron" unicode="&#x10f;" horiz-adv-x="728" 
d="M522 690v-680c0 -7 -3 -10 -10 -10h-78c-7 0 -10 3 -10 10v37c-38 -37 -89 -57 -154 -57c-135 0 -226 102 -226 261s91 261 226 261c64 0 111 -23 154 -58v236c0 7 3 10 10 10h78c7 0 10 -3 10 -10zM432 251c0 98 -58 167 -142 167c-87 0 -142 -69 -142 -167
s55 -167 142 -167c84 0 142 69 142 167zM594 526c42 0 55 14 55 50v12h-47c-7 0 -10 3 -10 10v92c0 7 3 10 10 10h98c7 0 10 -3 10 -10v-121c0 -53 -27 -93 -89 -93h-27c-7 0 -10 3 -10 10v30c0 7 3 10 10 10z" />
    <glyph glyph-name="Dcroat" unicode="&#x110;" horiz-adv-x="677" 
d="M96 10v291h-75c-7 0 -10 3 -10 10v78c0 7 3 10 10 10h75v291c0 7 3 10 10 10h205c177 0 320 -113 320 -350s-143 -350 -320 -350h-205c-7 0 -10 3 -10 10zM299 600h-99v-201h145c7 0 10 -3 10 -10v-78c0 -7 -3 -10 -10 -10h-145v-201h99c130 0 224 76 224 250
s-94 250 -224 250z" />
    <glyph glyph-name="dcroat" unicode="&#x111;" horiz-adv-x="596" 
d="M522 541v-531c0 -7 -3 -10 -10 -10h-78c-7 0 -10 3 -10 10v37c-38 -37 -89 -57 -154 -57c-135 0 -226 102 -226 261s91 261 226 261c64 0 111 -23 154 -58v87h-128c-7 0 -10 3 -10 10v70c0 7 3 10 10 10h128v59c0 7 3 10 10 10h78c7 0 10 -3 10 -10v-59h59
c7 0 10 -3 10 -10v-70c0 -7 -3 -10 -10 -10h-59zM432 251c0 98 -58 167 -142 167c-87 0 -142 -69 -142 -167s55 -167 142 -167c84 0 142 69 142 167z" />
    <glyph glyph-name="Emacron" unicode="&#x112;" horiz-adv-x="584" 
d="M182 318v-218h338c7 0 10 -3 10 -10v-80c0 -7 -3 -10 -10 -10h-432c-7 0 -10 3 -10 10v680c0 7 3 10 10 10h417c7 0 10 -3 10 -10v-80c0 -7 -3 -10 -10 -10h-323v-182h293c7 0 10 -3 10 -10v-80c0 -7 -3 -10 -10 -10h-293zM183 794v70c0 7 3 10 10 10h200
c7 0 10 -3 10 -10v-70c0 -7 -3 -10 -10 -10h-200c-7 0 -10 3 -10 10z" />
    <glyph glyph-name="emacron" unicode="&#x113;" horiz-adv-x="593" 
d="M299 84c68 0 111 22 136 75c4 8 7 9 14 9h85c5 0 7 -3 7 -7c0 -2 0 -4 -2 -10c-42 -112 -124 -161 -240 -161c-150 0 -255 110 -255 261s107 261 254 261c159 0 253 -121 253 -264v-19c0 -7 -3 -10 -10 -10h-393c11 -84 67 -135 151 -135zM298 418
c-62 0 -126 -33 -146 -109h292c-17 72 -75 109 -146 109zM188 596v70c0 7 3 10 10 10h200c7 0 10 -3 10 -10v-70c0 -7 -3 -10 -10 -10h-200c-7 0 -10 3 -10 10z" />
    <glyph glyph-name="Ebreve" unicode="&#x114;" horiz-adv-x="584" 
d="M182 318v-218h338c7 0 10 -3 10 -10v-80c0 -7 -3 -10 -10 -10h-432c-7 0 -10 3 -10 10v680c0 7 3 10 10 10h417c7 0 10 -3 10 -10v-80c0 -7 -3 -10 -10 -10h-323v-182h293c7 0 10 -3 10 -10v-80c0 -7 -3 -10 -10 -10h-293zM170 890h62c7 0 10 -3 10 -10
c0 -35 17 -53 48 -53s48 18 48 53c0 7 3 10 10 10h62c7 0 10 -3 10 -10c0 -80 -52 -129 -130 -129s-130 49 -130 129c0 7 3 10 10 10z" />
    <glyph glyph-name="ebreve" unicode="&#x115;" horiz-adv-x="593" 
d="M299 84c68 0 111 22 136 75c4 8 7 9 14 9h85c5 0 7 -3 7 -7c0 -2 0 -4 -2 -10c-42 -112 -124 -161 -240 -161c-150 0 -255 110 -255 261s107 261 254 261c159 0 253 -121 253 -264v-19c0 -7 -3 -10 -10 -10h-393c11 -84 67 -135 151 -135zM298 418
c-62 0 -126 -33 -146 -109h292c-17 72 -75 109 -146 109zM177 692h62c7 0 10 -3 10 -10c0 -35 17 -53 48 -53s48 18 48 53c0 7 3 10 10 10h62c7 0 10 -3 10 -10c0 -80 -52 -129 -130 -129s-130 49 -130 129c0 7 3 10 10 10z" />
    <glyph glyph-name="Edotaccent" unicode="&#x116;" horiz-adv-x="584" 
d="M182 318v-218h338c7 0 10 -3 10 -10v-80c0 -7 -3 -10 -10 -10h-432c-7 0 -10 3 -10 10v680c0 7 3 10 10 10h417c7 0 10 -3 10 -10v-80c0 -7 -3 -10 -10 -10h-323v-182h293c7 0 10 -3 10 -10v-80c0 -7 -3 -10 -10 -10h-293zM239 788v100c0 7 3 10 10 10h100
c7 0 10 -3 10 -10v-100c0 -7 -3 -10 -10 -10h-100c-7 0 -10 3 -10 10z" />
    <glyph glyph-name="edotaccent" unicode="&#x117;" horiz-adv-x="593" 
d="M299 84c68 0 111 22 136 75c4 8 7 9 14 9h85c5 0 7 -3 7 -7c0 -2 0 -4 -2 -10c-42 -112 -124 -161 -240 -161c-150 0 -255 110 -255 261s107 261 254 261c159 0 253 -121 253 -264v-19c0 -7 -3 -10 -10 -10h-393c11 -84 67 -135 151 -135zM298 418
c-62 0 -126 -33 -146 -109h292c-17 72 -75 109 -146 109zM240 590v100c0 7 3 10 10 10h100c7 0 10 -3 10 -10v-100c0 -7 -3 -10 -10 -10h-100c-7 0 -10 3 -10 10z" />
    <glyph glyph-name="Eogonek" unicode="&#x118;" horiz-adv-x="584" 
d="M182 318v-218h338c7 0 10 -3 10 -10v-80c0 -6 -2 -8 -7 -10c-34 -12 -50 -36 -50 -61c0 -27 21 -44 55 -44h16c6 0 10 -2 10 -10v-50c0 -7 -4 -10 -10 -10h-44c-68 0 -121 30 -121 91c0 38 22 66 48 84h-339c-7 0 -10 3 -10 10v680c0 7 3 10 10 10h417c7 0 10 -3 10 -10
v-80c0 -7 -3 -10 -10 -10h-323v-182h293c7 0 10 -3 10 -10v-80c0 -7 -3 -10 -10 -10h-293z" />
    <glyph glyph-name="eogonek" unicode="&#x119;" horiz-adv-x="593" 
d="M299 84c68 0 111 22 136 75c4 8 7 9 14 9h85c5 0 7 -3 7 -7c0 -2 0 -4 -2 -10c-31 -83 -83 -127 -157 -151c-34 -11 -50 -36 -50 -61c0 -27 21 -44 55 -44h16c6 0 10 -2 10 -10v-50c0 -7 -4 -10 -10 -10h-44c-68 0 -121 30 -121 91c0 32 16 56 36 74
c-137 11 -230 118 -230 261c0 151 107 261 254 261c159 0 253 -121 253 -264v-19c0 -7 -3 -10 -10 -10h-393c11 -84 67 -135 151 -135zM298 418c-62 0 -126 -33 -146 -109h292c-17 72 -75 109 -146 109z" />
    <glyph glyph-name="Ecaron" unicode="&#x11a;" horiz-adv-x="584" 
d="M182 318v-218h338c7 0 10 -3 10 -10v-80c0 -7 -3 -10 -10 -10h-432c-7 0 -10 3 -10 10v680c0 7 3 10 10 10h417c7 0 10 -3 10 -10v-80c0 -7 -3 -10 -10 -10h-323v-182h293c7 0 10 -3 10 -10v-80c0 -7 -3 -10 -10 -10h-293zM446 888l-105 -134c-5 -6 -8 -8 -15 -8h-68
c-7 0 -10 2 -15 8l-105 134c-4 5 -1 10 5 10h78c8 0 12 -3 18 -9l53 -53l53 53c6 6 10 9 18 9h78c6 0 9 -5 5 -10z" />
    <glyph glyph-name="ecaron" unicode="&#x11b;" horiz-adv-x="593" 
d="M299 84c68 0 111 22 136 75c4 8 7 9 14 9h85c5 0 7 -3 7 -7c0 -2 0 -4 -2 -10c-42 -112 -124 -161 -240 -161c-150 0 -255 110 -255 261s107 261 254 261c159 0 253 -121 253 -264v-19c0 -7 -3 -10 -10 -10h-393c11 -84 67 -135 151 -135zM298 418
c-62 0 -126 -33 -146 -109h292c-17 72 -75 109 -146 109zM451 690l-105 -134c-5 -6 -8 -8 -15 -8h-68c-7 0 -10 2 -15 8l-105 134c-4 5 -1 10 5 10h78c8 0 12 -3 18 -9l53 -53l53 53c6 6 10 9 18 9h78c6 0 9 -5 5 -10z" />
    <glyph glyph-name="uni018E" unicode="&#x18e;" horiz-adv-x="584" 
d="M402 382v218h-338c-7 0 -10 3 -10 10v80c0 7 3 10 10 10h432c7 0 10 -3 10 -10v-680c0 -7 -3 -10 -10 -10h-417c-7 0 -10 3 -10 10v80c0 7 3 10 10 10h323v182h-293c-7 0 -10 3 -10 10v80c0 7 3 10 10 10h293z" />
    <glyph glyph-name="uni018F" unicode="&#x18f;" horiz-adv-x="593" 
d="M294 418c-68 0 -111 -22 -136 -75c-4 -8 -7 -9 -14 -9h-85c-5 0 -7 3 -7 7c0 2 0 4 2 10c42 112 124 161 240 161c150 0 255 -110 255 -261s-107 -261 -254 -261c-159 0 -253 121 -253 264v19c0 7 3 10 10 10h393c-11 84 -67 135 -151 135zM295 84c62 0 126 33 146 109
h-292c17 -72 75 -109 146 -109z" />
    <glyph glyph-name="Gcircumflex" unicode="&#x11c;" horiz-adv-x="713" 
d="M378 362h285c7 0 10 -3 10 -10v-176c0 -14 -4 -29 -10 -38c-62 -97 -165 -148 -278 -148c-183 0 -339 118 -339 360c0 245 164 360 325 360c146 0 269 -78 292 -216c0 -8 -3 -10 -11 -10h-85c-6 0 -10 3 -12 10c-27 85 -99 116 -184 116c-110 0 -217 -90 -217 -260
c0 -169 92 -260 227 -260c84 0 150 31 188 89v83h-191c-7 0 -10 3 -10 10v80c0 7 3 10 10 10zM420 890l105 -134c4 -5 1 -10 -5 -10h-78c-8 0 -12 3 -18 9l-53 53l-53 -53c-6 -6 -10 -9 -18 -9h-78c-6 0 -9 5 -5 10l105 134c5 6 8 8 15 8h68c7 0 10 -2 15 -8z" />
    <glyph glyph-name="gcircumflex" unicode="&#x11d;" horiz-adv-x="582" 
d="M287 -208c-114 0 -204 61 -214 169c0 7 3 10 10 10h78c7 0 9 -3 10 -10c10 -53 57 -75 119 -75c88 0 130 57 130 144v23c-46 -37 -85 -51 -150 -51c-131 0 -226 97 -226 255s92 255 226 255c65 0 111 -18 150 -52v32c0 7 3 10 10 10h78c7 0 10 -3 10 -10v-452
c0 -164 -80 -248 -231 -248zM428 257c0 96 -51 161 -140 161s-140 -65 -140 -161s51 -161 140 -161s140 65 140 161zM331 692l105 -134c4 -5 1 -10 -5 -10h-78c-8 0 -12 3 -18 9l-53 53l-53 -53c-6 -6 -10 -9 -18 -9h-78c-6 0 -9 5 -5 10l105 134c5 6 8 8 15 8h68
c7 0 10 -2 15 -8z" />
    <glyph glyph-name="Gbreve" unicode="&#x11e;" horiz-adv-x="713" 
d="M378 362h285c7 0 10 -3 10 -10v-176c0 -14 -4 -29 -10 -38c-62 -97 -165 -148 -278 -148c-183 0 -339 118 -339 360c0 245 164 360 325 360c146 0 269 -78 292 -216c0 -8 -3 -10 -11 -10h-85c-6 0 -10 3 -12 10c-27 85 -99 116 -184 116c-110 0 -217 -90 -217 -260
c0 -169 92 -260 227 -260c84 0 150 31 188 89v83h-191c-7 0 -10 3 -10 10v80c0 7 3 10 10 10zM251 890h62c7 0 10 -3 10 -10c0 -35 17 -53 48 -53s48 18 48 53c0 7 3 10 10 10h62c7 0 10 -3 10 -10c0 -80 -52 -129 -130 -129s-130 49 -130 129c0 7 3 10 10 10z" />
    <glyph glyph-name="gbreve" unicode="&#x11f;" horiz-adv-x="582" 
d="M287 -208c-114 0 -204 61 -214 169c0 7 3 10 10 10h78c7 0 9 -3 10 -10c10 -53 57 -75 119 -75c88 0 130 57 130 144v23c-46 -37 -85 -51 -150 -51c-131 0 -226 97 -226 255s92 255 226 255c65 0 111 -18 150 -52v32c0 7 3 10 10 10h78c7 0 10 -3 10 -10v-452
c0 -164 -80 -248 -231 -248zM428 257c0 96 -51 161 -140 161s-140 -65 -140 -161s51 -161 140 -161s140 65 140 161zM164 692h62c7 0 10 -3 10 -10c0 -35 17 -53 48 -53s48 18 48 53c0 7 3 10 10 10h62c7 0 10 -3 10 -10c0 -80 -52 -129 -130 -129s-130 49 -130 129
c0 7 3 10 10 10z" />
    <glyph glyph-name="Gdotaccent" unicode="&#x120;" horiz-adv-x="713" 
d="M378 362h285c7 0 10 -3 10 -10v-176c0 -14 -4 -29 -10 -38c-62 -97 -165 -148 -278 -148c-183 0 -339 118 -339 360c0 245 164 360 325 360c146 0 269 -78 292 -216c0 -8 -3 -10 -11 -10h-85c-6 0 -10 3 -12 10c-27 85 -99 116 -184 116c-110 0 -217 -90 -217 -260
c0 -169 92 -260 227 -260c84 0 150 31 188 89v83h-191c-7 0 -10 3 -10 10v80c0 7 3 10 10 10zM311 788v100c0 7 3 10 10 10h100c7 0 10 -3 10 -10v-100c0 -7 -3 -10 -10 -10h-100c-7 0 -10 3 -10 10z" />
    <glyph glyph-name="gdotaccent" unicode="&#x121;" horiz-adv-x="582" 
d="M287 -208c-114 0 -204 61 -214 169c0 7 3 10 10 10h78c7 0 9 -3 10 -10c10 -53 57 -75 119 -75c88 0 130 57 130 144v23c-46 -37 -85 -51 -150 -51c-131 0 -226 97 -226 255s92 255 226 255c65 0 111 -18 150 -52v32c0 7 3 10 10 10h78c7 0 10 -3 10 -10v-452
c0 -164 -80 -248 -231 -248zM428 257c0 96 -51 161 -140 161s-140 -65 -140 -161s51 -161 140 -161s140 65 140 161zM223 590v100c0 7 3 10 10 10h100c7 0 10 -3 10 -10v-100c0 -7 -3 -10 -10 -10h-100c-7 0 -10 3 -10 10z" />
    <glyph glyph-name="Gcommaaccent" unicode="&#x122;" horiz-adv-x="713" 
d="M378 362h285c7 0 10 -3 10 -10v-176c0 -14 -4 -29 -10 -38c-62 -97 -165 -148 -278 -148c-183 0 -339 118 -339 360c0 245 164 360 325 360c146 0 269 -78 292 -216c0 -8 -3 -10 -11 -10h-85c-6 0 -10 3 -12 10c-27 85 -99 116 -184 116c-110 0 -217 -90 -217 -260
c0 -169 92 -260 227 -260c84 0 150 31 188 89v83h-191c-7 0 -10 3 -10 10v80c0 7 3 10 10 10zM341 -208c35 0 46 10 46 42v12h-48c-7 0 -10 3 -10 10v92c0 7 3 10 10 10h92c7 0 10 -3 10 -10v-121c0 -51 -23 -85 -76 -85h-24c-7 0 -10 3 -10 10v30c0 7 3 10 10 10z" />
    <glyph glyph-name="gcommaaccent" unicode="&#x123;" horiz-adv-x="582" 
d="M287 -208c-114 0 -204 61 -214 169c0 7 3 10 10 10h78c7 0 9 -3 10 -10c10 -53 57 -75 119 -75c88 0 130 57 130 144v23c-46 -37 -85 -51 -150 -51c-131 0 -226 97 -226 255s92 255 226 255c65 0 111 -18 150 -52v32c0 7 3 10 10 10h78c7 0 10 -3 10 -10v-452
c0 -164 -80 -248 -231 -248zM428 257c0 96 -51 161 -140 161s-140 -65 -140 -161s51 -161 140 -161s140 65 140 161zM337 721c-42 0 -55 -14 -55 -50v-12h47c7 0 10 -3 10 -10v-92c0 -7 -3 -10 -10 -10h-98c-7 0 -10 3 -10 10v121c0 53 27 93 89 93h27c7 0 10 -3 10 -10v-30
c0 -7 -3 -10 -10 -10z" />
    <glyph glyph-name="Hcircumflex" unicode="&#x124;" horiz-adv-x="678" 
d="M180 315v-305c0 -7 -3 -10 -10 -10h-84c-7 0 -10 3 -10 10v680c0 7 3 10 10 10h84c7 0 10 -3 10 -10v-275h318v275c0 7 3 10 10 10h84c7 0 10 -3 10 -10v-680c0 -7 -3 -10 -10 -10h-84c-7 0 -10 3 -10 10v305h-318zM388 890l105 -134c4 -5 1 -10 -5 -10h-78
c-8 0 -12 3 -18 9l-53 53l-53 -53c-6 -6 -10 -9 -18 -9h-78c-6 0 -9 5 -5 10l105 134c5 6 8 8 15 8h68c7 0 10 -2 15 -8z" />
    <glyph glyph-name="hcircumflex" unicode="&#x125;" horiz-adv-x="578" 
d="M74 10v680c0 7 3 10 10 10h78c7 0 10 -3 10 -10v-248c49 44 95 70 162 70c111 0 180 -57 180 -177v-325c0 -7 -3 -10 -10 -10h-78c-7 0 -10 3 -10 10v300c0 73 -36 108 -103 108c-72 0 -141 -56 -141 -171v-237c0 -7 -3 -10 -10 -10h-78c-7 0 -10 3 -10 10zM280 890
l105 -134c4 -5 1 -10 -5 -10h-78c-8 0 -12 3 -18 9l-53 53l-53 -53c-6 -6 -10 -9 -18 -9h-78c-6 0 -9 5 -5 10l105 134c5 6 8 8 15 8h68c7 0 10 -2 15 -8z" />
    <glyph glyph-name="Hbar" unicode="&#x126;" horiz-adv-x="678" 
d="M180 315v-305c0 -7 -3 -10 -10 -10h-84c-7 0 -10 3 -10 10v489h-68c-7 0 -10 3 -10 10v76c0 7 3 10 10 10h68v95c0 7 3 10 10 10h84c7 0 10 -3 10 -10v-95h318v95c0 7 3 10 10 10h84c7 0 10 -3 10 -10v-95h68c7 0 10 -3 10 -10v-76c0 -7 -3 -10 -10 -10h-68v-489
c0 -7 -3 -10 -10 -10h-84c-7 0 -10 3 -10 10v305h-318zM180 415h318v84h-318v-84z" />
    <glyph glyph-name="hbar" unicode="&#x127;" horiz-adv-x="578" 
d="M74 10v531h-68c-7 0 -10 3 -10 10v70c0 7 3 10 10 10h68v59c0 7 3 10 10 10h78c7 0 10 -3 10 -10v-59h115c7 0 10 -3 10 -10v-70c0 -7 -3 -10 -10 -10h-115v-99c49 44 95 70 162 70c111 0 180 -57 180 -177v-325c0 -7 -3 -10 -10 -10h-78c-7 0 -10 3 -10 10v300
c0 73 -36 108 -103 108c-72 0 -141 -56 -141 -171v-237c0 -7 -3 -10 -10 -10h-78c-7 0 -10 3 -10 10z" />
    <glyph glyph-name="Itilde" unicode="&#x128;" horiz-adv-x="252" 
d="M74 10v680c0 7 3 10 10 10h84c7 0 10 -3 10 -10v-680c0 -7 -3 -10 -10 -10h-84c-7 0 -10 3 -10 10zM-50 864c31 25 76 44 106 44c78 0 84 -41 138 -41c21 0 36 5 62 24c2 1 4 2 7 2c4 0 6 -2 10 -8l35 -50c3 -5 3 -6 3 -8c0 -3 -2 -7 -6 -10c-31 -25 -76 -44 -106 -44
c-78 0 -84 41 -138 41c-21 0 -36 -5 -62 -24c-2 -1 -4 -2 -7 -2c-4 0 -6 2 -10 8l-35 50c-3 5 -3 6 -3 8c0 3 2 7 6 10z" />
    <glyph glyph-name="itilde" unicode="&#x129;" horiz-adv-x="214" 
d="M58 10v482c0 7 3 10 10 10h78c7 0 10 -3 10 -10v-482c0 -7 -3 -10 -10 -10h-78c-7 0 -10 3 -10 10zM-70 666c31 25 76 44 106 44c78 0 84 -41 138 -41c21 0 36 5 62 24c2 1 4 2 7 2c4 0 6 -2 10 -8l35 -50c3 -5 3 -6 3 -8c0 -3 -2 -7 -6 -10c-31 -25 -76 -44 -106 -44
c-78 0 -84 41 -138 41c-21 0 -36 -5 -62 -24c-2 -1 -4 -2 -7 -2c-4 0 -6 2 -10 8l-35 50c-3 5 -3 6 -3 8c0 3 2 7 6 10z" />
    <glyph glyph-name="uni012A" unicode="&#x12a;" horiz-adv-x="252" 
d="M74 10v680c0 7 3 10 10 10h84c7 0 10 -3 10 -10v-680c0 -7 -3 -10 -10 -10h-84c-7 0 -10 3 -10 10zM16 794v70c0 7 3 10 10 10h200c7 0 10 -3 10 -10v-70c0 -7 -3 -10 -10 -10h-200c-7 0 -10 3 -10 10z" />
    <glyph glyph-name="imacron" unicode="&#x12b;" horiz-adv-x="214" 
d="M58 10v482c0 7 3 10 10 10h78c7 0 10 -3 10 -10v-482c0 -7 -3 -10 -10 -10h-78c-7 0 -10 3 -10 10zM-3 596v70c0 7 3 10 10 10h200c7 0 10 -3 10 -10v-70c0 -7 -3 -10 -10 -10h-200c-7 0 -10 3 -10 10z" />
    <glyph glyph-name="Ibreve" unicode="&#x12c;" horiz-adv-x="252" 
d="M74 10v680c0 7 3 10 10 10h84c7 0 10 -3 10 -10v-680c0 -7 -3 -10 -10 -10h-84c-7 0 -10 3 -10 10zM6 890h62c7 0 10 -3 10 -10c0 -35 17 -53 48 -53s48 18 48 53c0 7 3 10 10 10h62c7 0 10 -3 10 -10c0 -80 -52 -129 -130 -129s-130 49 -130 129c0 7 3 10 10 10z" />
    <glyph glyph-name="uni012D" unicode="&#x12d;" horiz-adv-x="214" 
d="M58 10v482c0 7 3 10 10 10h78c7 0 10 -3 10 -10v-482c0 -7 -3 -10 -10 -10h-78c-7 0 -10 3 -10 10zM-13 692h62c7 0 10 -3 10 -10c0 -35 17 -53 48 -53s48 18 48 53c0 7 3 10 10 10h62c7 0 10 -3 10 -10c0 -80 -52 -129 -130 -129s-130 49 -130 129c0 7 3 10 10 10z" />
    <glyph glyph-name="Iogonek" unicode="&#x12e;" horiz-adv-x="252" 
d="M74 1v689c0 7 3 10 10 10h84c7 0 10 -3 10 -10v-680c0 -6 -2 -8 -7 -10c-34 -12 -50 -36 -50 -61c0 -27 21 -44 55 -44h16c6 0 10 -2 10 -10v-50c0 -7 -4 -10 -10 -10h-44c-68 0 -121 30 -121 91c0 39 24 69 47 85z" />
    <glyph glyph-name="iogonek" unicode="&#x12f;" horiz-adv-x="214" 
d="M58 3v489c0 7 3 10 10 10h78c7 0 10 -3 10 -10v-482c0 -4 -1 -8 -6 -10c-35 -12 -50 -36 -50 -61c0 -27 21 -44 55 -44h16c6 0 10 -2 10 -10v-50c0 -7 -4 -10 -10 -10h-44c-68 0 -121 30 -121 91c0 40 24 72 52 87zM47 590v100c0 7 3 10 10 10h100c7 0 10 -3 10 -10v-100
c0 -7 -3 -10 -10 -10h-100c-7 0 -10 3 -10 10z" />
    <glyph glyph-name="Idotaccent" unicode="&#x130;" horiz-adv-x="252" 
d="M74 10v680c0 7 3 10 10 10h84c7 0 10 -3 10 -10v-680c0 -7 -3 -10 -10 -10h-84c-7 0 -10 3 -10 10zM66 788v100c0 7 3 10 10 10h100c7 0 10 -3 10 -10v-100c0 -7 -3 -10 -10 -10h-100c-7 0 -10 3 -10 10z" />
    <glyph glyph-name="IJ" unicode="&#x132;" horiz-adv-x="793" 
d="M74 10v680c0 7 3 10 10 10h84c7 0 10 -3 10 -10v-680c0 -7 -3 -10 -10 -10h-84c-7 0 -10 3 -10 10zM739 690v-429c0 -188 -97 -271 -232 -271c-144 0 -228 100 -228 229c0 7 3 10 10 10h84c7 0 10 -3 10 -10c0 -83 52 -129 124 -129c85 0 128 54 128 170v430
c0 7 3 10 10 10h84c7 0 10 -3 10 -10z" />
    <glyph glyph-name="ij" unicode="&#x133;" horiz-adv-x="428" 
d="M58 10v482c0 7 3 10 10 10h78c7 0 10 -3 10 -10v-482c0 -7 -3 -10 -10 -10h-78c-7 0 -10 3 -10 10zM47 590v100c0 7 3 10 10 10h100c7 0 10 -3 10 -10v-100c0 -7 -3 -10 -10 -10h-100c-7 0 -10 3 -10 10zM272 -31v523c0 7 3 10 10 10h78c7 0 10 -3 10 -10v-519
c0 -89 -15 -130 -33 -173c-2 -5 -4 -8 -8 -8c-1 0 -2 0 -7 2l-72 27c-5 2 -8 4 -8 8c0 1 0 2 1 5c18 47 29 76 29 135zM261 590v100c0 7 3 10 10 10h100c7 0 10 -3 10 -10v-100c0 -7 -3 -10 -10 -10h-100c-7 0 -10 3 -10 10z" />
    <glyph glyph-name="Jcircumflex" unicode="&#x134;" horiz-adv-x="541" 
d="M487 690v-429c0 -188 -97 -271 -232 -271c-144 0 -228 100 -228 229c0 7 3 10 10 10h84c7 0 10 -3 10 -10c0 -83 52 -129 124 -129c85 0 128 54 128 170v430c0 7 3 10 10 10h84c7 0 10 -3 10 -10zM491 890l105 -134c4 -5 1 -10 -5 -10h-78c-8 0 -12 3 -18 9l-53 53
l-53 -53c-6 -6 -10 -9 -18 -9h-78c-6 0 -9 5 -5 10l105 134c5 6 8 8 15 8h68c7 0 10 -2 15 -8z" />
    <glyph glyph-name="jcircumflex" unicode="&#x135;" horiz-adv-x="214" 
d="M58 -31v523c0 7 3 10 10 10h78c7 0 10 -3 10 -10v-519c0 -89 -15 -130 -33 -173c-2 -5 -4 -8 -8 -8c-1 0 -2 0 -7 2l-72 27c-5 2 -8 4 -8 8c0 1 0 2 1 5c18 47 29 76 29 135zM156 692l105 -134c4 -5 1 -10 -5 -10h-78c-8 0 -12 3 -18 9l-53 53l-53 -53
c-6 -6 -10 -9 -18 -9h-78c-6 0 -9 5 -5 10l105 134c5 6 8 8 15 8h68c7 0 10 -2 15 -8z" />
    <glyph glyph-name="Kcommaaccent" unicode="&#x136;" horiz-adv-x="614" 
d="M182 690v-274l255 274c6 7 9 10 16 10h104c10 0 12 -8 6 -14l-228 -244l271 -428c5 -8 0 -14 -7 -14h-100c-8 0 -12 5 -18 15l-221 346l-78 -84v-267c0 -7 -3 -10 -10 -10h-84c-7 0 -10 3 -10 10v680c0 7 3 10 10 10h84c7 0 10 -3 10 -10zM281 -208c35 0 46 10 46 42v12
h-48c-7 0 -10 3 -10 10v92c0 7 3 10 10 10h92c7 0 10 -3 10 -10v-121c0 -51 -23 -85 -76 -85h-24c-7 0 -10 3 -10 10v30c0 7 3 10 10 10z" />
    <glyph glyph-name="kcommaaccent" unicode="&#x137;" horiz-adv-x="528" 
d="M486 487l-177 -166l201 -306c2 -4 2 -5 2 -7c0 -5 -2 -8 -9 -8h-90c-7 0 -11 1 -16 9l-162 243l-63 -59v-183c0 -7 -3 -10 -10 -10h-78c-7 0 -10 3 -10 10v680c0 7 3 10 10 10h78c7 0 10 -3 10 -10v-377l191 180c5 5 9 9 16 9h103c6 0 8 -3 8 -7c0 -2 -1 -5 -4 -8z
M241 -208c35 0 46 10 46 42v12h-48c-7 0 -10 3 -10 10v92c0 7 3 10 10 10h92c7 0 10 -3 10 -10v-121c0 -51 -23 -85 -76 -85h-24c-7 0 -10 3 -10 10v30c0 7 3 10 10 10z" />
    <glyph glyph-name="kgreenlandic" unicode="&#x138;" horiz-adv-x="532" 
d="M486 487l-177 -166l201 -306c2 -3 2 -5 2 -7c0 -5 -2 -8 -9 -8h-90c-7 0 -12 2 -16 9l-162 243l-63 -59v-183c0 -7 -3 -10 -10 -10h-78c-7 0 -10 3 -10 10v482c0 7 3 10 10 10h78c7 0 10 -3 10 -10v-179l191 180c5 5 9 9 16 9h103c6 0 8 -3 8 -7c0 -2 -1 -5 -4 -8z" />
    <glyph glyph-name="Lacute" unicode="&#x139;" horiz-adv-x="578" 
d="M78 10v680c0 7 3 10 10 10h84c7 0 10 -3 10 -10v-590h349c7 0 10 -3 10 -10v-80c0 -7 -3 -10 -10 -10h-443c-7 0 -10 3 -10 10zM85 762l69 126c4 7 8 10 15 10h111c7 0 9 -5 5 -10l-103 -127c-5 -6 -9 -9 -18 -9h-74c-6 0 -8 5 -5 10z" />
    <glyph glyph-name="lacute" unicode="&#x13a;" horiz-adv-x="238" 
d="M70 10v680c0 7 3 10 10 10h78c7 0 10 -3 10 -10v-680c0 -7 -3 -10 -10 -10h-78c-7 0 -10 3 -10 10zM77 762l69 126c4 7 8 10 15 10h111c7 0 9 -5 5 -10l-103 -127c-5 -6 -9 -9 -18 -9h-74c-6 0 -8 5 -5 10z" />
    <glyph glyph-name="Lcommaaccent" unicode="&#x13b;" horiz-adv-x="578" 
d="M78 10v680c0 7 3 10 10 10h84c7 0 10 -3 10 -10v-590h349c7 0 10 -3 10 -10v-80c0 -7 -3 -10 -10 -10h-443c-7 0 -10 3 -10 10zM271 -208c35 0 46 10 46 42v12h-48c-7 0 -10 3 -10 10v92c0 7 3 10 10 10h92c7 0 10 -3 10 -10v-121c0 -51 -23 -85 -76 -85h-24
c-7 0 -10 3 -10 10v30c0 7 3 10 10 10z" />
    <glyph glyph-name="lcommaaccent" unicode="&#x13c;" horiz-adv-x="238" 
d="M70 10v680c0 7 3 10 10 10h78c7 0 10 -3 10 -10v-680c0 -7 -3 -10 -10 -10h-78c-7 0 -10 3 -10 10zM75 -208c35 0 46 10 46 42v12h-48c-7 0 -10 3 -10 10v92c0 7 3 10 10 10h92c7 0 10 -3 10 -10v-121c0 -51 -23 -85 -76 -85h-24c-7 0 -10 3 -10 10v30c0 7 3 10 10 10z
" />
    <glyph glyph-name="Lcaron" unicode="&#x13d;" horiz-adv-x="578" 
d="M78 10v680c0 7 3 10 10 10h84c7 0 10 -3 10 -10v-590h349c7 0 10 -3 10 -10v-80c0 -7 -3 -10 -10 -10h-443c-7 0 -10 3 -10 10zM308 526c42 0 55 14 55 50v12h-47c-7 0 -10 3 -10 10v92c0 7 3 10 10 10h98c7 0 10 -3 10 -10v-121c0 -53 -27 -93 -89 -93h-27
c-7 0 -10 3 -10 10v30c0 7 3 10 10 10z" />
    <glyph glyph-name="lcaron" unicode="&#x13e;" horiz-adv-x="374" 
d="M70 10v680c0 7 3 10 10 10h78c7 0 10 -3 10 -10v-680c0 -7 -3 -10 -10 -10h-78c-7 0 -10 3 -10 10zM240 526c42 0 55 14 55 50v12h-47c-7 0 -10 3 -10 10v92c0 7 3 10 10 10h98c7 0 10 -3 10 -10v-121c0 -53 -27 -93 -89 -93h-27c-7 0 -10 3 -10 10v30c0 7 3 10 10 10z
" />
    <glyph glyph-name="Ldot" unicode="&#x13f;" horiz-adv-x="578" 
d="M78 10v680c0 7 3 10 10 10h84c7 0 10 -3 10 -10v-590h349c7 0 10 -3 10 -10v-80c0 -7 -3 -10 -10 -10h-443c-7 0 -10 3 -10 10zM288 412h92c7 0 10 -3 10 -10v-92c0 -7 -3 -10 -10 -10h-92c-7 0 -10 3 -10 10v92c0 7 3 10 10 10z" />
    <glyph glyph-name="ldot" unicode="&#x140;" horiz-adv-x="380" 
d="M70 10v680c0 7 3 10 10 10h78c7 0 10 -3 10 -10v-680c0 -7 -3 -10 -10 -10h-78c-7 0 -10 3 -10 10zM248 412h92c7 0 10 -3 10 -10v-92c0 -7 -3 -10 -10 -10h-92c-7 0 -10 3 -10 10v92c0 7 3 10 10 10z" />
    <glyph glyph-name="Nacute" unicode="&#x143;" horiz-adv-x="696" 
d="M608 0h-91c-7 0 -13 1 -16 8l-319 512v-510c0 -7 -3 -10 -10 -10h-84c-7 0 -10 3 -10 10v680c0 7 3 10 10 10h91c7 0 13 -1 16 -8l319 -512v510c0 7 3 10 10 10h84c7 0 10 -3 10 -10v-680c0 -7 -3 -10 -10 -10zM283 762l69 126c4 7 8 10 15 10h111c7 0 9 -5 5 -10
l-103 -127c-5 -6 -9 -9 -18 -9h-74c-6 0 -8 5 -5 10z" />
    <glyph glyph-name="nacute" unicode="&#x144;" horiz-adv-x="570" 
d="M74 10v482c0 7 3 10 10 10h78c7 0 10 -3 10 -10v-45c42 40 93 65 159 65c110 0 173 -65 173 -175v-327c0 -7 -3 -10 -10 -10h-78c-7 0 -10 3 -10 10v298c0 76 -38 110 -100 110c-71 0 -134 -57 -134 -171v-237c0 -7 -3 -10 -10 -10h-78c-7 0 -10 3 -10 10zM227 564
l69 126c4 7 8 10 15 10h111c7 0 9 -5 5 -10l-103 -127c-5 -6 -9 -9 -18 -9h-74c-6 0 -8 5 -5 10z" />
    <glyph glyph-name="Ncommaaccent" unicode="&#x145;" horiz-adv-x="696" 
d="M608 0h-91c-7 0 -13 1 -16 8l-319 512v-510c0 -7 -3 -10 -10 -10h-84c-7 0 -10 3 -10 10v680c0 7 3 10 10 10h91c7 0 13 -1 16 -8l319 -512v510c0 7 3 10 10 10h84c7 0 10 -3 10 -10v-680c0 -7 -3 -10 -10 -10zM308 -208c35 0 46 10 46 42v12h-48c-7 0 -10 3 -10 10v92
c0 7 3 10 10 10h92c7 0 10 -3 10 -10v-121c0 -51 -23 -85 -76 -85h-24c-7 0 -10 3 -10 10v30c0 7 3 10 10 10z" />
    <glyph glyph-name="ncommaaccent" unicode="&#x146;" horiz-adv-x="570" 
d="M74 10v482c0 7 3 10 10 10h78c7 0 10 -3 10 -10v-45c42 40 93 65 159 65c110 0 173 -65 173 -175v-327c0 -7 -3 -10 -10 -10h-78c-7 0 -10 3 -10 10v298c0 76 -38 110 -100 110c-71 0 -134 -57 -134 -171v-237c0 -7 -3 -10 -10 -10h-78c-7 0 -10 3 -10 10zM251 -208
c35 0 46 10 46 42v12h-48c-7 0 -10 3 -10 10v92c0 7 3 10 10 10h92c7 0 10 -3 10 -10v-121c0 -51 -23 -85 -76 -85h-24c-7 0 -10 3 -10 10v30c0 7 3 10 10 10z" />
    <glyph glyph-name="Ncaron" unicode="&#x147;" horiz-adv-x="696" 
d="M608 0h-91c-7 0 -13 1 -16 8l-319 512v-510c0 -7 -3 -10 -10 -10h-84c-7 0 -10 3 -10 10v680c0 7 3 10 10 10h91c7 0 13 -1 16 -8l319 -512v510c0 7 3 10 10 10h84c7 0 10 -3 10 -10v-680c0 -7 -3 -10 -10 -10zM502 888l-105 -134c-5 -6 -8 -8 -15 -8h-68
c-7 0 -10 2 -15 8l-105 134c-4 5 -1 10 5 10h78c8 0 12 -3 18 -9l53 -53l53 53c6 6 10 9 18 9h78c6 0 9 -5 5 -10z" />
    <glyph glyph-name="ncaron" unicode="&#x148;" horiz-adv-x="570" 
d="M74 10v482c0 7 3 10 10 10h78c7 0 10 -3 10 -10v-45c42 40 93 65 159 65c110 0 173 -65 173 -175v-327c0 -7 -3 -10 -10 -10h-78c-7 0 -10 3 -10 10v298c0 76 -38 110 -100 110c-71 0 -134 -57 -134 -171v-237c0 -7 -3 -10 -10 -10h-78c-7 0 -10 3 -10 10zM466 690
l-105 -134c-5 -6 -8 -8 -15 -8h-68c-7 0 -10 2 -15 8l-105 134c-4 5 -1 10 5 10h78c8 0 12 -3 18 -9l53 -53l53 53c6 6 10 9 18 9h78c6 0 9 -5 5 -10z" />
    <glyph glyph-name="napostrophe" unicode="&#x149;" horiz-adv-x="652" 
d="M156 10v482c0 7 3 10 10 10h78c7 0 10 -3 10 -10v-45c42 40 93 65 159 65c110 0 173 -65 173 -175v-327c0 -7 -3 -10 -10 -10h-78c-7 0 -10 3 -10 10v298c0 76 -38 110 -100 110c-71 0 -134 -57 -134 -171v-237c0 -7 -3 -10 -10 -10h-78c-7 0 -10 3 -10 10zM27 556
c42 0 55 14 55 50v12h-47c-7 0 -10 3 -10 10v92c0 7 3 10 10 10h98c7 0 10 -3 10 -10v-121c0 -53 -27 -93 -89 -93h-27c-7 0 -10 3 -10 10v30c0 7 3 10 10 10z" />
    <glyph glyph-name="Eng" unicode="&#x14a;" horiz-adv-x="696" 
d="M380 -108c97 0 134 15 134 108l-332 520v-510c0 -7 -3 -10 -10 -10h-84c-7 0 -10 3 -10 10v680c0 7 3 10 10 10h91c7 0 13 -1 16 -8l319 -497v495c0 7 3 10 10 10h84c7 0 10 -3 10 -10v-690c0 -157 -63 -208 -238 -208c-7 0 -10 3 -10 10v80c0 7 3 10 10 10z" />
    <glyph glyph-name="eng" unicode="&#x14b;" horiz-adv-x="566" 
d="M74 10v482c0 7 3 10 10 10h78c7 0 10 -3 10 -10v-45c42 40 93 65 159 65c110 0 173 -65 173 -175v-364c0 -89 -15 -130 -33 -173c-2 -5 -4 -8 -8 -8c-1 0 -2 0 -7 2l-72 27c-5 2 -8 4 -8 8c0 1 0 2 1 5c18 47 29 76 29 135v339c0 76 -38 110 -100 110
c-71 0 -134 -57 -134 -171v-237c0 -7 -3 -10 -10 -10h-78c-7 0 -10 3 -10 10z" />
    <glyph glyph-name="Omacron" unicode="&#x14c;" horiz-adv-x="768" 
d="M384 -10c-171 0 -338 116 -338 360s167 360 338 360s338 -116 338 -360s-167 -360 -338 -360zM384 90c121 0 230 83 230 260s-109 260 -230 260s-230 -83 -230 -260s109 -260 230 -260zM274 794v70c0 7 3 10 10 10h200c7 0 10 -3 10 -10v-70c0 -7 -3 -10 -10 -10h-200
c-7 0 -10 3 -10 10z" />
    <glyph glyph-name="omacron" unicode="&#x14d;" horiz-adv-x="610" 
d="M44 251c0 155 112 261 261 261s261 -106 261 -261s-112 -261 -261 -261s-261 106 -261 261zM148 251c0 -100 65 -167 157 -167s157 67 157 167s-65 167 -157 167s-157 -67 -157 -167zM195 596v70c0 7 3 10 10 10h200c7 0 10 -3 10 -10v-70c0 -7 -3 -10 -10 -10h-200
c-7 0 -10 3 -10 10z" />
    <glyph glyph-name="Obreve" unicode="&#x14e;" horiz-adv-x="768" 
d="M384 -10c-171 0 -338 116 -338 360s167 360 338 360s338 -116 338 -360s-167 -360 -338 -360zM384 90c121 0 230 83 230 260s-109 260 -230 260s-230 -83 -230 -260s109 -260 230 -260zM264 890h62c7 0 10 -3 10 -10c0 -35 17 -53 48 -53s48 18 48 53c0 7 3 10 10 10h62
c7 0 10 -3 10 -10c0 -80 -52 -129 -130 -129s-130 49 -130 129c0 7 3 10 10 10z" />
    <glyph glyph-name="obreve" unicode="&#x14f;" horiz-adv-x="610" 
d="M44 251c0 155 112 261 261 261s261 -106 261 -261s-112 -261 -261 -261s-261 106 -261 261zM148 251c0 -100 65 -167 157 -167s157 67 157 167s-65 167 -157 167s-157 -67 -157 -167zM185 692h62c7 0 10 -3 10 -10c0 -35 17 -53 48 -53s48 18 48 53c0 7 3 10 10 10h62
c7 0 10 -3 10 -10c0 -80 -52 -129 -130 -129s-130 49 -130 129c0 7 3 10 10 10z" />
    <glyph glyph-name="Ohungarumlaut" unicode="&#x150;" horiz-adv-x="768" 
d="M384 -10c-171 0 -338 116 -338 360s167 360 338 360s338 -116 338 -360s-167 -360 -338 -360zM384 90c121 0 230 83 230 260s-109 260 -230 260s-230 -83 -230 -260s109 -260 230 -260zM234 762l69 126c4 7 8 10 15 10h111c7 0 9 -5 5 -10l-103 -127c-5 -6 -9 -9 -18 -9
h-74c-6 0 -8 5 -5 10zM418 762l69 126c4 7 8 10 15 10h111c7 0 9 -5 5 -10l-103 -127c-5 -6 -9 -9 -18 -9h-74c-6 0 -8 5 -5 10z" />
    <glyph glyph-name="ohungarumlaut" unicode="&#x151;" horiz-adv-x="610" 
d="M44 251c0 155 112 261 261 261s261 -106 261 -261s-112 -261 -261 -261s-261 106 -261 261zM148 251c0 -100 65 -167 157 -167s157 67 157 167s-65 167 -157 167s-157 -67 -157 -167zM143 564l69 126c4 7 8 10 15 10h111c7 0 9 -5 5 -10l-103 -127c-5 -6 -9 -9 -18 -9
h-74c-6 0 -8 5 -5 10zM327 564l69 126c4 7 8 10 15 10h111c7 0 9 -5 5 -10l-103 -127c-5 -6 -9 -9 -18 -9h-74c-6 0 -8 5 -5 10z" />
    <glyph glyph-name="Racute" unicode="&#x154;" horiz-adv-x="615" 
d="M78 10v680c0 7 3 10 10 10h261c130 0 210 -66 210 -188c0 -93 -58 -156 -129 -180l151 -322c3 -7 -1 -10 -8 -10h-92c-7 0 -10 3 -14 10l-154 314h-131v-314c0 -7 -3 -10 -10 -10h-84c-7 0 -10 3 -10 10zM182 600v-176h171c66 0 102 32 102 88s-36 88 -102 88h-171z
M215 762l69 126c4 7 8 10 15 10h111c7 0 9 -5 5 -10l-103 -127c-5 -6 -9 -9 -18 -9h-74c-6 0 -8 5 -5 10z" />
    <glyph glyph-name="racute" unicode="&#x155;" horiz-adv-x="432" 
d="M405 478v-79c0 -6 -2 -11 -8 -11c-1 0 -2 0 -7 2c-41 20 -66 28 -105 28c-65 0 -113 -50 -113 -147v-261c0 -7 -3 -10 -10 -10h-78c-7 0 -10 3 -10 10v482c0 7 3 10 10 10h78c7 0 10 -3 10 -10v-39c32 34 76 59 132 59c35 0 62 -6 89 -16c10 -4 12 -8 12 -18zM164 564
l69 126c4 7 8 10 15 10h111c7 0 9 -5 5 -10l-103 -127c-5 -6 -9 -9 -18 -9h-74c-6 0 -8 5 -5 10z" />
    <glyph glyph-name="Rcommaaccent" unicode="&#x156;" horiz-adv-x="615" 
d="M78 10v680c0 7 3 10 10 10h261c130 0 210 -66 210 -188c0 -93 -58 -156 -129 -180l151 -322c3 -7 -1 -10 -8 -10h-92c-7 0 -10 3 -14 10l-154 314h-131v-314c0 -7 -3 -10 -10 -10h-84c-7 0 -10 3 -10 10zM182 600v-176h171c66 0 102 32 102 88s-36 88 -102 88h-171z
M265 -208c35 0 46 10 46 42v12h-48c-7 0 -10 3 -10 10v92c0 7 3 10 10 10h92c7 0 10 -3 10 -10v-121c0 -51 -23 -85 -76 -85h-24c-7 0 -10 3 -10 10v30c0 7 3 10 10 10z" />
    <glyph glyph-name="rcommaaccent" unicode="&#x157;" horiz-adv-x="432" 
d="M405 478v-79c0 -6 -2 -11 -8 -11c-1 0 -2 0 -7 2c-41 20 -66 28 -105 28c-65 0 -113 -50 -113 -147v-261c0 -7 -3 -10 -10 -10h-78c-7 0 -10 3 -10 10v482c0 7 3 10 10 10h78c7 0 10 -3 10 -10v-39c32 34 76 59 132 59c35 0 62 -6 89 -16c10 -4 12 -8 12 -18zM139 -208
c35 0 46 10 46 42v12h-48c-7 0 -10 3 -10 10v92c0 7 3 10 10 10h92c7 0 10 -3 10 -10v-121c0 -51 -23 -85 -76 -85h-24c-7 0 -10 3 -10 10v30c0 7 3 10 10 10z" />
    <glyph glyph-name="Rcaron" unicode="&#x158;" horiz-adv-x="615" 
d="M78 10v680c0 7 3 10 10 10h261c130 0 210 -66 210 -188c0 -93 -58 -156 -129 -180l151 -322c3 -7 -1 -10 -8 -10h-92c-7 0 -10 3 -14 10l-154 314h-131v-314c0 -7 -3 -10 -10 -10h-84c-7 0 -10 3 -10 10zM182 600v-176h171c66 0 102 32 102 88s-36 88 -102 88h-171z
M440 888l-105 -134c-5 -6 -8 -8 -15 -8h-68c-7 0 -10 2 -15 8l-105 134c-4 5 -1 10 5 10h78c8 0 12 -3 18 -9l53 -53l53 53c6 6 10 9 18 9h78c6 0 9 -5 5 -10z" />
    <glyph glyph-name="rcaron" unicode="&#x159;" horiz-adv-x="432" 
d="M405 478v-79c0 -6 -2 -11 -8 -11c-1 0 -2 0 -7 2c-41 20 -66 28 -105 28c-65 0 -113 -50 -113 -147v-261c0 -7 -3 -10 -10 -10h-78c-7 0 -10 3 -10 10v482c0 7 3 10 10 10h78c7 0 10 -3 10 -10v-39c32 34 76 59 132 59c35 0 62 -6 89 -16c10 -4 12 -8 12 -18zM386 690
l-105 -134c-5 -6 -8 -8 -15 -8h-68c-7 0 -10 2 -15 8l-105 134c-4 5 -1 10 5 10h78c8 0 12 -3 18 -9l53 -53l53 53c6 6 10 9 18 9h78c6 0 9 -5 5 -10z" />
    <glyph glyph-name="Sacute" unicode="&#x15a;" horiz-adv-x="590" 
d="M48 517c0 127 113 193 241 193c155 0 244 -96 246 -201c0 -7 -3 -10 -10 -10h-84c-7 0 -9 3 -10 10c-7 65 -66 101 -142 101c-79 0 -137 -29 -137 -88c0 -68 76 -94 176 -121c120 -33 230 -82 230 -193c0 -143 -106 -218 -264 -218c-149 0 -264 100 -264 228
c0 7 3 10 10 10h84c7 0 10 -3 10 -10c5 -80 64 -128 160 -128c105 0 160 35 160 112c0 54 -75 88 -172 112c-142 35 -234 86 -234 203zM212 762l69 126c4 7 8 10 15 10h111c7 0 9 -5 5 -10l-103 -127c-5 -6 -9 -9 -18 -9h-74c-6 0 -8 5 -5 10z" />
    <glyph glyph-name="sacute" unicode="&#x15b;" horiz-adv-x="500" 
d="M459 147c0 -98 -86 -157 -209 -157c-121 0 -207 65 -215 169c0 6 3 10 10 10h84c7 0 9 -3 10 -10c9 -53 53 -75 114 -75c59 0 102 16 102 63c0 35 -37 53 -134 69c-120 20 -173 65 -173 146c0 105 97 150 195 150c117 0 191 -63 200 -150c0 -6 -3 -10 -10 -10h-85
c-7 0 -8 3 -10 10c-13 38 -50 56 -100 56c-46 0 -92 -14 -92 -51c0 -38 31 -57 132 -75c105 -19 181 -50 181 -145zM167 564l69 126c4 7 8 10 15 10h111c7 0 9 -5 5 -10l-103 -127c-5 -6 -9 -9 -18 -9h-74c-6 0 -8 5 -5 10z" />
    <glyph glyph-name="Scircumflex" unicode="&#x15c;" horiz-adv-x="590" 
d="M48 517c0 127 113 193 241 193c155 0 244 -96 246 -201c0 -7 -3 -10 -10 -10h-84c-7 0 -9 3 -10 10c-7 65 -66 101 -142 101c-79 0 -137 -29 -137 -88c0 -68 76 -94 176 -121c120 -33 230 -82 230 -193c0 -143 -106 -218 -264 -218c-149 0 -264 100 -264 228
c0 7 3 10 10 10h84c7 0 10 -3 10 -10c5 -80 64 -128 160 -128c105 0 160 35 160 112c0 54 -75 88 -172 112c-142 35 -234 86 -234 203zM338 890l105 -134c4 -5 1 -10 -5 -10h-78c-8 0 -12 3 -18 9l-53 53l-53 -53c-6 -6 -10 -9 -18 -9h-78c-6 0 -9 5 -5 10l105 134
c5 6 8 8 15 8h68c7 0 10 -2 15 -8z" />
    <glyph glyph-name="scircumflex" unicode="&#x15d;" horiz-adv-x="500" 
d="M459 147c0 -98 -86 -157 -209 -157c-121 0 -207 65 -215 169c0 6 3 10 10 10h84c7 0 9 -3 10 -10c9 -53 53 -75 114 -75c59 0 102 16 102 63c0 35 -37 53 -134 69c-120 20 -173 65 -173 146c0 105 97 150 195 150c117 0 191 -63 200 -150c0 -6 -3 -10 -10 -10h-85
c-7 0 -8 3 -10 10c-13 38 -50 56 -100 56c-46 0 -92 -14 -92 -51c0 -38 31 -57 132 -75c105 -19 181 -50 181 -145zM290 692l105 -134c4 -5 1 -10 -5 -10h-78c-8 0 -12 3 -18 9l-53 53l-53 -53c-6 -6 -10 -9 -18 -9h-78c-6 0 -9 5 -5 10l105 134c5 6 8 8 15 8h68
c7 0 10 -2 15 -8z" />
    <glyph glyph-name="Scedilla" unicode="&#x15e;" horiz-adv-x="590" 
d="M250 -111l-20 19c-2 2 -3 4 -3 7c0 2 0 3 1 6l22 72c-127 17 -220 110 -220 225c0 7 3 10 10 10h84c7 0 10 -3 10 -10c5 -80 64 -128 160 -128c105 0 160 35 160 112c0 54 -75 88 -172 112c-142 35 -234 86 -234 203c0 127 113 193 241 193c155 0 244 -96 246 -201
c0 -7 -3 -10 -10 -10h-84c-7 0 -9 3 -10 10c-7 65 -66 101 -142 101c-79 0 -137 -29 -137 -88c0 -68 76 -94 176 -121c120 -33 230 -82 230 -193c0 -137 -96 -212 -242 -218l-22 -47c14 4 36 7 52 7c59 0 89 -29 89 -75c0 -58 -40 -83 -113 -83c-46 0 -76 4 -101 10
c-7 2 -10 3 -10 10v39c0 8 4 10 10 10c20 0 35 -13 91 -13c31 0 43 7 43 25c0 13 -10 23 -36 23c-18 0 -39 -5 -55 -9c-3 -1 -4 -1 -6 -1c-3 0 -6 1 -8 3z" />
    <glyph glyph-name="scedilla" unicode="&#x15f;" horiz-adv-x="500" 
d="M186 -111l-20 19c-2 2 -3 4 -3 7c0 2 0 3 1 6l23 76c-87 18 -146 77 -152 162c0 6 3 10 10 10h84c7 0 9 -3 10 -10c9 -53 53 -75 114 -75c59 0 104 16 104 63c0 35 -39 53 -136 69c-120 20 -173 65 -173 146c0 105 97 150 195 150c117 0 191 -63 200 -150
c0 -6 -3 -10 -10 -10h-85c-7 0 -8 3 -10 10c-13 38 -50 56 -100 56c-46 0 -92 -14 -92 -51c0 -38 31 -57 132 -75c105 -19 181 -50 181 -145c0 -98 -86 -156 -208 -157l-21 -47c14 4 36 7 52 7c59 0 89 -29 89 -75c0 -58 -40 -83 -113 -83c-46 0 -76 4 -101 10
c-7 2 -10 3 -10 10v39c0 8 4 10 10 10c20 0 35 -13 91 -13c31 0 43 7 43 25c0 13 -10 23 -36 23c-18 0 -39 -5 -55 -9c-3 -1 -4 -1 -6 -1c-3 0 -6 1 -8 3z" />
    <glyph glyph-name="Tcommaaccent" unicode="&#x162;" horiz-adv-x="564" 
d="M19 610v80c0 7 3 10 10 10h506c7 0 10 -3 10 -10v-80c0 -7 -3 -10 -10 -10h-201v-590c0 -7 -3 -10 -10 -10h-84c-7 0 -10 3 -10 10v590h-201c-7 0 -10 3 -10 10zM238 -208c35 0 46 10 46 42v12h-48c-7 0 -10 3 -10 10v92c0 7 3 10 10 10h92c7 0 10 -3 10 -10v-121
c0 -51 -23 -85 -76 -85h-24c-7 0 -10 3 -10 10v30c0 7 3 10 10 10z" />
    <glyph glyph-name="tcommaaccent" unicode="&#x163;" horiz-adv-x="420" 
d="M216 502h159c7 0 10 -3 10 -10v-74c0 -7 -3 -10 -10 -10h-159v-242c0 -53 23 -82 75 -82c30 0 55 3 90 16c3 1 4 1 6 1c5 0 8 -4 8 -9v-68c0 -9 0 -14 -8 -17c-29 -11 -69 -17 -105 -17c-100 0 -164 57 -164 159v259h-88c-7 0 -10 3 -10 10v74c0 7 3 10 10 10h88v144
c0 7 3 10 10 10h78c7 0 10 -3 10 -10v-144zM222 -208c35 0 46 10 46 42v12h-48c-7 0 -10 3 -10 10v92c0 7 3 10 10 10h92c7 0 10 -3 10 -10v-121c0 -51 -23 -85 -76 -85h-24c-7 0 -10 3 -10 10v30c0 7 3 10 10 10z" />
    <glyph glyph-name="Tcaron" unicode="&#x164;" horiz-adv-x="564" 
d="M19 610v80c0 7 3 10 10 10h506c7 0 10 -3 10 -10v-80c0 -7 -3 -10 -10 -10h-201v-590c0 -7 -3 -10 -10 -10h-84c-7 0 -10 3 -10 10v590h-201c-7 0 -10 3 -10 10zM436 888l-105 -134c-5 -6 -8 -8 -15 -8h-68c-7 0 -10 2 -15 8l-105 134c-4 5 -1 10 5 10h78
c8 0 12 -3 18 -9l53 -53l53 53c6 6 10 9 18 9h78c6 0 9 -5 5 -10z" />
    <glyph glyph-name="tcaron" unicode="&#x165;" horiz-adv-x="467" 
d="M216 502h159c7 0 10 -3 10 -10v-74c0 -7 -3 -10 -10 -10h-159v-242c0 -53 23 -82 75 -82c30 0 55 3 90 16c3 1 4 1 6 1c5 0 8 -4 8 -9v-68c0 -9 0 -14 -8 -17c-29 -11 -69 -17 -105 -17c-100 0 -164 57 -164 159v259h-88c-7 0 -10 3 -10 10v74c0 7 3 10 10 10h88v144
c0 7 3 10 10 10h78c7 0 10 -3 10 -10v-144zM330 588c42 0 55 14 55 50v12h-47c-7 0 -10 3 -10 10v92c0 7 3 10 10 10h98c7 0 10 -3 10 -10v-121c0 -53 -27 -93 -89 -93h-27c-7 0 -10 3 -10 10v30c0 7 3 10 10 10z" />
    <glyph glyph-name="Tbar" unicode="&#x166;" horiz-adv-x="564" 
d="M19 610v80c0 7 3 10 10 10h506c7 0 10 -3 10 -10v-80c0 -7 -3 -10 -10 -10h-201v-95h171c7 0 10 -3 10 -10v-76c0 -7 -3 -10 -10 -10h-171v-399c0 -7 -3 -10 -10 -10h-84c-7 0 -10 3 -10 10v399h-175c-7 0 -10 3 -10 10v76c0 7 3 10 10 10h175v95h-201c-7 0 -10 3 -10 10
z" />
    <glyph glyph-name="tbar" unicode="&#x167;" horiz-adv-x="420" 
d="M216 502h159c7 0 10 -3 10 -10v-74c0 -7 -3 -10 -10 -10h-159v-77h141c7 0 10 -3 10 -10v-70c0 -7 -3 -10 -10 -10h-141v-75c0 -53 23 -82 75 -82c30 0 55 3 90 16c3 1 4 1 6 1c5 0 8 -4 8 -9v-68c0 -9 0 -14 -8 -17c-29 -11 -69 -17 -105 -17c-100 0 -164 57 -164 159
v92h-71c-7 0 -10 3 -10 10v70c0 7 3 10 10 10h71v77h-88c-7 0 -10 3 -10 10v74c0 7 3 10 10 10h88v144c0 7 3 10 10 10h78c7 0 10 -3 10 -10v-144z" />
    <glyph glyph-name="Utilde" unicode="&#x168;" horiz-adv-x="640" 
d="M62 256v434c0 7 3 10 10 10h84c7 0 10 -3 10 -10v-428c0 -115 62 -172 154 -172s154 57 154 172v428c0 7 3 10 10 10h84c7 0 10 -3 10 -10v-434c0 -168 -107 -266 -258 -266s-258 98 -258 266zM135 864c31 25 76 44 106 44c78 0 84 -41 138 -41c21 0 36 5 62 24
c2 1 4 2 7 2c4 0 6 -2 10 -8l35 -50c3 -5 3 -6 3 -8c0 -3 -2 -7 -6 -10c-31 -25 -76 -44 -106 -44c-78 0 -84 41 -138 41c-21 0 -36 -5 -62 -24c-2 -1 -4 -2 -7 -2c-4 0 -6 2 -10 8l-35 50c-3 5 -3 6 -3 8c0 3 2 7 6 10z" />
    <glyph glyph-name="utilde" unicode="&#x169;" horiz-adv-x="570" 
d="M496 492v-482c0 -7 -3 -10 -10 -10h-78c-7 0 -10 3 -10 10v45c-42 -40 -93 -65 -159 -65c-110 0 -173 65 -173 175v327c0 7 3 10 10 10h78c7 0 10 -3 10 -10v-298c0 -76 38 -110 100 -110c71 0 134 57 134 171v237c0 7 3 10 10 10h78c7 0 10 -3 10 -10zM97 666
c31 25 76 44 106 44c78 0 84 -41 138 -41c21 0 36 5 62 24c2 1 4 2 7 2c4 0 6 -2 10 -8l35 -50c3 -5 3 -6 3 -8c0 -3 -2 -7 -6 -10c-31 -25 -76 -44 -106 -44c-78 0 -84 41 -138 41c-21 0 -36 -5 -62 -24c-2 -1 -4 -2 -7 -2c-4 0 -6 2 -10 8l-35 50c-3 5 -3 6 -3 8
c0 3 2 7 6 10z" />
    <glyph glyph-name="Umacron" unicode="&#x16a;" horiz-adv-x="640" 
d="M62 256v434c0 7 3 10 10 10h84c7 0 10 -3 10 -10v-428c0 -115 62 -172 154 -172s154 57 154 172v428c0 7 3 10 10 10h84c7 0 10 -3 10 -10v-434c0 -168 -107 -266 -258 -266s-258 98 -258 266zM210 794v70c0 7 3 10 10 10h200c7 0 10 -3 10 -10v-70c0 -7 -3 -10 -10 -10
h-200c-7 0 -10 3 -10 10z" />
    <glyph glyph-name="umacron" unicode="&#x16b;" horiz-adv-x="570" 
d="M496 492v-482c0 -7 -3 -10 -10 -10h-78c-7 0 -10 3 -10 10v45c-42 -40 -93 -65 -159 -65c-110 0 -173 65 -173 175v327c0 7 3 10 10 10h78c7 0 10 -3 10 -10v-298c0 -76 38 -110 100 -110c71 0 134 57 134 171v237c0 7 3 10 10 10h78c7 0 10 -3 10 -10zM165 596v70
c0 7 3 10 10 10h200c7 0 10 -3 10 -10v-70c0 -7 -3 -10 -10 -10h-200c-7 0 -10 3 -10 10z" />
    <glyph glyph-name="Ubreve" unicode="&#x16c;" horiz-adv-x="640" 
d="M62 256v434c0 7 3 10 10 10h84c7 0 10 -3 10 -10v-428c0 -115 62 -172 154 -172s154 57 154 172v428c0 7 3 10 10 10h84c7 0 10 -3 10 -10v-434c0 -168 -107 -266 -258 -266s-258 98 -258 266zM200 890h62c7 0 10 -3 10 -10c0 -35 17 -53 48 -53s48 18 48 53
c0 7 3 10 10 10h62c7 0 10 -3 10 -10c0 -80 -52 -129 -130 -129s-130 49 -130 129c0 7 3 10 10 10z" />
    <glyph glyph-name="ubreve" unicode="&#x16d;" horiz-adv-x="570" 
d="M496 492v-482c0 -7 -3 -10 -10 -10h-78c-7 0 -10 3 -10 10v45c-42 -40 -93 -65 -159 -65c-110 0 -173 65 -173 175v327c0 7 3 10 10 10h78c7 0 10 -3 10 -10v-298c0 -76 38 -110 100 -110c71 0 134 57 134 171v237c0 7 3 10 10 10h78c7 0 10 -3 10 -10zM160 692h62
c7 0 10 -3 10 -10c0 -35 17 -53 48 -53s48 18 48 53c0 7 3 10 10 10h62c7 0 10 -3 10 -10c0 -80 -52 -129 -130 -129s-130 49 -130 129c0 7 3 10 10 10z" />
    <glyph glyph-name="Uring" unicode="&#x16e;" horiz-adv-x="640" 
d="M62 256v434c0 7 3 10 10 10h84c7 0 10 -3 10 -10v-428c0 -115 62 -172 154 -172s154 57 154 172v428c0 7 3 10 10 10h84c7 0 10 -3 10 -10v-434c0 -168 -107 -266 -258 -266s-258 98 -258 266zM225 826c0 54 39 92 95 92s95 -38 95 -92s-39 -92 -95 -92s-95 38 -95 92z
M283 826c0 -24 16 -38 37 -38s37 14 37 38s-16 38 -37 38s-37 -14 -37 -38z" />
    <glyph glyph-name="uring" unicode="&#x16f;" horiz-adv-x="570" 
d="M496 492v-482c0 -7 -3 -10 -10 -10h-78c-7 0 -10 3 -10 10v45c-42 -40 -93 -65 -159 -65c-110 0 -173 65 -173 175v327c0 7 3 10 10 10h78c7 0 10 -3 10 -10v-298c0 -76 38 -110 100 -110c71 0 134 57 134 171v237c0 7 3 10 10 10h78c7 0 10 -3 10 -10zM186 628
c0 54 39 92 95 92s95 -38 95 -92s-39 -92 -95 -92s-95 38 -95 92zM244 628c0 -24 16 -38 37 -38s37 14 37 38s-16 38 -37 38s-37 -14 -37 -38z" />
    <glyph glyph-name="Uhungarumlaut" unicode="&#x170;" horiz-adv-x="640" 
d="M62 256v434c0 7 3 10 10 10h84c7 0 10 -3 10 -10v-428c0 -115 62 -172 154 -172s154 57 154 172v428c0 7 3 10 10 10h84c7 0 10 -3 10 -10v-434c0 -168 -107 -266 -258 -266s-258 98 -258 266zM159 762l69 126c4 7 8 10 15 10h111c7 0 9 -5 5 -10l-103 -127
c-5 -6 -9 -9 -18 -9h-74c-6 0 -8 5 -5 10zM343 762l69 126c4 7 8 10 15 10h111c7 0 9 -5 5 -10l-103 -127c-5 -6 -9 -9 -18 -9h-74c-6 0 -8 5 -5 10z" />
    <glyph glyph-name="uhungarumlaut" unicode="&#x171;" horiz-adv-x="570" 
d="M496 492v-482c0 -7 -3 -10 -10 -10h-78c-7 0 -10 3 -10 10v45c-42 -40 -93 -65 -159 -65c-110 0 -173 65 -173 175v327c0 7 3 10 10 10h78c7 0 10 -3 10 -10v-298c0 -76 38 -110 100 -110c71 0 134 57 134 171v237c0 7 3 10 10 10h78c7 0 10 -3 10 -10zM99 564l69 126
c4 7 8 10 15 10h111c7 0 9 -5 5 -10l-103 -127c-5 -6 -9 -9 -18 -9h-74c-6 0 -8 5 -5 10zM283 564l69 126c4 7 8 10 15 10h111c7 0 9 -5 5 -10l-103 -127c-5 -6 -9 -9 -18 -9h-74c-6 0 -8 5 -5 10z" />
    <glyph glyph-name="Uogonek" unicode="&#x172;" horiz-adv-x="640" 
d="M62 256v434c0 7 3 10 10 10h84c7 0 10 -3 10 -10v-428c0 -115 62 -172 154 -172s154 57 154 172v428c0 7 3 10 10 10h84c7 0 10 -3 10 -10v-434c0 -136 -70 -226 -177 -256c-36 -10 -51 -36 -51 -61c0 -27 21 -44 55 -44h16c6 0 10 -2 10 -10v-50c0 -7 -4 -10 -10 -10
h-44c-68 0 -121 30 -121 91c0 32 16 58 36 76c-136 11 -230 106 -230 264z" />
    <glyph glyph-name="uogonek" unicode="&#x173;" horiz-adv-x="570" 
d="M496 492v-482c0 -4 -1 -8 -6 -10c-34 -12 -50 -36 -50 -61c0 -27 21 -44 55 -44h16c6 0 10 -2 10 -10v-50c0 -7 -4 -10 -10 -10h-44c-68 0 -121 30 -121 91c0 40 24 70 52 87v52c-42 -40 -93 -65 -159 -65c-110 0 -173 65 -173 175v327c0 7 3 10 10 10h78
c7 0 10 -3 10 -10v-298c0 -76 38 -110 100 -110c71 0 134 57 134 171v237c0 7 3 10 10 10h78c7 0 10 -3 10 -10z" />
    <glyph glyph-name="Wcircumflex" unicode="&#x174;" horiz-adv-x="836" 
d="M825 690l-155 -680c-2 -7 -4 -10 -11 -10h-107c-7 0 -9 3 -11 10l-123 485l-123 -485c-2 -7 -4 -10 -11 -10h-107c-7 0 -9 3 -11 10l-155 680c-2 7 1 10 8 10h89c7 0 11 -3 12 -10l115 -544l126 496c2 7 5 10 12 10h90c7 0 10 -3 12 -10l126 -496l115 544c1 7 5 10 12 10
h89c7 0 10 -3 8 -10zM467 890l105 -134c4 -5 1 -10 -5 -10h-78c-8 0 -12 3 -18 9l-53 53l-53 -53c-6 -6 -10 -9 -18 -9h-78c-6 0 -9 5 -5 10l105 134c5 6 8 8 15 8h68c7 0 10 -2 15 -8z" />
    <glyph glyph-name="wcircumflex" unicode="&#x175;" horiz-adv-x="746" 
d="M739 487l-150 -477c-2 -8 -7 -10 -13 -10h-90c-7 0 -11 3 -13 10l-100 336l-100 -336c-2 -7 -6 -10 -13 -10h-90c-6 0 -11 2 -13 10l-150 477c-1 4 -1 6 -1 8c0 5 4 7 8 7h85c10 0 12 -3 14 -10l100 -364l103 340c2 7 3 10 11 10h92c8 0 9 -3 11 -10l103 -340l100 364
c2 7 4 10 14 10h85c4 0 8 -2 8 -7c0 -2 0 -4 -1 -8zM422 692l105 -134c4 -5 1 -10 -5 -10h-78c-8 0 -12 3 -18 9l-53 53l-53 -53c-6 -6 -10 -9 -18 -9h-78c-6 0 -9 5 -5 10l105 134c5 6 8 8 15 8h68c7 0 10 -2 15 -8z" />
    <glyph glyph-name="Ycircumflex" unicode="&#x176;" horiz-adv-x="546" 
d="M543 690l-218 -438v-242c0 -7 -3 -10 -10 -10h-84c-7 0 -10 3 -10 10v242l-218 438c-2 7 2 10 6 10h100c7 0 9 -3 11 -8l153 -321l153 321c2 5 4 8 11 8h100c4 0 8 -3 6 -10zM322 890l105 -134c4 -5 1 -10 -5 -10h-78c-8 0 -12 3 -18 9l-53 53l-53 -53
c-6 -6 -10 -9 -18 -9h-78c-6 0 -9 5 -5 10l105 134c5 6 8 8 15 8h68c7 0 10 -2 15 -8z" />
    <glyph glyph-name="ycircumflex" unicode="&#x177;" horiz-adv-x="484" 
d="M106 502c8 0 11 -3 13 -10l134 -347l112 347c2 7 4 10 13 10h89c5 0 8 -2 8 -7c0 -2 0 -4 -1 -7l-183 -537c-43 -126 -104 -159 -174 -159c-38 0 -63 6 -85 16c-9 5 -10 10 -10 16v74c0 7 4 10 8 10c16 0 35 -22 76 -22c50 0 78 30 102 117l-200 483c-1 3 -2 5 -2 8
c0 5 3 8 8 8h92zM296 692l105 -134c4 -5 1 -10 -5 -10h-78c-8 0 -12 3 -18 9l-53 53l-53 -53c-6 -6 -10 -9 -18 -9h-78c-6 0 -9 5 -5 10l105 134c5 6 8 8 15 8h68c7 0 10 -2 15 -8z" />
    <glyph glyph-name="Zacute" unicode="&#x179;" horiz-adv-x="606" 
d="M52 610v80c0 7 3 10 10 10h475c7 0 10 -3 10 -10v-80c0 -7 -2 -11 -6 -17l-386 -493h403c7 0 10 -3 10 -10v-80c0 -7 -3 -10 -10 -10h-513c-7 0 -10 3 -10 10v80c0 7 2 11 6 17l387 493h-366c-7 0 -10 3 -10 10zM214 762l69 126c4 7 8 10 15 10h111c7 0 9 -5 5 -10
l-103 -127c-5 -6 -9 -9 -18 -9h-74c-6 0 -8 5 -5 10z" />
    <glyph glyph-name="zacute" unicode="&#x17a;" horiz-adv-x="483" 
d="M40 418v74c0 7 3 10 10 10h372c7 0 10 -3 10 -10v-74c0 -6 0 -12 -8 -21l-273 -303h290c7 0 10 -3 10 -10v-74c0 -7 -3 -10 -10 -10h-404c-7 0 -10 3 -10 10v74c0 7 3 11 6 15l278 309h-261c-7 0 -10 3 -10 10zM162 564l69 126c4 7 8 10 15 10h111c7 0 9 -5 5 -10
l-103 -127c-5 -6 -9 -9 -18 -9h-74c-6 0 -8 5 -5 10z" />
    <glyph glyph-name="Zdotaccent" unicode="&#x17b;" horiz-adv-x="606" 
d="M52 610v80c0 7 3 10 10 10h475c7 0 10 -3 10 -10v-80c0 -7 -2 -11 -6 -17l-386 -493h403c7 0 10 -3 10 -10v-80c0 -7 -3 -10 -10 -10h-513c-7 0 -10 3 -10 10v80c0 7 2 11 6 17l387 493h-366c-7 0 -10 3 -10 10zM236 788v100c0 7 3 10 10 10h100c7 0 10 -3 10 -10v-100
c0 -7 -3 -10 -10 -10h-100c-7 0 -10 3 -10 10z" />
    <glyph glyph-name="zdotaccent" unicode="&#x17c;" horiz-adv-x="483" 
d="M40 418v74c0 7 3 10 10 10h372c7 0 10 -3 10 -10v-74c0 -6 0 -12 -8 -21l-273 -303h290c7 0 10 -3 10 -10v-74c0 -7 -3 -10 -10 -10h-404c-7 0 -10 3 -10 10v74c0 7 3 11 6 15l278 309h-261c-7 0 -10 3 -10 10zM182 590v100c0 7 3 10 10 10h100c7 0 10 -3 10 -10v-100
c0 -7 -3 -10 -10 -10h-100c-7 0 -10 3 -10 10z" />
    <glyph glyph-name="uni01B5" unicode="&#x1b5;" horiz-adv-x="606" 
d="M52 610v80c0 7 3 10 10 10h475c7 0 10 -3 10 -10v-80c0 -7 -2 -11 -6 -17l-155 -198h141c7 0 10 -3 10 -10v-76c0 -7 -3 -10 -10 -10h-216l-156 -199h403c7 0 10 -3 10 -10v-80c0 -7 -3 -10 -10 -10h-513c-7 0 -10 3 -10 10v80c0 7 2 11 6 17l150 192h-116
c-7 0 -10 3 -10 10v76c0 7 3 10 10 10h192l161 205h-366c-7 0 -10 3 -10 10z" />
    <glyph glyph-name="uni01B6" unicode="&#x1b6;" horiz-adv-x="483" 
d="M40 418v74c0 7 3 10 10 10h372c7 0 10 -3 10 -10v-74c0 -6 0 -12 -8 -21l-79 -87h57c7 0 10 -3 10 -10v-70c0 -7 -3 -10 -10 -10h-138l-113 -126h290c7 0 10 -3 10 -10v-74c0 -7 -3 -10 -10 -10h-404c-7 0 -10 3 -10 10v74c0 7 3 11 6 15l109 121h-61c-7 0 -10 3 -10 10
v70c0 7 3 10 10 10h142l88 98h-261c-7 0 -10 3 -10 10z" />
    <glyph glyph-name="longs" unicode="&#x17f;" horiz-adv-x="376" 
d="M221 523v-513c0 -7 -3 -10 -10 -10h-78c-7 0 -10 3 -10 10v398h-82c-7 0 -10 3 -10 10v74c0 7 3 10 10 10h82v36c0 107 65 172 166 172c46 0 81 -9 110 -19c8 -3 8 -8 8 -17v-72c0 -5 -2 -10 -7 -10c-2 0 -5 1 -7 2c-37 15 -62 22 -90 22c-52 0 -82 -29 -82 -93z" />
    <glyph glyph-name="uni2117" unicode="&#x2117;" horiz-adv-x="800" 
d="M400 -10c-170 0 -348 129 -348 360s178 360 348 360s348 -129 348 -360s-178 -360 -348 -360zM400 32c148 0 300 106 300 318s-152 318 -300 318s-300 -106 -300 -318s152 -318 300 -318zM262 133v436c0 8 3 11 11 11h151c94 0 151 -57 151 -135s-57 -135 -151 -135h-114
v-177c0 -8 -3 -11 -11 -11h-26c-8 0 -11 3 -11 11zM310 538v-186h121c65 0 96 37 96 93s-31 93 -96 93h-121z" />
    <glyph glyph-name="onethird" unicode="&#x2153;" horiz-adv-x="864" 
d="M114 50l558 647c4 5 10 4 14 0l37 -33c5 -5 6 -9 2 -14l-558 -647c-4 -5 -10 -4 -14 0l-37 33c-5 5 -6 9 -2 14zM618 172v48c0 7 3 10 10 10h24c36 0 55 15 55 45c0 23 -18 41 -48 41c-27 0 -47 -12 -54 -41c-1 -6 -3 -8 -10 -8h-50c-6 0 -10 3 -10 9
c3 61 53 104 124 104c73 0 118 -42 118 -102c0 -34 -17 -61 -41 -77c31 -15 57 -42 57 -87c0 -81 -59 -120 -133 -120c-76 0 -135 52 -135 117c0 7 3 10 10 10h53c7 0 9 -3 10 -10c5 -34 30 -49 62 -49c38 0 61 16 61 49c0 31 -22 51 -61 51h-32c-7 0 -10 3 -10 10zM147 336
v273l-62 -34c-4 -2 -6 -3 -9 -3c-4 0 -8 2 -8 8v57c0 5 2 7 7 10l85 49c4 2 9 4 15 4h30c7 0 10 -3 10 -10v-354c0 -7 -3 -10 -10 -10h-48c-7 0 -10 3 -10 10z" />
    <glyph glyph-name="twothirds" unicode="&#x2154;" horiz-adv-x="957" 
d="M711 172v48c0 7 3 10 10 10h24c36 0 55 15 55 45c0 23 -18 41 -48 41c-27 0 -47 -12 -54 -41c-1 -6 -3 -8 -10 -8h-50c-6 0 -10 3 -10 9c3 61 53 104 124 104c73 0 118 -42 118 -102c0 -34 -17 -61 -41 -77c31 -15 57 -42 57 -87c0 -81 -59 -120 -133 -120
c-76 0 -135 52 -135 117c0 7 3 10 10 10h53c7 0 9 -3 10 -10c5 -34 30 -49 62 -49c38 0 61 16 61 49c0 31 -22 51 -61 51h-32c-7 0 -10 3 -10 10zM207 50l558 647c4 5 10 4 14 0l37 -33c5 -5 6 -9 2 -14l-558 -647c-4 -5 -10 -4 -14 0l-37 33c-5 5 -6 9 -2 14zM84 336v40
c0 7 1 10 6 14l156 127c23 19 33 39 33 69s-22 52 -59 52c-34 0 -58 -24 -63 -55c-1 -7 -3 -10 -10 -10h-50c-7 0 -10 3 -10 10c1 65 59 123 133 123c84 0 129 -53 129 -114c0 -55 -18 -84 -60 -119l-94 -79h152c7 0 10 -3 10 -10v-48c0 -7 -3 -10 -10 -10h-253
c-7 0 -10 3 -10 10z" />
    <glyph glyph-name="oneeighth" unicode="&#x215b;" horiz-adv-x="866" 
d="M114 50l558 647c4 5 10 4 14 0l37 -33c5 -5 6 -9 2 -14l-558 -647c-4 -5 -10 -4 -14 0l-37 33c-5 5 -6 9 -2 14zM147 336v273l-62 -34c-4 -2 -6 -3 -9 -3c-4 0 -8 2 -8 8v57c0 5 2 7 7 10l85 49c4 2 9 4 15 4h30c7 0 10 -3 10 -10v-354c0 -7 -3 -10 -10 -10h-48
c-7 0 -10 3 -10 10zM538 276c0 68 55 104 119 104s119 -36 119 -104c0 -40 -20 -63 -42 -78c30 -15 54 -47 54 -88c0 -71 -54 -116 -131 -116s-131 45 -131 116c0 41 24 73 54 88c-22 15 -42 38 -42 78zM604 110c0 -30 22 -48 53 -48s53 18 53 48s-22 50 -53 50
s-53 -20 -53 -50zM607 273c0 -27 19 -47 50 -47s50 20 50 47c0 29 -22 47 -50 47s-50 -18 -50 -47z" />
    <glyph glyph-name="threeeighths" unicode="&#x215c;" horiz-adv-x="892" 
d="M564 276c0 68 55 104 119 104s119 -36 119 -104c0 -40 -20 -63 -42 -78c30 -15 54 -47 54 -88c0 -71 -54 -116 -131 -116s-131 45 -131 116c0 41 24 73 54 88c-22 15 -42 38 -42 78zM630 110c0 -30 22 -48 53 -48s53 18 53 48s-22 50 -53 50s-53 -20 -53 -50zM633 273
c0 -27 19 -47 50 -47s50 20 50 47c0 29 -22 47 -50 47s-50 -18 -50 -47zM142 498v48c0 7 3 10 10 10h24c36 0 55 15 55 45c0 23 -18 41 -48 41c-27 0 -47 -12 -54 -41c-1 -6 -3 -8 -10 -8h-50c-6 0 -10 3 -10 9c3 61 53 104 124 104c73 0 118 -42 118 -102
c0 -34 -17 -61 -41 -77c31 -15 57 -42 57 -87c0 -81 -59 -120 -133 -120c-76 0 -135 52 -135 117c0 7 3 10 10 10h53c7 0 9 -3 10 -10c5 -34 30 -49 62 -49c38 0 61 16 61 49c0 31 -22 51 -61 51h-32c-7 0 -10 3 -10 10zM140 50l558 647c4 5 10 4 14 0l37 -33
c5 -5 6 -9 2 -14l-558 -647c-4 -5 -10 -4 -14 0l-37 33c-5 5 -6 9 -2 14z" />
    <glyph glyph-name="fiveeighths" unicode="&#x215d;" horiz-adv-x="887" 
d="M135 50l558 647c4 5 10 4 14 0l37 -33c5 -5 6 -9 2 -14l-558 -647c-4 -5 -10 -4 -14 0l-37 33c-5 5 -6 9 -2 14zM559 276c0 68 55 104 119 104s119 -36 119 -104c0 -40 -20 -63 -42 -78c30 -15 54 -47 54 -88c0 -71 -54 -116 -131 -116s-131 45 -131 116
c0 41 24 73 54 88c-22 15 -42 38 -42 78zM625 110c0 -30 22 -48 53 -48s53 18 53 48s-22 50 -53 50s-53 -20 -53 -50zM628 273c0 -27 19 -47 50 -47s50 20 50 47c0 29 -22 47 -50 47s-50 -18 -50 -47zM61 503l24 189c1 6 4 8 10 8h200c7 0 10 -3 10 -10v-48
c0 -7 -3 -10 -10 -10h-152l-10 -76c21 12 47 18 74 18c67 0 118 -42 118 -127c0 -84 -58 -127 -133 -127c-73 0 -129 46 -131 113c0 7 3 10 10 10h51c7 0 8 -3 10 -10c7 -32 31 -45 61 -45c38 0 60 21 60 61c0 30 -15 60 -60 60c-28 0 -48 -7 -69 -22c-3 -2 -6 -4 -12 -3
l-46 11c-4 1 -5 4 -5 8z" />
    <glyph glyph-name="seveneighths" unicode="&#x215e;" horiz-adv-x="860" 
d="M108 50l558 647c4 5 10 4 14 0l37 -33c5 -5 6 -9 2 -14l-558 -647c-4 -5 -10 -4 -14 0l-37 33c-5 5 -6 9 -2 14zM532 276c0 68 55 104 119 104s119 -36 119 -104c0 -40 -20 -63 -42 -78c30 -15 54 -47 54 -88c0 -71 -54 -116 -131 -116s-131 45 -131 116
c0 41 24 73 54 88c-22 15 -42 38 -42 78zM598 110c0 -30 22 -48 53 -48s53 18 53 48s-22 50 -53 50s-53 -20 -53 -50zM601 273c0 -27 19 -47 50 -47s50 20 50 47c0 29 -22 47 -50 47s-50 -18 -50 -47zM92 642v48c0 7 3 10 10 10h234c7 0 10 -3 10 -10v-29c0 -5 -1 -9 -4 -17
l-104 -309c-2 -6 -5 -9 -12 -9h-56c-4 0 -8 2 -8 6c0 2 1 5 2 7l98 293h-160c-7 0 -10 3 -10 10z" />
    <glyph glyph-name="braceleft.ss04" horiz-adv-x="384" 
d="M222 263v-79c0 -56 18 -84 67 -84h37c7 0 10 -3 10 -10v-80c0 -7 -3 -10 -10 -10h-47c-115 0 -161 53 -161 191v42c0 47 -22 67 -61 67h-28c-7 0 -10 3 -10 10v80c0 7 3 10 10 10h28c39 0 61 20 61 67v42c0 138 46 191 161 191h47c7 0 10 -3 10 -10v-80
c0 -7 -3 -10 -10 -10h-37c-49 0 -67 -28 -67 -84v-79c0 -51 -16 -74 -63 -87c47 -13 63 -36 63 -87z" />
    <glyph glyph-name="braceright.ss04" horiz-adv-x="384" 
d="M162 184v79c0 51 16 74 63 87c-47 13 -63 36 -63 87v79c0 56 -18 84 -67 84h-37c-7 0 -10 3 -10 10v80c0 7 3 10 10 10h47c115 0 161 -53 161 -191v-42c0 -47 22 -67 61 -67h28c7 0 10 -3 10 -10v-80c0 -7 -3 -10 -10 -10h-28c-39 0 -61 -20 -61 -67v-42
c0 -138 -46 -191 -161 -191h-47c-7 0 -10 3 -10 10v80c0 7 3 10 10 10h37c49 0 67 28 67 84z" />
    <glyph glyph-name="bracketleft.ss04" horiz-adv-x="409" 
d="M78 10v680c0 7 3 10 10 10h265c7 0 10 -3 10 -10v-80c0 -7 -3 -10 -10 -10h-171v-500h171c7 0 10 -3 10 -10v-80c0 -7 -3 -10 -10 -10h-265c-7 0 -10 3 -10 10z" />
    <glyph glyph-name="bracketright.ss04" horiz-adv-x="409" 
d="M331 690v-680c0 -7 -3 -10 -10 -10h-265c-7 0 -10 3 -10 10v80c0 7 3 10 10 10h171v500h-171c-7 0 -10 3 -10 10v80c0 7 3 10 10 10h265c7 0 10 -3 10 -10z" />
    <glyph glyph-name="parenleft.ss04" horiz-adv-x="359" 
d="M185 364v-18c0 -146 43 -192 139 -274c3 -2 4 -5 4 -7s-1 -5 -3 -7l-54 -62c-3 -3 -5 -4 -7 -4s-4 1 -7 3c-112 84 -176 165 -176 303v114c0 138 64 219 176 303c3 2 5 3 7 3s4 -1 7 -4l54 -62c2 -2 3 -5 3 -7s-1 -5 -4 -7c-96 -82 -139 -128 -139 -274z" />
    <glyph glyph-name="parenright.ss04" horiz-adv-x="359" 
d="M174 346v18c0 146 -43 192 -139 274c-3 2 -4 5 -4 7s1 5 3 7l54 62c3 3 5 4 7 4s4 -1 7 -3c112 -84 176 -165 176 -303v-114c0 -138 -64 -219 -176 -303c-3 -2 -5 -3 -7 -3s-4 1 -7 4l-54 62c-2 2 -3 5 -3 7s1 5 4 7c96 82 139 128 139 274z" />
    <glyph glyph-name="braceleft.case" horiz-adv-x="388" 
d="M228 264v-178c0 -56 18 -84 67 -84h37c7 0 10 -3 10 -10v-80c0 -7 -3 -10 -10 -10h-47c-115 0 -161 53 -161 191v141c0 47 -22 67 -61 67h-28c-7 0 -10 3 -10 10v80c0 7 3 10 10 10h28c39 0 61 20 61 67v141c0 138 46 191 161 191h47c7 0 10 -3 10 -10v-80
c0 -7 -3 -10 -10 -10h-37c-49 0 -67 -28 -67 -84v-178c0 -51 -16 -74 -63 -87c47 -13 63 -36 63 -87z" />
    <glyph glyph-name="braceright.case" horiz-adv-x="388" 
d="M160 86v178c0 51 16 74 63 87c-47 13 -63 36 -63 87v178c0 56 -18 84 -67 84h-37c-7 0 -10 3 -10 10v80c0 7 3 10 10 10h47c115 0 161 -53 161 -191v-141c0 -47 22 -67 61 -67h28c7 0 10 -3 10 -10v-80c0 -7 -3 -10 -10 -10h-28c-39 0 -61 -20 -61 -67v-141
c0 -138 -46 -191 -161 -191h-47c-7 0 -10 3 -10 10v80c0 7 3 10 10 10h37c49 0 67 28 67 84z" />
    <glyph glyph-name="bracketleft.case" horiz-adv-x="409" 
d="M78 -88v878c0 7 3 10 10 10h265c7 0 10 -3 10 -10v-80c0 -7 -3 -10 -10 -10h-171v-698h171c7 0 10 -3 10 -10v-80c0 -7 -3 -10 -10 -10h-265c-7 0 -10 3 -10 10z" />
    <glyph glyph-name="bracketright.case" horiz-adv-x="409" 
d="M331 790v-878c0 -7 -3 -10 -10 -10h-265c-7 0 -10 3 -10 10v80c0 7 3 10 10 10h171v698h-171c-7 0 -10 3 -10 10v80c0 7 3 10 10 10h265c7 0 10 -3 10 -10z" />
    <glyph glyph-name="parenleft.case" horiz-adv-x="357" 
d="M185 407v-111c0 -183 22 -217 143 -322c4 -4 4 -5 4 -7s-1 -5 -3 -7l-52 -61c-3 -3 -4 -4 -7 -4c-2 0 -5 1 -7 3c-142 115 -182 190 -182 368v171c0 178 40 253 182 368c2 2 5 3 7 3c3 0 4 -1 7 -4l52 -61c2 -2 3 -5 3 -7s0 -3 -4 -7c-121 -105 -143 -139 -143 -322z" />
    <glyph glyph-name="parenright.case" horiz-adv-x="362" 
d="M177 296v111c0 183 -22 217 -143 322c-4 4 -4 5 -4 7s1 5 3 7l52 61c3 3 4 4 7 4c2 0 5 -1 7 -3c142 -115 182 -190 182 -368v-171c0 -178 -40 -253 -182 -368c-2 -2 -5 -3 -7 -3c-3 0 -4 1 -7 4l-52 61c-2 2 -3 5 -3 7s0 3 4 7c121 105 143 139 143 322z" />
    <glyph glyph-name="bullet.case" horiz-adv-x="384" 
d="M78 350c0 63 51 114 114 114s114 -51 114 -114s-51 -114 -114 -114s-114 51 -114 114z" />
    <glyph glyph-name="exclamdown.case" horiz-adv-x="302" 
d="M193 0h-84c-7 0 -10 3 -10 10v487c0 7 3 10 10 10h84c7 0 10 -3 10 -10v-487c0 -7 -3 -10 -10 -10zM201 580h-100c-7 0 -10 3 -10 10v100c0 7 3 10 10 10h100c7 0 10 -3 10 -10v-100c0 -7 -3 -10 -10 -10z" />
    <glyph glyph-name="questiondown.case" horiz-adv-x="570" 
d="M501 194c-4 -106 -87 -204 -224 -204s-217 78 -217 179c0 167 166 164 166 303v25c0 7 3 10 10 10h84c7 0 10 -3 10 -10v-25c0 -173 -166 -184 -166 -295c0 -56 48 -87 113 -87c54 0 112 29 122 104c1 7 3 10 10 10h82c7 0 10 -3 10 -10zM328 580h-100c-7 0 -10 3 -10 10
v100c0 7 3 10 10 10h100c7 0 10 -3 10 -10v-100c0 -7 -3 -10 -10 -10z" />
    <glyph glyph-name="at.case" horiz-adv-x="806" 
d="M683 365c0 143 -85 265 -266 265c-152 0 -291 -105 -291 -288c0 -184 121 -298 291 -298c101 0 138 21 190 51c6 3 10 0 12 -4l27 -59c2 -5 0 -10 -4 -12c-63 -34 -133 -56 -225 -56c-209 0 -378 136 -378 378c0 237 186 368 378 368c214 0 350 -151 350 -337
c0 -150 -59 -229 -161 -229c-45 0 -85 26 -98 54c-36 -38 -75 -54 -134 -54c-86 0 -167 57 -167 179c0 125 85 217 195 217c45 0 75 -13 104 -42l3 27c1 5 3 8 8 8h57c6 0 8 -2 8 -8l-23 -210c-1 -12 -2 -25 -2 -35c0 -52 35 -62 55 -62c46 0 71 47 71 147zM492 356
c0 70 -29 110 -85 110c-79 0 -118 -72 -118 -141s33 -107 91 -107c70 0 112 62 112 138z" />
    <glyph glyph-name="guilsinglleft.case" horiz-adv-x="337" 
d="M286 595v-98c0 -7 -1 -11 -7 -16l-143 -131l143 -131c6 -5 7 -9 7 -16v-98c0 -4 -2 -7 -6 -7c-2 0 -4 1 -6 3l-222 197c-7 6 -10 11 -10 18v68c0 7 3 12 10 18l222 197c2 2 4 3 6 3c4 0 6 -3 6 -7z" />
    <glyph glyph-name="guilsinglright.case" horiz-adv-x="337" 
d="M51 497v98c0 4 2 7 6 7c2 0 4 -1 6 -3l222 -197c7 -6 10 -11 10 -18v-68c0 -7 -3 -12 -10 -18l-222 -197c-2 -2 -4 -3 -6 -3c-4 0 -6 3 -6 7v98c0 7 1 11 7 16l143 131l-143 131c-6 5 -7 9 -7 16z" />
    <glyph glyph-name="guillemotleft.case" horiz-adv-x="550" 
d="M286 595v-98c0 -7 -1 -11 -7 -16l-143 -131l143 -131c6 -5 7 -9 7 -16v-98c0 -4 -2 -7 -6 -7c-2 0 -4 1 -6 3l-222 197c-7 6 -10 11 -10 18v68c0 7 3 12 10 18l222 197c2 2 4 3 6 3c4 0 6 -3 6 -7zM499 595v-98c0 -7 -1 -11 -7 -16l-143 -131l143 -131c6 -5 7 -9 7 -16
v-98c0 -4 -2 -7 -6 -7c-2 0 -4 1 -6 3l-222 197c-7 6 -10 11 -10 18v68c0 7 3 12 10 18l222 197c2 2 4 3 6 3c4 0 6 -3 6 -7z" />
    <glyph glyph-name="guillemotright.case" horiz-adv-x="550" 
d="M264 497v98c0 4 2 7 6 7c2 0 4 -1 6 -3l222 -197c7 -6 10 -11 10 -18v-68c0 -7 -3 -12 -10 -18l-222 -197c-2 -2 -4 -3 -6 -3c-4 0 -6 3 -6 7v98c0 7 1 11 7 16l143 131l-143 131c-6 5 -7 9 -7 16zM51 497v98c0 4 2 7 6 7c2 0 4 -1 6 -3l222 -197c7 -6 10 -11 10 -18v-68
c0 -7 -3 -12 -10 -18l-222 -197c-2 -2 -4 -3 -6 -3c-4 0 -6 3 -6 7v98c0 7 1 11 7 16l143 131l-143 131c-6 5 -7 9 -7 16z" />
    <glyph glyph-name="zero.tn" 
d="M40 350c0 238 121 360 270 360s270 -122 270 -360s-121 -360 -270 -360s-270 122 -270 360zM144 350c0 -193 75 -262 166 -262s166 69 166 262s-75 262 -166 262s-166 -69 -166 -262z" />
    <glyph glyph-name="one.tn" 
d="M531 0h-426c-7 0 -10 3 -10 10v78c0 7 3 10 10 10h162v469l-142 -79c-4 -2 -8 -3 -11 -3c-4 0 -7 4 -7 9v87c0 7 5 12 11 15l179 99c5 3 9 5 15 5h47c7 0 10 -3 10 -10v-592h162c7 0 10 -3 10 -10v-78c0 -7 -3 -10 -10 -10z" />
    <glyph glyph-name="two.tn" 
d="M76 10v62c0 10 4 17 11 23l273 258c48 45 66 88 66 144c0 66 -46 115 -121 115c-77 0 -124 -51 -128 -121c-1 -12 -4 -15 -13 -15h-75c-7 0 -12 4 -12 15c3 121 94 219 228 219c136 0 223 -87 223 -209c0 -93 -31 -150 -100 -214l-201 -189h312c7 0 10 -3 10 -10v-78
c0 -7 -3 -10 -10 -10h-453c-7 0 -10 3 -10 10z" />
    <glyph glyph-name="three.tn" 
d="M241 335v76c0 9 4 11 11 11h52c82 0 122 36 122 96c0 61 -49 94 -116 94c-63 0 -112 -35 -120 -98c-1 -11 -5 -12 -13 -12h-75c-7 0 -13 5 -13 17c7 112 108 191 221 191c120 0 214 -68 214 -179c0 -71 -28 -117 -79 -152c55 -24 111 -73 111 -175
c0 -135 -102 -214 -246 -214c-135 0 -236 87 -245 222c0 12 6 17 13 17h74c8 0 13 -2 14 -13c9 -85 73 -128 148 -128c78 0 140 37 140 124c0 67 -52 112 -144 112h-58c-8 2 -11 6 -11 11z" />
    <glyph glyph-name="four.tn" 
d="M367 10v120h-299c-7 0 -10 3 -10 10v57c0 10 3 16 8 23l318 472c3 5 7 8 13 8h62c7 0 10 -3 10 -10v-462h99c7 0 10 -3 10 -10v-78c0 -7 -3 -10 -10 -10h-99v-120c0 -7 -3 -10 -11 -10h-81c-7 0 -10 3 -10 10zM367 506l-187 -278h187v278z" />
    <glyph glyph-name="five.tn" 
d="M85 314l43 376c1 7 3 10 10 10h380c7 0 10 -3 10 -10v-78c0 -7 -3 -10 -10 -10h-299l-25 -180c41 24 87 42 148 42c136 0 223 -85 223 -235c0 -158 -107 -239 -244 -239s-233 86 -241 211c0 11 5 15 12 15h77c8 0 11 -3 13 -15c14 -72 69 -113 139 -113
c89 0 142 48 142 139c0 87 -51 139 -141 139c-54 0 -97 -16 -139 -53c-5 -5 -9 -9 -17 -9h-71c-7 0 -10 5 -10 10z" />
    <glyph glyph-name="six.tn" 
d="M65 319c0 270 108 391 259 391c122 0 207 -72 222 -180c0 -9 -5 -10 -11 -10h-80c-7 0 -9 4 -11 10c-22 61 -65 86 -120 86c-72 0 -136 -60 -151 -224c44 39 102 60 163 60c130 0 228 -85 228 -231s-117 -231 -242 -231c-140 0 -257 89 -257 329zM186 221
c0 -78 53 -133 138 -133s138 55 138 133s-53 133 -138 133s-138 -55 -138 -133z" />
    <glyph glyph-name="seven.tn" 
d="M96 612v78c0 7 3 10 10 10h440c7 0 10 -3 10 -10v-58c0 -9 -1 -14 -5 -25l-236 -600c-2 -5 -6 -7 -11 -7h-82c-6 0 -10 2 -10 8c0 2 1 5 2 7l230 587h-338c-7 0 -10 3 -10 10z" />
    <glyph glyph-name="eight.tn" 
d="M95 520c0 121 101 190 215 190s215 -69 215 -190c0 -68 -34 -116 -80 -148c55 -33 102 -79 102 -170c0 -123 -96 -212 -237 -212s-237 89 -237 212c0 91 47 137 102 170c-46 32 -80 80 -80 148zM175 203c0 -73 55 -115 135 -115s135 42 135 115s-55 117 -135 117
s-135 -44 -135 -117zM193 516c0 -59 46 -100 117 -100s117 41 117 100c0 62 -51 98 -117 98s-117 -36 -117 -98z" />
    <glyph glyph-name="nine.tn" 
d="M555 381c0 -270 -108 -391 -259 -391c-122 0 -207 72 -222 180c0 9 5 10 11 10h80c7 0 9 -4 11 -10c22 -61 65 -86 120 -86c72 0 136 60 151 224c-44 -39 -102 -60 -163 -60c-130 0 -228 85 -228 231s117 231 242 231c140 0 257 -89 257 -329zM434 479
c0 78 -53 133 -138 133s-138 -55 -138 -133s53 -133 138 -133s138 55 138 133z" />
    <glyph glyph-name="zero.slashtn" 
d="M40 350c0 238 121 360 270 360s270 -122 270 -360s-121 -360 -270 -360s-270 122 -270 360zM476 350c0 108 -23 178 -60 218l-125 -479c6 -1 12 -1 19 -1c91 0 166 69 166 262zM144 350c0 -108 23 -178 60 -218l125 479c-6 1 -12 1 -19 1c-91 0 -166 -69 -166 -262z" />
    <glyph glyph-name="zero.slash" horiz-adv-x="622" 
d="M41 350c0 238 121 360 270 360s270 -122 270 -360s-121 -360 -270 -360s-270 122 -270 360zM477 350c0 108 -23 178 -60 218l-125 -479c6 -1 12 -1 19 -1c91 0 166 69 166 262zM145 350c0 -108 23 -178 60 -218l125 479c-6 1 -12 1 -19 1c-91 0 -166 -69 -166 -262z" />
    <glyph glyph-name="zero.slashposn" horiz-adv-x="622" 
d="M44 251c0 163 120 261 267 261s267 -98 267 -261s-120 -261 -267 -261s-267 98 -267 261zM476 251c0 49 -16 91 -45 121l-159 -285c12 -2 25 -3 39 -3c100 0 165 70 165 167zM146 251c0 -49 16 -91 45 -121l159 285c-12 2 -25 3 -39 3c-100 0 -165 -70 -165 -167z" />
    <glyph glyph-name="zero.slashtosn" 
d="M43 251c0 163 120 261 267 261s267 -98 267 -261s-120 -261 -267 -261s-267 98 -267 261zM475 251c0 49 -16 91 -45 121l-159 -285c12 -2 25 -3 39 -3c100 0 165 70 165 167zM145 251c0 -49 16 -91 45 -121l159 285c-12 2 -25 3 -39 3c-100 0 -165 -70 -165 -167z" />
    <glyph glyph-name="zero.slashsuperior" horiz-adv-x="386" 
d="M40 513c0 130 71 193 153 193s153 -63 153 -193s-71 -193 -153 -193s-153 63 -153 193zM274 513c0 44 -9 74 -23 95l-58 -220c45 0 81 37 81 125zM112 513c0 -44 9 -74 23 -95l58 220c-45 0 -81 -37 -81 -125z" />
    <glyph glyph-name="zero.slashinferior" horiz-adv-x="386" 
d="M40 -11c0 130 71 193 153 193s153 -63 153 -193s-71 -193 -153 -193s-153 63 -153 193zM274 -11c0 44 -9 74 -23 95l-58 -220c45 0 81 37 81 125zM112 -11c0 -44 9 -74 23 -95l58 220c-45 0 -81 -37 -81 -125z" />
    <glyph glyph-name="a.alt" horiz-adv-x="600" 
d="M526 492v-482c0 -7 -3 -10 -10 -10h-78c-7 0 -10 3 -10 10v27c-36 -29 -81 -47 -150 -47c-131 0 -234 102 -234 261s103 261 234 261c69 0 114 -18 150 -47v27c0 7 3 10 10 10h78c7 0 10 -3 10 -10zM436 251c0 98 -57 167 -145 167s-143 -69 -143 -167s55 -167 143 -167
s145 69 145 167z" />
    <glyph glyph-name="aacute.alt" horiz-adv-x="600" 
d="M526 492v-482c0 -7 -3 -10 -10 -10h-78c-7 0 -10 3 -10 10v27c-36 -29 -81 -47 -150 -47c-131 0 -234 102 -234 261s103 261 234 261c69 0 114 -18 150 -47v27c0 7 3 10 10 10h78c7 0 10 -3 10 -10zM436 251c0 98 -57 167 -145 167s-143 -69 -143 -167s55 -167 143 -167
s145 69 145 167zM217 564l69 126c4 7 8 10 15 10h111c7 0 9 -5 5 -10l-103 -127c-5 -6 -9 -9 -18 -9h-74c-6 0 -8 5 -5 10z" />
    <glyph glyph-name="agrave.alt" horiz-adv-x="600" 
d="M526 492v-482c0 -7 -3 -10 -10 -10h-78c-7 0 -10 3 -10 10v27c-36 -29 -81 -47 -150 -47c-131 0 -234 102 -234 261s103 261 234 261c69 0 114 -18 150 -47v27c0 7 3 10 10 10h78c7 0 10 -3 10 -10zM436 251c0 98 -57 167 -145 167s-143 -69 -143 -167s55 -167 143 -167
s145 69 145 167zM277 690l69 -126c3 -5 1 -10 -5 -10h-74c-9 0 -13 3 -18 9l-103 127c-4 5 -2 10 5 10h111c7 0 11 -3 15 -10z" />
    <glyph glyph-name="acircumflex.alt" horiz-adv-x="600" 
d="M526 492v-482c0 -7 -3 -10 -10 -10h-78c-7 0 -10 3 -10 10v27c-36 -29 -81 -47 -150 -47c-131 0 -234 102 -234 261s103 261 234 261c69 0 114 -18 150 -47v27c0 7 3 10 10 10h78c7 0 10 -3 10 -10zM436 251c0 98 -57 167 -145 167s-143 -69 -143 -167s55 -167 143 -167
s145 69 145 167zM337 692l105 -134c4 -5 1 -10 -5 -10h-78c-8 0 -12 3 -18 9l-53 53l-53 -53c-6 -6 -10 -9 -18 -9h-78c-6 0 -9 5 -5 10l105 134c5 6 8 8 15 8h68c7 0 10 -2 15 -8z" />
    <glyph glyph-name="adieresis.alt" horiz-adv-x="600" 
d="M526 492v-482c0 -7 -3 -10 -10 -10h-78c-7 0 -10 3 -10 10v27c-36 -29 -81 -47 -150 -47c-131 0 -234 102 -234 261s103 261 234 261c69 0 114 -18 150 -47v27c0 7 3 10 10 10h78c7 0 10 -3 10 -10zM436 251c0 98 -57 167 -145 167s-143 -69 -143 -167s55 -167 143 -167
s145 69 145 167zM146 596v94c0 7 3 10 10 10h94c7 0 10 -3 10 -10v-94c0 -7 -3 -10 -10 -10h-94c-7 0 -10 3 -10 10zM318 596v94c0 7 3 10 10 10h94c7 0 10 -3 10 -10v-94c0 -7 -3 -10 -10 -10h-94c-7 0 -10 3 -10 10z" />
    <glyph glyph-name="atilde.alt" horiz-adv-x="600" 
d="M526 492v-482c0 -7 -3 -10 -10 -10h-78c-7 0 -10 3 -10 10v27c-36 -29 -81 -47 -150 -47c-131 0 -234 102 -234 261s103 261 234 261c69 0 114 -18 150 -47v27c0 7 3 10 10 10h78c7 0 10 -3 10 -10zM436 251c0 98 -57 167 -145 167s-143 -69 -143 -167s55 -167 143 -167
s145 69 145 167zM105 666c31 25 76 44 106 44c78 0 84 -41 138 -41c21 0 36 5 62 24c2 1 4 2 7 2c4 0 6 -2 10 -8l35 -50c3 -5 3 -6 3 -8c0 -3 -2 -7 -6 -10c-31 -25 -76 -44 -106 -44c-78 0 -84 41 -138 41c-21 0 -36 -5 -62 -24c-2 -1 -4 -2 -7 -2c-4 0 -6 2 -10 8l-35 50
c-3 5 -3 6 -3 8c0 3 2 7 6 10z" />
    <glyph glyph-name="aring.alt" horiz-adv-x="600" 
d="M526 492v-482c0 -7 -3 -10 -10 -10h-78c-7 0 -10 3 -10 10v27c-36 -29 -81 -47 -150 -47c-131 0 -234 102 -234 261s103 261 234 261c69 0 114 -18 150 -47v27c0 7 3 10 10 10h78c7 0 10 -3 10 -10zM436 251c0 98 -57 167 -145 167s-143 -69 -143 -167s55 -167 143 -167
s145 69 145 167zM187 628c0 54 39 92 95 92s95 -38 95 -92s-39 -92 -95 -92s-95 38 -95 92zM245 628c0 -24 16 -38 37 -38s37 14 37 38s-16 38 -37 38s-37 -14 -37 -38z" />
    <glyph glyph-name="amacron.alt" horiz-adv-x="600" 
d="M526 492v-482c0 -7 -3 -10 -10 -10h-78c-7 0 -10 3 -10 10v27c-36 -29 -81 -47 -150 -47c-131 0 -234 102 -234 261s103 261 234 261c69 0 114 -18 150 -47v27c0 7 3 10 10 10h78c7 0 10 -3 10 -10zM436 251c0 98 -57 167 -145 167s-143 -69 -143 -167s55 -167 143 -167
s145 69 145 167zM176 596v70c0 7 3 10 10 10h200c7 0 10 -3 10 -10v-70c0 -7 -3 -10 -10 -10h-200c-7 0 -10 3 -10 10z" />
    <glyph glyph-name="abreve.alt" horiz-adv-x="600" 
d="M526 492v-482c0 -7 -3 -10 -10 -10h-78c-7 0 -10 3 -10 10v27c-36 -29 -81 -47 -150 -47c-131 0 -234 102 -234 261s103 261 234 261c69 0 114 -18 150 -47v27c0 7 3 10 10 10h78c7 0 10 -3 10 -10zM436 251c0 98 -57 167 -145 167s-143 -69 -143 -167s55 -167 143 -167
s145 69 145 167zM161 692h62c7 0 10 -3 10 -10c0 -35 17 -53 48 -53s48 18 48 53c0 7 3 10 10 10h62c7 0 10 -3 10 -10c0 -80 -52 -129 -130 -129s-130 49 -130 129c0 7 3 10 10 10z" />
    <glyph glyph-name="aogonek.alt" horiz-adv-x="600" 
d="M526 492v-482c0 -6 -2 -8 -6 -10c-33 -14 -50 -36 -50 -61c0 -27 21 -44 55 -44h16c6 0 10 -2 10 -10v-50c0 -7 -4 -10 -10 -10h-44c-68 0 -121 30 -121 91c0 40 24 70 52 87v34c-36 -29 -81 -47 -150 -47c-131 0 -234 102 -234 261s103 261 234 261
c69 0 114 -18 150 -47v27c0 7 3 10 10 10h78c7 0 10 -3 10 -10zM436 251c0 98 -57 167 -145 167s-143 -69 -143 -167s55 -167 143 -167s145 69 145 167z" />
    <glyph glyph-name="aringacute.alt" horiz-adv-x="600" 
d="M526 492v-482c0 -7 -3 -10 -10 -10h-78c-7 0 -10 3 -10 10v27c-36 -29 -81 -47 -150 -47c-131 0 -234 102 -234 261s103 261 234 261c69 0 114 -18 150 -47v27c0 7 3 10 10 10h78c7 0 10 -3 10 -10zM436 251c0 98 -57 167 -145 167s-143 -69 -143 -167s55 -167 143 -167
s145 69 145 167zM213 762l69 126c4 7 8 10 15 10h111c7 0 9 -5 5 -10l-103 -127c-5 -6 -9 -9 -18 -9h-74c-6 0 -8 5 -5 10zM191 628c0 54 39 92 95 92s95 -38 95 -92s-39 -92 -95 -92s-95 38 -95 92zM249 628c0 -24 16 -38 37 -38s37 14 37 38s-16 38 -37 38
s-37 -14 -37 -38z" />
    <glyph glyph-name="g.alt" horiz-adv-x="606" 
d="M311 171c-47 0 -75 9 -110 33c-32 -13 -57 -33 -57 -57c0 -35 27 -50 60 -50c42 0 74 19 144 19c124 0 213 -58 213 -158c0 -112 -95 -166 -237 -166c-149 0 -240 52 -240 157c0 34 12 56 30 76c-40 26 -68 62 -68 115c0 64 44 106 102 130c-9 21 -16 43 -16 71
c0 110 85 171 179 171c37 0 66 -8 91 -24l71 65c3 3 5 4 8 4s5 -2 8 -5l49 -55c2 -2 4 -5 4 -8s-2 -6 -5 -9l-65 -58c13 -24 18 -47 18 -81c0 -110 -84 -170 -179 -170zM182 -42c0 -52 64 -72 142 -72c87 0 139 21 139 72c0 41 -42 64 -131 64c-54 0 -81 -12 -118 -15
c-23 -15 -32 -31 -32 -49zM230 341c0 -50 38 -76 81 -76c44 0 81 26 81 76c0 51 -37 77 -81 77c-43 0 -81 -26 -81 -77z" />
    <glyph glyph-name="gcircumflex.alt" horiz-adv-x="606" 
d="M311 171c-47 0 -75 9 -110 33c-32 -13 -57 -33 -57 -57c0 -35 27 -50 60 -50c42 0 74 19 144 19c124 0 213 -58 213 -158c0 -112 -95 -166 -237 -166c-149 0 -240 52 -240 157c0 34 12 56 30 76c-40 26 -68 62 -68 115c0 64 44 106 102 130c-9 21 -16 43 -16 71
c0 110 85 171 179 171c37 0 66 -8 91 -24l71 65c3 3 5 4 8 4s5 -2 8 -5l49 -55c2 -2 4 -5 4 -8s-2 -6 -5 -9l-65 -58c13 -24 18 -47 18 -81c0 -110 -84 -170 -179 -170zM182 -42c0 -52 64 -72 142 -72c87 0 139 21 139 72c0 41 -42 64 -131 64c-54 0 -81 -12 -118 -15
c-23 -15 -32 -31 -32 -49zM230 341c0 -50 38 -76 81 -76c44 0 81 26 81 76c0 51 -37 77 -81 77c-43 0 -81 -26 -81 -77zM360 712l105 -134c4 -5 1 -10 -5 -10h-78c-8 0 -12 3 -18 9l-53 53l-53 -53c-6 -6 -10 -9 -18 -9h-78c-6 0 -9 5 -5 10l105 134c5 6 8 8 15 8h68
c7 0 10 -2 15 -8z" />
    <glyph glyph-name="gbreve.alt" horiz-adv-x="606" 
d="M311 171c-47 0 -75 9 -110 33c-32 -13 -57 -33 -57 -57c0 -35 27 -50 60 -50c42 0 74 19 144 19c124 0 213 -58 213 -158c0 -112 -95 -166 -237 -166c-149 0 -240 52 -240 157c0 34 12 56 30 76c-40 26 -68 62 -68 115c0 64 44 106 102 130c-9 21 -16 43 -16 71
c0 110 85 171 179 171c37 0 66 -8 91 -24l71 65c3 3 5 4 8 4s5 -2 8 -5l49 -55c2 -2 4 -5 4 -8s-2 -6 -5 -9l-65 -58c13 -24 18 -47 18 -81c0 -110 -84 -170 -179 -170zM182 -42c0 -52 64 -72 142 -72c87 0 139 21 139 72c0 41 -42 64 -131 64c-54 0 -81 -12 -118 -15
c-23 -15 -32 -31 -32 -49zM230 341c0 -50 38 -76 81 -76c44 0 81 26 81 76c0 51 -37 77 -81 77c-43 0 -81 -26 -81 -77zM191 692h62c7 0 10 -3 10 -10c0 -35 17 -53 48 -53s48 18 48 53c0 7 3 10 10 10h62c7 0 10 -3 10 -10c0 -80 -52 -129 -130 -129s-130 49 -130 129
c0 7 3 10 10 10z" />
    <glyph glyph-name="gdotaccent.alt" horiz-adv-x="606" 
d="M311 171c-47 0 -75 9 -110 33c-32 -13 -57 -33 -57 -57c0 -35 27 -50 60 -50c42 0 74 19 144 19c124 0 213 -58 213 -158c0 -112 -95 -166 -237 -166c-149 0 -240 52 -240 157c0 34 12 56 30 76c-40 26 -68 62 -68 115c0 64 44 106 102 130c-9 21 -16 43 -16 71
c0 110 85 171 179 171c37 0 66 -8 91 -24l71 65c3 3 5 4 8 4s5 -2 8 -5l49 -55c2 -2 4 -5 4 -8s-2 -6 -5 -9l-65 -58c13 -24 18 -47 18 -81c0 -110 -84 -170 -179 -170zM182 -42c0 -52 64 -72 142 -72c87 0 139 21 139 72c0 41 -42 64 -131 64c-54 0 -81 -12 -118 -15
c-23 -15 -32 -31 -32 -49zM230 341c0 -50 38 -76 81 -76c44 0 81 26 81 76c0 51 -37 77 -81 77c-43 0 -81 -26 -81 -77zM251 590v100c0 7 3 10 10 10h100c7 0 10 -3 10 -10v-100c0 -7 -3 -10 -10 -10h-100c-7 0 -10 3 -10 10z" />
    <glyph glyph-name="gcommaaccent.alt" horiz-adv-x="606" 
d="M311 171c-47 0 -75 9 -110 33c-32 -13 -57 -33 -57 -57c0 -35 27 -50 60 -50c42 0 74 19 144 19c124 0 213 -58 213 -158c0 -112 -95 -166 -237 -166c-149 0 -240 52 -240 157c0 34 12 56 30 76c-40 26 -68 62 -68 115c0 64 44 106 102 130c-9 21 -16 43 -16 71
c0 110 85 171 179 171c37 0 66 -8 91 -24l71 65c3 3 5 4 8 4s5 -2 8 -5l49 -55c2 -2 4 -5 4 -8s-2 -6 -5 -9l-65 -58c13 -24 18 -47 18 -81c0 -110 -84 -170 -179 -170zM182 -42c0 -52 64 -72 142 -72c87 0 139 21 139 72c0 41 -42 64 -131 64c-54 0 -81 -12 -118 -15
c-23 -15 -32 -31 -32 -49zM230 341c0 -50 38 -76 81 -76c44 0 81 26 81 76c0 51 -37 77 -81 77c-43 0 -81 -26 -81 -77zM365 721c-42 0 -55 -14 -55 -50v-12h47c7 0 10 -3 10 -10v-92c0 -7 -3 -10 -10 -10h-98c-7 0 -10 3 -10 10v121c0 53 27 93 89 93h27c7 0 10 -3 10 -10
v-30c0 -7 -3 -10 -10 -10z" />
    <glyph glyph-name="left.arrow" horiz-adv-x="650" 
d="M291 581l49 -51c2 -2 4 -5 4 -8s-2 -6 -5 -9l-116 -114h353c7 0 10 -3 10 -10v-74c0 -7 -3 -10 -10 -10h-353l116 -114c3 -3 5 -6 5 -9s-2 -6 -4 -8l-49 -51c-4 -4 -7 -5 -11 -5c-3 0 -6 1 -9 4l-208 209c-6 6 -10 13 -10 21s4 15 10 21l208 209c3 3 6 4 9 4
c4 0 7 -1 11 -5z" />
    <glyph glyph-name="right.arrow" horiz-adv-x="650" 
d="M310 530l49 51c4 4 7 5 11 5c3 0 6 -1 9 -4l208 -209c6 -6 10 -13 10 -21s-4 -15 -10 -21l-208 -209c-3 -3 -6 -4 -9 -4c-4 0 -7 1 -11 5l-49 51c-2 2 -4 5 -4 8s2 6 5 9l116 114h-353c-7 0 -10 3 -10 10v74c0 7 3 10 10 10h353l-116 114c-3 3 -5 6 -5 9s2 6 4 8z" />
    <glyph glyph-name="up.arrow" horiz-adv-x="650" 
d="M148 332l-51 49c-4 4 -5 7 -5 11c0 3 1 6 4 9l209 208c6 6 13 10 21 10s15 -4 21 -10l209 -208c3 -3 4 -6 4 -9c0 -4 -1 -7 -5 -11l-51 -49c-2 -2 -5 -4 -8 -4s-6 2 -9 5l-114 116v-353c0 -7 -3 -10 -10 -10h-74c-7 0 -10 3 -10 10v353l-114 -116c-3 -3 -6 -5 -9 -5
s-6 2 -8 4z" />
    <glyph glyph-name="down.arrow" horiz-adv-x="650" 
d="M97 324l51 49c2 2 5 4 8 4s6 -2 9 -5l114 -116v353c0 7 3 10 10 10h74c7 0 10 -3 10 -10v-353l114 116c3 3 6 5 9 5s6 -2 8 -4l51 -49c4 -4 5 -7 5 -11c0 -3 -1 -6 -4 -9l-209 -208c-6 -6 -13 -10 -21 -10s-15 4 -21 10l-209 208c-3 3 -4 6 -4 9c0 4 1 7 5 11z" />
    <glyph glyph-name="ul.arrow" horiz-adv-x="650" 
d="M462 532v-72c0 -8 -3 -10 -11 -10h-164l250 -249c3 -3 4 -5 4 -8s-2 -6 -4 -8l-51 -51c-3 -3 -5 -5 -8 -5c-2 0 -4 1 -6 3l-250 252v-168c0 -7 -3 -10 -10 -10h-76c-7 0 -10 3 -10 10v299c0 21 7 31 29 31h293c10 0 14 -6 14 -14z" />
    <glyph glyph-name="ur.arrow" horiz-adv-x="650" 
d="M187 460v72c0 8 4 14 14 14h293c22 0 29 -10 29 -31v-299c0 -7 -3 -10 -10 -10h-76c-7 0 -10 3 -10 10v168l-250 -252c-2 -2 -4 -3 -6 -3c-3 0 -5 2 -8 5l-51 51c-2 2 -4 5 -4 8s1 5 4 8l250 249h-164c-8 0 -11 2 -11 10z" />
    <glyph glyph-name="dl.arrow" horiz-adv-x="650" 
d="M463 215v-72c0 -8 -4 -14 -14 -14h-293c-22 0 -29 10 -29 31v299c0 7 3 10 10 10h76c7 0 10 -3 10 -10v-168l250 252c2 2 4 3 6 3c3 0 5 -2 8 -5l51 -51c2 -2 4 -5 4 -8s-1 -5 -4 -8l-250 -249h164c8 0 11 -2 11 -10z" />
    <glyph glyph-name="dr.arrow" horiz-adv-x="650" 
d="M187 143v72c0 8 3 10 11 10h164l-250 249c-3 3 -4 5 -4 8s2 6 4 8l51 51c3 3 5 5 8 5c2 0 4 -1 6 -3l250 -252v168c0 7 3 10 10 10h76c7 0 10 -3 10 -10v-299c0 -21 -7 -31 -29 -31h-293c-10 0 -14 6 -14 14z" />
    <glyph glyph-name="currency.tn" 
d="M87 107l52 51c-19 30 -29 65 -29 105s10 75 29 105l-52 51c-5 5 -5 9 0 14l53 53c5 5 9 5 14 0l54 -55c30 17 64 26 102 26s72 -9 102 -26l54 55c5 5 9 5 14 0l53 -53c5 -5 5 -9 0 -14l-52 -51c19 -30 29 -65 29 -105s-10 -75 -29 -105l52 -51c5 -5 5 -9 0 -14l-53 -53
c-5 -5 -9 -5 -14 0l-54 55c-30 -17 -64 -26 -102 -26s-72 9 -102 26l-54 -55c-5 -5 -9 -5 -14 0l-53 53c-5 5 -5 9 0 14zM204 263c0 -64 43 -106 106 -106s106 42 106 106s-43 106 -106 106s-106 -42 -106 -106z" />
    <glyph glyph-name="sterling.tn" 
d="M153 272c0 9 -1 17 -2 25h-81c-7 0 -10 3 -10 10v78c0 7 3 10 10 10h54c-10 28 -18 59 -18 108c0 122 91 207 213 207c141 0 226 -91 226 -204c0 -7 -3 -10 -10 -10h-84c-7 0 -9 3 -10 10c-7 56 -41 104 -122 104c-62 0 -109 -41 -109 -107c0 -49 13 -75 25 -108h200
c7 0 10 -3 10 -10v-78c0 -7 -3 -10 -10 -10h-180c1 -10 2 -20 2 -31c0 -52 -18 -111 -63 -166h360c7 0 10 -3 10 -10v-80c0 -7 -3 -10 -10 -10h-462c-7 0 -10 3 -10 10v81c0 7 2 12 8 20c44 54 63 88 63 161z" />
    <glyph glyph-name="yen.tn" 
d="M109 201h149v47h-169c-7 0 -10 3 -10 10v78c0 7 3 10 10 10h122l-171 344c-2 7 2 10 6 10h100c7 0 9 -3 11 -8l153 -321l153 321c2 5 4 8 11 8h100c4 0 8 -3 6 -10l-171 -344h130c7 0 10 -3 10 -10v-78c0 -7 -3 -10 -10 -10h-177v-47h157c7 0 10 -3 10 -10v-78
c0 -7 -3 -10 -10 -10h-157v-93c0 -7 -3 -10 -10 -10h-84c-7 0 -10 3 -10 10v93h-149c-7 0 -10 3 -10 10v78c0 7 3 10 10 10z" />
    <glyph glyph-name="Euro.tn" 
d="M20 491h70c38 144 135 219 250 219c146 0 239 -98 255 -231c0 -7 -3 -10 -10 -10h-81c-7 0 -8 3 -10 10c-20 88 -69 133 -154 133c-61 0 -118 -33 -146 -121h189c7 0 10 -3 10 -10v-78c0 -7 -3 -10 -10 -10h-205c-1 -14 -1 -28 -1 -43s0 -29 1 -43h205c7 0 10 -3 10 -10
v-78c0 -7 -3 -10 -10 -10h-189c28 -88 85 -121 146 -121c85 0 134 45 154 133c2 7 3 10 10 10h81c7 0 10 -3 10 -10c-16 -133 -109 -231 -255 -231c-115 0 -212 75 -250 219h-70c-7 0 -10 3 -10 10v78c0 7 3 10 10 10h54c-1 14 -1 28 -1 43s0 29 1 43h-54c-7 0 -10 3 -10 10
v78c0 7 3 10 10 10z" />
    <glyph glyph-name="cent.tn" 
d="M275 10v84c-122 22 -200 122 -200 256s78 233 200 256v84c0 7 3 10 10 10h78c7 0 10 -3 10 -10v-82c103 -15 168 -84 185 -170c1 -4 1 -8 1 -10c0 -4 -3 -6 -7 -6h-81c-7 0 -11 1 -14 9c-15 43 -46 70 -84 81v-324c38 11 69 38 84 81c3 8 7 9 14 9h81c4 0 7 -2 7 -6
c0 -2 0 -6 -1 -10c-17 -87 -82 -155 -185 -170v-82c0 -7 -3 -10 -10 -10h-78c-7 0 -10 3 -10 10zM177 350c0 -85 37 -141 98 -160v320c-61 -20 -98 -75 -98 -160z" />
    <glyph glyph-name="dollar.tn" 
d="M60 517c0 112 88 177 197 190v83c0 7 3 10 10 10h78c7 0 10 -3 10 -10v-85c121 -19 190 -104 192 -196c0 -7 -3 -10 -10 -10h-84c-7 0 -9 3 -10 10c-5 48 -40 83 -88 96v-206c114 -35 215 -85 215 -191c0 -128 -85 -201 -215 -215v-83c0 -7 -3 -10 -10 -10h-78
c-7 0 -10 3 -10 10v84c-125 19 -215 110 -215 224c0 7 3 10 10 10h84c7 0 10 -3 10 -10c4 -66 44 -110 111 -124v229c-121 35 -197 87 -197 194zM466 202c0 42 -46 71 -111 93v-202c73 10 111 45 111 109zM164 522c0 -48 37 -74 93 -95v180c-56 -9 -93 -38 -93 -85z" />
    <glyph glyph-name="less.tn" 
d="M515 136v-88c0 -7 -3 -9 -10 -6l-373 196c-7 4 -10 6 -10 13v84c0 7 3 9 10 13l373 196c7 3 10 1 10 -6v-88c0 -7 -3 -11 -10 -14l-275 -143l275 -143c7 -3 10 -7 10 -14z" />
    <glyph glyph-name="equal.tn" 
d="M93 451h434c7 0 10 -3 10 -10v-78c0 -7 -3 -10 -10 -10h-434c-7 0 -10 3 -10 10v78c0 7 3 10 10 10zM93 248h434c7 0 10 -3 10 -10v-78c0 -7 -3 -10 -10 -10h-434c-7 0 -10 3 -10 10v78c0 7 3 10 10 10z" />
    <glyph glyph-name="greater.tn" 
d="M105 48v88c0 7 3 11 10 14l275 143l-275 143c-7 3 -10 7 -10 14v88c0 7 3 9 10 6l373 -196c7 -4 10 -6 10 -13v-84c0 -7 -3 -9 -10 -13l-373 -196c-7 -3 -10 -1 -10 6z" />
    <glyph glyph-name="plus.tn" 
d="M359 559v-168h168c7 0 10 -3 10 -10v-78c0 -7 -3 -10 -10 -10h-168v-168c0 -7 -3 -10 -10 -10h-78c-7 0 -10 3 -10 10v168h-168c-7 0 -10 3 -10 10v78c0 7 3 10 10 10h168v168c0 7 3 10 10 10h78c7 0 10 -3 10 -10z" />
    <glyph glyph-name="minus.tn" 
d="M93 391h434c7 0 10 -3 10 -10v-78c0 -7 -3 -10 -10 -10h-434c-7 0 -10 3 -10 10v78c0 7 3 10 10 10z" />
    <glyph glyph-name="plusminus.tn" 
d="M359 572v-168h168c7 0 10 -3 10 -10v-78c0 -7 -3 -10 -10 -10h-168v-168c0 -7 -3 -10 -10 -10h-78c-7 0 -10 3 -10 10v168h-168c-7 0 -10 3 -10 10v78c0 7 3 10 10 10h168v168c0 7 3 10 10 10h78c7 0 10 -3 10 -10zM93 98h434c7 0 10 -3 10 -10v-78c0 -7 -3 -10 -10 -10
h-434c-7 0 -10 3 -10 10v78c0 7 3 10 10 10z" />
    <glyph glyph-name="divide.tn" 
d="M93 300h434c7 0 10 -3 10 -10v-78c0 -7 -3 -10 -10 -10h-434c-7 0 -10 3 -10 10v78c0 7 3 10 10 10zM258 116h96c7 0 10 -3 10 -10v-96c0 -7 -3 -10 -10 -10h-96c-7 0 -10 3 -10 10v96c0 7 3 10 10 10zM258 502h96c7 0 10 -3 10 -10v-96c0 -7 -3 -10 -10 -10h-96
c-7 0 -10 3 -10 10v96c0 7 3 10 10 10z" />
    <glyph glyph-name="multiply.tn" 
d="M498 461l-119 -119l119 -119c3 -3 4 -5 4 -7s-1 -4 -4 -7l-55 -55c-3 -3 -5 -4 -7 -4s-4 1 -7 4l-119 119l-119 -119c-3 -3 -5 -4 -7 -4s-4 1 -7 4l-55 55c-3 3 -4 5 -4 7s1 4 4 7l119 119l-119 119c-3 3 -4 5 -4 7s1 4 4 7l55 55c3 3 5 4 7 4s4 -1 7 -4l119 -119
l119 119c3 3 5 4 7 4s4 -1 7 -4l55 -55c3 -3 4 -5 4 -7s-1 -4 -4 -7z" />
    <glyph glyph-name="numbersign.tn" 
d="M313 10l27 188h-103l-27 -188c-1 -7 -4 -10 -11 -10h-84c-7 0 -9 3 -9 10l27 188h-117c-7 0 -10 3 -10 10v80c0 7 3 10 10 10h131l15 104h-106c-7 0 -10 3 -10 10v80c0 7 3 10 10 10h120l27 188c1 7 4 10 11 10h84c7 0 9 -3 9 -10l-27 -188h103l27 188c1 7 4 10 11 10h84
c7 0 9 -3 9 -10l-27 -188h117c7 0 10 -3 10 -10v-80c0 -7 -3 -10 -10 -10h-131l-15 -104h106c7 0 10 -3 10 -10v-80c0 -7 -3 -10 -10 -10h-120l-27 -188c-1 -7 -4 -10 -11 -10h-84c-7 0 -9 3 -9 10zM266 402l-15 -104h103l15 104h-103z" />
    </font>
</defs>
</svg>
