<?xml version="1.0" standalone="no"?>
<!DOCTYPE svg PUBLIC "-//W3C//DTD SVG 1.1//EN" "http://www.w3.org/Graphics/SVG/1.1/DTD/svg11.dtd" >
<svg xmlns="http://www.w3.org/2000/svg">
<metadata></metadata>
<defs>
<font id="relative10_pitch" horiz-adv-x="1232" >
<font-face units-per-em="2048" ascent="1638" descent="-410" />
<missing-glyph horiz-adv-x="500" />
<glyph horiz-adv-x="2048" />
<glyph horiz-adv-x="2048" />
<glyph unicode="&#xd;" horiz-adv-x="2048" />
<glyph unicode=" " />
<glyph unicode="!" d="M496 20v201q0 21 20 21h201q20 0 20 -21v-201q0 -20 -20 -20h-201q-20 0 -20 20zM530 399v1014q0 21 21 21h131q20 0 20 -21v-1014q0 -20 -20 -20h-131q-21 0 -21 20z" />
<glyph unicode="&#x22;" d="M369 983v430q0 21 20 21h119q20 0 20 -21v-430q0 -20 -20 -20h-119q-20 0 -20 20zM705 983v430q0 21 20 21h119q20 0 20 -21v-430q0 -20 -20 -20h-119q-20 0 -20 20z" />
<glyph unicode="#" d="M100 426v123q0 20 21 20h182l47 295h-147q-21 0 -21 21v123q0 20 21 20h174l59 385q3 21 23 21h131q18 0 18 -21l-59 -385h254l59 385q3 21 23 21h131q18 0 18 -21l-59 -385h155q21 0 21 -20v-123q0 -21 -21 -21h-182l-47 -295h148q20 0 20 -20v-123q0 -20 -20 -20h-175 l-59 -386q-3 -20 -22 -20h-131q-19 0 -19 20l59 386h-253l-60 -386q-3 -20 -22 -20h-131q-19 0 -19 20l59 386h-155q-21 0 -21 20zM475 569h254l47 295h-254z" />
<glyph unicode="$" d="M90 424q0 20 21 20h131q20 0 20 -20q0 -101 66.5 -176t181.5 -98v534q-93 28 -159 58t-122 74t-84 105.5t-28 141.5q0 161 110.5 262.5t282.5 122.5v170q0 20 20 20h132q20 0 20 -20v-170q180 -24 286.5 -134t106.5 -259q0 -21 -20 -21h-131q-21 0 -21 21q0 76 -62.5 141 t-158.5 88v-477q82 -24 140.5 -45t119 -53.5t97 -69.5t60 -90.5t23.5 -118.5q0 -204 -121.5 -317t-318.5 -129v-168q0 -21 -20 -21h-132q-20 0 -20 21v170q-189 25 -304.5 142t-115.5 296zM289 1075q0 -83 58 -133.5t163 -85.5v428q-101 -18 -161 -73t-60 -136zM682 147 q124 16 196 83.5t72 185.5q0 82 -70.5 133t-197.5 88v-490z" />
<glyph unicode="%" d="M23 1128q0 149 90.5 237.5t216.5 88.5t216.5 -88.5t90.5 -237.5t-90 -237t-217 -88t-217 88t-90 237zM141 1128q0 -108 53 -161.5t136 -53.5q82 0 135 53.5t53 161.5t-53 161.5t-135 53.5q-83 0 -136 -53.5t-53 -161.5zM158 326q0 8 6 14l803 834q8 8 14 8t14 -8l52 -52 q8 -8 8 -14q0 -8 -6 -14l-803 -834q-8 -8 -15 -8q-6 0 -14 8l-51 51q-8 8 -8 15zM575 305q0 149 90.5 237.5t217.5 88.5q126 0 216.5 -88.5t90.5 -237.5t-90 -237t-217 -88t-217.5 88t-90.5 237zM694 305q0 -108 53 -161.5t136 -53.5q82 0 135 53.5t53 161.5t-53 161.5 t-135 53.5q-83 0 -136 -53.5t-53 -161.5z" />
<glyph unicode="&#x26;" d="M84 426q0 133 77.5 240t209.5 182l-6 10q-55 78 -78 143t-23 148q0 132 90.5 218.5t245.5 86.5q152 0 240 -85.5t88 -205.5q0 -115 -52.5 -187.5t-156.5 -125.5l-111 -55l256 -363q31 113 31 285q0 18 20 18h248q21 0 21 -20v-123q0 -21 -21 -21h-112q-12 -172 -72 -299 l172 -239q6 -12 6 -19q0 -14 -16 -14h-156q-15 0 -27 18l-77 109q-141 -147 -369 -147q-83 0 -158.5 28t-136.5 81.5t-97 140.5t-36 196zM256 403q0 -120 75.5 -192t180.5 -72q180 0 274 121l-323 459q-106 -65 -156.5 -141.5t-50.5 -174.5zM428 1133q0 -49 18.5 -92.5 t71.5 -120.5l125 57q121 54 121 176q0 62 -45 106t-119 44q-80 0 -126 -45.5t-46 -124.5z" />
<glyph unicode="'" d="M537 983v430q0 21 20 21h119q20 0 20 -21v-430q0 -20 -20 -20h-119q-20 0 -20 20z" />
<glyph unicode="(" d="M410 311v408q0 124 19 216t67.5 177.5t119 160.5t185.5 171q9 6 14 6q6 0 14 -8l80 -96q6 -9 6 -15t-8 -14q-73 -62 -114 -100.5t-83 -87.5t-62 -90t-37.5 -99.5t-23 -125.5t-5.5 -159v-280q0 -92 5.5 -159t23 -125.5t37.5 -99.5t62 -90t83 -87.5t114 -100.5q8 -8 8 -14 q0 -5 -6 -14l-80 -97q-8 -8 -14 -8q-5 0 -14 6q-115 96 -185.5 171t-119 160.5t-67.5 177.5t-19 216z" />
<glyph unicode=")" d="M328 -301q0 6 8 14q73 62 114 100.5t83.5 87.5t62.5 90t37.5 99.5t23 125.5t5.5 159v280q0 92 -5.5 159t-23 125.5t-37.5 99.5t-62.5 90t-83.5 87.5t-114 100.5q-8 8 -8 14t6 15l80 96q8 8 14 8q5 0 14 -6q153 -128 234 -227t119.5 -216.5t38.5 -281.5v-408 q0 -164 -38.5 -281.5t-119.5 -216.5t-234 -227q-9 -6 -14 -6q-6 0 -14 8l-80 97q-6 9 -6 14z" />
<glyph unicode="*" d="M238 1114l2 8l30 99q5 14 17 14q2 0 10 -2l248 -80v260q0 21 20 21h103q20 0 20 -21v-260l248 80l10 2q12 0 17 -14l30 -99q2 -6 2 -8q0 -12 -14 -18l-248 -80l154 -211q6 -9 6 -14q0 -10 -8 -15l-84 -61q-9 -6 -17 -6q-7 0 -14 10l-154 211l-153 -211q-7 -10 -14 -10 q-8 0 -17 6l-84 61q-8 5 -8 15q0 5 6 14l154 211l-248 80q-14 6 -14 18z" />
<glyph unicode="+" d="M176 641v119q0 20 21 20h340v340q0 21 20 21h119q20 0 20 -21v-340h340q21 0 21 -20v-119q0 -20 -21 -20h-340v-340q0 -21 -20 -21h-119q-20 0 -20 21v340h-340q-21 0 -21 20z" />
<glyph unicode="," d="M492 20v209q0 21 20 21h209q20 0 20 -21v-288q0 -82 -41 -124t-116 -42h-72q-20 0 -20 20v74q0 20 20 20q57 0 75.5 20t18.5 77v14h-94q-20 0 -20 20z" />
<glyph unicode="-" d="M231 641v119q0 20 21 20h729q20 0 20 -20v-119q0 -20 -20 -20h-729q-21 0 -21 20z" />
<glyph unicode="." d="M492 20v209q0 21 20 21h209q20 0 20 -21v-209q0 -20 -20 -20h-209q-20 0 -20 20z" />
<glyph unicode="/" d="M115 10q0 2 4 10l784 1393q12 21 29 21h145q17 0 17 -11q0 -2 -4 -10l-785 -1393q-11 -20 -29 -20h-145q-16 0 -16 10z" />
<glyph unicode="0" d="M113 717q0 355 138 546t365 191t365.5 -191t138.5 -546t-138.5 -546t-365.5 -191t-365 191t-138 546zM285 717q0 -362 121 -492l290 1061q-33 8 -80 8q-164 0 -247.5 -136.5t-83.5 -440.5zM537 147q33 -8 79 -8q164 0 248 137t84 441q0 361 -121 491z" />
<glyph unicode="1" d="M242 20v119q0 21 20 21h328v1046l-299 -162q-12 -6 -23 -6q-14 0 -14 19v141q0 20 22 31l357 194q18 11 31 11h73q21 0 21 -21v-1253h327q21 0 21 -21v-119q0 -20 -21 -20h-823q-20 0 -20 20z" />
<glyph unicode="2" d="M154 20v86q0 29 22 48l565 544q83 80 114.5 154.5t31.5 175.5q0 122 -73.5 194t-203.5 72q-135 0 -210.5 -79t-75.5 -197q0 -18 -6.5 -24.5t-20.5 -6.5h-117q-24 0 -24 31q2 123 54.5 220.5t156.5 156.5t243 59q198 0 321.5 -119t123.5 -297q0 -141 -45.5 -242 t-143.5 -196l-460 -440h673q21 0 21 -21v-119q0 -20 -21 -20h-905q-20 0 -20 20z" />
<glyph unicode="3" d="M129 418q0 35 27 35h110q27 0 29 -27q14 -133 97.5 -210t217.5 -77q140 0 221.5 71.5t81.5 213.5q0 125 -76 192.5t-223 67.5h-120q-23 6 -23 23v114q0 23 23 23h104q129 0 193.5 55.5t64.5 179.5q0 102 -70.5 158.5t-181.5 56.5t-186 -62.5t-84 -170.5q-1 -16 -7 -20.5 t-20 -4.5h-112q-27 0 -27 35q10 169 135 276t301 107q185 0 298.5 -96.5t113.5 -257.5q0 -122 -41.5 -197.5t-134.5 -128.5q241 -94 241 -356q0 -197 -130.5 -317.5t-340.5 -120.5q-198 0 -332 121.5t-149 316.5z" />
<glyph unicode="4" d="M100 315v76q0 23 17 47l647 979q10 17 27 17h98q20 0 20 -21v-958h197q20 0 20 -21v-119q0 -20 -20 -20h-197v-275q0 -20 -22 -20h-125q-21 0 -21 20v275h-620q-21 0 -21 20zM311 455h430v639z" />
<glyph unicode="5" d="M150 399q0 31 24 31h117q12 0 17.5 -6.5t8.5 -24.5q18 -113 103.5 -186.5t208.5 -73.5q151 0 230 85.5t79 240.5q0 151 -81 238.5t-228 87.5q-87 0 -157 -31t-138 -94q-19 -19 -35 -19h-119q-20 0 -20 21l88 745q3 21 20 21h729q21 0 21 -21v-119q0 -20 -21 -20h-604 l-57 -428q162 104 323 104q209 0 328 -128.5t119 -352.5q0 -228 -134 -358.5t-343 -130.5q-199 0 -336 119t-143 300z" />
<glyph unicode="6" d="M150 653q0 399 137.5 600t374.5 201q175 0 285.5 -95t137.5 -261q0 -21 -22 -21h-123q-15 0 -22 21q-26 103 -95.5 154t-160.5 51q-146 0 -237 -132.5t-95 -398.5q63 76 155.5 115t184.5 39q204 0 328 -125t124 -348q0 -109 -39 -200t-104.5 -150t-150 -91t-177.5 -32 q-85 0 -157 21t-136.5 70t-109.5 125t-71.5 192.5t-26.5 264.5zM348 453q0 -136 83.5 -225t219.5 -89t219.5 89t83.5 225t-83.5 224.5t-219.5 88.5t-219.5 -88.5t-83.5 -224.5z" />
<glyph unicode="7" d="M162 1294v119q0 21 20 21h893q21 0 21 -21v-78q0 -19 -11 -51l-512 -1270q-6 -14 -22 -14h-131q-21 0 -21 16q0 7 4 15l502 1243h-723q-20 0 -20 20z" />
<glyph unicode="8" d="M150 406q0 248 225 356q-88 53 -135 127.5t-47 185.5q0 87 34.5 160t93.5 120t135 73t160 26q113 0 208.5 -43.5t155.5 -131.5t60 -204q0 -111 -47 -185.5t-135 -127.5q225 -108 225 -356q0 -187 -130.5 -306.5t-336.5 -119.5t-336 119.5t-130 306.5zM317 406 q0 -123 82.5 -195t216.5 -72t216.5 72t82.5 195t-83 196.5t-216 73.5t-216 -73.5t-83 -196.5zM352 1067q0 -104 71 -170t193 -66t193.5 66t71.5 170q0 106 -73.5 166.5t-191.5 60.5t-191 -60t-73 -167z" />
<glyph unicode="9" d="M123 981q0 109 39 200t104.5 150t150 91t177.5 32q85 0 157 -21t137 -70.5t110 -125.5t71.5 -192.5t26.5 -264.5q0 -399 -137 -599.5t-375 -200.5q-175 0 -286 95t-138 261q0 20 22 20h123q16 0 23 -20q26 -103 95.5 -154t160.5 -51q146 0 236.5 132.5t94.5 398.5 q-63 -76 -155.5 -115t-184.5 -39q-204 0 -328 125t-124 348zM291 981q0 -136 83.5 -224.5t219.5 -88.5t219.5 88.5t83.5 224.5t-83.5 224.5t-219.5 88.5t-219.5 -88.5t-83.5 -224.5z" />
<glyph unicode=":" d="M492 20v209q0 21 20 21h209q20 0 20 -21v-209q0 -20 -20 -20h-209q-20 0 -20 20zM492 737v209q0 21 20 21h209q20 0 20 -21v-209q0 -20 -20 -20h-209q-20 0 -20 20z" />
<glyph unicode=";" d="M492 20v209q0 21 20 21h209q20 0 20 -21v-288q0 -82 -41 -124t-116 -42h-72q-20 0 -20 20v74q0 20 20 20q57 0 75.5 20t18.5 77v14h-94q-20 0 -20 20zM492 737v209q0 21 20 21h209q20 0 20 -21v-209q0 -20 -20 -20h-209q-20 0 -20 20z" />
<glyph unicode="&#x3c;" d="M178 522v152q0 17 21 26l813 371q6 2 10 2q10 0 10 -12v-150q0 -19 -20 -28l-650 -285l650 -285q20 -9 20 -28v-150q0 -12 -10 -12q-4 0 -10 2l-813 371q-21 9 -21 26z" />
<glyph unicode="=" d="M176 348v119q0 20 21 20h839q21 0 21 -20v-119q0 -20 -21 -20h-839q-21 0 -21 20zM176 764v119q0 20 21 20h839q21 0 21 -20v-119q0 -21 -21 -21h-839q-21 0 -21 21z" />
<glyph unicode="&#x3e;" d="M201 135v150q0 19 20 28l649 285l-649 285q-20 9 -20 28v150q0 12 10 12q4 0 10 -2l813 -371q21 -9 21 -26v-152q0 -17 -21 -26l-813 -371q-6 -2 -10 -2q-10 0 -10 12z" />
<glyph unicode="?" d="M172 1049q6 169 130.5 287t324.5 118q193 0 307.5 -104.5t114.5 -276.5q0 -60 -19 -111.5t-48.5 -89t-66 -71.5t-73 -66t-66 -64.5t-48.5 -74t-19 -88.5v-109q0 -20 -21 -20h-131q-20 0 -20 20v95q0 66 19 123t48.5 98t66 77t73 67.5t66 63t48.5 69.5t19 81q0 97 -69 157 t-181 60t-192.5 -62.5t-94.5 -178.5q-3 -21 -21 -21h-126q-21 0 -21 21zM502 20v201q0 21 20 21h201q20 0 20 -21v-201q0 -20 -20 -20h-201q-20 0 -20 20z" />
<glyph unicode="@" d="M63 592q0 182 43 337t122 267t196 175t260 63q224 0 353.5 -120.5t129.5 -318.5v-817q0 -10 -3.5 -14t-14.5 -4h-107q-18 0 -18 18v80q-91 -115 -254 -115q-167 0 -272 124t-105 325t105 324.5t272 123.5q172 0 254 -110v76q0 129 -81.5 208.5t-258.5 79.5 q-146 0 -254 -94t-161.5 -251.5t-53.5 -356.5q0 -332 138.5 -513t377.5 -181q192 0 348 90q4 2 11 2q9 0 14 -10l49 -97q2 -4 2 -8q0 -9 -10 -16q-100 -55 -196.5 -78t-217.5 -23q-149 0 -269.5 49.5t-210.5 149t-139 261t-49 374.5zM545 592q0 -137 64.5 -223t183.5 -86 q120 0 181.5 81t61.5 228t-61.5 228t-181.5 81q-119 0 -183.5 -85.5t-64.5 -223.5z" />
<glyph unicode="A" d="M31 20q0 7 2 13l479 1380q2 7 3 9.5t3 6t5.5 4.5t8.5 1h168q10 0 14 -4.5t7 -16.5l479 -1380q2 -6 2 -13q0 -20 -22 -20h-140q-11 0 -16 4.5t-8 15.5l-133 396h-535l-131 -396q-3 -11 -8 -15.5t-16 -4.5h-140q-22 0 -22 20zM401 580h428l-213 641z" />
<glyph unicode="B" d="M188 20v1393q0 21 21 21h471q113 0 201 -37t143 -118.5t55 -199.5q0 -233 -182 -319q119 -45 181.5 -128.5t62.5 -223.5q0 -177 -112.5 -292.5t-311.5 -115.5h-508q-21 0 -21 20zM360 170h338q126 0 198.5 61.5t72.5 188.5q0 124 -73.5 188t-197.5 64h-338v-502zM360 836 h330q101 0 159 51t58 164q0 103 -60 158t-157 55h-330v-428z" />
<glyph unicode="C" d="M94 717q0 180 43.5 322.5t120.5 232t178 136t219 46.5q212 0 349 -124t167 -361q0 -21 -22 -21h-125q-22 0 -25 21q-34 166 -111.5 243.5t-232.5 77.5q-181 0 -281 -147.5t-100 -425.5t100 -426t281 -148q159 0 234.5 77t109.5 245q3 20 25 20h125q12 0 17 -4t5 -16 q-30 -237 -167 -361t-349 -124q-118 0 -219 46.5t-178 136t-120.5 232t-43.5 322.5z" />
<glyph unicode="D" d="M154 20v1393q0 21 20 21h324q134 0 246.5 -43.5t199 -129t135.5 -225t49 -319.5t-49 -319.5t-135.5 -225t-199 -129t-246.5 -43.5h-324q-20 0 -20 20zM326 164h170q213 0 332.5 137t119.5 416t-119.5 416t-332.5 137h-170v-1106z" />
<glyph unicode="E" d="M178 20v1393q0 21 21 21h860q20 0 20 -21v-123q0 -20 -20 -20h-709v-434h645q21 0 21 -21v-123q0 -20 -21 -20h-645v-508h723q21 0 21 -21v-123q0 -20 -21 -20h-874q-21 0 -21 20z" />
<glyph unicode="F" d="M178 20v1393q0 21 21 21h891q20 0 20 -21v-123q0 -20 -20 -20h-740v-465h676q21 0 21 -21v-122q0 -21 -21 -21h-676v-621q0 -20 -20 -20h-131q-21 0 -21 20z" />
<glyph unicode="G" d="M82 717q0 145 30 266t82.5 207t125 146t156.5 89t177 29q208 0 336.5 -119t153.5 -319q0 -21 -23 -21h-131q-21 0 -24 21q-28 137 -103.5 205.5t-208.5 68.5q-184 0 -287.5 -147.5t-103.5 -425.5q0 -281 105.5 -427.5t306.5 -146.5q115 0 195 52t122 141v229h-346 q-20 0 -20 21v123q0 20 20 20h498q20 0 20 -20v-367q0 -42 -20 -78q-65 -131 -186 -207.5t-283 -76.5q-126 0 -233.5 48t-187.5 139t-125.5 232.5t-45.5 317.5z" />
<glyph unicode="H" d="M129 20v1393q0 21 21 21h131q20 0 20 -21v-584h631v584q0 21 20 21h131q21 0 21 -21v-1393q0 -20 -21 -20h-131q-20 0 -20 20v646h-631v-646q0 -20 -20 -20h-131q-21 0 -21 20z" />
<glyph unicode="I" d="M176 20v123q0 21 21 21h333v1106h-313q-20 0 -20 20v123q0 21 20 21h799q20 0 20 -21v-123q0 -20 -20 -20h-314v-1106h334q21 0 21 -21v-123q0 -20 -21 -20h-839q-21 0 -21 20z" />
<glyph unicode="J" d="M113 436q0 21 20 21h131q21 0 21 -21q0 -127 76.5 -210t199.5 -83q285 0 285 369v901q0 21 20 21h131q21 0 21 -21v-899q0 -266 -124.5 -400t-332.5 -134q-213 0 -330.5 127.5t-117.5 328.5z" />
<glyph unicode="K" d="M176 20v1393q0 21 21 21h131q20 0 20 -21v-604l557 604q18 21 33 21h164q18 0 18 -15q0 -5 -6 -14l-459 -506l543 -870q4 -8 4 -13q0 -16 -18 -16h-158q-18 0 -37 31l-459 731l-182 -203v-539q0 -20 -20 -20h-131q-21 0 -21 20z" />
<glyph unicode="L" d="M250 20v1393q0 21 20 21h131q21 0 21 -21v-1249h717q20 0 20 -21v-123q0 -20 -20 -20h-869q-20 0 -20 20z" />
<glyph unicode="M" d="M119 20v1393q0 21 20 21h199q28 0 33 -17l245 -678l246 678q5 17 33 17h199q20 0 20 -21v-1393q0 -20 -20 -20h-131q-21 0 -21 20v1162l-246 -645q-4 -11 -26 -11h-107q-22 0 -26 11l-246 645v-1162q0 -20 -21 -20h-131q-20 0 -20 20z" />
<glyph unicode="N" d="M131 20v1393q0 21 21 21h165q26 0 33 -17l580 -1122v1118q0 21 20 21h131q21 0 21 -21v-1393q0 -20 -21 -20h-166q-25 0 -32 16l-580 1123v-1119q0 -20 -20 -20h-131q-21 0 -21 20z" />
<glyph unicode="O" d="M78 717q0 347 148 542t390 195t390.5 -195t148.5 -542t-148.5 -542t-390.5 -195t-390 195t-148 542zM258 717q0 -289 92.5 -431.5t265.5 -142.5t266 142.5t93 431.5t-93 431t-266 142t-265.5 -142t-92.5 -431z" />
<glyph unicode="P" d="M195 20v1393q0 21 20 21h461q223 0 347 -106.5t124 -293.5t-124 -293t-347 -106h-309v-615q0 -20 -21 -20h-131q-20 0 -20 20zM367 799h340q260 0 260 235q0 236 -260 236h-340v-471z" />
<glyph unicode="Q" d="M78 717q0 347 148 542t390 195t390.5 -195t148.5 -542q0 -306 -121 -502l115 -109q8 -8 8 -14t-8 -14l-86 -90q-8 -8 -14 -8q-7 0 -15 8l-106 102q-128 -110 -312 -110q-242 0 -390 195t-148 542zM258 717q0 -289 92.5 -431.5t265.5 -142.5q113 0 193 62l-129 125 q-8 8 -8 14t8 14l86 91q8 8 14 8q7 0 15 -8l114 -113q66 141 66 381q0 289 -93 431t-266 142t-265.5 -142t-92.5 -431z" />
<glyph unicode="R" d="M158 20v1393q0 21 20 21h490q211 0 322.5 -94.5t111.5 -284.5q0 -272 -268 -361l323 -674q2 -4 2 -8q0 -12 -18 -12h-152q-18 0 -28 20l-316 656h-315v-656q0 -20 -21 -20h-131q-20 0 -20 20zM330 840h358q124 0 183 54t59 161t-59 161t-183 54h-358v-430z" />
<glyph unicode="S" d="M90 424q0 20 21 20h131q20 0 20 -20q0 -121 94 -201t250 -80q155 0 249.5 69t94.5 204q0 35 -13 64.5t-40 53t-57 41.5t-75.5 35t-83.5 28.5t-93 25.5q-89 23 -153 45t-127.5 55.5t-102.5 73.5t-63.5 97t-24.5 128q0 122 66 212.5t172.5 134.5t236.5 44q217 0 350 -115.5 t133 -283.5q0 -21 -20 -21h-131q-21 0 -21 21q0 96 -91.5 165.5t-219.5 69.5q-133 0 -218 -58.5t-85 -156.5q0 -47 23.5 -85t48 -60.5t87 -48t91.5 -34.5t110 -31q11 -3 17 -5q86 -24 145.5 -45t122.5 -53.5t101 -70t62.5 -91.5t24.5 -121q0 -114 -40 -202t-111.5 -141 t-163.5 -80t-201 -27q-227 0 -371.5 122t-144.5 322z" />
<glyph unicode="T" d="M90 1290v123q0 21 21 21h1011q21 0 21 -21v-123q0 -20 -21 -20h-420v-1250q0 -20 -20 -20h-131q-21 0 -21 20v1250h-419q-21 0 -21 20z" />
<glyph unicode="U" d="M135 485v928q0 21 21 21h131q20 0 20 -21v-905q0 -365 309 -365q310 0 310 365v905q0 21 20 21h131q21 0 21 -21v-928q0 -116 -37 -212t-101.5 -160t-152.5 -98.5t-191 -34.5q-138 0 -246 59.5t-171.5 175t-63.5 270.5z" />
<glyph unicode="V" d="M45 1421q0 13 18 13h152q19 0 25 -21l376 -1202l377 1202q6 21 25 21h151q19 0 19 -13l-2 -8l-449 -1393q-3 -11 -7.5 -15.5t-14.5 -4.5h-197q-10 0 -14.5 4.5t-7.5 15.5l-449 1393q-2 6 -2 8z" />
<glyph unicode="W" d="M41 1413q0 21 16 21h133q22 0 25 -21l115 -1192l194 885q6 20 25 20h135q19 0 25 -20l194 -885l115 1192q3 21 24 21h134q16 0 16 -21l-158 -1393q-3 -20 -22 -20h-191q-10 0 -14.5 4.5t-7.5 15.5l-183 826l-182 -826q-3 -11 -7.5 -15.5t-14.5 -4.5h-191q-19 0 -22 20z " />
<glyph unicode="X" d="M74 12q0 4 2 8l444 756l-375 637q-2 4 -2 8q0 13 17 13h149q11 0 16.5 -4t12.5 -17l278 -473l279 473q7 13 12.5 17t16.5 4h149q17 0 17 -13q0 -2 -3 -8l-374 -637l444 -756q2 -4 2 -8q0 -12 -14 -12h-152q-17 0 -28 20l-349 592l-348 -592q-11 -20 -28 -20h-152 q-14 0 -14 12z" />
<glyph unicode="Y" d="M80 1423q0 11 14 11h162q13 0 23 -17l337 -622l338 622q10 17 23 17h162q14 0 14 -11q0 -2 -4 -10l-447 -809v-584q0 -20 -20 -20h-131q-21 0 -21 20v584l-446 809q-4 8 -4 10z" />
<glyph unicode="Z" d="M129 20v123q0 17 12 35l748 1092h-713q-20 0 -20 20v123q0 21 20 21h885q20 0 20 -21v-123q0 -17 -12 -35l-745 -1091h772q20 0 20 -21v-123q0 -20 -20 -20h-946q-21 0 -21 20z" />
<glyph unicode="[" d="M350 -385v1798q0 21 21 21h592q20 0 20 -21v-123q0 -20 -20 -20h-441v-1512h441q20 0 20 -20v-123q0 -21 -20 -21h-592q-21 0 -21 21z" />
<glyph unicode="\" d="M139 1423q0 11 17 11h145q17 0 29 -21l784 -1393q4 -8 4 -10q0 -10 -16 -10h-146q-17 0 -28 20l-785 1393q-4 8 -4 10z" />
<glyph unicode="]" d="M250 -262q0 20 20 20h441v1512h-441q-20 0 -20 20v123q0 21 20 21h592q21 0 21 -21v-1798q0 -21 -21 -21h-592q-20 0 -20 21v123z" />
<glyph unicode="^" d="M154 817q0 4 2 8l358 588q13 21 27 21h151q14 0 27 -21l358 -588q2 -4 2 -8q0 -12 -14 -12h-147q-16 0 -29 20l-273 453l-272 -453q-13 -20 -29 -20h-147q-14 0 -14 12z" />
<glyph unicode="_" d="M176 -20q0 20 21 20h839q21 0 21 -20v-119q0 -21 -21 -21h-839q-21 0 -21 21v119z" />
<glyph unicode="`" d="M422 1423q0 11 12 11h207q19 0 31 -21l135 -258q2 -4 2 -8q0 -12 -12 -12h-131q-22 0 -37 18l-203 260q-4 6 -4 10z" />
<glyph unicode="a" d="M164 307q0 110 55.5 188t146 115t205.5 37q147 0 326 -43v51q0 120 -68 181t-196 61q-95 0 -162 -41t-96 -115q-7 -18 -29 -18h-131q-14 0 -14 12q0 13 2 21q32 124 143.5 208.5t286.5 84.5q202 0 313 -101t111 -268v-483q0 -69 7 -104t28 -73q2 -4 2 -10q0 -10 -17 -10 h-159q-21 0 -21 20v107q-54 -69 -148.5 -108t-203.5 -39q-74 0 -141 20t-121.5 59t-86.5 103t-32 145zM332 307q0 -79 62.5 -127.5t168.5 -48.5q87 0 162 36.5t123.5 111.5t48.5 174q-173 43 -305 43q-112 0 -186 -49t-74 -140z" />
<glyph unicode="b" d="M197 20v1393q0 21 20 21h119q20 0 20 -21v-502q61 64 148 101t178 37q204 0 328.5 -145.5t124.5 -389.5t-124.5 -389t-328.5 -145q-103 0 -190.5 37.5t-135.5 99.5v-97q0 -20 -20 -20h-119q-20 0 -20 20zM340 514q0 -166 83 -274.5t226 -108.5q147 0 232.5 108.5 t85.5 274.5t-85.5 274.5t-232.5 108.5q-143 0 -226 -108.5t-83 -274.5z" />
<glyph unicode="c" d="M145 514q0 153 60 273.5t174.5 191t265.5 70.5q179 0 297 -90.5t158 -251.5q2 -8 2 -21q0 -12 -15 -12h-124q-25 0 -29 18q-28 97 -103.5 151t-185.5 54q-147 0 -239.5 -106t-92.5 -277t92.5 -277t239.5 -106q110 0 185.5 54t103.5 151q4 18 29 18h124q15 0 15 -12 t-2 -20q-40 -161 -158 -251.5t-297 -90.5q-151 0 -265.5 70t-174.5 190.5t-60 273.5z" />
<glyph unicode="d" d="M135 514q0 244 124.5 389.5t328.5 145.5q91 0 177.5 -37t147.5 -101v502q0 21 21 21h119q20 0 20 -21v-1393q0 -20 -20 -20h-119q-21 0 -21 20v97q-48 -62 -135 -99.5t-190 -37.5q-204 0 -328.5 145t-124.5 389zM303 514q0 -166 85.5 -274.5t232.5 -108.5 q143 0 226 108.5t83 274.5t-83 274.5t-226 108.5q-147 0 -232.5 -108.5t-85.5 -274.5z" />
<glyph unicode="e" d="M143 514q0 229 138 382t356 153q113 0 205.5 -43.5t151.5 -117.5t90.5 -170t31.5 -204v-29q0 -20 -20 -20h-781q13 -151 95.5 -242.5t226.5 -91.5q110 0 177 45.5t104 142.5q7 19 28 19h133q15 0 15 -14q0 -9 -4 -21q-111 -323 -453 -323q-155 0 -268.5 71.5t-169.5 191 t-56 271.5zM324 616h612q-25 126 -107 203.5t-192 77.5q-114 0 -201.5 -76.5t-111.5 -204.5z" />
<glyph unicode="f" d="M164 897v111q0 20 20 20h283v90q0 88 32.5 162.5t103.5 124t169 49.5q129 0 223 -57q17 -12 17 -35v-109q0 -20 -15 -20q-8 0 -14 4q-57 37 -101.5 51.5t-97.5 14.5q-73 0 -115 -49.5t-42 -135.5v-90h430q20 0 20 -20v-111q0 -20 -20 -20h-430v-857q0 -20 -21 -20h-119 q-20 0 -20 20v857h-283q-20 0 -20 20z" />
<glyph unicode="g" d="M141 295q0 89 44.5 151t136.5 111q-27 69 -27 141q0 163 103.5 257t254.5 94q116 0 205 -58l137 123q8 8 17 8q6 0 16 -10l78 -82q8 -8 8 -16q0 -9 -10 -19l-131 -125q41 -74 41 -172q0 -159 -101 -253.5t-260 -94.5q-152 0 -250 88q-102 -45 -102 -133q0 -55 34.5 -85 t90.5 -30q36 0 123.5 19.5t157.5 19.5q205 0 321.5 -82.5t116.5 -244.5q0 -151 -126.5 -239.5t-338.5 -88.5q-213 0 -342 87.5t-129 250.5q0 103 51 166q-119 68 -119 217zM369 -86q0 -92 84.5 -140t226.5 -48q141 0 223 46.5t82 129.5q0 87 -78 131.5t-227 44.5 q-72 0 -155 -16t-99 -17q-57 -48 -57 -131zM455 698q0 -92 56.5 -144t141.5 -52q87 0 144 52t57 144q0 93 -57 146t-144 53q-85 0 -141.5 -53t-56.5 -146z" />
<glyph unicode="h" d="M207 20v1393q0 21 20 21h119q21 0 21 -21v-532q55 74 157.5 121t204.5 47q169 0 261.5 -88t92.5 -256v-685q0 -20 -20 -20h-119q-20 0 -20 20v648q0 116 -61.5 172.5t-170.5 56.5q-54 0 -111 -25.5t-105 -70t-78.5 -113t-30.5 -147.5v-521q0 -20 -21 -20h-119 q-20 0 -20 20z" />
<glyph unicode="i" d="M201 20v111q0 21 20 21h354v729h-303q-20 0 -20 20v107q0 20 20 20h443q20 0 20 -20v-856h355q20 0 20 -21v-111q0 -20 -20 -20h-869q-20 0 -20 20zM532 1237v176q0 21 21 21h176q21 0 21 -21v-176q0 -20 -21 -20h-176q-21 0 -21 20z" />
<glyph unicode="j" d="M260 901v107q0 20 21 20h593q21 0 21 -20v-1114q0 -145 -15 -229.5t-46 -158.5q-6 -16 -17 -16l-8 2l-117 33q-16 5 -16 16l2 8q57 148 57 320v1012h-454q-21 0 -21 20zM686 1237v176q0 21 21 21h176q20 0 20 -21v-176q0 -20 -20 -20h-176q-21 0 -21 20z" />
<glyph unicode="k" d="M213 20v1393q0 21 20 21h119q21 0 21 -21v-838l444 435q18 18 33 18h166q16 0 16 -14q0 -9 -8 -17l-354 -344l417 -622q5 -7 5 -15q0 -16 -19 -16h-145q-23 0 -33 18l-346 517l-176 -168v-347q0 -20 -21 -20h-119q-20 0 -20 20z" />
<glyph unicode="l" d="M147 20v111q0 21 21 21h381v1130h-336q-20 0 -20 21v110q0 21 20 21h475q21 0 21 -21v-1261h381q20 0 20 -21v-111q0 -20 -20 -20h-922q-21 0 -21 20z" />
<glyph unicode="m" d="M92 20v988q0 20 21 20h118q21 0 21 -20v-88q36 60 102 94.5t135 34.5q80 0 128.5 -30t80.5 -93q43 58 106 90.5t136 32.5q117 0 173 -58.5t56 -193.5v-777q0 -20 -20 -20h-119q-20 0 -20 20v738q0 139 -115 139q-85 0 -134.5 -74.5t-49.5 -208.5v-594q0 -20 -21 -20h-119 q-20 0 -20 20v721q0 156 -115 156q-84 0 -134 -72.5t-50 -201.5v-603q0 -20 -21 -20h-118q-21 0 -21 20z" />
<glyph unicode="n" d="M213 20v988q0 20 20 20h119q21 0 21 -20v-123q59 70 150.5 117t197.5 47q165 0 251.5 -90.5t86.5 -249.5v-689q0 -20 -21 -20h-118q-21 0 -21 20v658q0 109 -49.5 164t-161.5 55q-134 0 -224.5 -98t-90.5 -258v-521q0 -20 -21 -20h-119q-20 0 -20 20z" />
<glyph unicode="o" d="M104 514q0 239 144 387t368 148t368 -148t144 -387t-144 -386.5t-368 -147.5t-368 147.5t-144 386.5zM272 514q0 -168 96 -275.5t248 -107.5t248.5 107.5t96.5 275.5t-96.5 275.5t-248.5 107.5t-248 -107.5t-96 -275.5z" />
<glyph unicode="p" d="M201 -385v1393q0 20 20 20h119q20 0 20 -20v-97q48 62 135.5 100t190.5 38q204 0 328.5 -145.5t124.5 -389.5t-124.5 -389t-328.5 -145q-92 0 -179 37t-147 100v-502q0 -21 -20 -21h-119q-20 0 -20 21zM344 514q0 -166 83 -274.5t226 -108.5q147 0 232.5 108.5 t85.5 274.5t-85.5 274.5t-232.5 108.5q-143 0 -226 -108.5t-83 -274.5z" />
<glyph unicode="q" d="M111 514q0 244 124 389.5t328 145.5q103 0 190.5 -38t135.5 -100v97q0 20 20 20h119q21 0 21 -20v-1393q0 -21 -21 -21h-119q-20 0 -20 21v502q-60 -63 -147 -100t-179 -37q-204 0 -328 145t-124 389zM279 514q0 -166 85 -274.5t232 -108.5q143 0 226 108.5t83 274.5 t-83 274.5t-226 108.5q-147 0 -232 -108.5t-85 -274.5z" />
<glyph unicode="r" d="M244 20v988q0 20 20 20h119q20 0 20 -20v-129q56 74 147.5 122t205.5 48q244 0 348 -220q4 -8 4 -14q0 -14 -12 -20l-119 -72q-6 -4 -14 -4q-12 0 -17 10q-57 92 -109 130t-143 38q-125 0 -208 -116.5t-83 -286.5v-474q0 -20 -20 -20h-119q-20 0 -20 20z" />
<glyph unicode="s" d="M197 313q0 21 20 21h131q18 0 21 -21q12 -87 87.5 -134.5t186.5 -47.5q110 0 179 37t69 113t-71 113t-238 63q-189 30 -275 98.5t-86 200.5q0 139 114.5 216t285.5 77q172 0 281 -79.5t122 -215.5q0 -21 -20 -21h-115q-10 0 -14 4.5t-7 16.5q-22 71 -92 107t-162 36 q-104 0 -168.5 -34t-64.5 -103q0 -74 65.5 -108t233.5 -64q67 -12 116 -24.5t101.5 -35.5t85.5 -52t54.5 -73.5t21.5 -101.5q0 -152 -120 -236.5t-302 -84.5q-119 0 -219.5 42.5t-160.5 119.5t-60 171z" />
<glyph unicode="t" d="M86 897v111q0 20 20 20h254v332q0 20 21 20h119q20 0 20 -20v-332h406q20 0 20 -20v-111q0 -20 -20 -20h-406v-480q0 -132 52.5 -199t148.5 -67q100 0 150.5 52.5t64.5 158.5q2 18 22 18h119q7 0 10.5 -0.5t6 -4.5t2.5 -13q0 -97 -42.5 -178t-129.5 -132.5t-203 -51.5 q-176 0 -268.5 103.5t-92.5 311.5v482h-254q-20 0 -20 20z" />
<glyph unicode="u" d="M180 319v689q0 20 21 20h118q21 0 21 -20v-658q0 -109 49.5 -164t161.5 -55q134 0 224.5 98t90.5 258v521q0 20 21 20h119q20 0 20 -20v-988q0 -20 -20 -20h-119q-21 0 -21 20v123q-59 -70 -150.5 -116.5t-197.5 -46.5q-165 0 -251.5 90t-86.5 249z" />
<glyph unicode="v" d="M102 1010q0 18 19 18h139q23 0 29 -20l327 -795l328 795q6 20 29 20h139q18 0 18 -18q0 -9 -2 -15l-415 -975q-9 -20 -21 -20h-151q-12 0 -21 20l-416 975q-2 6 -2 15z" />
<glyph unicode="w" d="M33 1014q0 14 16 14h141q14 0 20 -4.5t9 -15.5l141 -775l156 672q3 12 7.5 16.5t15.5 4.5h155q11 0 15.5 -4.5t7.5 -16.5l155 -672l142 775q3 11 8.5 15.5t19.5 4.5h142q16 0 16 -14q0 -9 -2 -17l-219 -977q-5 -20 -27 -20h-145q-21 0 -27 20l-164 658l-163 -658 q-6 -20 -27 -20h-145q-22 0 -27 20l-219 977q-2 8 -2 17z" />
<glyph unicode="x" d="M154 10q0 8 6 17l358 501l-328 473q-4 8 -4 13q0 14 15 14h147q20 0 29 -14l239 -352l240 352q9 14 29 14h147q15 0 15 -14q0 -3 -5 -13l-327 -473l358 -501q6 -9 6 -17q0 -10 -12 -10h-158q-17 0 -28 20l-265 375l-264 -375q-11 -20 -28 -20h-158q-12 0 -12 10z" />
<glyph unicode="y" d="M141 1012q0 16 17 16h147q21 0 27 -20l321 -777l305 777q5 11 10.5 15.5t18.5 4.5h141q17 0 17 -14q0 -3 -4 -15l-441 -1099q-69 -174 -149 -250t-195 -76q-77 0 -151 33q-21 12 -21 33v110q0 21 17 21q12 0 30 -11t47.5 -22.5t69.5 -11.5q72 0 112 56.5t101 213.5l4 12 l-420 987q-4 12 -4 17z" />
<glyph unicode="z" d="M213 20v111q0 15 12 31l584 715h-549q-20 0 -20 20v111q0 20 20 20h717q20 0 20 -20v-111q0 -20 -16 -43l-573 -702h608q20 0 20 -21v-111q0 -20 -20 -20h-783q-20 0 -20 20z" />
<glyph unicode="{" d="M293 453v122q0 21 20 21h90q109 0 109 119v319q0 210 75 305t234 95h142q20 0 20 -21v-123q0 -20 -20 -20h-142q-88 0 -112.5 -48.5t-24.5 -187.5v-352q0 -65 -24.5 -107t-92.5 -61q68 -19 92.5 -61t24.5 -107v-352q0 -139 24.5 -187.5t112.5 -48.5h142q20 0 20 -20v-123 q0 -21 -20 -21h-142q-159 0 -234 95t-75 305v319q0 119 -109 119h-90q-20 0 -20 21z" />
<glyph unicode="|" d="M530 -184v1802q0 20 21 20h131q20 0 20 -20v-1802q0 -21 -20 -21h-131q-21 0 -21 21z" />
<glyph unicode="}" d="M250 -262q0 20 20 20h142q88 0 112.5 48.5t24.5 187.5v352q0 65 24.5 107t92.5 61q-68 19 -92.5 61t-24.5 107v352q0 139 -24.5 187.5t-112.5 48.5h-142q-20 0 -20 20v123q0 21 20 21h142q159 0 234 -95t75 -305v-319q0 -119 108 -119h91q20 0 20 -21v-122q0 -21 -20 -21 h-91q-108 0 -108 -119v-319q0 -210 -75 -305t-234 -95h-142q-20 0 -20 21v123z" />
<glyph unicode="~" d="M176 719q0 13 19 26q99 74 233 74q67 0 135.5 -21t130.5 -42t111 -21q45 0 78 11.5t75 39.5q10 5 15 5q10 0 20 -17l62 -102q2 -4 2 -8q0 -14 -19 -27q-99 -74 -233 -74q-67 0 -135.5 21t-130.5 42t-111 21q-45 0 -78.5 -11.5t-75.5 -39.5q-8 -4 -14 -4q-10 0 -20 16 l-62 103q-2 4 -2 8z" />
<glyph unicode="&#xa0;" />
<glyph unicode="&#xa1;" d="M496 807v201q0 20 20 20h201q20 0 20 -20v-201q0 -21 -20 -21h-201q-20 0 -20 21zM530 -385v1014q0 20 21 20h131q20 0 20 -20v-1014q0 -21 -20 -21h-131q-21 0 -21 21z" />
<glyph unicode="&#xa2;" d="M125 717q0 208 111.5 352.5t302.5 173.5v170q0 21 20 21h131q21 0 21 -21v-168q143 -22 237.5 -109.5t130.5 -226.5q2 -8 2 -20t-14 -12h-125q-24 0 -29 18q-48 157 -202 195v-746q154 38 202 195q5 18 29 18h125q14 0 14 -12q0 -13 -2 -21q-36 -141 -130.5 -228.5 t-237.5 -107.5v-168q0 -20 -21 -20h-131q-20 0 -20 20v168q-191 29 -302.5 174t-111.5 355zM293 717q0 -144 67 -243.5t179 -129.5v743q-112 -30 -179 -128.5t-67 -241.5z" />
<glyph unicode="&#xa3;" d="M166 657v119q0 21 20 21h105q-43 118 -43 229q0 194 125 311t317 117q104 0 188 -32t137.5 -87.5t82 -128.5t28.5 -157q0 -21 -20 -21h-131q-21 0 -21 21q0 102 -74 171.5t-190 69.5q-125 0 -197.5 -70t-72.5 -194q0 -69 12 -117t39 -112h467q20 0 20 -21v-119 q0 -20 -20 -20h-428q6 -38 6 -78q0 -211 -137 -395h747q21 0 21 -21v-123q0 -20 -21 -20h-907q-20 0 -20 20v144q0 20 16 41q70 92 99.5 170t29.5 194q0 33 -6 68h-152q-20 0 -20 20z" />
<glyph unicode="&#xa4;" d="M176 274q0 7 8 15l103 100q-64 100 -64 225q0 126 64 226l-103 100q-8 8 -8 14q0 7 8 15l78 78q8 8 14 8q7 0 15 -8l100 -101q97 66 225 66q129 0 226 -66l100 101q8 8 14 8q7 0 15 -8l78 -78q8 -8 8 -15q0 -6 -8 -14l-103 -100q64 -100 64 -226q0 -125 -64 -225 l103 -100q8 -8 8 -15q0 -6 -8 -14l-78 -78q-8 -8 -15 -8q-6 0 -14 8l-100 101q-97 -66 -226 -66q-128 0 -225 66l-100 -101q-8 -8 -15 -8q-6 0 -14 8l-78 78q-8 8 -8 14zM375 614q0 -117 65.5 -187.5t175.5 -70.5t176 70.5t66 187.5t-66 187.5t-176 70.5t-175.5 -70.5 t-65.5 -187.5z" />
<glyph unicode="&#xa5;" d="M72 1421q0 13 12 13h166q12 0 22 -17l344 -635l345 635q10 17 22 17h166q12 0 12 -13q0 -4 -2 -8l-366 -649h237q21 0 21 -21v-118q0 -21 -21 -21h-328v-145h273q20 0 20 -21v-119q0 -20 -20 -20h-273v-279q0 -20 -20 -20h-131q-21 0 -21 20v279h-272q-20 0 -20 20v119 q0 21 20 21h272v145h-327q-21 0 -21 21v118q0 21 21 21h237l-366 649q-2 4 -2 8z" />
<glyph unicode="&#xa6;" d="M530 -184v757q0 21 21 21h131q20 0 20 -21v-757q0 -21 -20 -21h-131q-21 0 -21 21zM530 860v758q0 20 21 20h131q20 0 20 -20v-758q0 -20 -20 -20h-131q-21 0 -21 20z" />
<glyph unicode="&#xa7;" d="M221 594q0 78 29 134t98 114q-65 59 -96 123t-31 145q0 84 34.5 151t92.5 108t129.5 63t149.5 22q191 0 307.5 -112.5t116.5 -272.5q0 -20 -21 -20h-131q-20 0 -20 20q0 97 -69 159t-183 62q-100 0 -167 -44.5t-67 -135.5q0 -33 11.5 -61t29 -50.5t57.5 -52.5t76.5 -53.5 t106.5 -65.5q53 -32 73 -44.5t63 -39.5t59 -38.5l48 -34.5t43.5 -36t32.5 -34.5t28.5 -38t17.5 -38t13 -43t3 -46.5q0 -78 -29 -134t-98 -114q65 -59 96 -123t31 -145q0 -84 -34.5 -151t-92.5 -108t-129.5 -63t-149.5 -22q-191 0 -307.5 112.5t-116.5 272.5q0 21 21 21h131 q20 0 20 -21q0 -97 69 -159t183 -62q100 0 167 44.5t67 135.5q0 33 -11.5 61t-29 50.5t-57.5 52.5t-76.5 53.5t-106.5 65.5q-53 32 -73 44.5t-63 39.5t-59 38.5l-48 34.5t-43.5 36t-32.5 34.5t-28.5 38t-17.5 38t-13 43t-3 46.5zM393 612q0 -60 78.5 -124t319.5 -203 q47 27 69.5 57.5t22.5 73.5q0 60 -78.5 124t-319.5 203q-47 -27 -69.5 -57.5t-22.5 -73.5z" />
<glyph unicode="&#xa8;" d="M340 1241v172q0 21 20 21h172q21 0 21 -21v-172q0 -20 -21 -20h-172q-20 0 -20 20zM680 1241v172q0 21 20 21h172q21 0 21 -21v-172q0 -20 -21 -20h-172q-20 0 -20 20z" />
<glyph unicode="&#xa9;" d="M111 700q0 123 43.5 225.5t115.5 167.5t161.5 100.5t184.5 35.5q76 0 149 -22t137.5 -66.5t113.5 -107t77.5 -148.5t28.5 -185q0 -123 -43.5 -225t-116 -167t-162 -100.5t-184.5 -35.5t-184.5 35.5t-161.5 100.5t-115.5 167t-43.5 225zM207 700q0 -106 35 -191.5 t93.5 -138t130.5 -80.5t150 -28t150 28t131 80.5t94 138t35 191.5t-35 191.5t-94 138.5t-131 81t-150 28t-150 -28t-130.5 -81t-93.5 -138.5t-35 -191.5zM358 700q0 75 22.5 136t59.5 98.5t82 57.5t94 20q94 0 158 -52.5t76 -146.5q0 -14 -14 -14h-50q-15 0 -18 14 q-27 121 -152 121q-75 0 -123.5 -60.5t-48.5 -173.5q0 -112 48.5 -171.5t123.5 -59.5q125 0 152 121q3 14 18 14h50q14 0 14 -14q-12 -94 -76 -146.5t-158 -52.5q-104 0 -181 81.5t-77 227.5z" />
<glyph unicode="&#xaa;" d="M262 1051q0 177 98 288t242 111q167 0 250 -102v71q0 15 16 15h88q15 0 15 -15v-737q0 -14 -15 -14h-88q-16 0 -16 14v72q-83 -103 -250 -103q-144 0 -242 111.5t-98 288.5zM387 1051q0 -123 63 -204t175 -81q113 0 176 77t63 208t-63 207.5t-176 76.5q-112 0 -175 -80.5 t-63 -203.5z" />
<glyph unicode="&#xab;" d="M143 504v114q0 19 21 37l440 387q7 7 12 7q13 0 13 -15v-172q0 -20 -15 -33l-307 -268l307 -268q15 -13 15 -33v-172q0 -14 -13 -14q-6 0 -12 6l-440 387q-21 18 -21 37zM573 504v114q0 19 21 37l440 387q7 7 13 7q12 0 12 -15v-172q0 -20 -15 -33l-307 -268l307 -268 q15 -13 15 -33v-172q0 -14 -12 -14q-7 0 -13 6l-440 387q-21 18 -21 37z" />
<glyph unicode="&#xac;" d="M182 598v102q0 21 21 21h794q21 0 21 -21v-378q0 -21 -21 -21h-118q-21 0 -21 21v256h-655q-21 0 -21 20z" />
<glyph unicode="&#xad;" d="M231 641v119q0 20 21 20h729q20 0 20 -20v-119q0 -20 -20 -20h-729q-21 0 -21 20z" />
<glyph unicode="&#xae;" d="M111 700q0 123 43.5 225.5t115.5 167.5t161.5 100.5t184.5 35.5q76 0 149 -22t137.5 -66.5t113.5 -107t77.5 -148.5t28.5 -185q0 -123 -43.5 -225t-116 -167t-162 -100.5t-184.5 -35.5t-184.5 35.5t-161.5 100.5t-115.5 167t-43.5 225zM207 700q0 -106 35 -191.5 t93.5 -138t130.5 -80.5t150 -28t150 28t131 80.5t94 138t35 191.5t-35 191.5t-94 138.5t-131 81t-150 28t-150 -28t-130.5 -81t-93.5 -138.5t-35 -191.5zM442 412v579q0 15 15 15h180q91 0 141.5 -43.5t50.5 -124.5q0 -65 -34 -105.5t-88 -56.5l131 -264q2 -4 2 -9 q0 -6 -9 -6h-63q-14 0 -20 13l-130 258h-94v-256q0 -15 -14 -15h-53q-15 0 -15 15zM524 745h121q52 0 77.5 25t25.5 68q0 42 -25.5 66t-77.5 24h-121v-183z" />
<glyph unicode="&#xaf;" d="M397 1241v102q0 21 21 21h397q21 0 21 -21v-102q0 -20 -21 -20h-397q-21 0 -21 20z" />
<glyph unicode="&#xb0;" d="M250 1106q0 154 104 251t262 97t262.5 -97t104.5 -251t-104.5 -251t-262.5 -97t-262 97t-104 251zM393 1106q0 -100 63.5 -160.5t159.5 -60.5t160 60.5t64 160.5t-64 160.5t-160 60.5t-159.5 -60.5t-63.5 -160.5z" />
<glyph unicode="&#xb1;" d="M176 20v119q0 21 21 21h839q21 0 21 -21v-119q0 -20 -21 -20h-839q-21 0 -21 20zM176 674v119q0 20 21 20h340v340q0 21 20 21h119q20 0 20 -21v-340h340q21 0 21 -20v-119q0 -21 -21 -21h-340v-340q0 -20 -20 -20h-119q-20 0 -20 20v340h-340q-21 0 -21 21z" />
<glyph unicode="&#xb2;" d="M371 688v62q0 18 12 28l311 271q82 70 82 155q0 57 -33 94t-94 37q-64 0 -101.5 -38t-45.5 -95q-3 -20 -21 -20h-80q-20 0 -20 20q3 103 77 173.5t191 70.5q114 0 180 -69.5t66 -170.5q0 -74 -28 -128t-87 -103l-229 -197h354q21 0 21 -20v-70q0 -20 -21 -20h-514 q-20 0 -20 20z" />
<glyph unicode="&#xb3;" d="M328 891q0 20 20 20h78q17 0 20 -20q20 -125 150 -125q63 0 105 32t42 93q0 59 -39 91t-108 32h-57q-21 0 -21 20v70q0 20 21 20h41q64 0 99.5 29.5t35.5 89.5q0 43 -33.5 71.5t-85.5 28.5q-48 0 -82 -27.5t-43 -80.5q-2 -9 -6 -12.5t-14 -3.5h-72q-21 0 -21 18 q3 90 69.5 149.5t168.5 59.5q103 0 168 -57.5t65 -133.5q0 -114 -92 -172q53 -23 89 -71t36 -121q0 -105 -77 -170.5t-187 -65.5q-107 0 -188 67t-82 169z" />
<glyph unicode="&#xb4;" d="M424 1147q0 4 2 8l135 258q12 21 31 21h207q12 0 12 -11q0 -4 -4 -10l-203 -260q-15 -18 -37 -18h-131q-12 0 -12 12z" />
<glyph unicode="&#xb6;" d="M59 1085q0 161 101.5 255t281.5 94h662q20 0 20 -21v-123q0 -20 -20 -20h-121v-1454q0 -21 -20 -21h-132q-20 0 -20 21v1454h-152v-1454q0 -21 -20 -21h-131q-21 0 -21 21v923h-45q-180 0 -281.5 93t-101.5 253z" />
<glyph unicode="&#xb7;" d="M492 612v209q0 21 20 21h209q20 0 20 -21v-209q0 -20 -20 -20h-209q-20 0 -20 20z" />
<glyph unicode="&#xb8;" d="M397 -326q0 21 21 21q4 0 69 -11.5t125 -11.5q42 0 66 17t24 47q0 29 -24.5 46t-65.5 17q-68 0 -133 -14q-8 -2 -14 -2q-8 0 -14 6l-27 27q-4 4 -4 8q0 2 4 14l90 219q9 21 25 21h90q14 0 14 -10q0 -7 -2 -11l-98 -182q51 14 119 14q81 0 128.5 -39.5t47.5 -105.5 q0 -83 -56 -126.5t-164 -43.5q-115 0 -200 20q-12 3 -16.5 7t-4.5 14v59z" />
<glyph unicode="&#xb9;" d="M381 688v70q0 20 20 20h185v500l-158 -84q-12 -6 -20 -6q-17 0 -17 16v96q0 14 15 21l196 104q18 9 31 9h47q20 0 20 -21v-635h185q20 0 20 -20v-70q0 -20 -20 -20h-484q-20 0 -20 20z" />
<glyph unicode="&#xba;" d="M231 1051q0 180 108.5 289.5t276.5 109.5t276.5 -109.5t108.5 -289.5t-108.5 -290t-276.5 -110t-276.5 110t-108.5 290zM356 1051q0 -130 74 -207.5t186 -77.5t186.5 77.5t74.5 207.5t-74.5 207t-186.5 77t-186 -77t-74 -207z" />
<glyph unicode="&#xbb;" d="M174 88v172q0 21 14 33l308 268l-308 268q-14 12 -14 33v172q0 15 12 15q6 0 13 -7l440 -387q20 -17 20 -37v-114q0 -20 -20 -37l-440 -387q-6 -6 -13 -6q-12 0 -12 14zM604 88v172q0 21 14 33l308 268l-308 268q-14 12 -14 33v172q0 15 12 15q6 0 13 -7l440 -387 q21 -18 21 -37v-114q0 -19 -21 -37l-440 -387q-6 -6 -13 -6q-12 0 -12 14z" />
<glyph unicode="&#xbc;" d="M106 688v70q0 20 21 20h184v500l-157 -84q-12 -6 -21 -6q-16 0 -16 16v96q0 14 14 21l197 104q18 9 30 9h48q20 0 20 -21v-635h184q21 0 21 -20v-70q0 -20 -21 -20h-483q-21 0 -21 20zM283 129q0 6 8 14l803 832q8 8 14 8q8 0 16 -8l52 -51q8 -8 8 -15q0 -6 -8 -14 l-803 -832q-8 -8 -15 -8q-8 0 -16 8l-51 52q-8 8 -8 14zM530 -182q0 10 9 24l323 504q8 14 23 14h67q21 0 21 -20v-490h76q20 0 20 -20v-70q0 -20 -20 -20h-76v-125q0 -21 -21 -21h-73q-21 0 -21 21v125h-307q-21 0 -21 20v58zM680 -150h178v287z" />
<glyph unicode="&#xbd;" d="M106 688v70q0 20 21 20h184v500l-157 -84q-12 -6 -21 -6q-16 0 -16 16v96q0 14 14 21l197 104q18 9 30 9h48q20 0 20 -21v-635h184q21 0 21 -20v-70q0 -20 -21 -20h-483q-21 0 -21 20zM227 129q0 5 9 14l802 832q8 8 15 8q8 0 16 -8l51 -51q8 -8 8 -15q0 -6 -8 -14 l-803 -832q-8 -8 -14 -8q-8 0 -16 8l-51 52q-9 9 -9 14zM594 -324q0 19 12 29l312 270q81 69 81 156q0 57 -33 94t-94 37q-64 0 -101.5 -38t-45.5 -95q-3 -20 -20 -20h-80q-21 0 -21 20q3 103 77 173.5t191 70.5q114 0 180 -69.5t66 -170.5q0 -74 -27.5 -128t-86.5 -103 l-230 -197h354q21 0 21 -20v-70q0 -21 -21 -21h-514q-20 0 -20 21v61z" />
<glyph unicode="&#xbe;" d="M88 891q0 20 21 20h77q18 0 21 -20q20 -125 149 -125q63 0 105.5 32t42.5 93q0 59 -39.5 91t-108.5 32h-57q-20 0 -20 20v70q0 20 20 20h41q64 0 99.5 29.5t35.5 89.5q0 43 -33.5 71.5t-85.5 28.5q-48 0 -82 -27.5t-43 -80.5q-2 -9 -6 -12.5t-14 -3.5h-72q-20 0 -20 18 q3 90 69 149.5t168 59.5q103 0 168.5 -57.5t65.5 -133.5q0 -114 -92 -172q53 -23 89 -71t36 -121q0 -105 -77.5 -170.5t-187.5 -65.5q-107 0 -188 67t-82 169zM227 129q0 5 9 14l802 832q8 8 15 8q8 0 16 -8l51 -51q8 -8 8 -15q0 -6 -8 -14l-803 -832q-8 -8 -14 -8 q-8 0 -16 8l-51 52q-9 9 -9 14zM530 -182q0 10 9 24l323 504q8 14 23 14h67q21 0 21 -20v-490h76q20 0 20 -20v-70q0 -20 -20 -20h-76v-125q0 -21 -21 -21h-73q-21 0 -21 21v125h-307q-21 0 -21 20v58zM680 -150h178v287z" />
<glyph unicode="&#xbf;" d="M184 -45q0 60 19 111.5t48.5 89t66 71.5t73 66t66 64.5t48.5 74t19 88.5v109q0 20 21 20h131q20 0 20 -20v-94q0 -66 -19 -123t-48.5 -98t-66 -77t-73 -68t-66 -63.5t-48.5 -69.5t-19 -81q0 -97 69 -157t181 -60t192.5 63t94.5 179q3 20 20 20h127q21 0 21 -20 q-3 -82 -36 -155t-90.5 -129t-142.5 -89t-186 -33q-193 0 -307.5 104.5t-114.5 276.5zM489 807v201q0 20 21 20h201q20 0 20 -20v-201q0 -21 -20 -21h-201q-21 0 -21 21z" />
<glyph unicode="&#xc0;" d="M31 20q0 7 2 13l479 1380q2 7 3 9.5t3 6t5.5 4.5t8.5 1h168q10 0 14 -4.5t7 -16.5l479 -1380q2 -6 2 -13q0 -20 -22 -20h-140q-11 0 -16 4.5t-8 15.5l-133 396h-535l-131 -396q-3 -11 -8 -15.5t-16 -4.5h-140q-22 0 -22 20zM319 1829q0 10 13 10h207q19 0 30 -20 l136 -258q2 -4 2 -9q0 -12 -13 -12h-131q-21 0 -37 19l-202 260q-5 7 -5 10zM401 580h428l-213 641z" />
<glyph unicode="&#xc1;" d="M31 20q0 7 2 13l479 1380q2 7 3 9.5t3 6t5.5 4.5t8.5 1h168q10 0 14 -4.5t7 -16.5l479 -1380q2 -6 2 -13q0 -20 -22 -20h-140q-11 0 -16 4.5t-8 15.5l-133 396h-535l-131 -396q-3 -11 -8 -15.5t-16 -4.5h-140q-22 0 -22 20zM401 580h428l-213 641zM526 1552q0 5 2 9 l136 258q11 20 30 20h207q12 0 12 -10q0 -4 -4 -10l-202 -260q-16 -19 -37 -19h-131q-13 0 -13 12z" />
<glyph unicode="&#xc2;" d="M31 20q0 7 2 13l479 1380q2 7 3 9.5t3 6t5.5 4.5t8.5 1h168q10 0 14 -4.5t7 -16.5l479 -1380q2 -6 2 -13q0 -20 -22 -20h-140q-11 0 -16 4.5t-8 15.5l-133 396h-535l-131 -396q-3 -11 -8 -15.5t-16 -4.5h-140q-22 0 -22 20zM317 1550l5 11l206 262q13 16 31 16h115 q18 0 31 -16l206 -262q4 -5 4 -11q0 -10 -14 -10h-127q-18 0 -37 19l-121 122l-120 -122q-19 -19 -37 -19h-127q-15 0 -15 10zM401 580h428l-213 641z" />
<glyph unicode="&#xc3;" d="M31 20q0 7 2 13l479 1380q2 7 3 9.5t3 6t5.5 4.5t8.5 1h168q10 0 14 -4.5t7 -16.5l479 -1380q2 -6 2 -13q0 -20 -22 -20h-140q-11 0 -16 4.5t-8 15.5l-133 396h-535l-131 -396q-3 -11 -8 -15.5t-16 -4.5h-140q-22 0 -22 20zM266 1743q0 8 10 18q45 36 102.5 57t108.5 21 q44 0 76.5 -8.5t51.5 -21t36 -25t40.5 -21t53.5 -8.5q48 0 125 51q8 4 15 4q12 0 20 -16l58 -86q4 -6 4 -12q0 -8 -11 -19q-45 -36 -102.5 -57t-108.5 -21q-44 0 -76.5 8.5t-51.5 21t-36 25t-40.5 21t-53.5 8.5q-48 0 -125 -51q-8 -4 -14 -4q-10 0 -20 17l-58 86q-4 6 -4 12 zM401 580h428l-213 641z" />
<glyph unicode="&#xc4;" d="M31 20q0 7 2 13l479 1380q2 7 3 9.5t3 6t5.5 4.5t8.5 1h168q10 0 14 -4.5t7 -16.5l479 -1380q2 -6 2 -13q0 -20 -22 -20h-140q-11 0 -16 4.5t-8 15.5l-133 396h-535l-131 -396q-3 -11 -8 -15.5t-16 -4.5h-140q-22 0 -22 20zM340 1647v172q0 20 20 20h172q21 0 21 -20 v-172q0 -21 -21 -21h-172q-20 0 -20 21zM401 580h428l-213 641zM680 1647v172q0 20 20 20h172q21 0 21 -20v-172q0 -21 -21 -21h-172q-20 0 -20 21z" />
<glyph unicode="&#xc5;" d="M31 20q0 7 2 13l479 1380q2 7 3 9.5t3 6t5.5 4.5t8.5 1h168q10 0 14 -4.5t7 -16.5l479 -1380q2 -6 2 -13q0 -20 -22 -20h-140q-11 0 -16 4.5t-8 15.5l-133 396h-535l-131 -396q-3 -11 -8 -15.5t-16 -4.5h-140q-22 0 -22 20zM401 580h428l-213 641zM438 1708 q0 75 50 123.5t128 48.5t128.5 -48.5t50.5 -123.5t-50.5 -123.5t-128.5 -48.5t-128 48.5t-50 123.5zM537 1708q0 -38 22.5 -60t56.5 -22q35 0 57.5 22.5t22.5 59.5t-22.5 59.5t-57.5 22.5q-34 0 -56.5 -22t-22.5 -60z" />
<glyph unicode="&#xc6;" d="M-25 20q0 7 2 13l381 1380q3 12 7 16.5t14 4.5h778q21 0 21 -21v-123q0 -20 -21 -20h-463v-434h404q20 0 20 -21v-123q0 -20 -20 -20h-404v-508h484q20 0 20 -21v-123q0 -20 -20 -20h-635q-21 0 -21 20v396h-268l-100 -396q-6 -20 -25 -20h-131q-23 0 -23 20zM297 580 h225v690h-47z" />
<glyph unicode="&#xc7;" d="M94 717q0 180 43.5 322.5t120.5 232t178 136t219 46.5q212 0 349 -124t167 -361q0 -21 -22 -21h-125q-22 0 -25 21q-34 166 -111.5 243.5t-232.5 77.5q-181 0 -281 -147.5t-100 -425.5t100 -426t281 -148q159 0 234.5 77t109.5 245q3 20 25 20h125q12 0 17 -4t5 -16 q-30 -229 -159.5 -353t-331.5 -132l-55 -105q51 14 118 14q81 0 129 -39.5t48 -105.5q0 -83 -56 -126.5t-164 -43.5q-115 0 -200 20q-12 3 -16.5 7t-4.5 14v59q0 21 21 21q4 0 69 -11.5t125 -11.5q42 0 66 17t24 47q0 29 -24.5 46t-65.5 17q-68 0 -133 -14q-8 -2 -14 -2 q-9 0 -15 6l-26 27q-4 4 -4 8q0 2 4 14l59 150q-102 16 -187 69.5t-149 142.5t-99.5 221.5t-35.5 295.5z" />
<glyph unicode="&#xc8;" d="M178 20v1393q0 21 21 21h860q20 0 20 -21v-123q0 -20 -20 -20h-709v-434h645q21 0 21 -21v-123q0 -20 -21 -20h-645v-508h723q21 0 21 -21v-123q0 -20 -21 -20h-874q-21 0 -21 20zM389 1829q0 10 12 10h207q20 0 31 -20l135 -258q2 -4 2 -9q0 -12 -12 -12h-131 q-21 0 -37 19l-203 260q-4 6 -4 10z" />
<glyph unicode="&#xc9;" d="M178 20v1393q0 21 21 21h860q20 0 20 -21v-123q0 -20 -20 -20h-709v-434h645q21 0 21 -21v-123q0 -20 -21 -20h-645v-508h723q21 0 21 -21v-123q0 -20 -21 -20h-874q-21 0 -21 20zM498 1552q0 5 2 9l135 258q11 20 31 20h206q13 0 13 -10q0 -4 -4 -10l-203 -260 q-16 -19 -37 -19h-131q-12 0 -12 12z" />
<glyph unicode="&#xca;" d="M178 20v1393q0 21 21 21h860q20 0 20 -21v-123q0 -20 -20 -20h-709v-434h645q21 0 21 -21v-123q0 -20 -21 -20h-645v-508h723q21 0 21 -21v-123q0 -20 -21 -20h-874q-21 0 -21 20zM334 1550l4 11l207 262q13 16 30 16h115q18 0 31 -16l207 -262q4 -5 4 -11q0 -10 -14 -10 h-127q-18 0 -37 19l-121 122l-121 -122q-19 -19 -37 -19h-127q-14 0 -14 10z" />
<glyph unicode="&#xcb;" d="M178 20v1393q0 21 21 21h860q20 0 20 -21v-123q0 -20 -20 -20h-709v-434h645q21 0 21 -21v-123q0 -20 -21 -20h-645v-508h723q21 0 21 -21v-123q0 -20 -21 -20h-874q-21 0 -21 20zM369 1647v172q0 20 20 20h172q21 0 21 -20v-172q0 -21 -21 -21h-172q-20 0 -20 21z M709 1647v172q0 20 20 20h172q21 0 21 -20v-172q0 -21 -21 -21h-172q-20 0 -20 21z" />
<glyph unicode="&#xcc;" d="M176 20v123q0 21 21 21h333v1106h-313q-20 0 -20 20v123q0 21 20 21h799q20 0 20 -21v-123q0 -20 -20 -20h-314v-1106h334q21 0 21 -21v-123q0 -20 -21 -20h-839q-21 0 -21 20zM338 1829q0 10 12 10h207q20 0 31 -20l135 -258q2 -4 2 -9q0 -12 -12 -12h-131q-21 0 -37 19 l-203 260q-4 6 -4 10z" />
<glyph unicode="&#xcd;" d="M176 20v123q0 21 21 21h333v1106h-313q-20 0 -20 20v123q0 21 20 21h799q20 0 20 -21v-123q0 -20 -20 -20h-314v-1106h334q21 0 21 -21v-123q0 -20 -21 -20h-839q-21 0 -21 20zM510 1552q0 5 2 9l135 258q11 20 31 20h207q12 0 12 -10q0 -4 -4 -10l-203 -260 q-16 -19 -37 -19h-131q-12 0 -12 12z" />
<glyph unicode="&#xce;" d="M176 20v123q0 21 21 21h333v1106h-313q-20 0 -20 20v123q0 21 20 21h799q20 0 20 -21v-123q0 -20 -20 -20h-314v-1106h334q21 0 21 -21v-123q0 -20 -21 -20h-839q-21 0 -21 20zM317 1550l5 11l206 262q13 16 31 16h115q18 0 31 -16l206 -262q4 -5 4 -11q0 -10 -14 -10 h-127q-18 0 -37 19l-121 122l-120 -122q-19 -19 -37 -19h-127q-15 0 -15 10z" />
<glyph unicode="&#xcf;" d="M176 20v123q0 21 21 21h333v1106h-313q-20 0 -20 20v123q0 21 20 21h799q20 0 20 -21v-123q0 -20 -20 -20h-314v-1106h334q21 0 21 -21v-123q0 -20 -21 -20h-839q-21 0 -21 20zM340 1647v172q0 20 20 20h172q21 0 21 -20v-172q0 -21 -21 -21h-172q-20 0 -20 21zM680 1647 v172q0 20 20 20h172q21 0 21 -20v-172q0 -21 -21 -21h-172q-20 0 -20 21z" />
<glyph unicode="&#xd0;" d="M29 657v119q0 21 20 21h119v616q0 21 20 21h324q134 0 246.5 -43.5t199.5 -129t136 -225t49 -319.5t-49 -319.5t-136 -225t-199.5 -129t-246.5 -43.5h-324q-20 0 -20 20v617h-119q-20 0 -20 20zM340 164h170q213 0 333 137t120 416t-120 416t-333 137h-170v-473h254 q20 0 20 -21v-119q0 -20 -20 -20h-254v-473z" />
<glyph unicode="&#xd1;" d="M131 20v1393q0 21 21 21h165q26 0 33 -17l580 -1122v1118q0 21 20 21h131q21 0 21 -21v-1393q0 -20 -21 -20h-166q-25 0 -32 16l-580 1123v-1119q0 -20 -20 -20h-131q-21 0 -21 20zM274 1743q0 7 11 18q45 36 102.5 57t108.5 21q44 0 76.5 -8.5t51.5 -21t36 -25t40.5 -21 t53.5 -8.5q48 0 125 51q8 4 14 4q12 0 20 -16l58 -86q4 -6 4 -12q0 -9 -10 -19q-45 -36 -102.5 -57t-108.5 -21q-44 0 -76.5 8.5t-51.5 21t-36 25t-40.5 21t-53.5 8.5q-48 0 -125 -51q-8 -4 -15 -4q-10 0 -20 17l-57 86q-5 7 -5 12z" />
<glyph unicode="&#xd2;" d="M78 717q0 347 148 542t390 195t390.5 -195t148.5 -542t-148.5 -542t-390.5 -195t-390 195t-148 542zM258 717q0 -289 92.5 -431.5t265.5 -142.5t266 142.5t93 431.5t-93 431t-266 142t-265.5 -142t-92.5 -431zM330 1829q0 10 12 10h207q20 0 31 -20l135 -258q2 -4 2 -9 q0 -12 -12 -12h-132q-20 0 -36 19l-203 260q-4 6 -4 10z" />
<glyph unicode="&#xd3;" d="M78 717q0 347 148 542t390 195t390.5 -195t148.5 -542t-148.5 -542t-390.5 -195t-390 195t-148 542zM258 717q0 -289 92.5 -431.5t265.5 -142.5t266 142.5t93 431.5t-93 431t-266 142t-265.5 -142t-92.5 -431zM498 1552q0 5 2 9l135 258q11 20 31 20h206q13 0 13 -10 q0 -4 -4 -10l-203 -260q-16 -19 -37 -19h-131q-12 0 -12 12z" />
<glyph unicode="&#xd4;" d="M78 717q0 347 148 542t390 195t390.5 -195t148.5 -542t-148.5 -542t-390.5 -195t-390 195t-148 542zM258 717q0 -289 92.5 -431.5t265.5 -142.5t266 142.5t93 431.5t-93 431t-266 142t-265.5 -142t-92.5 -431zM317 1550l5 11l206 262q13 16 31 16h115q18 0 31 -16 l206 -262q4 -5 4 -11q0 -10 -14 -10h-127q-18 0 -37 19l-121 122l-120 -122q-19 -19 -37 -19h-127q-15 0 -15 10z" />
<glyph unicode="&#xd5;" d="M78 717q0 347 148 542t390 195t390.5 -195t148.5 -542t-148.5 -542t-390.5 -195t-390 195t-148 542zM258 717q0 -289 92.5 -431.5t265.5 -142.5t266 142.5t93 431.5t-93 431t-266 142t-265.5 -142t-92.5 -431zM266 1743q0 8 10 18q45 36 102.5 57t108.5 21 q44 0 76.5 -8.5t51.5 -21t36 -25t40.5 -21t53.5 -8.5q48 0 125 51q8 4 15 4q12 0 20 -16l58 -86q4 -6 4 -12q0 -8 -11 -19q-45 -36 -102.5 -57t-108.5 -21q-44 0 -76.5 8.5t-51.5 21t-36 25t-40.5 21t-53.5 8.5q-48 0 -125 -51q-8 -4 -14 -4q-10 0 -20 17l-58 86q-4 6 -4 12 z" />
<glyph unicode="&#xd6;" d="M78 717q0 347 148 542t390 195t390.5 -195t148.5 -542t-148.5 -542t-390.5 -195t-390 195t-148 542zM258 717q0 -289 92.5 -431.5t265.5 -142.5t266 142.5t93 431.5t-93 431t-266 142t-265.5 -142t-92.5 -431zM340 1647v172q0 20 20 20h172q21 0 21 -20v-172 q0 -21 -21 -21h-172q-20 0 -20 21zM680 1647v172q0 20 20 20h172q21 0 21 -20v-172q0 -21 -21 -21h-172q-20 0 -20 21z" />
<glyph unicode="&#xd7;" d="M254 446q0 7 8 15l242 239l-242 240q-8 8 -8 14q0 9 8 17l84 84q8 8 16 8q7 0 15 -8l239 -242l240 242q8 8 14 8q9 0 17 -8l84 -84q8 -8 8 -17q0 -6 -8 -14l-242 -240l242 -239q8 -8 8 -15q0 -8 -8 -16l-84 -84q-8 -8 -17 -8q-6 0 -14 8l-240 242l-239 -242q-8 -8 -15 -8 q-8 0 -16 8l-84 84q-8 8 -8 16z" />
<glyph unicode="&#xd8;" d="M78 717q0 347 148 542t390 195q181 0 308 -106l77 131q7 12 17 12q4 0 12 -4l55 -33q13 -8 13 -16q0 -5 -4 -13l-93 -157q154 -201 154 -551q0 -347 -148.5 -542t-390.5 -195q-180 0 -307 106l-78 -131q-7 -12 -16 -12q-4 0 -12 4l-56 33q-12 7 -12 16q0 4 4 12l92 158 q-153 199 -153 551zM258 717q0 -250 68 -389l514 874q-88 88 -224 88q-173 0 -265.5 -142t-92.5 -431zM393 231q88 -88 223 -88q173 0 266 142.5t93 431.5q0 250 -68 389z" />
<glyph unicode="&#xd9;" d="M135 485v928q0 21 21 21h131q20 0 20 -21v-905q0 -365 309 -365q310 0 310 365v905q0 21 20 21h131q21 0 21 -21v-928q0 -116 -37 -212t-101.5 -160t-152.5 -98.5t-191 -34.5q-138 0 -246 59.5t-171.5 175t-63.5 270.5zM358 1829q0 10 13 10h207q19 0 30 -20l135 -258 q2 -4 2 -9q0 -12 -12 -12h-131q-21 0 -37 19l-203 260q-4 6 -4 10z" />
<glyph unicode="&#xda;" d="M135 485v928q0 21 21 21h131q20 0 20 -21v-905q0 -365 309 -365q310 0 310 365v905q0 21 20 21h131q21 0 21 -21v-928q0 -116 -37 -212t-101.5 -160t-152.5 -98.5t-191 -34.5q-138 0 -246 59.5t-171.5 175t-63.5 270.5zM475 1552q0 5 2 9l135 258q11 20 31 20h207 q12 0 12 -10q0 -4 -4 -10l-203 -260q-16 -19 -37 -19h-131q-12 0 -12 12z" />
<glyph unicode="&#xdb;" d="M135 485v928q0 21 21 21h131q20 0 20 -21v-905q0 -365 309 -365q310 0 310 365v905q0 21 20 21h131q21 0 21 -21v-928q0 -116 -37 -212t-101.5 -160t-152.5 -98.5t-191 -34.5q-138 0 -246 59.5t-171.5 175t-63.5 270.5zM317 1550l5 11l206 262q13 16 31 16h115 q18 0 31 -16l206 -262q4 -5 4 -11q0 -10 -14 -10h-127q-18 0 -37 19l-121 122l-120 -122q-19 -19 -37 -19h-127q-15 0 -15 10z" />
<glyph unicode="&#xdc;" d="M135 485v928q0 21 21 21h131q20 0 20 -21v-905q0 -365 309 -365q310 0 310 365v905q0 21 20 21h131q21 0 21 -21v-928q0 -116 -37 -212t-101.5 -160t-152.5 -98.5t-191 -34.5q-138 0 -246 59.5t-171.5 175t-63.5 270.5zM340 1647v172q0 20 20 20h172q21 0 21 -20v-172 q0 -21 -21 -21h-172q-20 0 -20 21zM680 1647v172q0 20 20 20h172q21 0 21 -20v-172q0 -21 -21 -21h-172q-20 0 -20 21z" />
<glyph unicode="&#xdd;" d="M80 1423q0 11 14 11h162q13 0 23 -17l337 -622l338 622q10 17 23 17h162q14 0 14 -11q0 -2 -4 -10l-447 -809v-584q0 -20 -20 -20h-131q-21 0 -21 20v584l-446 809q-4 8 -4 10zM498 1552q0 5 2 9l135 258q11 20 31 20h206q13 0 13 -10q0 -4 -4 -10l-203 -260 q-16 -19 -37 -19h-131q-12 0 -12 12z" />
<glyph unicode="&#xde;" d="M195 20v1393q0 21 20 21h131q21 0 21 -21v-297h309q223 0 347 -106t124 -293t-124 -293.5t-347 -106.5h-309v-297q0 -20 -21 -20h-131q-20 0 -20 20zM367 481h340q260 0 260 236q0 235 -260 235h-340v-471z" />
<glyph unicode="&#xdf;" d="M78 897v111q0 20 20 20h148v66q0 147 103.5 253.5t271.5 106.5q171 0 269.5 -87.5t98.5 -231.5q0 -59 -18.5 -106t-45 -76.5t-53 -54.5t-45 -51.5t-18.5 -55.5t18.5 -54t47.5 -45.5t64.5 -42t71 -50t64.5 -63t47.5 -86t18.5 -114.5q0 -159 -89 -257.5t-251 -98.5 q-133 0 -228 81t-96 203q0 21 21 21h118q18 0 21 -21q12 -61 55.5 -97t108.5 -36q80 0 126 51.5t46 149.5q0 52 -18 92t-46.5 65t-63 46t-69 43t-63 48t-46.5 68t-18 97q0 49 18.5 89t45 67t53 52t45 57.5t18.5 69.5q0 75 -55.5 126t-152.5 51q-102 0 -158.5 -64t-56.5 -186 v-1033q0 -20 -21 -20h-119q-20 0 -20 20v857h-148q-20 0 -20 20z" />
<glyph unicode="&#xe0;" d="M164 307q0 110 55.5 188t146 115t205.5 37q147 0 326 -43v51q0 120 -68 181t-196 61q-95 0 -162 -41t-96 -115q-7 -18 -29 -18h-131q-14 0 -14 12q0 13 2 21q32 124 143.5 208.5t286.5 84.5q202 0 313 -101t111 -268v-483q0 -69 7 -104t28 -73q2 -4 2 -10q0 -10 -17 -10 h-159q-21 0 -21 20v107q-54 -69 -148.5 -108t-203.5 -39q-74 0 -141 20t-121.5 59t-86.5 103t-32 145zM332 307q0 -79 62.5 -127.5t168.5 -48.5q87 0 162 36.5t123.5 111.5t48.5 174q-173 43 -305 43q-112 0 -186 -49t-74 -140zM383 1423q0 11 12 11h207q19 0 31 -21 l135 -258q2 -4 2 -8q0 -12 -12 -12h-131q-22 0 -37 18l-203 260q-4 6 -4 10z" />
<glyph unicode="&#xe1;" d="M164 307q0 110 55.5 188t146 115t205.5 37q147 0 326 -43v51q0 120 -68 181t-196 61q-95 0 -162 -41t-96 -115q-7 -18 -29 -18h-131q-14 0 -14 12q0 13 2 21q32 124 143.5 208.5t286.5 84.5q202 0 313 -101t111 -268v-483q0 -69 7 -104t28 -73q2 -4 2 -10q0 -10 -17 -10 h-159q-21 0 -21 20v107q-54 -69 -148.5 -108t-203.5 -39q-74 0 -141 20t-121.5 59t-86.5 103t-32 145zM332 307q0 -79 62.5 -127.5t168.5 -48.5q87 0 162 36.5t123.5 111.5t48.5 174q-173 43 -305 43q-112 0 -186 -49t-74 -140zM489 1147q0 2 3 8l135 258q12 21 30 21h207 q13 0 13 -11q0 -3 -5 -10l-202 -260q-15 -18 -37 -18h-131q-13 0 -13 12z" />
<glyph unicode="&#xe2;" d="M164 307q0 110 55.5 188t146 115t205.5 37q147 0 326 -43v51q0 120 -68 181t-196 61q-95 0 -162 -41t-96 -115q-7 -18 -29 -18h-131q-14 0 -14 12q0 13 2 21q32 124 143.5 208.5t286.5 84.5q202 0 313 -101t111 -268v-483q0 -69 7 -104t28 -73q2 -4 2 -10q0 -10 -17 -10 h-159q-21 0 -21 20v107q-54 -69 -148.5 -108t-203.5 -39q-74 0 -141 20t-121.5 59t-86.5 103t-32 145zM332 307q0 -79 62.5 -127.5t168.5 -48.5q87 0 162 36.5t123.5 111.5t48.5 174q-173 43 -305 43q-112 0 -186 -49t-74 -140zM334 1145l4 10l207 262q14 17 30 17h115 q17 0 31 -17l207 -262q4 -4 4 -10q0 -10 -14 -10h-127q-19 0 -37 18l-121 123l-121 -123q-18 -18 -37 -18h-127q-14 0 -14 10z" />
<glyph unicode="&#xe3;" d="M164 307q0 110 55.5 188t146 115t205.5 37q147 0 326 -43v51q0 120 -68 181t-196 61q-95 0 -162 -41t-96 -115q-7 -18 -29 -18h-131q-14 0 -14 12q0 13 2 21q32 124 143.5 208.5t286.5 84.5q202 0 313 -101t111 -268v-483q0 -69 7 -104t28 -73q2 -4 2 -10q0 -10 -17 -10 h-159q-21 0 -21 20v107q-54 -69 -148.5 -108t-203.5 -39q-74 0 -141 20t-121.5 59t-86.5 103t-32 145zM293 1337q0 9 10 19q45 36 102.5 57t108.5 21q44 0 76.5 -8.5t51.5 -21t36 -25t40.5 -21t53.5 -8.5q48 0 125 51q8 4 14 4q13 0 21 -16l57 -86q4 -6 4 -13q0 -8 -10 -18 q-45 -36 -102.5 -57t-108.5 -21q-44 0 -76.5 8.5t-51.5 21t-36 25t-40.5 21t-53.5 8.5q-48 0 -125 -51q-8 -4 -14 -4q-11 0 -21 16l-57 86q-4 6 -4 12zM332 307q0 -79 62.5 -127.5t168.5 -48.5q87 0 162 36.5t123.5 111.5t48.5 174q-173 43 -305 43q-112 0 -186 -49 t-74 -140z" />
<glyph unicode="&#xe4;" d="M164 307q0 110 55.5 188t146 115t205.5 37q147 0 326 -43v51q0 120 -68 181t-196 61q-95 0 -162 -41t-96 -115q-7 -18 -29 -18h-131q-14 0 -14 12q0 13 2 21q32 124 143.5 208.5t286.5 84.5q202 0 313 -101t111 -268v-483q0 -69 7 -104t28 -73q2 -4 2 -10q0 -10 -17 -10 h-159q-21 0 -21 20v107q-54 -69 -148.5 -108t-203.5 -39q-74 0 -141 20t-121.5 59t-86.5 103t-32 145zM332 307q0 -79 62.5 -127.5t168.5 -48.5q87 0 162 36.5t123.5 111.5t48.5 174q-173 43 -305 43q-112 0 -186 -49t-74 -140zM362 1241v172q0 21 21 21h172q20 0 20 -21 v-172q0 -20 -20 -20h-172q-21 0 -21 20zM702 1241v172q0 21 21 21h172q20 0 20 -21v-172q0 -20 -20 -20h-172q-21 0 -21 20z" />
<glyph unicode="&#xe5;" d="M164 307q0 110 55.5 188t146 115t205.5 37q147 0 326 -43v51q0 120 -68 181t-196 61q-95 0 -162 -41t-96 -115q-7 -18 -29 -18h-131q-14 0 -14 12q0 13 2 21q32 124 143.5 208.5t286.5 84.5q202 0 313 -101t111 -268v-483q0 -69 7 -104t28 -73q2 -4 2 -10q0 -10 -17 -10 h-159q-21 0 -21 20v107q-54 -69 -148.5 -108t-203.5 -39q-74 0 -141 20t-121.5 59t-86.5 103t-32 145zM332 307q0 -79 62.5 -127.5t168.5 -48.5q87 0 162 36.5t123.5 111.5t48.5 174q-173 43 -305 43q-112 0 -186 -49t-74 -140zM455 1303q0 75 50 123.5t128 48.5t128 -48.5 t50 -123.5t-50 -124t-128 -49t-128 49t-50 124zM553 1303q0 -37 22.5 -59.5t57.5 -22.5t57.5 22.5t22.5 59.5t-22.5 59t-57.5 22t-57.5 -22t-22.5 -59z" />
<glyph unicode="&#xe6;" d="M94 295q0 82 36 145.5t97 100.5t135.5 56t157.5 19h12v277q-80 -8 -141 -48.5t-86 -103.5q-7 -18 -29 -18h-131q-14 0 -14 12q0 13 2 21q28 113 156.5 203t296.5 90h55q115 0 212.5 -43.5t162.5 -117t101 -170.5t36 -204v-29q0 -20 -20 -20h-441v-334q107 0 165.5 44 t96.5 144q7 19 29 19h133q14 0 14 -14q0 -9 -4 -21q-102 -323 -485 -323h-78q-141 0 -243.5 31.5t-164 103.5t-61.5 180zM262 295q0 -79 63.5 -121.5t186.5 -42.5h20v334q-130 0 -200 -44t-70 -126zM692 616h281q-25 129 -99 205t-182 76v-281z" />
<glyph unicode="&#xe7;" d="M145 514q0 153 60 273.5t174.5 191t265.5 70.5q179 0 297 -90.5t158 -251.5q2 -8 2 -21q0 -12 -15 -12h-124q-25 0 -29 18q-28 97 -103.5 151t-185.5 54q-147 0 -239.5 -106t-92.5 -277t92.5 -277t239.5 -106q110 0 185.5 54t103.5 151q4 18 29 18h124q15 0 15 -12 t-2 -20q-40 -159 -156.5 -250t-292.5 -92l-55 -105q51 14 119 14q81 0 128.5 -39.5t47.5 -105.5q0 -170 -219 -170q-116 0 -201 20q-11 3 -15.5 7t-4.5 14v59q0 21 20 21q4 0 69.5 -11.5t125.5 -11.5q42 0 66 17t24 47q0 29 -24.5 46t-65.5 17q-69 0 -134 -14q-8 -2 -14 -2 q-8 0 -14 6l-27 27q-4 4 -4 8q0 2 4 14l62 152q-183 33 -288.5 176t-105.5 348z" />
<glyph unicode="&#xe8;" d="M143 514q0 229 138 382t356 153q113 0 205.5 -43.5t151.5 -117.5t90.5 -170t31.5 -204v-29q0 -20 -20 -20h-781q13 -151 95.5 -242.5t226.5 -91.5q110 0 177 45.5t104 142.5q7 19 28 19h133q15 0 15 -14q0 -9 -4 -21q-111 -323 -453 -323q-155 0 -268.5 71.5t-169.5 191 t-56 271.5zM324 616h612q-25 126 -107 203.5t-192 77.5q-114 0 -201.5 -76.5t-111.5 -204.5zM410 1423q0 11 12 11h207q18 0 30 -21l136 -258q2 -4 2 -8q0 -12 -13 -12h-131q-22 0 -37 18l-202 260q-4 6 -4 10z" />
<glyph unicode="&#xe9;" d="M143 514q0 229 138 382t356 153q113 0 205.5 -43.5t151.5 -117.5t90.5 -170t31.5 -204v-29q0 -20 -20 -20h-781q13 -151 95.5 -242.5t226.5 -91.5q110 0 177 45.5t104 142.5q7 19 28 19h133q15 0 15 -14q0 -9 -4 -21q-111 -323 -453 -323q-155 0 -268.5 71.5t-169.5 191 t-56 271.5zM324 616h612q-25 126 -107 203.5t-192 77.5q-114 0 -201.5 -76.5t-111.5 -204.5zM512 1147q0 4 2 8l135 258q12 21 31 21h207q12 0 12 -11q0 -4 -4 -10l-203 -260q-15 -18 -37 -18h-131q-12 0 -12 12z" />
<glyph unicode="&#xea;" d="M143 514q0 229 138 382t356 153q113 0 205.5 -43.5t151.5 -117.5t90.5 -170t31.5 -204v-29q0 -20 -20 -20h-781q13 -151 95.5 -242.5t226.5 -91.5q110 0 177 45.5t104 142.5q7 19 28 19h133q15 0 15 -14q0 -9 -4 -21q-111 -323 -453 -323q-155 0 -268.5 71.5t-169.5 191 t-56 271.5zM324 616h612q-25 126 -107 203.5t-192 77.5q-114 0 -201.5 -76.5t-111.5 -204.5zM338 1145l4 10l207 262q14 17 31 17h114q17 0 31 -17l207 -262q4 -4 4 -10q0 -10 -14 -10h-127q-19 0 -37 18l-121 123l-121 -123q-18 -18 -37 -18h-127q-14 0 -14 10z" />
<glyph unicode="&#xeb;" d="M143 514q0 229 138 382t356 153q113 0 205.5 -43.5t151.5 -117.5t90.5 -170t31.5 -204v-29q0 -20 -20 -20h-781q13 -151 95.5 -242.5t226.5 -91.5q110 0 177 45.5t104 142.5q7 19 28 19h133q15 0 15 -14q0 -9 -4 -21q-111 -323 -453 -323q-155 0 -268.5 71.5t-169.5 191 t-56 271.5zM324 616h612q-25 126 -107 203.5t-192 77.5q-114 0 -201.5 -76.5t-111.5 -204.5zM360 1241v172q0 21 21 21h172q20 0 20 -21v-172q0 -20 -20 -20h-172q-21 0 -21 20zM700 1241v172q0 21 21 21h172q20 0 20 -21v-172q0 -20 -20 -20h-172q-21 0 -21 20z" />
<glyph unicode="&#xec;" d="M201 20v111q0 21 20 21h354v729h-303q-20 0 -20 20v107q0 20 20 20h443q20 0 20 -20v-856h355q20 0 20 -21v-111q0 -20 -20 -20h-869q-20 0 -20 20zM360 1423q0 11 13 11h207q18 0 30 -21l135 -258q3 -6 3 -8q0 -12 -13 -12h-131q-22 0 -37 18l-202 260q-5 7 -5 10z" />
<glyph unicode="&#xed;" d="M201 20v111q0 21 20 21h354v729h-303q-20 0 -20 20v107q0 20 20 20h443q20 0 20 -20v-856h355q20 0 20 -21v-111q0 -20 -20 -20h-869q-20 0 -20 20zM502 1147q0 4 2 8l135 258q12 21 31 21h207q12 0 12 -11q0 -4 -4 -10l-203 -260q-15 -18 -37 -18h-131q-12 0 -12 12z " />
<glyph unicode="&#xee;" d="M201 20v111q0 21 20 21h354v729h-303q-20 0 -20 20v107q0 20 20 20h443q20 0 20 -20v-856h355q20 0 20 -21v-111q0 -20 -20 -20h-869q-20 0 -20 20zM330 1145l4 10l207 262q14 17 30 17h115q17 0 31 -17l207 -262q4 -4 4 -10q0 -10 -15 -10h-127q-18 0 -36 18l-121 123 l-121 -123q-18 -18 -37 -18h-127q-14 0 -14 10z" />
<glyph unicode="&#xef;" d="M201 20v111q0 21 20 21h354v729h-303q-20 0 -20 20v107q0 20 20 20h443q20 0 20 -20v-856h355q20 0 20 -21v-111q0 -20 -20 -20h-869q-20 0 -20 20zM342 1241v172q0 21 20 21h173q20 0 20 -21v-172q0 -20 -20 -20h-173q-20 0 -20 20zM682 1241v172q0 21 20 21h172 q21 0 21 -21v-172q0 -20 -21 -20h-172q-20 0 -20 20z" />
<glyph unicode="&#xf0;" d="M100 514q0 242 135 388.5t351 146.5q187 0 288 -121q-35 157 -172 241l-217 -84q-6 -2 -12 -2q-9 0 -14 13l-37 96q-2 6 -2 10q0 11 14 17l107 41q-68 24 -205 38q-17 3 -17 25l19 107q2 14 29 14q214 -19 378 -109l191 76q8 2 12 2q10 0 15 -12l36 -96q2 -7 2 -11 q0 -10 -14 -16l-115 -45q99 -101 155 -263t56 -349q0 -166 -38 -291.5t-106 -200.5t-155 -112t-192 -37q-209 0 -350.5 147.5t-141.5 386.5zM268 514q0 -176 83.5 -279.5t240.5 -103.5q146 0 234.5 102.5t88.5 280.5q0 174 -89 278.5t-234 104.5q-157 0 -240.5 -103.5 t-83.5 -279.5z" />
<glyph unicode="&#xf1;" d="M213 20v988q0 20 20 20h119q21 0 21 -20v-123q59 70 150.5 117t197.5 47q165 0 251.5 -90.5t86.5 -249.5v-689q0 -20 -21 -20h-118q-21 0 -21 20v658q0 109 -49.5 164t-161.5 55q-134 0 -224.5 -98t-90.5 -258v-521q0 -20 -21 -20h-119q-20 0 -20 20zM287 1337q0 9 10 19 q45 36 102.5 57t108.5 21q44 0 76.5 -8.5t51.5 -21t36 -25t40.5 -21t53.5 -8.5q48 0 125 51q8 4 14 4q13 0 21 -16l57 -86q4 -6 4 -13q0 -8 -10 -18q-45 -36 -102.5 -57t-108.5 -21q-44 0 -76.5 8.5t-51.5 21t-36 25t-40.5 21t-53.5 8.5q-48 0 -125 -51q-8 -4 -14 -4 q-11 0 -21 16l-57 86q-4 6 -4 12z" />
<glyph unicode="&#xf2;" d="M104 514q0 239 144 387t368 148t368 -148t144 -387t-144 -386.5t-368 -147.5t-368 147.5t-144 386.5zM272 514q0 -168 96 -275.5t248 -107.5t248.5 107.5t96.5 275.5t-96.5 275.5t-248.5 107.5t-248 -107.5t-96 -275.5zM375 1423q0 11 12 11h207q19 0 31 -21l135 -258 q2 -4 2 -8q0 -12 -12 -12h-132q-21 0 -36 18l-203 260q-4 6 -4 10z" />
<glyph unicode="&#xf3;" d="M104 514q0 239 144 387t368 148t368 -148t144 -387t-144 -386.5t-368 -147.5t-368 147.5t-144 386.5zM272 514q0 -168 96 -275.5t248 -107.5t248.5 107.5t96.5 275.5t-96.5 275.5t-248.5 107.5t-248 -107.5t-96 -275.5zM487 1147q0 4 2 8l136 258q12 21 30 21h207 q12 0 12 -11q0 -4 -4 -10l-202 -260q-15 -18 -37 -18h-131q-13 0 -13 12z" />
<glyph unicode="&#xf4;" d="M104 514q0 239 144 387t368 148t368 -148t144 -387t-144 -386.5t-368 -147.5t-368 147.5t-144 386.5zM272 514q0 -168 96 -275.5t248 -107.5t248.5 107.5t96.5 275.5t-96.5 275.5t-248.5 107.5t-248 -107.5t-96 -275.5zM317 1145l5 10l206 262q14 17 31 17h115 q17 0 31 -17l206 -262q4 -4 4 -10q0 -10 -14 -10h-127q-19 0 -37 18l-121 123l-120 -123q-18 -18 -37 -18h-127q-15 0 -15 10z" />
<glyph unicode="&#xf5;" d="M104 514q0 239 144 387t368 148t368 -148t144 -387t-144 -386.5t-368 -147.5t-368 147.5t-144 386.5zM266 1337q0 9 10 19q45 36 102.5 57t108.5 21q44 0 76.5 -8.5t51.5 -21t36 -25t40.5 -21t53.5 -8.5q48 0 125 51q8 4 15 4q12 0 20 -16l58 -86q4 -6 4 -13t-11 -18 q-45 -36 -102.5 -57t-108.5 -21q-44 0 -76.5 8.5t-51.5 21t-36 25t-40.5 21t-53.5 8.5q-48 0 -125 -51q-8 -4 -14 -4q-10 0 -20 16l-58 86q-4 6 -4 12zM272 514q0 -168 96 -275.5t248 -107.5t248.5 107.5t96.5 275.5t-96.5 275.5t-248.5 107.5t-248 -107.5t-96 -275.5z" />
<glyph unicode="&#xf6;" d="M104 514q0 239 144 387t368 148t368 -148t144 -387t-144 -386.5t-368 -147.5t-368 147.5t-144 386.5zM272 514q0 -168 96 -275.5t248 -107.5t248.5 107.5t96.5 275.5t-96.5 275.5t-248.5 107.5t-248 -107.5t-96 -275.5zM340 1241v172q0 21 20 21h172q21 0 21 -21v-172 q0 -20 -21 -20h-172q-20 0 -20 20zM680 1241v172q0 21 20 21h172q21 0 21 -21v-172q0 -20 -21 -20h-172q-20 0 -20 20z" />
<glyph unicode="&#xf7;" d="M176 506v119q0 20 21 20h839q21 0 21 -20v-119q0 -21 -21 -21h-839q-21 0 -21 21zM492 102v209q0 21 20 21h209q20 0 20 -21v-209q0 -20 -20 -20h-209q-20 0 -20 20zM492 819v209q0 21 20 21h209q20 0 20 -21v-209q0 -20 -20 -20h-209q-20 0 -20 20z" />
<glyph unicode="&#xf8;" d="M104 514q0 239 144 387t368 148q120 0 226 -45l49 83q8 13 16 13q5 0 13 -4l55 -33q12 -7 12 -16q0 -5 -4 -13l-51 -86q93 -71 144.5 -183t51.5 -251q0 -239 -144 -386.5t-368 -147.5q-119 0 -225 45l-49 -84q-8 -13 -16 -13q-5 0 -13 4l-55 33q-12 7 -12 17q0 4 4 12 l51 86q-94 72 -145.5 183.5t-51.5 250.5zM272 514q0 -182 111 -293l379 645q-67 31 -146 31q-152 0 -248 -107.5t-96 -275.5zM471 162q67 -31 145 -31q152 0 248.5 107.5t96.5 275.5q0 182 -111 293z" />
<glyph unicode="&#xf9;" d="M180 319v689q0 20 21 20h118q21 0 21 -20v-658q0 -109 49.5 -164t161.5 -55q134 0 224.5 98t90.5 258v521q0 20 21 20h119q20 0 20 -20v-988q0 -20 -20 -20h-119q-21 0 -21 20v123q-59 -70 -150.5 -116.5t-197.5 -46.5q-165 0 -251.5 90t-86.5 249zM379 1423q0 11 12 11 h207q19 0 31 -21l135 -258q2 -4 2 -8q0 -12 -12 -12h-131q-22 0 -37 18l-203 260q-4 6 -4 10z" />
<glyph unicode="&#xfa;" d="M180 319v689q0 20 21 20h118q21 0 21 -20v-658q0 -109 49.5 -164t161.5 -55q134 0 224.5 98t90.5 258v521q0 20 21 20h119q20 0 20 -20v-988q0 -20 -20 -20h-119q-21 0 -21 20v123q-59 -70 -150.5 -116.5t-197.5 -46.5q-165 0 -251.5 90t-86.5 249zM442 1147q0 4 2 8 l136 258q12 21 30 21h207q12 0 12 -11q0 -4 -4 -10l-202 -260q-15 -18 -37 -18h-131q-13 0 -13 12z" />
<glyph unicode="&#xfb;" d="M180 319v689q0 20 21 20h118q21 0 21 -20v-658q0 -109 49.5 -164t161.5 -55q134 0 224.5 98t90.5 258v521q0 20 21 20h119q20 0 20 -20v-988q0 -20 -20 -20h-119q-21 0 -21 20v123q-59 -70 -150.5 -116.5t-197.5 -46.5q-165 0 -251.5 90t-86.5 249zM305 1145l4 10 l207 262q14 17 31 17h115q16 0 30 -17l207 -262q4 -4 4 -10q0 -10 -14 -10h-127q-19 0 -37 18l-121 123l-121 -123q-18 -18 -37 -18h-127q-14 0 -14 10z" />
<glyph unicode="&#xfc;" d="M180 319v689q0 20 21 20h118q21 0 21 -20v-658q0 -109 49.5 -164t161.5 -55q134 0 224.5 98t90.5 258v521q0 20 21 20h119q20 0 20 -20v-988q0 -20 -20 -20h-119q-21 0 -21 20v123q-59 -70 -150.5 -116.5t-197.5 -46.5q-165 0 -251.5 90t-86.5 249zM326 1241v172 q0 21 20 21h172q21 0 21 -21v-172q0 -20 -21 -20h-172q-20 0 -20 20zM666 1241v172q0 21 20 21h172q21 0 21 -21v-172q0 -20 -21 -20h-172q-20 0 -20 20z" />
<glyph unicode="&#xfd;" d="M141 1012q0 16 17 16h147q21 0 27 -20l321 -777l305 777q5 11 10.5 15.5t18.5 4.5h141q17 0 17 -14q0 -3 -4 -15l-441 -1099q-69 -174 -149 -250t-195 -76q-77 0 -151 33q-21 12 -21 33v110q0 21 17 21q12 0 30 -11t47.5 -22.5t69.5 -11.5q72 0 112 56.5t101 213.5l4 12 l-420 987q-4 12 -4 17zM522 1147q0 4 2 8l135 258q12 21 31 21h207q12 0 12 -11q0 -4 -4 -10l-203 -260q-15 -18 -36 -18h-131q-13 0 -13 12z" />
<glyph unicode="&#xfe;" d="M197 -385v1798q0 21 20 21h119q20 0 20 -21v-502q57 57 147.5 97.5t178.5 40.5q204 0 328.5 -145.5t124.5 -389.5t-124.5 -389t-328.5 -145q-103 0 -190.5 37.5t-135.5 99.5v-502q0 -21 -20 -21h-119q-20 0 -20 21zM340 514q0 -166 83 -274.5t226 -108.5 q147 0 232.5 108.5t85.5 274.5t-85.5 274.5t-232.5 108.5q-143 0 -226 -108.5t-83 -274.5z" />
<glyph unicode="&#xff;" d="M141 1012q0 16 17 16h147q21 0 27 -20l321 -777l305 777q5 11 10.5 15.5t18.5 4.5h141q17 0 17 -14q0 -3 -4 -15l-441 -1099q-69 -174 -149 -250t-195 -76q-77 0 -151 33q-21 12 -21 33v110q0 21 17 21q12 0 30 -11t47.5 -22.5t69.5 -11.5q72 0 112 56.5t101 213.5l4 12 l-420 987q-4 12 -4 17zM377 1241v172q0 21 20 21h172q21 0 21 -21v-172q0 -20 -21 -20h-172q-20 0 -20 20zM717 1241v172q0 21 20 21h172q21 0 21 -21v-172q0 -20 -21 -20h-172q-20 0 -20 20z" />
<glyph unicode="&#x152;" d="M33 717q0 348 120.5 542.5t319.5 194.5q91 0 170 -20h541q20 0 20 -21v-123q0 -20 -20 -20h-385v-434h282q21 0 21 -21v-123q0 -20 -21 -20h-282v-508h399q21 0 21 -21v-123q0 -20 -21 -20h-555q-79 -20 -170 -20q-199 0 -319.5 194.5t-120.5 542.5zM213 717 q0 -286 72 -430t196 -144q45 0 75.5 7.5t70.5 27.5v1077q-40 20 -70.5 27.5t-75.5 7.5q-125 0 -196.5 -143.5t-71.5 -429.5z" />
<glyph unicode="&#x153;" d="M104 514q0 239 144 387t368 148q151 0 271.5 -74.5t185 -196t64.5 -264.5v-29q0 -20 -21 -20h-424v-334q94 10 150.5 54.5t95.5 133.5q7 19 29 19h133q14 0 14 -14q0 -9 -4 -21q-54 -157 -186.5 -240t-307.5 -83q-224 0 -368 147.5t-144 386.5zM272 514q0 -142 70.5 -244 t189.5 -131v750q-118 -28 -189 -130t-71 -245zM692 616h264q-19 110 -88.5 183.5t-175.5 93.5v-277z" />
<glyph unicode="&#x178;" d="M80 1423q0 11 14 11h162q13 0 23 -17l337 -622l338 622q10 17 23 17h162q14 0 14 -11q0 -2 -4 -10l-447 -809v-584q0 -20 -20 -20h-131q-21 0 -21 20v584l-446 809q-4 8 -4 10zM340 1647v172q0 20 20 20h172q21 0 21 -20v-172q0 -21 -21 -21h-172q-20 0 -20 21zM680 1647 v172q0 20 20 20h172q21 0 21 -20v-172q0 -21 -21 -21h-172q-20 0 -20 21z" />
<glyph unicode="&#x2c6;" d="M317 1145l5 10l206 262q14 17 31 17h115q17 0 31 -17l206 -262q4 -4 4 -10q0 -10 -14 -10h-127q-19 0 -37 18l-121 123l-120 -123q-18 -18 -37 -18h-127q-15 0 -15 10z" />
<glyph unicode="&#x2dc;" d="M266 1337q0 9 10 19q45 36 102.5 57t108.5 21q44 0 76.5 -8.5t51.5 -21t36 -25t40.5 -21t53.5 -8.5q48 0 125 51q8 4 15 4q12 0 20 -16l58 -86q4 -6 4 -13t-11 -18q-45 -36 -102.5 -57t-108.5 -21q-44 0 -76.5 8.5t-51.5 21t-36 25t-40.5 21t-53.5 8.5q-48 0 -125 -51 q-8 -4 -14 -4q-10 0 -20 16l-58 86q-4 6 -4 12z" />
<glyph unicode="&#x2000;" horiz-adv-x="940" />
<glyph unicode="&#x2001;" horiz-adv-x="1880" />
<glyph unicode="&#x2002;" horiz-adv-x="940" />
<glyph unicode="&#x2003;" horiz-adv-x="1880" />
<glyph unicode="&#x2004;" horiz-adv-x="626" />
<glyph unicode="&#x2005;" horiz-adv-x="470" />
<glyph unicode="&#x2006;" horiz-adv-x="313" />
<glyph unicode="&#x2007;" horiz-adv-x="313" />
<glyph unicode="&#x2008;" horiz-adv-x="235" />
<glyph unicode="&#x2009;" horiz-adv-x="376" />
<glyph unicode="&#x200a;" horiz-adv-x="104" />
<glyph unicode="&#x2010;" d="M231 641v119q0 20 21 20h729q20 0 20 -20v-119q0 -20 -20 -20h-729q-21 0 -21 20z" />
<glyph unicode="&#x2011;" d="M231 641v119q0 20 21 20h729q20 0 20 -20v-119q0 -20 -20 -20h-729q-21 0 -21 20z" />
<glyph unicode="&#x2012;" d="M231 641v119q0 20 21 20h729q20 0 20 -20v-119q0 -20 -20 -20h-729q-21 0 -21 20z" />
<glyph unicode="&#x2013;" d="M176 641v119q0 20 21 20h839q21 0 21 -20v-119q0 -20 -21 -20h-839q-21 0 -21 20z" />
<glyph unicode="&#x2014;" d="M96 641v119q0 20 21 20h999q21 0 21 -20v-119q0 -20 -21 -20h-999q-21 0 -21 20z" />
<glyph unicode="&#x2018;" d="M492 942v301q0 89 42 140t115 51h72q20 0 20 -21v-74q0 -20 -20 -20q-57 0 -75.5 -23t-18.5 -86v-39h94q20 0 20 -20v-209q0 -20 -20 -20h-209q-20 0 -20 20z" />
<glyph unicode="&#x2019;" d="M492 942v74q0 20 20 20q57 0 75.5 23t18.5 86v39h-94q-20 0 -20 20v209q0 21 20 21h209q20 0 20 -21v-301q0 -89 -41.5 -139.5t-115.5 -50.5h-72q-20 0 -20 20z" />
<glyph unicode="&#x201a;" d="M492 20v209q0 21 20 21h209q20 0 20 -21v-301q0 -89 -41.5 -139.5t-115.5 -50.5h-72q-20 0 -20 20v74q0 21 20 21q57 0 75.5 22.5t18.5 85.5v39h-94q-20 0 -20 20z" />
<glyph unicode="&#x201c;" d="M281 942v301q0 89 42 140t115 51h72q20 0 20 -21v-74q0 -20 -20 -20q-57 0 -75.5 -23t-18.5 -86v-39h94q20 0 20 -20v-209q0 -20 -20 -20h-209q-20 0 -20 20zM702 942v301q0 89 42 140t116 51h72q20 0 20 -21v-74q0 -20 -20 -20q-57 0 -75.5 -23t-18.5 -86v-39h94 q20 0 20 -20v-209q0 -20 -20 -20h-209q-21 0 -21 20z" />
<glyph unicode="&#x201d;" d="M281 942v74q0 20 20 20q57 0 75.5 23t18.5 86v39h-94q-20 0 -20 20v209q0 21 20 21h209q20 0 20 -21v-301q0 -89 -41.5 -139.5t-115.5 -50.5h-72q-20 0 -20 20zM702 942v74q0 20 21 20q57 0 75.5 23t18.5 86v39h-94q-21 0 -21 20v209q0 21 21 21h209q20 0 20 -21v-301 q0 -89 -41.5 -139.5t-115.5 -50.5h-72q-21 0 -21 20z" />
<glyph unicode="&#x201e;" d="M281 20v209q0 21 20 21h209q20 0 20 -21v-301q0 -89 -41.5 -139.5t-115.5 -50.5h-72q-20 0 -20 20v74q0 21 20 21q57 0 75.5 22.5t18.5 85.5v39h-94q-20 0 -20 20zM702 20v209q0 21 21 21h209q20 0 20 -21v-301q0 -89 -41.5 -139.5t-115.5 -50.5h-72q-21 0 -21 20v74 q0 21 21 21q57 0 75.5 22.5t18.5 85.5v39h-94q-21 0 -21 20z" />
<glyph unicode="&#x2022;" d="M356 668q0 107 76.5 183.5t183.5 76.5t184 -76.5t77 -183.5t-77 -183.5t-184 -76.5t-183.5 76.5t-76.5 183.5z" />
<glyph unicode="&#x2026;" d="M78 20v209q0 21 20 21h209q21 0 21 -21v-209q0 -20 -21 -20h-209q-20 0 -20 20zM492 20v209q0 21 20 21h209q20 0 20 -21v-209q0 -20 -20 -20h-209q-20 0 -20 20zM905 20v209q0 21 21 21h209q20 0 20 -21v-209q0 -20 -20 -20h-209q-21 0 -21 20z" />
<glyph unicode="&#x202f;" horiz-adv-x="376" />
<glyph unicode="&#x2039;" d="M352 504v114q0 19 21 37l440 387q7 7 12 7q13 0 13 -15v-172q0 -20 -15 -33l-307 -268l307 -268q15 -13 15 -33v-172q0 -14 -13 -14q-6 0 -12 6l-440 387q-21 18 -21 37z" />
<glyph unicode="&#x203a;" d="M395 88v172q0 20 15 33l307 268l-307 268q-15 13 -15 33v172q0 15 13 15q5 0 12 -7l440 -387q21 -18 21 -37v-114q0 -19 -21 -37l-440 -387q-6 -6 -12 -6q-13 0 -13 14z" />
<glyph unicode="&#x205f;" horiz-adv-x="470" />
<glyph unicode="&#x20ac;" d="M78 469v119q0 20 20 20h99q-4 35 -4 109q0 73 4 108h-99q-20 0 -20 21v119q0 20 20 20h121q49 225 175.5 347t305.5 122q209 0 339 -133.5t145 -353.5q0 -21 -21 -21h-127q-17 0 -20 21q-20 163 -102 245t-214 82q-110 0 -191 -76.5t-118 -232.5h406q20 0 20 -20v-119 q0 -21 -20 -21h-428q-4 -50 -4 -108q0 -59 4 -109h428q20 0 20 -20v-119q0 -20 -20 -20h-406q37 -157 118 -233.5t191 -76.5q133 0 214.5 82.5t101.5 245.5q3 20 20 20h127q21 0 21 -20q-15 -220 -145 -353.5t-339 -133.5q-179 0 -305.5 122t-175.5 347h-121q-20 0 -20 20z " />
<glyph unicode="&#x2122;" d="M23 1343v70q0 21 20 21h438q21 0 21 -21v-70q0 -20 -21 -20h-162v-635q0 -20 -20 -20h-74q-20 0 -20 20v635h-162q-20 0 -20 20zM580 688v725q0 21 20 21h125q19 0 25 -17l110 -307l111 307q6 17 24 17h125q21 0 21 -21v-725q0 -20 -21 -20h-73q-21 0 -21 20v582 l-119 -312q-6 -12 -16 -12h-62q-10 0 -16 12l-119 312v-582q0 -20 -20 -20h-74q-20 0 -20 20z" />
<glyph unicode="&#x25fc;" horiz-adv-x="1024" d="M0 0v1024h1024v-1024h-1024z" />
<glyph unicode="&#xfb01;" d="M63 897v111q0 20 21 20h160v90q0 146 79 241t226 95q121 0 211 -41q8 -4 11.5 -9t4 -10t0.5 -16v-108q0 -21 -14 -21q-6 0 -14 4q-67 31 -102 40.5t-85 9.5q-158 0 -158 -185v-90h349q20 0 20 -20v-111q0 -20 -20 -20h-349v-857q0 -20 -20 -20h-119q-20 0 -20 20v857 h-160q-21 0 -21 20zM918 1217v176q0 20 20 20h176q21 0 21 -20v-176q0 -21 -21 -21h-176q-20 0 -20 21zM961 20v988q0 20 20 20h119q20 0 20 -20v-988q0 -20 -20 -20h-119q-20 0 -20 20z" />
<glyph unicode="&#xfb02;" d="M63 897v111q0 20 21 20h160v90q0 146 79 241t226 95q121 0 211 -41q8 -4 11.5 -9t4 -10t0.5 -16v-108q0 -21 -14 -21q-6 0 -14 4q-67 31 -102 40.5t-85 9.5q-158 0 -158 -185v-90h349q20 0 20 -20v-111q0 -20 -20 -20h-349v-857q0 -20 -20 -20h-119q-20 0 -20 20v857 h-160q-21 0 -21 20zM961 20v1393q0 21 20 21h119q20 0 20 -21v-1393q0 -20 -20 -20h-119q-20 0 -20 20z" />
</font>
</defs>
</svg>
